<?xml version="1.0" standalone="no"?>
<!DOCTYPE svg PUBLIC "-//W3C//DTD SVG 1.1//EN" "http://www.w3.org/Graphics/SVG/1.1/DTD/svg11.dtd" >
<svg xmlns="http://www.w3.org/2000/svg" xmlns:xlink="http://www.w3.org/1999/xlink" version="1.1">
<metadata>
Created by FontForge 20170812 at Thu Mar  6 09:08:38 2014
 By www-data
Copyright (C) 1996, 2007 Hoefler &#38; Co. http://www.typography.com
</metadata>
<defs>
<font id="Verlag-LightItalic" horiz-adv-x="457" >
  <font-face 
    font-family="Verlag Light"
    font-weight="300"
    font-style="italic"
    font-stretch="normal"
    units-per-em="1000"
    panose-1="0 0 0 0 0 0 0 0 0 0"
    ascent="800"
    descent="-200"
    x-height="418"
    cap-height="733"
    bbox="-124 -262 1119 1120"
    underline-thickness="50"
    underline-position="-100"
    slope="-12"
    stemh="49"
    stemv="57"
    unicode-range="U+0020-FB04"
  />
<missing-glyph horiz-adv-x="500" 
 />
    <glyph glyph-name="f_f_i" unicode="ffi" horiz-adv-x="724" 
d="M392 726l-20 -48c-15 6 -34 10 -54 10c-60 0 -83 -29 -102 -123l-29 -147h114l-10 -49h-114l-113 -585h-55l114 585h-76l2 11l84 42l28 141c24 124 74 177 161 177c26 0 49 -5 70 -14zM659 726l-20 -48c-15 6 -34 10 -54 10c-60 0 -83 -29 -102 -123l-29 -147h114
l-10 -49h-114l-113 -585h-55l114 585h-76l2 11l84 42l28 141c24 124 74 177 161 177c26 0 49 -5 70 -14zM697 418l-81 -418h-56l82 418h55zM739 572c0 -21 -18 -39 -40 -39s-40 18 -40 39c0 22 18 41 40 41s40 -19 40 -41z" />
    <glyph glyph-name="f_f_l" unicode="ffl" horiz-adv-x="723" 
d="M392 726l-20 -48c-15 6 -34 10 -54 10c-60 0 -83 -29 -102 -123l-29 -147h114l-10 -49h-114l-113 -585h-55l114 585h-76l2 11l84 42l28 141c24 124 74 177 161 177c26 0 49 -5 70 -14zM659 726l-20 -48c-15 6 -34 10 -54 10c-60 0 -83 -29 -102 -123l-29 -147h114
l-10 -49h-114l-113 -585h-55l114 585h-76l2 11l84 42l28 141c24 124 74 177 161 177c26 0 49 -5 70 -14zM756 733l-142 -733h-55l142 733h55z" />
    <glyph glyph-name="f_f" unicode="ff" horiz-adv-x="534" 
d="M659 726l-20 -48c-15 6 -34 10 -54 10c-60 0 -83 -29 -102 -123l-29 -147h114l-10 -49h-114l-113 -585h-55l114 585h-76l2 11l84 42l28 141c24 124 74 177 161 177c26 0 49 -5 70 -14zM392 726l-20 -48c-15 6 -34 10 -54 10c-60 0 -83 -29 -102 -123l-29 -147h114
l-10 -49h-114l-113 -585h-55l114 585h-76l2 11l84 42l28 141c24 124 74 177 161 177c26 0 49 -5 70 -14z" />
    <glyph glyph-name="fi" unicode="fi" 
d="M392 726l-20 -48c-15 6 -34 10 -54 10c-60 0 -83 -29 -102 -123l-29 -147h114l-10 -49h-114l-113 -585h-55l114 585h-76l2 11l84 42l28 141c24 124 74 177 161 177c26 0 49 -5 70 -14zM430 418l-81 -418h-56l82 418h55zM472 572c0 -21 -18 -39 -40 -39s-40 18 -40 39
c0 22 18 41 40 41s40 -19 40 -41z" />
    <glyph glyph-name="fl" unicode="fl" horiz-adv-x="456" 
d="M489 733l-142 -733h-55l142 733h55zM392 726l-20 -48c-15 6 -34 10 -54 10c-60 0 -83 -29 -102 -123l-29 -147h114l-10 -49h-114l-113 -585h-55l114 585h-76l2 11l84 42l28 141c24 124 74 177 161 177c26 0 49 -5 70 -14z" />
    <glyph glyph-name=".notdef" horiz-adv-x="500" 
 />
    <glyph glyph-name="A" unicode="A" horiz-adv-x="655" 
d="M601 0h-59l-47 225h-332l-136 -225h-60l457 745h9zM484 272l-75 358l-217 -358h292z" />
    <glyph glyph-name="B" unicode="B" horiz-adv-x="548" 
d="M547 564c0 -92 -68 -167 -183 -192c91 -29 141 -85 141 -162c0 -118 -87 -217 -289 -217c-57 0 -108 9 -169 23l140 712c40 7 84 12 132 12c152 0 228 -85 228 -176zM489 559c0 75 -62 132 -172 132c-35 0 -63 -4 -83 -8l-55 -281c25 -2 53 -4 81 -4
c147 0 229 64 229 161zM448 203c0 92 -79 152 -219 152c-19 0 -40 0 -59 -2l-58 -297c45 -11 79 -14 123 -14c132 0 213 71 213 161z" />
    <glyph glyph-name="C" unicode="C" horiz-adv-x="731" 
d="M747 655l-30 -45c-58 48 -135 82 -225 82c-201 0 -352 -170 -352 -374c0 -165 116 -277 272 -277c85 0 150 28 215 69l24 -46c-62 -40 -141 -74 -245 -74c-178 0 -324 132 -324 325c0 240 189 429 418 429c103 0 190 -43 247 -89z" />
    <glyph glyph-name="D" unicode="D" horiz-adv-x="706" 
d="M217 -7c-58 0 -120 6 -171 15l140 722c43 7 83 10 134 10c112 0 207 -34 270 -97c57 -57 90 -137 90 -234c0 -239 -181 -416 -463 -416zM322 691c-29 0 -59 -2 -88 -7l-124 -633c37 -5 84 -8 121 -8c227 0 391 152 391 361c0 96 -32 163 -78 208c-52 52 -131 79 -222 79z
" />
    <glyph glyph-name="E" unicode="E" horiz-adv-x="551" 
d="M592 733l-10 -50h-348l-56 -286h314l-10 -50h-313l-58 -296h349l-10 -51h-406l143 733h405z" />
    <glyph glyph-name="F" unicode="F" horiz-adv-x="534" 
d="M592 733l-10 -50h-348l-58 -299h314l-10 -50h-314l-65 -334h-57l143 733h405z" />
    <glyph glyph-name="G" unicode="G" horiz-adv-x="758" 
d="M714 349l-55 -285c-62 -38 -140 -74 -253 -74c-178 0 -324 132 -324 325c0 240 197 429 418 429c99 0 188 -37 239 -76l-30 -45c-50 38 -125 69 -217 69c-196 0 -352 -170 -352 -374c0 -165 115 -277 272 -277c85 0 153 25 197 53l39 204h-211l10 51h267z" />
    <glyph glyph-name="G.alt" horiz-adv-x="796" 
d="M789 345c-33 -215 -172 -355 -374 -355c-186 0 -332 135 -332 326c0 240 196 428 417 428c99 0 188 -37 239 -76l-29 -46c-51 39 -125 70 -217 70c-197 0 -353 -171 -353 -375c0 -160 113 -276 284 -276c141 0 265 96 299 254h-305l10 50h361z" />
    <glyph glyph-name="H" unicode="H" horiz-adv-x="694" 
d="M709 733l-143 -733h-57l68 348h-408l-68 -348h-57l143 733h57l-65 -335h408l65 335h57z" />
    <glyph glyph-name="I" unicode="I" horiz-adv-x="236" 
d="M248 733l-143 -733h-56l143 733h56z" />
    <glyph glyph-name="J" unicode="J" horiz-adv-x="434" 
d="M452 733l-106 -540c-25 -130 -88 -203 -202 -203c-63 0 -118 24 -158 58l33 41c40 -32 78 -48 128 -48c78 0 123 47 144 160l104 532h57z" />
    <glyph glyph-name="K" unicode="K" horiz-adv-x="585" 
d="M650 733l-423 -359l294 -374h-71l-278 362l-71 -362h-57l143 733h57l-67 -342l396 342h77z" />
    <glyph glyph-name="L" unicode="L" horiz-adv-x="509" 
d="M459 51l-10 -51h-405l143 733h57l-133 -682h348z" />
    <glyph glyph-name="M" unicode="M" horiz-adv-x="837" 
d="M841 742l-120 -742h-57l101 582l-358 -478h-10l-179 487l-126 -591h-57l169 742l13 2l199 -555l410 555z" />
    <glyph glyph-name="M.alt" horiz-adv-x="837" 
d="M841 742l-120 -742h-57l104 597l-347 -417h-10l-189 428l-130 -608h-57l169 742l13 2l211 -487l398 487z" />
    <glyph glyph-name="N" unicode="N" horiz-adv-x="717" 
d="M731 733l-144 -742l-11 -2l-356 626l-120 -615h-55l144 741l14 3l354 -619l118 608h56z" />
    <glyph glyph-name="O" unicode="O" horiz-adv-x="830" 
d="M804 411c0 -207 -156 -421 -399 -421c-187 0 -322 136 -322 333c0 207 156 421 399 421c187 0 322 -137 322 -333zM747 412c0 164 -108 280 -266 280c-198 0 -341 -169 -341 -370c0 -165 108 -281 266 -281c198 0 341 169 341 371z" />
    <glyph glyph-name="P" unicode="P" horiz-adv-x="549" 
d="M568 517c0 -146 -105 -262 -311 -262c-29 0 -73 4 -105 9l-51 -264h-57l142 728c40 7 82 10 119 10c173 0 262 -97 263 -221zM510 514c0 92 -61 174 -201 174c-24 0 -49 -3 -75 -7l-72 -367c34 -5 71 -9 102 -9c166 0 246 94 246 209z" />
    <glyph glyph-name="Q" unicode="Q" horiz-adv-x="829" 
d="M804 411c0 -117 -50 -236 -137 -318l66 -74l-41 -38l-67 78c-61 -43 -135 -69 -220 -69c-187 0 -322 136 -322 333c0 207 156 421 399 421c187 0 322 -137 322 -333zM747 412c0 164 -108 280 -266 280c-198 0 -341 -169 -341 -370c0 -165 108 -281 266 -281
c70 0 133 21 184 57l-131 147l41 38l132 -150c72 68 115 168 115 279z" />
    <glyph glyph-name="R" unicode="R" horiz-adv-x="581" 
d="M571 537c0 -113 -74 -207 -211 -235l153 -302h-67l-144 294c-10 -1 -21 -1 -32 -1c-38 0 -70 3 -111 7l-58 -300h-57l142 728c46 6 86 10 136 10c162 0 249 -88 249 -201zM513 533c0 87 -61 154 -190 154c-33 0 -56 -1 -89 -6l-65 -331c37 -4 73 -7 107 -7
c152 0 237 78 237 190z" />
    <glyph glyph-name="S" unicode="S" horiz-adv-x="502" 
d="M520 679l-31 -44c-40 33 -94 57 -149 57c-100 0 -158 -66 -158 -145c0 -68 49 -104 123 -152c70 -47 145 -97 145 -198c0 -114 -84 -207 -226 -207c-80 0 -160 34 -221 86l32 44c55 -46 119 -78 189 -78c105 0 169 61 169 149c0 76 -62 119 -131 165
c-68 45 -137 94 -137 185c0 113 90 203 220 203c66 0 131 -28 175 -65z" />
    <glyph glyph-name="T" unicode="T" horiz-adv-x="578" 
d="M656 733l-10 -52h-241l-132 -681h-56l132 681h-239l10 52h536z" />
    <glyph glyph-name="U" unicode="U" horiz-adv-x="695" 
d="M716 733l-95 -486c-33 -171 -133 -257 -295 -257c-147 0 -237 87 -237 227c0 28 4 53 9 80l84 436h57l-86 -445c-5 -24 -8 -43 -8 -69c0 -110 68 -178 191 -178c124 0 201 64 230 216l93 476h57z" />
    <glyph glyph-name="V" unicode="V" horiz-adv-x="678" 
d="M759 733l-459 -745h-11l-169 745h58l138 -629l378 629h65z" />
    <glyph glyph-name="W" unicode="W" horiz-adv-x="944" 
d="M1010 733l-337 -743l-15 -2l-111 628l-349 -628l-16 2l-47 743h56l35 -600l337 604h12l109 -609l264 605h62z" />
    <glyph glyph-name="X" unicode="X" horiz-adv-x="665" 
d="M726 733l-329 -366l191 -367h-62l-168 329l-292 -329h-70l336 371l-189 362h62l166 -324l286 324h69z" />
    <glyph glyph-name="Y" unicode="Y" horiz-adv-x="590" 
d="M676 733l-328 -406l-64 -327h-56l64 329l-175 404h57l154 -357l283 357h65z" />
    <glyph glyph-name="Z" unicode="Z" horiz-adv-x="621" 
d="M671 723l-565 -672h430l-10 -51h-516l-2 10l565 673h-409l9 50h495z" />
    <glyph glyph-name="a" unicode="a" horiz-adv-x="422" 
d="M378 299c0 -17 -3 -37 -6 -55l-49 -244h-53l9 45c-31 -28 -72 -53 -131 -53c-66 0 -126 43 -126 120s66 142 171 142c51 0 93 -17 118 -33l6 33c2 11 5 25 5 38c0 50 -38 84 -100 84c-36 0 -73 -8 -107 -20l-6 50c35 11 75 20 120 20c85 0 149 -42 149 -127zM302 176
c-23 19 -65 34 -111 34c-69 0 -116 -42 -116 -94c0 -49 33 -79 86 -79c52 0 92 26 125 58z" />
    <glyph glyph-name="b" unicode="b" horiz-adv-x="473" 
d="M435 252c0 -133 -99 -260 -231 -260c-49 0 -91 21 -119 48l-8 -40h-55l143 733h56l-68 -351c33 26 76 44 125 44c93 0 157 -75 157 -174zM380 243c0 82 -47 134 -118 134c-42 0 -86 -20 -119 -50l-47 -239c24 -28 62 -48 108 -48c100 0 176 97 176 203z" />
    <glyph glyph-name="c" unicode="c" horiz-adv-x="412" 
d="M415 376l-29 -41c-30 25 -69 43 -117 43c-102 0 -176 -92 -176 -196c0 -89 62 -142 143 -142c36 0 71 10 100 24l12 -45c-38 -16 -74 -27 -121 -27c-105 0 -188 73 -188 188c0 124 96 246 238 246c56 0 104 -22 138 -50z" />
    <glyph glyph-name="d" unicode="d" horiz-adv-x="473" 
d="M511 733l-142 -733h-54l8 37c-33 -26 -75 -45 -124 -45c-87 0 -161 72 -161 176c0 132 98 258 234 258c50 0 92 -21 116 -44l67 351h56zM378 331c-25 27 -63 47 -108 47c-101 0 -177 -93 -177 -199c0 -86 48 -138 120 -138c44 0 83 16 117 46z" />
    <glyph glyph-name="e" unicode="e" horiz-adv-x="438" 
d="M221 -8c-115 0 -185 65 -185 176c0 124 95 258 227 258c98 0 147 -74 147 -159c0 -25 -3 -43 -9 -65h-311c-1 -9 -1 -20 -1 -29c0 -83 49 -133 138 -133c33 0 68 7 104 20c0 0 9 -47 9 -46c-36 -15 -71 -22 -119 -22zM102 246h253c2 8 2 16 2 27c0 57 -31 105 -98 105
c-69 0 -132 -57 -157 -132z" />
    <glyph glyph-name="f" unicode="f" horiz-adv-x="267" 
d="M392 726l-20 -48c-15 6 -34 10 -54 10c-60 0 -83 -29 -102 -123l-29 -147h114l-10 -49h-114l-113 -585h-55l114 585h-76l2 11l84 42l28 141c24 124 74 177 161 177c26 0 49 -5 70 -14z" />
    <glyph glyph-name="g" unicode="g" horiz-adv-x="475" 
d="M451 418l-90 -462c-25 -127 -99 -182 -209 -182c-48 0 -94 11 -135 28l20 48c38 -16 75 -25 118 -25c85 0 133 38 151 130l14 72c-31 -20 -68 -35 -115 -35c-92 0 -167 74 -167 176c0 132 98 258 235 258c50 0 93 -22 118 -45l7 37h53zM379 331c-25 27 -63 47 -109 47
c-101 0 -177 -94 -177 -199c0 -86 50 -139 123 -139c43 0 81 16 114 44z" />
    <glyph glyph-name="h" unicode="h" 
d="M416 317c0 -14 -2 -32 -6 -49l-52 -268h-56l52 264c3 17 5 30 5 41c0 47 -27 73 -74 73c-53 0 -102 -34 -148 -78l-59 -300h-56l143 733h56l-76 -383c50 44 105 75 164 75c71 0 107 -45 107 -108z" />
    <glyph glyph-name="i" unicode="i" horiz-adv-x="190" 
d="M205 572c0 -21 -18 -39 -40 -39s-40 18 -40 39c0 22 18 41 40 41s40 -19 40 -41zM163 418l-81 -418h-56l82 418h55z" />
    <glyph glyph-name="j" unicode="j" horiz-adv-x="183" 
d="M209 572c0 -21 -17 -39 -39 -39c-23 0 -40 18 -40 39c0 22 17 41 40 41c22 0 39 -19 39 -41zM167 418l-99 -516c-17 -86 -58 -126 -130 -126c-22 0 -41 3 -62 8l15 47c14 -4 27 -6 43 -6c46 0 68 26 78 77l100 516h55z" />
    <glyph glyph-name="k" unicode="k" horiz-adv-x="396" 
d="M427 418l-255 -202l182 -216h-63l-173 207l-40 -207h-55l142 733h55l-97 -501l230 186h74z" />
    <glyph glyph-name="l" unicode="l" horiz-adv-x="189" 
d="M222 733l-142 -733h-55l142 733h55z" />
    <glyph glyph-name="m" unicode="m" horiz-adv-x="730" 
d="M688 317c0 -14 -2 -32 -6 -49l-52 -268h-56l52 264c3 17 5 30 5 41c0 47 -27 73 -73 73c-52 0 -99 -34 -146 -78l-32 -170l-26 -130h-56l53 264c3 17 5 30 5 41c0 47 -27 73 -73 73c-53 0 -99 -34 -146 -78l-59 -300h-56l82 418h53l-14 -70c50 44 104 77 163 77
c58 0 94 -33 102 -81c55 49 117 81 174 81c70 0 106 -45 106 -108z" />
    <glyph glyph-name="n" unicode="n" 
d="M416 317c0 -14 -2 -32 -6 -49l-52 -268h-56l52 264c3 17 5 30 5 41c0 47 -27 73 -74 73c-53 0 -101 -34 -148 -78l-59 -300h-56l82 418h53l-14 -70c50 44 107 77 166 77c71 0 107 -45 107 -108z" />
    <glyph glyph-name="o" unicode="o" horiz-adv-x="462" 
d="M373 245c0 79 -44 133 -117 133c-40 0 -76 -19 -105 -47c-38 -37 -62 -96 -62 -158c0 -79 44 -133 116 -133c40 0 77 19 105 47c38 37 63 96 63 158zM427 248c0 -72 -30 -144 -78 -193c-38 -38 -90 -63 -147 -63c-99 0 -167 72 -167 178c0 72 30 144 78 193
c38 38 90 63 147 63c99 0 167 -72 167 -178z" />
    <glyph glyph-name="p" unicode="p" horiz-adv-x="473" 
d="M435 252c0 -133 -96 -260 -234 -260c-48 0 -89 19 -116 42l-49 -250h-56l124 634h54l-9 -44c36 32 81 52 131 52c84 0 155 -70 155 -174zM380 243c0 82 -47 134 -118 134c-46 0 -85 -19 -120 -51l-47 -239c25 -27 63 -46 109 -46c100 0 176 96 176 202z" />
    <glyph glyph-name="q" unicode="q" horiz-adv-x="473" 
d="M451 418l-123 -634h-57l49 247c-31 -23 -69 -39 -115 -39c-92 0 -167 74 -167 176c0 132 98 258 234 258c50 0 93 -22 118 -45l7 37h54zM378 331c-25 27 -63 47 -108 47c-100 0 -177 -94 -177 -199c0 -86 50 -138 122 -138c44 0 81 16 115 46z" />
    <glyph glyph-name="r" unicode="r" horiz-adv-x="266" 
d="M283 427l-10 -55h-1c-59 -2 -96 -27 -138 -87l-56 -285h-56l82 418h53l-15 -79c32 51 83 88 141 88z" />
    <glyph glyph-name="s" unicode="s" horiz-adv-x="351" 
d="M335 379l-31 -40c-29 25 -61 41 -99 41c-57 0 -87 -36 -87 -71s37 -55 78 -76c52 -28 93 -55 93 -111c0 -73 -62 -131 -146 -131c-58 0 -107 24 -146 59l33 39c34 -30 72 -51 117 -51c57 0 91 33 91 76c0 39 -38 59 -80 81c-48 25 -90 50 -90 107c0 67 59 124 145 124
c47 0 90 -19 122 -47z" />
    <glyph glyph-name="t" unicode="t" horiz-adv-x="293" 
d="M309 418l-9 -49h-128l-49 -253c-3 -14 -3 -22 -3 -29c0 -33 25 -46 70 -46c14 0 27 1 40 3l-8 -47c-17 -3 -32 -5 -48 -5c-65 0 -109 25 -109 86c0 9 1 21 5 42l48 249h-75l2 11l83 42l19 96l59 27l-25 -127h128z" />
    <glyph glyph-name="u" unicode="u" 
d="M435 418l-81 -418h-54l14 70c-49 -44 -107 -78 -166 -78c-71 0 -106 46 -106 109c0 14 2 32 5 49l53 268h56l-52 -264c-4 -17 -5 -30 -5 -41c0 -47 26 -73 73 -73c53 0 102 34 149 78l58 300h56z" />
    <glyph glyph-name="v" unicode="v" horiz-adv-x="415" 
d="M448 418l-280 -430h-10l-108 430h56l77 -329l204 329h61z" />
    <glyph glyph-name="w" unicode="w" horiz-adv-x="610" 
d="M630 418l-221 -430h-10l-71 323l-197 -323h-10l-58 430h55l34 -317l190 317h10l67 -317l153 317h58z" />
    <glyph glyph-name="x" unicode="x" horiz-adv-x="395" 
d="M420 418l-191 -211l112 -206h-57l-91 174l-154 -175h-65l194 213l-110 205h57l90 -175l152 175h63z" />
    <glyph glyph-name="y" unicode="y" horiz-adv-x="420" 
d="M452 418l-414 -634h-58l166 251l-96 383h55l78 -332l208 332h61z" />
    <glyph glyph-name="z" unicode="z" horiz-adv-x="395" 
d="M412 408l-343 -361h267l-9 -47h-350l-2 9l344 362h-253l9 47h336z" />
    <glyph glyph-name="Aacute" unicode="&#xc1;" horiz-adv-x="655" 
d="M601 0h-59l-47 225h-332l-136 -225h-60l457 745h9zM484 272l-75 358l-217 -358h292zM614 901l-196 -106l-15 31l183 128z" />
    <glyph glyph-name="aacute" unicode="&#xe1;" horiz-adv-x="422" 
d="M378 299c0 -17 -3 -37 -6 -55l-49 -244h-53l9 45c-31 -28 -72 -53 -131 -53c-66 0 -126 43 -126 120s66 142 171 142c51 0 93 -17 118 -33l6 33c2 11 5 25 5 38c0 50 -38 84 -100 84c-36 0 -73 -8 -107 -20l-6 50c35 11 75 20 120 20c85 0 149 -42 149 -127zM302 176
c-23 19 -65 34 -111 34c-69 0 -116 -42 -116 -94c0 -49 33 -79 86 -79c52 0 92 26 125 58zM430 581l-196 -106l-15 31l183 128z" />
    <glyph glyph-name="Abreve" unicode="&#x102;" horiz-adv-x="655" 
d="M601 0h-59l-47 225h-332l-136 -225h-60l457 745h9zM484 272l-75 358l-217 -358h292zM592 933c-14 -75 -61 -133 -145 -133c-73 0 -118 42 -118 104c0 11 0 19 2 29l48 4c-2 -8 -2 -17 -2 -26c0 -48 33 -69 74 -69c50 0 82 37 93 95z" />
    <glyph glyph-name="abreve" unicode="&#x103;" horiz-adv-x="422" 
d="M378 299c0 -17 -3 -37 -6 -55l-49 -244h-53l9 45c-31 -28 -72 -53 -131 -53c-66 0 -126 43 -126 120s66 142 171 142c51 0 93 -17 118 -33l6 33c2 11 5 25 5 38c0 50 -38 84 -100 84c-36 0 -73 -8 -107 -20l-6 50c35 11 75 20 120 20c85 0 149 -42 149 -127zM302 176
c-23 19 -65 34 -111 34c-69 0 -116 -42 -116 -94c0 -49 33 -79 86 -79c52 0 92 26 125 58zM417 613c-14 -75 -61 -133 -145 -133c-73 0 -118 42 -118 104c0 11 0 19 2 29l48 4c-2 -8 -2 -17 -2 -26c0 -48 33 -69 74 -69c50 0 82 37 93 95z" />
    <glyph glyph-name="Acircumflex" unicode="&#xc2;" horiz-adv-x="655" 
d="M601 0h-59l-47 225h-332l-136 -225h-60l457 745h9zM484 272l-75 358l-217 -358h292zM574 805h-55l-60 97l-96 -97h-61l150 149h31z" />
    <glyph glyph-name="acircumflex" unicode="&#xe2;" horiz-adv-x="422" 
d="M378 299c0 -17 -3 -37 -6 -55l-49 -244h-53l9 45c-31 -28 -72 -53 -131 -53c-66 0 -126 43 -126 120s66 142 171 142c51 0 93 -17 118 -33l6 33c2 11 5 25 5 38c0 50 -38 84 -100 84c-36 0 -73 -8 -107 -20l-6 50c35 11 75 20 120 20c85 0 149 -42 149 -127zM302 176
c-23 19 -65 34 -111 34c-69 0 -116 -42 -116 -94c0 -49 33 -79 86 -79c52 0 92 26 125 58zM396 485h-55l-60 97l-96 -97h-61l150 149h31z" />
    <glyph glyph-name="Adieresis" unicode="&#xc4;" horiz-adv-x="655" 
d="M601 0h-59l-47 225h-332l-136 -225h-60l457 745h9zM484 272l-75 358l-217 -358h292zM407 861c0 -22 -18 -40 -41 -40c-22 0 -40 18 -40 40c0 23 18 41 40 41c23 0 41 -18 41 -41zM577 861c0 -22 -18 -40 -40 -40s-40 18 -40 40c0 23 18 41 40 41s40 -18 40 -41z" />
    <glyph glyph-name="adieresis" unicode="&#xe4;" horiz-adv-x="422" 
d="M378 299c0 -17 -3 -37 -6 -55l-49 -244h-53l9 45c-31 -28 -72 -53 -131 -53c-66 0 -126 43 -126 120s66 142 171 142c51 0 93 -17 118 -33l6 33c2 11 5 25 5 38c0 50 -38 84 -100 84c-36 0 -73 -8 -107 -20l-6 50c35 11 75 20 120 20c85 0 149 -42 149 -127zM302 176
c-23 19 -65 34 -111 34c-69 0 -116 -42 -116 -94c0 -49 33 -79 86 -79c52 0 92 26 125 58zM229 541c0 -22 -18 -40 -41 -40c-22 0 -40 18 -40 40c0 23 18 41 40 41c23 0 41 -18 41 -41zM399 541c0 -22 -18 -40 -40 -40s-40 18 -40 40c0 23 18 41 40 41s40 -18 40 -41z" />
    <glyph glyph-name="Agrave" unicode="&#xc0;" horiz-adv-x="655" 
d="M601 0h-59l-47 225h-332l-136 -225h-60l457 745h9zM484 272l-75 358l-217 -358h292zM480 825l-22 -30l-182 111l35 48z" />
    <glyph glyph-name="agrave" unicode="&#xe0;" horiz-adv-x="422" 
d="M378 299c0 -17 -3 -37 -6 -55l-49 -244h-53l9 45c-31 -28 -72 -53 -131 -53c-66 0 -126 43 -126 120s66 142 171 142c51 0 93 -17 118 -33l6 33c2 11 5 25 5 38c0 50 -38 84 -100 84c-36 0 -73 -8 -107 -20l-6 50c35 11 75 20 120 20c85 0 149 -42 149 -127zM302 176
c-23 19 -65 34 -111 34c-69 0 -116 -42 -116 -94c0 -49 33 -79 86 -79c52 0 92 26 125 58zM302 505l-22 -30l-182 111l35 48z" />
    <glyph glyph-name="Amacron" unicode="&#x100;" horiz-adv-x="655" 
d="M601 0h-59l-47 225h-332l-136 -225h-60l457 745h9zM484 272l-75 358l-217 -358h292zM595 881l-9 -48h-279l10 48h278z" />
    <glyph glyph-name="amacron" unicode="&#x101;" horiz-adv-x="422" 
d="M378 299c0 -17 -3 -37 -6 -55l-49 -244h-53l9 45c-31 -28 -72 -53 -131 -53c-66 0 -126 43 -126 120s66 142 171 142c51 0 93 -17 118 -33l6 33c2 11 5 25 5 38c0 50 -38 84 -100 84c-36 0 -73 -8 -107 -20l-6 50c35 11 75 20 120 20c85 0 149 -42 149 -127zM302 176
c-23 19 -65 34 -111 34c-69 0 -116 -42 -116 -94c0 -49 33 -79 86 -79c52 0 92 26 125 58zM417 561l-9 -48h-279l10 48h278z" />
    <glyph glyph-name="Aogonek" unicode="&#x104;" horiz-adv-x="655" 
d="M596 -170c-29 -31 -59 -49 -96 -49c-42 -1 -67 25 -67 64c0 58 48 109 108 158l-46 222h-332l-136 -225h-60l457 745h9l168 -745h-10c-36 -31 -109 -87 -109 -142c0 -23 11 -36 31 -36c21 0 39 13 61 34zM484 272l-75 358l-217 -358h292z" />
    <glyph glyph-name="aogonek" unicode="&#x105;" horiz-adv-x="422" 
d="M322 -170c-29 -31 -59 -49 -96 -49c-42 -1 -67 25 -67 64c0 59 50 111 112 162l8 38c-31 -28 -72 -53 -131 -53c-66 0 -126 43 -126 120s66 142 171 142c51 0 93 -17 118 -33l6 33c2 11 5 25 5 38c0 50 -38 84 -100 84c-36 0 -73 -8 -107 -20l-6 50c35 11 75 20 120 20
c85 0 149 -42 149 -127c0 -17 -3 -37 -6 -55l-49 -244h-6c-36 -31 -109 -87 -109 -142c0 -23 11 -36 31 -36c21 0 39 13 61 34zM302 176c-23 19 -65 34 -111 34c-69 0 -116 -42 -116 -94c0 -49 33 -79 86 -79c52 0 92 26 125 58z" />
    <glyph glyph-name="Aring" unicode="&#xc5;" horiz-adv-x="655" 
d="M542 827c0 -57 -43 -111 -101 -117l160 -710h-59l-47 225h-332l-136 -225h-60l437 713c-36 10 -60 42 -60 82c0 60 48 117 112 117c49 0 86 -36 86 -85zM484 272l-75 358l-217 -358h292zM501 823c0 35 -20 56 -48 56c-36 0 -68 -37 -68 -81c0 -35 20 -55 49 -55
c35 0 67 35 67 80z" />
    <glyph glyph-name="aring" unicode="&#xe5;" horiz-adv-x="422" 
d="M378 299c0 -17 -3 -37 -6 -55l-49 -244h-53l9 45c-31 -28 -72 -53 -131 -53c-66 0 -126 43 -126 120s66 142 171 142c51 0 93 -17 118 -33l6 33c2 11 5 25 5 38c0 50 -38 84 -100 84c-36 0 -73 -8 -107 -20l-6 50c35 11 75 20 120 20c85 0 149 -42 149 -127zM302 176
c-23 19 -65 34 -111 34c-69 0 -116 -42 -116 -94c0 -49 33 -79 86 -79c52 0 92 26 125 58zM382 600c0 -60 -48 -118 -112 -118c-49 0 -86 37 -86 86c0 60 47 117 112 117c49 0 86 -36 86 -85zM341 596c0 35 -21 56 -49 56c-35 0 -67 -37 -67 -81c0 -35 20 -55 48 -55
c35 0 68 35 68 80z" />
    <glyph glyph-name="Aringacute" unicode="&#x1fa;" horiz-adv-x="655" 
d="M652 1067l-196 -106l-15 31l183 128zM542 827c0 -57 -43 -111 -101 -117l160 -710h-59l-47 225h-332l-136 -225h-60l437 713c-36 10 -60 42 -60 82c0 60 48 117 112 117c49 0 86 -36 86 -85zM484 272l-75 358l-217 -358h292zM501 823c0 35 -20 56 -48 56
c-36 0 -68 -37 -68 -81c0 -35 20 -55 49 -55c35 0 67 35 67 80z" />
    <glyph glyph-name="aringacute" unicode="&#x1fb;" horiz-adv-x="422" 
d="M378 299c0 -17 -3 -37 -6 -55l-49 -244h-53l9 45c-31 -28 -72 -53 -131 -53c-66 0 -126 43 -126 120s66 142 171 142c51 0 93 -17 118 -33l6 33c2 11 5 25 5 38c0 50 -38 84 -100 84c-36 0 -73 -8 -107 -20l-6 50c35 11 75 20 120 20c85 0 149 -42 149 -127zM302 176
c-23 19 -65 34 -111 34c-69 0 -116 -42 -116 -94c0 -49 33 -79 86 -79c52 0 92 26 125 58zM491 840l-196 -106l-15 31l183 128zM382 600c0 -60 -48 -118 -112 -118c-49 0 -86 37 -86 86c0 60 47 117 112 117c49 0 86 -36 86 -85zM341 596c0 35 -21 56 -49 56
c-35 0 -67 -37 -67 -81c0 -35 20 -55 48 -55c35 0 68 35 68 80z" />
    <glyph glyph-name="Atilde" unicode="&#xc3;" horiz-adv-x="655" 
d="M601 0h-59l-47 225h-332l-136 -225h-60l457 745h9zM484 272l-75 358l-217 -358h292zM608 879c-39 -44 -69 -61 -104 -61c-25 0 -43 13 -59 25s-31 24 -52 24c-22 0 -38 -11 -67 -42l-26 30c37 41 66 57 100 57c25 0 43 -13 60 -26c17 -12 32 -23 52 -23c23 0 38 12 70 45
z" />
    <glyph glyph-name="atilde" unicode="&#xe3;" horiz-adv-x="422" 
d="M378 299c0 -17 -3 -37 -6 -55l-49 -244h-53l9 45c-31 -28 -72 -53 -131 -53c-66 0 -126 43 -126 120s66 142 171 142c51 0 93 -17 118 -33l6 33c2 11 5 25 5 38c0 50 -38 84 -100 84c-36 0 -73 -8 -107 -20l-6 50c35 11 75 20 120 20c85 0 149 -42 149 -127zM302 176
c-23 19 -65 34 -111 34c-69 0 -116 -42 -116 -94c0 -49 33 -79 86 -79c52 0 92 26 125 58zM430 559c-39 -44 -69 -61 -104 -61c-25 0 -43 13 -59 25s-31 24 -52 24c-22 0 -38 -11 -67 -42l-26 30c37 41 66 57 100 57c25 0 43 -13 60 -26c17 -12 32 -23 52 -23
c23 0 38 12 70 45z" />
    <glyph glyph-name="AE" unicode="&#xc6;" horiz-adv-x="990" 
d="M1031 733l-10 -50h-348l-56 -286h314l-10 -50h-313l-58 -296h349l-10 -51h-405l47 241h-282l-217 -241h-65l659 733h405zM540 289l69 353l-318 -353h249z" />
    <glyph glyph-name="ae" unicode="&#xe6;" horiz-adv-x="713" 
d="M156 -8c-75 0 -134 43 -134 120s66 142 171 142c50 0 94 -17 118 -33l7 36c3 13 4 22 4 35c0 54 -39 84 -100 84c-36 0 -73 -7 -107 -20l-7 48c36 13 76 22 121 22c67 0 120 -29 136 -87c40 53 98 86 168 86c109 0 153 -82 152 -162c0 -21 -3 -42 -9 -61h-315
c-1 -9 -2 -19 -2 -27c0 -86 48 -135 138 -135c33 0 68 7 104 20c0 0 9 -47 9 -46c-36 -15 -71 -22 -119 -22c-89 0 -149 38 -172 107c-31 -65 -93 -107 -163 -107zM163 37c64 0 121 52 140 139c-28 21 -67 34 -112 34c-69 0 -116 -42 -116 -94c0 -49 33 -79 88 -79zM371 246
h259c2 8 2 16 2 23c0 53 -28 109 -104 109c-75 0 -134 -57 -157 -132z" />
    <glyph glyph-name="AEacute" unicode="&#x1fc;" horiz-adv-x="990" 
d="M1031 733l-10 -50h-348l-56 -286h314l-10 -50h-313l-58 -296h349l-10 -51h-405l47 241h-282l-217 -241h-65l659 733h405zM540 289l69 353l-318 -353h249zM902 901l-196 -106l-15 31l183 128z" />
    <glyph glyph-name="aeacute" unicode="&#x1fd;" horiz-adv-x="713" 
d="M156 -8c-75 0 -134 43 -134 120s66 142 171 142c50 0 94 -17 118 -33l7 36c3 13 4 22 4 35c0 54 -39 84 -100 84c-36 0 -73 -7 -107 -20l-7 48c36 13 76 22 121 22c67 0 120 -29 136 -87c40 53 98 86 168 86c109 0 153 -82 152 -162c0 -21 -3 -42 -9 -61h-315
c-1 -9 -2 -19 -2 -27c0 -86 48 -135 138 -135c33 0 68 7 104 20c0 0 9 -47 9 -46c-36 -15 -71 -22 -119 -22c-89 0 -149 38 -172 107c-31 -65 -93 -107 -163 -107zM163 37c64 0 121 52 140 139c-28 21 -67 34 -112 34c-69 0 -116 -42 -116 -94c0 -49 33 -79 88 -79zM371 246
h259c2 8 2 16 2 23c0 53 -28 109 -104 109c-75 0 -134 -57 -157 -132zM567 581l-196 -106l-15 31l183 128z" />
    <glyph glyph-name="Cacute" unicode="&#x106;" horiz-adv-x="731" 
d="M687 901l-196 -106l-15 31l183 128zM747 655l-30 -45c-58 48 -135 82 -225 82c-201 0 -352 -170 -352 -374c0 -165 116 -277 272 -277c85 0 150 28 215 69l24 -46c-62 -40 -141 -74 -245 -74c-178 0 -324 132 -324 325c0 240 189 429 418 429c103 0 190 -43 247 -89z" />
    <glyph glyph-name="cacute" unicode="&#x107;" horiz-adv-x="412" 
d="M454 581l-196 -106l-15 31l183 128zM415 376l-29 -41c-30 25 -69 43 -117 43c-102 0 -176 -92 -176 -196c0 -89 62 -142 143 -142c36 0 71 10 100 24l12 -45c-38 -16 -74 -27 -121 -27c-105 0 -188 73 -188 188c0 124 96 246 238 246c56 0 104 -22 138 -50z" />
    <glyph glyph-name="Ccaron" unicode="&#x10c;" horiz-adv-x="731" 
d="M685 953l-150 -149h-30l-92 149h56l60 -97l95 97h61zM747 655l-30 -45c-58 48 -135 82 -225 82c-201 0 -352 -170 -352 -374c0 -165 116 -277 272 -277c85 0 150 28 215 69l24 -46c-62 -40 -141 -74 -245 -74c-178 0 -324 132 -324 325c0 240 189 429 418 429
c103 0 190 -43 247 -89z" />
    <glyph glyph-name="ccaron" unicode="&#x10d;" horiz-adv-x="412" 
d="M452 633l-150 -149h-30l-92 149h56l60 -97l95 97h61zM415 376l-29 -41c-30 25 -69 43 -117 43c-102 0 -176 -92 -176 -196c0 -89 62 -142 143 -142c36 0 71 10 100 24l12 -45c-38 -16 -74 -27 -121 -27c-105 0 -188 73 -188 188c0 124 96 246 238 246
c56 0 104 -22 138 -50z" />
    <glyph glyph-name="Ccedilla" unicode="&#xc7;" horiz-adv-x="731" 
d="M449 -142c0 -54 -48 -95 -115 -95c-34 0 -70 12 -103 34l24 36c27 -19 55 -29 82 -29c36 0 64 18 64 51c0 23 -23 49 -90 56l-2 6l37 78c-150 26 -264 149 -264 320c0 240 189 429 418 429c103 0 190 -43 247 -89l-30 -45c-58 48 -135 82 -225 82
c-201 0 -352 -170 -352 -374c0 -165 116 -277 272 -277c85 0 150 28 215 69l24 -46c-62 -40 -141 -74 -245 -74c-7 0 -14 0 -21 1l-22 -51c56 -15 86 -42 86 -82z" />
    <glyph glyph-name="ccedilla" unicode="&#xe7;" horiz-adv-x="412" 
d="M272 -142c0 -54 -48 -95 -115 -95c-34 0 -70 12 -103 34l24 36c27 -19 55 -29 82 -29c36 0 64 18 64 51c0 23 -23 49 -90 56l-2 6l39 83c-77 20 -132 86 -132 180c0 124 96 246 238 246c56 0 104 -22 138 -50l-29 -41c-30 25 -69 43 -117 43c-102 0 -176 -92 -176 -196
c0 -89 62 -142 143 -142c36 0 71 10 100 24l12 -45c-38 -16 -74 -27 -121 -27c-6 0 -12 0 -18 1l-23 -53c56 -15 86 -42 86 -82z" />
    <glyph glyph-name="Cdotaccent" unicode="&#x10a;" horiz-adv-x="731" 
d="M747 655l-30 -45c-58 48 -135 82 -225 82c-201 0 -352 -170 -352 -374c0 -165 116 -277 272 -277c85 0 150 28 215 69l24 -46c-62 -40 -141 -74 -245 -74c-178 0 -324 132 -324 325c0 240 189 429 418 429c103 0 190 -43 247 -89zM570 861c0 -22 -18 -40 -41 -40
c-22 0 -40 18 -40 40c0 23 18 41 40 41c23 0 41 -18 41 -41z" />
    <glyph glyph-name="cdotaccent" unicode="&#x10b;" horiz-adv-x="412" 
d="M415 376l-29 -41c-30 25 -69 43 -117 43c-102 0 -176 -92 -176 -196c0 -89 62 -142 143 -142c36 0 71 10 100 24l12 -45c-38 -16 -74 -27 -121 -27c-105 0 -188 73 -188 188c0 124 96 246 238 246c56 0 104 -22 138 -50zM338 541c0 -22 -18 -40 -41 -40
c-22 0 -40 18 -40 40c0 23 18 41 40 41c23 0 41 -18 41 -41z" />
    <glyph glyph-name="Dcaron" unicode="&#x10e;" horiz-adv-x="706" 
d="M217 -7c-58 0 -120 6 -171 15l140 722c43 7 83 10 134 10c112 0 207 -34 270 -97c57 -57 90 -137 90 -234c0 -239 -181 -416 -463 -416zM322 691c-29 0 -59 -2 -88 -7l-124 -633c37 -5 84 -8 121 -8c227 0 391 152 391 361c0 96 -32 163 -78 208c-52 52 -131 79 -222 79z
M590 953l-150 -149h-30l-92 149h56l60 -97l95 97h61z" />
    <glyph glyph-name="dcaron" unicode="&#x10f;" horiz-adv-x="475" 
d="M607 734l55 -9c-15 -83 -60 -144 -125 -184l-24 23c49 41 80 94 94 170zM511 733l-142 -733h-54l8 37c-33 -26 -75 -45 -124 -45c-87 0 -161 72 -161 176c0 132 98 258 234 258c50 0 92 -21 116 -44l67 351h56zM378 331c-25 27 -63 47 -108 47c-101 0 -177 -93 -177 -199
c0 -86 48 -138 120 -138c44 0 83 16 117 46z" />
    <glyph glyph-name="Dcroat" unicode="&#x110;" horiz-adv-x="736" 
d="M710 409c0 -239 -181 -416 -463 -416c-58 0 -120 6 -171 15l66 340h-86l9 50h86l65 332c43 7 83 10 134 10c112 0 207 -34 270 -97c57 -57 90 -137 90 -234zM652 404c0 96 -32 163 -78 208c-52 52 -131 79 -222 79c-29 0 -59 -2 -88 -7l-56 -286h136l-9 -50h-137
l-58 -297c37 -5 84 -8 121 -8c227 0 391 152 391 361z" />
    <glyph glyph-name="dcroat" unicode="&#x111;" horiz-adv-x="475" 
d="M511 733l-22 -115h60l-9 -48h-61l-110 -570h-54l8 37c-33 -26 -75 -45 -124 -45c-87 0 -161 72 -161 176c0 132 98 258 234 258c50 0 92 -21 116 -44l36 188h-143l9 48h143l22 115h56zM378 331c-25 27 -63 47 -108 47c-101 0 -177 -93 -177 -199c0 -86 48 -138 120 -138
c44 0 83 16 117 46z" />
    <glyph glyph-name="Eacute" unicode="&#xc9;" horiz-adv-x="551" 
d="M571 901l-196 -106l-15 31l183 128zM592 733l-10 -50h-348l-56 -286h314l-10 -50h-313l-58 -296h349l-10 -51h-406l143 733h405z" />
    <glyph glyph-name="eacute" unicode="&#xe9;" horiz-adv-x="438" 
d="M221 -8c-115 0 -185 65 -185 176c0 124 95 258 227 258c98 0 147 -74 147 -159c0 -25 -3 -43 -9 -65h-311c-1 -9 -1 -20 -1 -29c0 -83 49 -133 138 -133c33 0 68 7 104 20c0 0 9 -47 9 -46c-36 -15 -71 -22 -119 -22zM102 246h253c2 8 2 16 2 27c0 57 -31 105 -98 105
c-69 0 -132 -57 -157 -132zM451 581l-196 -106l-15 31l183 128z" />
    <glyph glyph-name="Ebreve" unicode="&#x114;" horiz-adv-x="551" 
d="M592 733l-10 -50h-348l-56 -286h314l-10 -50h-313l-58 -296h349l-10 -51h-406l143 733h405zM558 933c-14 -75 -61 -133 -145 -133c-73 0 -118 42 -118 104c0 11 0 19 2 29l48 4c-2 -8 -2 -17 -2 -26c0 -48 33 -69 74 -69c50 0 82 37 93 95z" />
    <glyph glyph-name="ebreve" unicode="&#x115;" horiz-adv-x="438" 
d="M221 -8c-115 0 -185 65 -185 176c0 124 95 258 227 258c98 0 147 -74 147 -159c0 -25 -3 -43 -9 -65h-311c-1 -9 -1 -20 -1 -29c0 -83 49 -133 138 -133c33 0 68 7 104 20c0 0 9 -47 9 -46c-36 -15 -71 -22 -119 -22zM102 246h253c2 8 2 16 2 27c0 57 -31 105 -98 105
c-69 0 -132 -57 -157 -132zM437 613c-14 -75 -61 -133 -145 -133c-73 0 -118 42 -118 104c0 11 0 19 2 29l48 4c-2 -8 -2 -17 -2 -26c0 -48 33 -69 74 -69c50 0 82 37 93 95z" />
    <glyph glyph-name="Ecaron" unicode="&#x11a;" horiz-adv-x="551" 
d="M569 953l-150 -149h-30l-92 149h56l60 -97l95 97h61zM592 733l-10 -50h-348l-56 -286h314l-10 -50h-313l-58 -296h349l-10 -51h-406l143 733h405z" />
    <glyph glyph-name="ecaron" unicode="&#x11b;" horiz-adv-x="438" 
d="M221 -8c-115 0 -185 65 -185 176c0 124 95 258 227 258c98 0 147 -74 147 -159c0 -25 -3 -43 -9 -65h-311c-1 -9 -1 -20 -1 -29c0 -83 49 -133 138 -133c33 0 68 7 104 20c0 0 9 -47 9 -46c-36 -15 -71 -22 -119 -22zM102 246h253c2 8 2 16 2 27c0 57 -31 105 -98 105
c-69 0 -132 -57 -157 -132zM449 633l-150 -149h-30l-92 149h56l60 -97l95 97h61z" />
    <glyph glyph-name="Ecircumflex" unicode="&#xca;" horiz-adv-x="551" 
d="M536 805h-55l-60 97l-96 -97h-61l150 149h31zM592 733l-10 -50h-348l-56 -286h314l-10 -50h-313l-58 -296h349l-10 -51h-406l143 733h405z" />
    <glyph glyph-name="ecircumflex" unicode="&#xea;" horiz-adv-x="438" 
d="M221 -8c-115 0 -185 65 -185 176c0 124 95 258 227 258c98 0 147 -74 147 -159c0 -25 -3 -43 -9 -65h-311c-1 -9 -1 -20 -1 -29c0 -83 49 -133 138 -133c33 0 68 7 104 20c0 0 9 -47 9 -46c-36 -15 -71 -22 -119 -22zM102 246h253c2 8 2 16 2 27c0 57 -31 105 -98 105
c-69 0 -132 -57 -157 -132zM416 485h-55l-60 97l-96 -97h-61l150 149h31z" />
    <glyph glyph-name="Edieresis" unicode="&#xcb;" horiz-adv-x="551" 
d="M369 861c0 -22 -18 -40 -41 -40c-22 0 -40 18 -40 40c0 23 18 41 40 41c23 0 41 -18 41 -41zM539 861c0 -22 -18 -40 -40 -40s-40 18 -40 40c0 23 18 41 40 41s40 -18 40 -41zM592 733l-10 -50h-348l-56 -286h314l-10 -50h-313l-58 -296h349l-10 -51h-406l143 733h405z
" />
    <glyph glyph-name="edieresis" unicode="&#xeb;" horiz-adv-x="438" 
d="M221 -8c-115 0 -185 65 -185 176c0 124 95 258 227 258c98 0 147 -74 147 -159c0 -25 -3 -43 -9 -65h-311c-1 -9 -1 -20 -1 -29c0 -83 49 -133 138 -133c33 0 68 7 104 20c0 0 9 -47 9 -46c-36 -15 -71 -22 -119 -22zM102 246h253c2 8 2 16 2 27c0 57 -31 105 -98 105
c-69 0 -132 -57 -157 -132zM249 541c0 -22 -18 -40 -41 -40c-22 0 -40 18 -40 40c0 23 18 41 40 41c23 0 41 -18 41 -41zM419 541c0 -22 -18 -40 -40 -40s-40 18 -40 40c0 23 18 41 40 41s40 -18 40 -41z" />
    <glyph glyph-name="Edotaccent" unicode="&#x116;" horiz-adv-x="551" 
d="M592 733l-10 -50h-348l-56 -286h314l-10 -50h-313l-58 -296h349l-10 -51h-406l143 733h405zM454 861c0 -22 -18 -40 -41 -40c-22 0 -40 18 -40 40c0 23 18 41 40 41c23 0 41 -18 41 -41z" />
    <glyph glyph-name="edotaccent" unicode="&#x117;" horiz-adv-x="438" 
d="M221 -8c-115 0 -185 65 -185 176c0 124 95 258 227 258c98 0 147 -74 147 -159c0 -25 -3 -43 -9 -65h-311c-1 -9 -1 -20 -1 -29c0 -83 49 -133 138 -133c33 0 68 7 104 20c0 0 9 -47 9 -46c-36 -15 -71 -22 -119 -22zM102 246h253c2 8 2 16 2 27c0 57 -31 105 -98 105
c-69 0 -132 -57 -157 -132zM334 541c0 -22 -18 -40 -41 -40c-22 0 -40 18 -40 40c0 23 18 41 40 41c23 0 41 -18 41 -41z" />
    <glyph glyph-name="Egrave" unicode="&#xc8;" horiz-adv-x="551" 
d="M592 733l-10 -50h-348l-56 -286h314l-10 -50h-313l-58 -296h349l-10 -51h-406l143 733h405zM442 825l-22 -30l-182 111l35 48z" />
    <glyph glyph-name="egrave" unicode="&#xe8;" horiz-adv-x="438" 
d="M221 -8c-115 0 -185 65 -185 176c0 124 95 258 227 258c98 0 147 -74 147 -159c0 -25 -3 -43 -9 -65h-311c-1 -9 -1 -20 -1 -29c0 -83 49 -133 138 -133c33 0 68 7 104 20c0 0 9 -47 9 -46c-36 -15 -71 -22 -119 -22zM102 246h253c2 8 2 16 2 27c0 57 -31 105 -98 105
c-69 0 -132 -57 -157 -132zM323 505l-22 -30l-182 111l35 48z" />
    <glyph glyph-name="Emacron" unicode="&#x112;" horiz-adv-x="551" 
d="M592 733l-10 -50h-348l-56 -286h314l-10 -50h-313l-58 -296h349l-10 -51h-406l143 733h405zM557 881l-9 -48h-279l10 48h278z" />
    <glyph glyph-name="emacron" unicode="&#x113;" horiz-adv-x="438" 
d="M221 -8c-115 0 -185 65 -185 176c0 124 95 258 227 258c98 0 147 -74 147 -159c0 -25 -3 -43 -9 -65h-311c-1 -9 -1 -20 -1 -29c0 -83 49 -133 138 -133c33 0 68 7 104 20c0 0 9 -47 9 -46c-36 -15 -71 -22 -119 -22zM102 246h253c2 8 2 16 2 27c0 57 -31 105 -98 105
c-69 0 -132 -57 -157 -132zM437 561l-9 -48h-279l10 48h278z" />
    <glyph glyph-name="Eogonek" unicode="&#x118;" horiz-adv-x="551" 
d="M592 733l-10 -50h-348l-56 -286h314l-10 -50h-313l-58 -296h349l-10 -51h-34c-36 -31 -109 -87 -109 -142c0 -23 11 -36 31 -36c21 0 39 13 61 34l22 -26c-29 -31 -59 -49 -96 -49c-42 -1 -67 25 -67 64c0 57 46 107 104 155h-318l143 733h405z" />
    <glyph glyph-name="eogonek" unicode="&#x119;" horiz-adv-x="438" 
d="M221 -8c-115 0 -185 65 -185 176c0 124 95 258 227 258c98 0 147 -74 147 -159c0 -25 -3 -43 -9 -65h-311c-1 -9 -1 -20 -1 -29c0 -83 49 -133 138 -133c33 0 68 7 104 20c0 0 9 -47 9 -46c-53 -43 -120 -101 -120 -155c0 -24 11 -37 32 -37c20 0 38 13 60 34l22 -26
c-29 -31 -59 -49 -97 -49c-41 -1 -66 25 -66 64c0 54 40 103 93 149c-13 -1 -27 -2 -43 -2zM102 246h253c2 8 2 16 2 27c0 57 -31 105 -98 105c-69 0 -132 -57 -157 -132z" />
    <glyph glyph-name="Eth" unicode="&#xd0;" horiz-adv-x="736" 
d="M710 409c0 -239 -181 -416 -463 -416c-58 0 -120 6 -171 15l66 340h-86l9 50h86l65 332c43 7 83 10 134 10c112 0 207 -34 270 -97c57 -57 90 -137 90 -234zM652 404c0 96 -32 163 -78 208c-52 52 -131 79 -222 79c-29 0 -59 -2 -88 -7l-56 -286h136l-9 -50h-137
l-58 -297c37 -5 84 -8 121 -8c227 0 391 152 391 361z" />
    <glyph glyph-name="eth" unicode="&#xf0;" horiz-adv-x="462" 
d="M388 675l-90 -56c75 -85 128 -200 128 -347c0 -163 -96 -280 -230 -280c-98 0 -165 72 -165 177c0 133 99 256 230 256c44 0 83 -19 102 -46c-15 82 -57 154 -111 211l-106 -66l-25 40l96 61c-30 26 -62 49 -94 67l28 43c39 -22 77 -49 112 -81l99 62zM371 250
c0 74 -42 126 -114 126c-95 0 -171 -97 -171 -203c0 -79 46 -132 117 -132c93 0 168 97 168 209z" />
    <glyph glyph-name="Gbreve" unicode="&#x11e;" horiz-adv-x="758" 
d="M714 349l-55 -285c-62 -38 -140 -74 -253 -74c-178 0 -324 132 -324 325c0 240 197 429 418 429c99 0 188 -37 239 -76l-30 -45c-50 38 -125 69 -217 69c-196 0 -352 -170 -352 -374c0 -165 115 -277 272 -277c85 0 153 25 197 53l39 204h-211l10 51h267zM669 933
c-14 -75 -61 -133 -145 -133c-73 0 -118 42 -118 104c0 11 0 19 2 29l48 4c-2 -8 -2 -17 -2 -26c0 -48 33 -69 74 -69c50 0 82 37 93 95z" />
    <glyph glyph-name="Gbreve.alt" horiz-adv-x="796" 
d="M789 345c-33 -215 -172 -355 -374 -355c-186 0 -332 135 -332 326c0 240 196 428 417 428c99 0 188 -37 239 -76l-29 -46c-51 39 -125 70 -217 70c-197 0 -353 -171 -353 -375c0 -160 113 -276 284 -276c141 0 265 96 299 254h-305l10 50h361zM669 933
c-14 -75 -61 -133 -145 -133c-73 0 -118 42 -118 104c0 11 0 19 2 29l48 4c-2 -8 -2 -17 -2 -26c0 -48 33 -69 74 -69c50 0 82 37 93 95z" />
    <glyph glyph-name="gbreve" unicode="&#x11f;" horiz-adv-x="475" 
d="M451 418l-90 -462c-25 -127 -99 -182 -209 -182c-48 0 -94 11 -135 28l20 48c38 -16 75 -25 118 -25c85 0 133 38 151 130l14 72c-31 -20 -68 -35 -115 -35c-92 0 -167 74 -167 176c0 132 98 258 235 258c50 0 93 -22 118 -45l7 37h53zM379 331c-25 27 -63 47 -109 47
c-101 0 -177 -94 -177 -199c0 -86 50 -139 123 -139c43 0 81 16 114 44zM463 613c-14 -75 -61 -133 -145 -133c-73 0 -118 42 -118 104c0 11 0 19 2 29l48 4c-2 -8 -2 -17 -2 -26c0 -48 33 -69 74 -69c50 0 82 37 93 95z" />
    <glyph glyph-name="Gcommaaccent" unicode="&#x122;" horiz-adv-x="758" 
d="M383 -122c0 -60 -61 -111 -115 -140l-9 13c41 32 67 60 80 91c-23 4 -40 21 -40 44s19 41 41 41c20 0 43 -18 43 -49zM714 349l-55 -285c-62 -38 -140 -74 -253 -74c-178 0 -324 132 -324 325c0 240 197 429 418 429c99 0 188 -37 239 -76l-30 -45
c-50 38 -125 69 -217 69c-196 0 -352 -170 -352 -374c0 -165 115 -277 272 -277c85 0 153 25 197 53l39 204h-211l10 51h267z" />
    <glyph glyph-name="Gcommaaccent.alt" horiz-adv-x="796" 
d="M789 345c-33 -215 -172 -355 -374 -355c-186 0 -332 135 -332 326c0 240 196 428 417 428c99 0 188 -37 239 -76l-29 -46c-51 39 -125 70 -217 70c-197 0 -353 -171 -353 -375c0 -160 113 -276 284 -276c141 0 265 96 299 254h-305l10 50h361zM426 -122
c0 -60 -61 -111 -115 -140l-9 13c41 32 67 60 80 91c-23 4 -40 21 -40 44s19 41 41 41c20 0 43 -18 43 -49z" />
    <glyph glyph-name="gcommaaccent" unicode="&#x123;" horiz-adv-x="475" 
d="M276 549c0 60 61 111 115 140l9 -13c-41 -32 -67 -60 -80 -91c23 -4 40 -21 40 -44s-19 -41 -41 -41c-20 0 -43 18 -43 49zM451 418l-90 -462c-25 -127 -99 -182 -209 -182c-48 0 -94 11 -135 28l20 48c38 -16 75 -25 118 -25c85 0 133 38 151 130l14 72
c-31 -20 -68 -35 -115 -35c-92 0 -167 74 -167 176c0 132 98 258 235 258c50 0 93 -22 118 -45l7 37h53zM379 331c-25 27 -63 47 -109 47c-101 0 -177 -94 -177 -199c0 -86 50 -139 123 -139c43 0 81 16 114 44z" />
    <glyph glyph-name="Gdotaccent" unicode="&#x120;" horiz-adv-x="758" 
d="M714 349l-55 -285c-62 -38 -140 -74 -253 -74c-178 0 -324 132 -324 325c0 240 197 429 418 429c99 0 188 -37 239 -76l-30 -45c-50 38 -125 69 -217 69c-196 0 -352 -170 -352 -374c0 -165 115 -277 272 -277c85 0 153 25 197 53l39 204h-211l10 51h267zM566 861
c0 -22 -18 -40 -41 -40c-22 0 -40 18 -40 40c0 23 18 41 40 41c23 0 41 -18 41 -41z" />
    <glyph glyph-name="Gdotaccent.alt" horiz-adv-x="781" 
d="M789 345c-33 -215 -172 -355 -374 -355c-186 0 -332 135 -332 326c0 240 196 428 417 428c99 0 188 -37 239 -76l-29 -46c-51 39 -125 70 -217 70c-197 0 -353 -171 -353 -375c0 -160 113 -276 284 -276c141 0 265 96 299 254h-305l10 50h361zM566 861
c0 -22 -18 -40 -41 -40c-22 0 -40 18 -40 40c0 23 18 41 40 41c23 0 41 -18 41 -41z" />
    <glyph glyph-name="gdotaccent" unicode="&#x121;" horiz-adv-x="475" 
d="M451 418l-90 -462c-25 -127 -99 -182 -209 -182c-48 0 -94 11 -135 28l20 48c38 -16 75 -25 118 -25c85 0 133 38 151 130l14 72c-31 -20 -68 -35 -115 -35c-92 0 -167 74 -167 176c0 132 98 258 235 258c50 0 93 -22 118 -45l7 37h53zM379 331c-25 27 -63 47 -109 47
c-101 0 -177 -94 -177 -199c0 -86 50 -139 123 -139c43 0 81 16 114 44zM360 541c0 -22 -18 -40 -41 -40c-22 0 -40 18 -40 40c0 23 18 41 40 41c23 0 41 -18 41 -41z" />
    <glyph glyph-name="Hbar" unicode="&#x126;" horiz-adv-x="694" 
d="M709 733l-26 -131h78l-10 -48h-77l-108 -554h-57l68 348h-408l-68 -348h-57l108 554h-77l9 48h77l26 131h57l-25 -131h408l25 131h57zM179 398h408l30 156h-408z" />
    <glyph glyph-name="hbar" unicode="&#x127;" 
d="M416 317c0 -14 -2 -32 -6 -49l-52 -268h-56l52 264c3 17 5 30 5 41c0 47 -27 73 -74 73c-53 0 -102 -34 -148 -78l-59 -300h-56l111 570h-58l9 48h58l23 115h56l-23 -115h145l-9 -48h-146l-43 -220c50 44 105 75 164 75c71 0 107 -45 107 -108z" />
    <glyph glyph-name="Iacute" unicode="&#xcd;" horiz-adv-x="236" 
d="M248 733l-143 -733h-56l143 733h56zM406 901l-196 -106l-15 31l183 128z" />
    <glyph glyph-name="iacute" unicode="&#xed;" horiz-adv-x="190" 
d="M320 581l-196 -106l-15 31l183 128zM163 418l-81 -418h-56l82 418h55z" />
    <glyph glyph-name="Ibreve" unicode="&#x12c;" horiz-adv-x="236" 
d="M248 733l-143 -733h-56l143 733h56zM389 933c-14 -75 -61 -133 -145 -133c-73 0 -118 42 -118 104c0 11 0 19 2 29l48 4c-2 -8 -2 -17 -2 -26c0 -48 33 -69 74 -69c50 0 82 37 93 95z" />
    <glyph glyph-name="ibreve" unicode="&#x12d;" horiz-adv-x="190" 
d="M163 418l-81 -418h-56l82 418h55zM303 613c-14 -75 -61 -133 -145 -133c-73 0 -118 42 -118 104c0 11 0 19 2 29l48 4c-2 -8 -2 -17 -2 -26c0 -48 33 -69 74 -69c50 0 82 37 93 95z" />
    <glyph glyph-name="Icircumflex" unicode="&#xce;" horiz-adv-x="236" 
d="M248 733l-143 -733h-56l143 733h56zM367 805h-55l-60 97l-96 -97h-61l150 149h31z" />
    <glyph glyph-name="icircumflex" unicode="&#xee;" horiz-adv-x="190" 
d="M281 485h-55l-60 97l-96 -97h-61l150 149h31zM163 418l-81 -418h-56l82 418h55z" />
    <glyph glyph-name="Idieresis" unicode="&#xcf;" horiz-adv-x="236" 
d="M248 733l-143 -733h-56l143 733h56zM200 861c0 -22 -18 -40 -41 -40c-22 0 -40 18 -40 40c0 23 18 41 40 41c23 0 41 -18 41 -41zM370 861c0 -22 -18 -40 -40 -40s-40 18 -40 40c0 23 18 41 40 41s40 -18 40 -41z" />
    <glyph glyph-name="idieresis" unicode="&#xef;" horiz-adv-x="190" 
d="M114 541c0 -22 -18 -40 -41 -40c-22 0 -40 18 -40 40c0 23 18 41 40 41c23 0 41 -18 41 -41zM284 541c0 -22 -18 -40 -40 -40s-40 18 -40 40c0 23 18 41 40 41s40 -18 40 -41zM163 418l-81 -418h-56l82 418h55z" />
    <glyph glyph-name="Idotaccent" unicode="&#x130;" horiz-adv-x="236" 
d="M248 733l-143 -733h-56l143 733h56zM285 861c0 -22 -18 -40 -41 -40c-22 0 -40 18 -40 40c0 23 18 41 40 41c23 0 41 -18 41 -41z" />
    <glyph glyph-name="dotlessi" unicode="&#x131;" horiz-adv-x="190" 
d="M163 418l-81 -418h-56l82 418h55z" />
    <glyph glyph-name="Igrave" unicode="&#xcc;" horiz-adv-x="236" 
d="M248 733l-143 -733h-56l143 733h56zM273 825l-22 -30l-182 111l35 48z" />
    <glyph glyph-name="igrave" unicode="&#xec;" horiz-adv-x="190" 
d="M162 418l-81 -418h-56l82 418h55zM187 505l-22 -30l-182 111l35 48z" />
    <glyph glyph-name="Imacron" unicode="&#x12a;" horiz-adv-x="236" 
d="M248 733l-143 -733h-56l143 733h56zM388 881l-9 -48h-279l10 48h278z" />
    <glyph glyph-name="imacron" unicode="&#x12b;" horiz-adv-x="190" 
d="M163 418l-81 -418h-56l82 418h55zM302 561l-9 -48h-279l10 48h278z" />
    <glyph glyph-name="Iogonek" unicode="&#x12e;" horiz-adv-x="236" 
d="M248 733l-143 -733h-3c-44 -41 -99 -91 -99 -141c0 -24 11 -37 31 -37c21 0 39 13 61 34l22 -26c-29 -31 -59 -49 -97 -49c-42 -1 -66 25 -66 64c0 55 42 106 96 155h-1l143 733h56z" />
    <glyph glyph-name="iogonek" unicode="&#x12f;" horiz-adv-x="190" 
d="M163 418l-81 -418h-4c-44 -41 -100 -91 -100 -141c0 -24 12 -37 32 -37c21 0 39 13 61 34l22 -26c-29 -31 -59 -49 -97 -49c-42 -1 -66 25 -66 64c0 55 42 106 96 155l82 418h55zM205 572c0 -21 -18 -39 -40 -39s-40 18 -40 39c0 22 18 41 40 41s40 -19 40 -41z" />
    <glyph glyph-name="Kcommaaccent" unicode="&#x136;" horiz-adv-x="585" 
d="M290 -122c0 -60 -61 -111 -115 -140l-9 13c41 32 67 60 80 91c-23 4 -40 21 -40 44s19 41 41 41c20 0 43 -18 43 -49zM650 733l-423 -359l294 -374h-71l-278 362l-71 -362h-57l143 733h57l-67 -342l396 342h77z" />
    <glyph glyph-name="kcommaaccent" unicode="&#x137;" horiz-adv-x="396" 
d="M187 -122c0 -60 -61 -111 -115 -140l-9 13c41 32 67 60 80 91c-23 4 -40 21 -40 44s19 41 41 41c20 0 43 -18 43 -49zM427 418l-255 -202l182 -216h-63l-173 207l-40 -207h-55l142 733h55l-97 -501l230 186h74z" />
    <glyph glyph-name="Lacute" unicode="&#x139;" horiz-adv-x="509" 
d="M420 901l-196 -106l-15 31l183 128zM459 51l-10 -51h-405l143 733h57l-133 -682h348z" />
    <glyph glyph-name="lacute" unicode="&#x13a;" horiz-adv-x="189" 
d="M382 901l-196 -106l-15 31l183 128zM222 733l-142 -733h-55l142 733h55z" />
    <glyph glyph-name="Lcaron" unicode="&#x13d;" horiz-adv-x="509" 
d="M393 729l55 -9c-15 -83 -60 -144 -125 -184l-24 23c49 41 80 94 94 170zM459 51l-10 -51h-405l143 733h57l-133 -682h348z" />
    <glyph glyph-name="lcaron" unicode="&#x13e;" horiz-adv-x="189" 
d="M316 734l55 -9c-15 -83 -60 -144 -125 -184l-24 23c49 41 80 94 94 170zM222 733l-142 -733h-55l142 733h55z" />
    <glyph glyph-name="Lcommaaccent" unicode="&#x13b;" horiz-adv-x="509" 
d="M270 -122c0 -60 -61 -111 -115 -140l-9 13c41 32 67 60 80 91c-23 4 -40 21 -40 44s19 41 41 41c20 0 43 -18 43 -49zM459 51l-10 -51h-405l143 733h57l-133 -682h348z" />
    <glyph glyph-name="lcommaaccent" unicode="&#x13c;" horiz-adv-x="189" 
d="M76 -122c0 -60 -61 -111 -115 -140l-9 13c41 32 67 60 80 91c-23 4 -40 21 -40 44s19 41 41 41c20 0 43 -18 43 -49zM221 733l-142 -733h-55l142 733h55z" />
    <glyph glyph-name="Ldot" unicode="&#x13f;" horiz-adv-x="509" 
d="M459 51l-10 -51h-405l143 733h57l-133 -682h348zM447 365c0 -22 -18 -40 -41 -40c-22 0 -40 18 -40 40c0 23 18 41 40 41c23 0 41 -18 41 -41z" />
    <glyph glyph-name="ldot" unicode="&#x140;" horiz-adv-x="260" 
d="M222 733l-142 -733h-55l142 733h55zM294 366c0 -22 -18 -40 -41 -40c-22 0 -40 18 -40 40c0 23 18 41 40 41c23 0 41 -18 41 -41z" />
    <glyph glyph-name="Lslash" unicode="&#x141;" horiz-adv-x="537" 
d="M487 51l-10 -51h-405l63 324l-69 -29l10 56s70 29 69 29l70 353h56l-63 -327l113 47l-10 -56l-115 -47c1 0 -58 -299 -58 -299h349z" />
    <glyph glyph-name="lslash" unicode="&#x142;" horiz-adv-x="212" 
d="M234 733l-64 -332l55 24l-11 -55l-55 -24l-67 -346h-56l62 319l-56 -24l11 56l56 23l69 359h56z" />
    <glyph glyph-name="Nacute" unicode="&#x143;" horiz-adv-x="717" 
d="M638 888l-196 -106l-15 31l183 128zM731 733l-144 -742l-11 -2l-356 626l-120 -615h-55l144 741l14 3l354 -619l118 608h56z" />
    <glyph glyph-name="nacute" unicode="&#x144;" 
d="M447 581l-196 -106l-15 31l183 128zM416 317c0 -14 -2 -32 -6 -49l-52 -268h-56l52 264c3 17 5 30 5 41c0 47 -27 73 -74 73c-53 0 -101 -34 -148 -78l-59 -300h-56l82 418h53l-14 -70c50 44 107 77 166 77c71 0 107 -45 107 -108z" />
    <glyph glyph-name="Ncaron" unicode="&#x147;" horiz-adv-x="717" 
d="M636 940l-150 -149h-30l-92 149h56l60 -97l95 97h61zM731 733l-144 -742l-11 -2l-356 626l-120 -615h-55l144 741l14 3l354 -619l118 608h56z" />
    <glyph glyph-name="ncaron" unicode="&#x148;" 
d="M445 633l-150 -149h-30l-92 149h56l60 -97l95 97h61zM416 317c0 -14 -2 -32 -6 -49l-52 -268h-56l52 264c3 17 5 30 5 41c0 47 -27 73 -74 73c-53 0 -101 -34 -148 -78l-59 -300h-56l82 418h53l-14 -70c50 44 107 77 166 77c71 0 107 -45 107 -108z" />
    <glyph glyph-name="Ncommaaccent" unicode="&#x145;" horiz-adv-x="717" 
d="M341 -122c0 -60 -61 -111 -115 -140l-9 13c41 32 67 60 80 91c-23 4 -40 21 -40 44s19 41 41 41c20 0 43 -18 43 -49zM731 733l-144 -742l-11 -2l-356 626l-120 -615h-55l144 741l14 3l354 -619l118 608h56z" />
    <glyph glyph-name="ncommaaccent" unicode="&#x146;" 
d="M210 -122c0 -60 -61 -111 -115 -140l-9 13c41 32 67 60 80 91c-23 4 -40 21 -40 44s19 41 41 41c20 0 43 -18 43 -49zM416 317c0 -14 -2 -32 -6 -49l-52 -268h-56l52 264c3 17 5 30 5 41c0 47 -27 73 -74 73c-53 0 -101 -34 -148 -78l-59 -300h-56l82 418h53l-14 -70
c50 44 107 77 166 77c71 0 107 -45 107 -108z" />
    <glyph glyph-name="Ntilde" unicode="&#xd1;" horiz-adv-x="717" 
d="M731 733l-144 -742l-11 -2l-356 626l-120 -615h-55l144 741l14 3l354 -619l118 608h56zM637 866c-39 -44 -69 -61 -104 -61c-25 0 -43 13 -59 25s-31 24 -52 24c-22 0 -38 -11 -67 -42l-26 30c37 41 66 57 100 57c25 0 43 -13 60 -26c17 -12 32 -23 52 -23
c23 0 38 12 70 45z" />
    <glyph glyph-name="ntilde" unicode="&#xf1;" 
d="M416 317c0 -14 -2 -32 -6 -49l-52 -268h-56l52 264c3 17 5 30 5 41c0 47 -27 73 -74 73c-53 0 -101 -34 -148 -78l-59 -300h-56l82 418h53l-14 -70c50 44 107 77 166 77c71 0 107 -45 107 -108zM446 559c-39 -44 -69 -61 -104 -61c-25 0 -43 13 -59 25s-31 24 -52 24
c-22 0 -38 -11 -67 -42l-26 30c37 41 66 57 100 57c25 0 43 -13 60 -26c17 -12 32 -23 52 -23c23 0 38 12 70 45z" />
    <glyph glyph-name="Oacute" unicode="&#xd3;" horiz-adv-x="830" 
d="M696 901l-196 -106l-15 31l183 128zM804 411c0 -207 -156 -421 -399 -421c-187 0 -322 136 -322 333c0 207 156 421 399 421c187 0 322 -137 322 -333zM747 412c0 164 -108 280 -266 280c-198 0 -341 -169 -341 -370c0 -165 108 -281 266 -281c198 0 341 169 341 371z
" />
    <glyph glyph-name="oacute" unicode="&#xf3;" horiz-adv-x="464" 
d="M453 581l-196 -106l-15 31l183 128zM373 245c0 79 -44 133 -117 133c-40 0 -76 -19 -105 -47c-38 -37 -62 -96 -62 -158c0 -79 44 -133 116 -133c40 0 77 19 105 47c38 37 63 96 63 158zM427 248c0 -72 -30 -144 -78 -193c-38 -38 -90 -63 -147 -63
c-99 0 -167 72 -167 178c0 72 30 144 78 193c38 38 90 63 147 63c99 0 167 -72 167 -178z" />
    <glyph glyph-name="Obreve" unicode="&#x14e;" horiz-adv-x="830" 
d="M804 411c0 -207 -156 -421 -399 -421c-187 0 -322 136 -322 333c0 207 156 421 399 421c187 0 322 -137 322 -333zM747 412c0 164 -108 280 -266 280c-198 0 -341 -169 -341 -370c0 -165 108 -281 266 -281c198 0 341 169 341 371zM683 933c-14 -75 -61 -133 -145 -133
c-73 0 -118 42 -118 104c0 11 0 19 2 29l48 4c-2 -8 -2 -17 -2 -26c0 -48 33 -69 74 -69c50 0 82 37 93 95z" />
    <glyph glyph-name="obreve" unicode="&#x14f;" horiz-adv-x="464" 
d="M373 245c0 79 -44 133 -117 133c-40 0 -76 -19 -105 -47c-38 -37 -62 -96 -62 -158c0 -79 44 -133 116 -133c40 0 77 19 105 47c38 37 63 96 63 158zM427 248c0 -72 -30 -144 -78 -193c-38 -38 -90 -63 -147 -63c-99 0 -167 72 -167 178c0 72 30 144 78 193
c38 38 90 63 147 63c99 0 167 -72 167 -178zM444 613c-14 -75 -61 -133 -145 -133c-73 0 -118 42 -118 104c0 11 0 19 2 29l48 4c-2 -8 -2 -17 -2 -26c0 -48 33 -69 74 -69c50 0 82 37 93 95z" />
    <glyph glyph-name="Ocircumflex" unicode="&#xd4;" horiz-adv-x="830" 
d="M661 805h-55l-60 97l-96 -97h-61l150 149h31zM804 411c0 -207 -156 -421 -399 -421c-187 0 -322 136 -322 333c0 207 156 421 399 421c187 0 322 -137 322 -333zM747 412c0 164 -108 280 -266 280c-198 0 -341 -169 -341 -370c0 -165 108 -281 266 -281
c198 0 341 169 341 371z" />
    <glyph glyph-name="ocircumflex" unicode="&#xf4;" horiz-adv-x="464" 
d="M418 485h-55l-60 97l-96 -97h-61l150 149h31zM373 245c0 79 -44 133 -117 133c-40 0 -76 -19 -105 -47c-38 -37 -62 -96 -62 -158c0 -79 44 -133 116 -133c40 0 77 19 105 47c38 37 63 96 63 158zM427 248c0 -72 -30 -144 -78 -193c-38 -38 -90 -63 -147 -63
c-99 0 -167 72 -167 178c0 72 30 144 78 193c38 38 90 63 147 63c99 0 167 -72 167 -178z" />
    <glyph glyph-name="Odieresis" unicode="&#xd6;" horiz-adv-x="830" 
d="M494 861c0 -22 -18 -40 -41 -40c-22 0 -40 18 -40 40c0 23 18 41 40 41c23 0 41 -18 41 -41zM664 861c0 -22 -18 -40 -40 -40s-40 18 -40 40c0 23 18 41 40 41s40 -18 40 -41zM804 411c0 -207 -156 -421 -399 -421c-187 0 -322 136 -322 333c0 207 156 421 399 421
c187 0 322 -137 322 -333zM747 412c0 164 -108 280 -266 280c-198 0 -341 -169 -341 -370c0 -165 108 -281 266 -281c198 0 341 169 341 371z" />
    <glyph glyph-name="odieresis" unicode="&#xf6;" horiz-adv-x="464" 
d="M251 541c0 -22 -18 -40 -41 -40c-22 0 -40 18 -40 40c0 23 18 41 40 41c23 0 41 -18 41 -41zM421 541c0 -22 -18 -40 -40 -40s-40 18 -40 40c0 23 18 41 40 41s40 -18 40 -41zM373 245c0 79 -44 133 -117 133c-40 0 -76 -19 -105 -47c-38 -37 -62 -96 -62 -158
c0 -79 44 -133 116 -133c40 0 77 19 105 47c38 37 63 96 63 158zM427 248c0 -72 -30 -144 -78 -193c-38 -38 -90 -63 -147 -63c-99 0 -167 72 -167 178c0 72 30 144 78 193c38 38 90 63 147 63c99 0 167 -72 167 -178z" />
    <glyph glyph-name="Ograve" unicode="&#xd2;" horiz-adv-x="830" 
d="M804 411c0 -207 -156 -421 -399 -421c-187 0 -322 136 -322 333c0 207 156 421 399 421c187 0 322 -137 322 -333zM747 412c0 164 -108 280 -266 280c-198 0 -341 -169 -341 -370c0 -165 108 -281 266 -281c198 0 341 169 341 371zM568 825l-22 -30l-182 111l35 48z" />
    <glyph glyph-name="ograve" unicode="&#xf2;" horiz-adv-x="464" 
d="M373 245c0 79 -44 133 -117 133c-40 0 -76 -19 -105 -47c-38 -37 -62 -96 -62 -158c0 -79 44 -133 116 -133c40 0 77 19 105 47c38 37 63 96 63 158zM427 248c0 -72 -30 -144 -78 -193c-38 -38 -90 -63 -147 -63c-99 0 -167 72 -167 178c0 72 30 144 78 193
c38 38 90 63 147 63c99 0 167 -72 167 -178zM325 505l-22 -30l-182 111l35 48z" />
    <glyph glyph-name="Ohungarumlaut" unicode="&#x150;" horiz-adv-x="830" 
d="M603 959l-142 -155l-25 20l122 168zM740 953l-140 -152l-25 19l120 165zM804 411c0 -207 -156 -421 -399 -421c-187 0 -322 136 -322 333c0 207 156 421 399 421c187 0 322 -137 322 -333zM747 412c0 164 -108 280 -266 280c-198 0 -341 -169 -341 -370
c0 -165 108 -281 266 -281c198 0 341 169 341 371z" />
    <glyph glyph-name="ohungarumlaut" unicode="&#x151;" horiz-adv-x="464" 
d="M360 639l-142 -155l-25 20l122 168zM497 633l-140 -152l-25 19l120 165zM373 245c0 79 -44 133 -117 133c-40 0 -76 -19 -105 -47c-38 -37 -62 -96 -62 -158c0 -79 44 -133 116 -133c40 0 77 19 105 47c38 37 63 96 63 158zM427 248c0 -72 -30 -144 -78 -193
c-38 -38 -90 -63 -147 -63c-99 0 -167 72 -167 178c0 72 30 144 78 193c38 38 90 63 147 63c99 0 167 -72 167 -178z" />
    <glyph glyph-name="Omacron" unicode="&#x14c;" horiz-adv-x="830" 
d="M682 881l-9 -48h-279l10 48h278zM804 411c0 -207 -156 -421 -399 -421c-187 0 -322 136 -322 333c0 207 156 421 399 421c187 0 322 -137 322 -333zM747 412c0 164 -108 280 -266 280c-198 0 -341 -169 -341 -370c0 -165 108 -281 266 -281c198 0 341 169 341 371z" />
    <glyph glyph-name="omacron" unicode="&#x14d;" horiz-adv-x="464" 
d="M439 561l-9 -48h-279l10 48h278zM373 245c0 79 -44 133 -117 133c-40 0 -76 -19 -105 -47c-38 -37 -62 -96 -62 -158c0 -79 44 -133 116 -133c40 0 77 19 105 47c38 37 63 96 63 158zM427 248c0 -72 -30 -144 -78 -193c-38 -38 -90 -63 -147 -63c-99 0 -167 72 -167 178
c0 72 30 144 78 193c38 38 90 63 147 63c99 0 167 -72 167 -178z" />
    <glyph glyph-name="Oslash" unicode="&#xd8;" horiz-adv-x="830" 
d="M804 411c0 -207 -156 -421 -399 -421c-91 0 -169 32 -226 87l-87 -83l-31 36l86 84c-41 55 -64 127 -64 209c0 207 156 421 399 421c90 0 169 -33 226 -88l87 84l31 -36s-52 -50 -87 -84c41 -55 65 -127 65 -209zM747 412c0 65 -18 123 -48 169
c-90 -88 -392 -378 -481 -466c46 -47 111 -74 188 -74c198 0 341 169 341 371zM140 322c0 -66 17 -123 47 -169l482 465c-47 47 -112 74 -188 74c-198 0 -341 -169 -341 -370z" />
    <glyph glyph-name="oslash" unicode="&#xf8;" horiz-adv-x="462" 
d="M427 248c0 -72 -30 -144 -78 -193c-38 -38 -90 -63 -147 -63c-54 0 -99 21 -129 58l-69 -59l-27 32l75 63c-11 24 -17 52 -17 84c0 72 30 144 78 193c38 38 90 63 147 63c53 0 98 -21 127 -57l70 58l27 -31l-75 -63c12 -24 18 -53 18 -85zM373 245c0 19 -3 36 -8 51
l-251 -212c20 -28 51 -44 91 -44s77 19 105 47c38 37 63 96 63 158zM89 173c0 -18 2 -35 7 -50l251 211c-20 27 -51 44 -91 44s-76 -19 -105 -47c-38 -37 -62 -96 -62 -158z" />
    <glyph glyph-name="Oslashacute" unicode="&#x1fe;" horiz-adv-x="830" 
d="M804 411c0 -207 -156 -421 -399 -421c-91 0 -169 32 -226 87l-87 -83l-31 36l86 84c-41 55 -64 127 -64 209c0 207 156 421 399 421c90 0 169 -33 226 -88l87 84l31 -36s-52 -50 -87 -84c41 -55 65 -127 65 -209zM747 412c0 65 -18 123 -48 169
c-90 -88 -392 -378 -481 -466c46 -47 111 -74 188 -74c198 0 341 169 341 371zM140 322c0 -66 17 -123 47 -169l482 465c-47 47 -112 74 -188 74c-198 0 -341 -169 -341 -370zM696 901l-196 -106l-15 31l183 128z" />
    <glyph glyph-name="oslashacute" unicode="&#x1ff;" horiz-adv-x="464" 
d="M427 248c0 -72 -30 -144 -78 -193c-38 -38 -90 -63 -147 -63c-54 0 -99 21 -129 58l-69 -59l-27 32l75 63c-11 24 -17 52 -17 84c0 72 30 144 78 193c38 38 90 63 147 63c53 0 98 -21 127 -57l70 58l27 -31l-75 -63c12 -24 18 -53 18 -85zM373 245c0 19 -3 36 -8 51
l-251 -212c20 -28 51 -44 91 -44s77 19 105 47c38 37 63 96 63 158zM89 173c0 -18 2 -35 7 -50l251 211c-20 27 -51 44 -91 44s-76 -19 -105 -47c-38 -37 -62 -96 -62 -158zM453 581l-196 -106l-15 31l183 128z" />
    <glyph glyph-name="Otilde" unicode="&#xd5;" horiz-adv-x="830" 
d="M804 411c0 -207 -156 -421 -399 -421c-187 0 -322 136 -322 333c0 207 156 421 399 421c187 0 322 -137 322 -333zM747 412c0 164 -108 280 -266 280c-198 0 -341 -169 -341 -370c0 -165 108 -281 266 -281c198 0 341 169 341 371zM695 879c-39 -44 -69 -61 -104 -61
c-25 0 -43 13 -59 25s-31 24 -52 24c-22 0 -38 -11 -67 -42l-26 30c37 41 66 57 100 57c25 0 43 -13 60 -26c17 -12 32 -23 52 -23c23 0 38 12 70 45z" />
    <glyph glyph-name="otilde" unicode="&#xf5;" horiz-adv-x="464" 
d="M373 245c0 79 -44 133 -117 133c-40 0 -76 -19 -105 -47c-38 -37 -62 -96 -62 -158c0 -79 44 -133 116 -133c40 0 77 19 105 47c38 37 63 96 63 158zM427 248c0 -72 -30 -144 -78 -193c-38 -38 -90 -63 -147 -63c-99 0 -167 72 -167 178c0 72 30 144 78 193
c38 38 90 63 147 63c99 0 167 -72 167 -178zM452 559c-39 -44 -69 -61 -104 -61c-25 0 -43 13 -59 25s-31 24 -52 24c-22 0 -38 -11 -67 -42l-26 30c37 41 66 57 100 57c25 0 43 -13 60 -26c17 -12 32 -23 52 -23c23 0 38 12 70 45z" />
    <glyph glyph-name="OE" unicode="&#x152;" horiz-adv-x="1024" 
d="M1064 733l-9 -50h-349l-55 -286h313l-9 -50h-314l-58 -296h349l-10 -51h-383c-30 -2 -62 -7 -100 -7c-235 0 -355 153 -355 332c0 238 181 415 463 415c35 0 73 -3 108 -7h409zM437 43c30 0 61 2 89 6l123 633c-36 6 -81 9 -116 9c-227 0 -391 -152 -391 -361
c0 -100 36 -178 98 -225c47 -38 113 -62 197 -62z" />
    <glyph glyph-name="oe" unicode="&#x153;" horiz-adv-x="775" 
d="M738 202h-315c-1 -9 -1 -19 -1 -27c0 -87 48 -135 137 -135c33 0 68 7 104 20c0 0 9 -47 9 -46c-36 -15 -70 -22 -119 -22c-88 0 -147 37 -171 107c-40 -64 -104 -107 -180 -107c-98 0 -166 72 -166 178c0 72 30 144 78 193c38 38 90 63 147 63c74 0 130 -40 153 -106
c40 63 102 105 181 105c109 0 153 -82 152 -162c0 -21 -3 -42 -9 -61zM257 378c-40 0 -76 -18 -105 -46c-38 -37 -63 -96 -63 -157c0 -81 45 -135 117 -135c40 0 77 18 105 46c38 37 63 96 63 157c0 81 -44 135 -117 135zM693 246c2 7 2 17 2 23c0 53 -28 109 -104 109
c-75 0 -134 -57 -157 -132h259z" />
    <glyph glyph-name="Racute" unicode="&#x154;" horiz-adv-x="581" 
d="M571 537c0 -113 -74 -207 -211 -235l153 -302h-67l-144 294c-10 -1 -21 -1 -32 -1c-38 0 -70 3 -111 7l-58 -300h-57l142 728c46 6 86 10 136 10c162 0 249 -88 249 -201zM513 533c0 87 -61 154 -190 154c-33 0 -56 -1 -89 -6l-65 -331c37 -4 73 -7 107 -7
c152 0 237 78 237 190zM560 901l-196 -106l-15 31l183 128z" />
    <glyph glyph-name="racute" unicode="&#x155;" horiz-adv-x="266" 
d="M374 581l-196 -106l-15 31l183 128zM283 427l-10 -55h-1c-59 -2 -96 -27 -138 -87l-56 -285h-56l82 418h53l-15 -79c32 51 83 88 141 88z" />
    <glyph glyph-name="Rcaron" unicode="&#x158;" horiz-adv-x="581" 
d="M571 537c0 -113 -74 -207 -211 -235l153 -302h-67l-144 294c-10 -1 -21 -1 -32 -1c-38 0 -70 3 -111 7l-58 -300h-57l142 728c46 6 86 10 136 10c162 0 249 -88 249 -201zM513 533c0 87 -61 154 -190 154c-33 0 -56 -1 -89 -6l-65 -331c37 -4 73 -7 107 -7
c152 0 237 78 237 190zM558 953l-150 -149h-30l-92 149h56l60 -97l95 97h61z" />
    <glyph glyph-name="rcaron" unicode="&#x159;" horiz-adv-x="266" 
d="M372 633l-150 -149h-30l-92 149h56l60 -97l95 97h61zM283 427l-10 -55h-1c-59 -2 -96 -27 -138 -87l-56 -285h-56l82 418h53l-15 -79c32 51 83 88 141 88z" />
    <glyph glyph-name="Rcommaaccent" unicode="&#x156;" horiz-adv-x="581" 
d="M571 537c0 -113 -74 -207 -211 -235l153 -302h-67l-144 294c-10 -1 -21 -1 -32 -1c-38 0 -70 3 -111 7l-58 -300h-57l142 728c46 6 86 10 136 10c162 0 249 -88 249 -201zM513 533c0 87 -61 154 -190 154c-33 0 -56 -1 -89 -6l-65 -331c37 -4 73 -7 107 -7
c152 0 237 78 237 190zM260 -122c0 -60 -61 -111 -115 -140l-9 13c41 32 67 60 80 91c-23 4 -40 21 -40 44s19 41 41 41c20 0 43 -18 43 -49z" />
    <glyph glyph-name="rcommaaccent" unicode="&#x157;" horiz-adv-x="266" 
d="M73 -122c0 -60 -61 -111 -115 -140l-9 13c41 32 67 60 80 91c-23 4 -40 21 -40 44s19 41 41 41c20 0 43 -18 43 -49zM282 427l-10 -55h-1c-59 -2 -96 -27 -138 -87l-56 -285h-56l82 418h53l-15 -79c32 51 83 88 141 88z" />
    <glyph glyph-name="Sacute" unicode="&#x15a;" horiz-adv-x="502" 
d="M526 901l-196 -106l-15 31l183 128zM520 679l-31 -44c-40 33 -94 57 -149 57c-100 0 -158 -66 -158 -145c0 -68 49 -104 123 -152c70 -47 145 -97 145 -198c0 -114 -84 -207 -226 -207c-80 0 -160 34 -221 86l32 44c55 -46 119 -78 189 -78c105 0 169 61 169 149
c0 76 -62 119 -131 165c-68 45 -137 94 -137 185c0 113 90 203 220 203c66 0 131 -28 175 -65z" />
    <glyph glyph-name="sacute" unicode="&#x15b;" horiz-adv-x="351" 
d="M392 581l-196 -106l-15 31l183 128zM335 379l-31 -40c-29 25 -61 41 -99 41c-57 0 -87 -36 -87 -71s37 -55 78 -76c52 -28 93 -55 93 -111c0 -73 -62 -131 -146 -131c-58 0 -107 24 -146 59l33 39c34 -30 72 -51 117 -51c57 0 91 33 91 76c0 39 -38 59 -80 81
c-48 25 -90 50 -90 107c0 67 59 124 145 124c47 0 90 -19 122 -47z" />
    <glyph glyph-name="Scaron" unicode="&#x160;" horiz-adv-x="502" 
d="M524 953l-150 -149h-30l-92 149h56l60 -97l95 97h61zM520 679l-31 -44c-40 33 -94 57 -149 57c-100 0 -158 -66 -158 -145c0 -68 49 -104 123 -152c70 -47 145 -97 145 -198c0 -114 -84 -207 -226 -207c-80 0 -160 34 -221 86l32 44c55 -46 119 -78 189 -78
c105 0 169 61 169 149c0 76 -62 119 -131 165c-68 45 -137 94 -137 185c0 113 90 203 220 203c66 0 131 -28 175 -65z" />
    <glyph glyph-name="scaron" unicode="&#x161;" horiz-adv-x="351" 
d="M390 633l-150 -149h-30l-92 149h56l60 -97l95 97h61zM335 379l-31 -40c-29 25 -61 41 -99 41c-57 0 -87 -36 -87 -71s37 -55 78 -76c52 -28 93 -55 93 -111c0 -73 -62 -131 -146 -131c-58 0 -107 24 -146 59l33 39c34 -30 72 -51 117 -51c57 0 91 33 91 76
c0 39 -38 59 -80 81c-48 25 -90 50 -90 107c0 67 59 124 145 124c47 0 90 -19 122 -47z" />
    <glyph glyph-name="Scedilla" unicode="&#x15e;" horiz-adv-x="502" 
d="M295 -142c0 -54 -48 -95 -115 -95c-34 0 -70 12 -103 34l24 36c27 -19 55 -29 82 -29c36 0 64 18 64 51c0 23 -23 49 -90 56l-2 6l35 75c-68 8 -135 39 -187 84l32 44c55 -46 119 -78 189 -78c105 0 169 61 169 149c0 76 -62 119 -131 165c-68 45 -137 94 -137 185
c0 113 90 203 220 203c66 0 131 -28 175 -65l-31 -44c-40 33 -94 57 -149 57c-100 0 -158 -66 -158 -145c0 -68 49 -104 123 -152c70 -47 145 -97 145 -198c0 -112 -81 -204 -219 -207l-22 -50c56 -15 86 -42 86 -82z" />
    <glyph glyph-name="scedilla" unicode="&#x15f;" horiz-adv-x="351" 
d="M214 -142c0 -54 -48 -95 -115 -95c-34 0 -70 12 -103 34l24 36c27 -19 55 -29 82 -29c36 0 64 18 64 51c0 23 -23 49 -90 56l-2 6l36 77c-44 6 -83 27 -114 56l33 39c34 -30 72 -51 117 -51c57 0 91 33 91 76c0 39 -38 59 -80 81c-48 25 -90 50 -90 107
c0 67 59 124 145 124c47 0 90 -19 122 -47l-31 -40c-29 25 -61 41 -99 41c-57 0 -87 -36 -87 -71s37 -55 78 -76c52 -28 93 -55 93 -111c0 -71 -58 -127 -137 -131l-23 -51c56 -15 86 -42 86 -82z" />
    <glyph glyph-name="Scommaaccent" unicode="&#x218;" horiz-adv-x="502" 
d="M226 -122c0 -60 -61 -111 -115 -140l-9 13c41 32 67 60 80 91c-23 4 -40 21 -40 44s19 41 41 41c20 0 43 -18 43 -49zM520 679l-31 -44c-40 33 -94 57 -149 57c-100 0 -158 -66 -158 -145c0 -68 49 -104 123 -152c70 -47 145 -97 145 -198c0 -114 -84 -207 -226 -207
c-80 0 -160 34 -221 86l32 44c55 -46 119 -78 189 -78c105 0 169 61 169 149c0 76 -62 119 -131 165c-68 45 -137 94 -137 185c0 113 90 203 220 203c66 0 131 -28 175 -65z" />
    <glyph glyph-name="scommaaccent" unicode="&#x219;" horiz-adv-x="351" 
d="M155 -122c0 -60 -61 -111 -115 -140l-9 13c41 32 67 60 80 91c-23 4 -40 21 -40 44s19 41 41 41c20 0 43 -18 43 -49zM335 379l-31 -40c-29 25 -61 41 -99 41c-57 0 -87 -36 -87 -71s37 -55 78 -76c52 -28 93 -55 93 -111c0 -73 -62 -131 -146 -131
c-58 0 -107 24 -146 59l33 39c34 -30 72 -51 117 -51c57 0 91 33 91 76c0 39 -38 59 -80 81c-48 25 -90 50 -90 107c0 67 59 124 145 124c47 0 90 -19 122 -47z" />
    <glyph glyph-name="Tcaron" unicode="&#x164;" horiz-adv-x="578" 
d="M569 953l-150 -149h-30l-92 149h56l60 -97l95 97h61zM656 733l-10 -52h-241l-132 -681h-56l132 681h-239l10 52h536z" />
    <glyph glyph-name="tcaron" unicode="&#x165;" horiz-adv-x="293" 
d="M329 674l55 -9c-15 -83 -60 -144 -125 -184l-24 23c49 41 80 94 94 170zM309 418l-9 -49h-128l-49 -253c-3 -14 -3 -22 -3 -29c0 -33 25 -46 70 -46c14 0 27 1 40 3l-8 -47c-17 -3 -32 -5 -48 -5c-65 0 -109 25 -109 86c0 9 1 21 5 42l48 249h-75l2 11l83 42l19 96l59 27
l-25 -127h128z" />
    <glyph glyph-name="Tcommaaccent" unicode="&#x162;" horiz-adv-x="578" 
d="M271 -122c0 -60 -61 -111 -115 -140l-9 13c41 32 67 60 80 91c-23 4 -40 21 -40 44s19 41 41 41c20 0 43 -18 43 -49zM656 733l-10 -52h-241l-132 -681h-56l132 681h-239l10 52h536z" />
    <glyph glyph-name="tcommaaccent" unicode="&#x163;" horiz-adv-x="293" 
d="M159 -122c0 -60 -61 -111 -115 -140l-9 13c41 32 67 60 80 91c-23 4 -40 21 -40 44s19 41 41 41c20 0 43 -18 43 -49zM309 418l-9 -49h-128l-49 -253c-3 -14 -3 -22 -3 -29c0 -33 25 -46 70 -46c14 0 27 1 40 3l-8 -47c-17 -3 -32 -5 -48 -5c-65 0 -109 25 -109 86
c0 9 1 21 5 42l48 249h-75l2 11l83 42l19 96l59 27l-25 -127h128z" />
    <glyph glyph-name="Thorn" unicode="&#xde;" horiz-adv-x="549" 
d="M45 0l143 733h56l-25 -127c18 2 44 3 61 3c173 0 262 -97 263 -222c0 -145 -105 -262 -311 -262c-29 0 -72 4 -104 9l-27 -134h-56zM485 384c0 92 -61 174 -201 174c-24 0 -50 -2 -75 -5l-71 -369c33 -5 70 -9 101 -9c166 0 246 94 246 209z" />
    <glyph glyph-name="thorn" unicode="&#xfe;" horiz-adv-x="473" 
d="M435 252c0 -133 -96 -260 -234 -260c-48 0 -89 19 -116 42l-49 -250h-56l185 949h55l-67 -351c33 26 76 44 125 44c93 0 157 -75 157 -174zM380 243c0 82 -47 134 -118 134c-42 0 -86 -19 -119 -49l-48 -241c25 -27 63 -46 109 -46c100 0 176 96 176 202z" />
    <glyph glyph-name="Uacute" unicode="&#xda;" horiz-adv-x="695" 
d="M626 888l-196 -106l-15 31l183 128zM716 733l-95 -486c-33 -171 -133 -257 -295 -257c-147 0 -237 87 -237 227c0 28 4 53 9 80l84 436h57l-86 -445c-5 -24 -8 -43 -8 -69c0 -110 68 -178 191 -178c124 0 201 64 230 216l93 476h57z" />
    <glyph glyph-name="uacute" unicode="&#xfa;" 
d="M451 581l-196 -106l-15 31l183 128zM435 418l-81 -418h-54l14 70c-49 -44 -107 -78 -166 -78c-71 0 -106 46 -106 109c0 14 2 32 5 49l53 268h56l-52 -264c-4 -17 -5 -30 -5 -41c0 -47 26 -73 73 -73c53 0 102 34 149 78l58 300h56z" />
    <glyph glyph-name="Ubreve" unicode="&#x16c;" horiz-adv-x="695" 
d="M716 733l-95 -486c-33 -171 -133 -257 -295 -257c-147 0 -237 87 -237 227c0 28 4 53 9 80l84 436h57l-86 -445c-5 -24 -8 -43 -8 -69c0 -110 68 -178 191 -178c124 0 201 64 230 216l93 476h57zM612 920c-14 -75 -61 -133 -145 -133c-73 0 -118 42 -118 104
c0 11 0 19 2 29l48 4c-2 -8 -2 -17 -2 -26c0 -48 33 -69 74 -69c50 0 82 37 93 95z" />
    <glyph glyph-name="ubreve" unicode="&#x16d;" 
d="M435 418l-81 -418h-54l14 70c-49 -44 -107 -78 -166 -78c-71 0 -106 46 -106 109c0 14 2 32 5 49l53 268h56l-52 -264c-4 -17 -5 -30 -5 -41c0 -47 26 -73 73 -73c53 0 102 34 149 78l58 300h56zM438 613c-14 -75 -61 -133 -145 -133c-73 0 -118 42 -118 104
c0 11 0 19 2 29l48 4c-2 -8 -2 -17 -2 -26c0 -48 33 -69 74 -69c50 0 82 37 93 95z" />
    <glyph glyph-name="Ucircumflex" unicode="&#xdb;" horiz-adv-x="695" 
d="M591 792h-55l-60 97l-96 -97h-61l150 149h31zM716 733l-95 -486c-33 -171 -133 -257 -295 -257c-147 0 -237 87 -237 227c0 28 4 53 9 80l84 436h57l-86 -445c-5 -24 -8 -43 -8 -69c0 -110 68 -178 191 -178c124 0 201 64 230 216l93 476h57z" />
    <glyph glyph-name="ucircumflex" unicode="&#xfb;" 
d="M416 485h-55l-60 97l-96 -97h-61l150 149h31zM435 418l-81 -418h-54l14 70c-49 -44 -107 -78 -166 -78c-71 0 -106 46 -106 109c0 14 2 32 5 49l53 268h56l-52 -264c-4 -17 -5 -30 -5 -41c0 -47 26 -73 73 -73c53 0 102 34 149 78l58 300h56z" />
    <glyph glyph-name="Udieresis" unicode="&#xdc;" horiz-adv-x="695" 
d="M424 848c0 -22 -18 -40 -41 -40c-22 0 -40 18 -40 40c0 23 18 41 40 41c23 0 41 -18 41 -41zM594 848c0 -22 -18 -40 -40 -40s-40 18 -40 40c0 23 18 41 40 41s40 -18 40 -41zM716 733l-95 -486c-33 -171 -133 -257 -295 -257c-147 0 -237 87 -237 227c0 28 4 53 9 80
l84 436h57l-86 -445c-5 -24 -8 -43 -8 -69c0 -110 68 -178 191 -178c124 0 201 64 230 216l93 476h57z" />
    <glyph glyph-name="udieresis" unicode="&#xfc;" 
d="M249 541c0 -22 -18 -40 -41 -40c-22 0 -40 18 -40 40c0 23 18 41 40 41c23 0 41 -18 41 -41zM419 541c0 -22 -18 -40 -40 -40s-40 18 -40 40c0 23 18 41 40 41s40 -18 40 -41zM435 418l-81 -418h-54l14 70c-49 -44 -107 -78 -166 -78c-71 0 -106 46 -106 109
c0 14 2 32 5 49l53 268h56l-52 -264c-4 -17 -5 -30 -5 -41c0 -47 26 -73 73 -73c53 0 102 34 149 78l58 300h56z" />
    <glyph glyph-name="Ugrave" unicode="&#xd9;" horiz-adv-x="695" 
d="M716 733l-95 -486c-33 -171 -133 -257 -295 -257c-147 0 -237 87 -237 227c0 28 4 53 9 80l84 436h57l-86 -445c-5 -24 -8 -43 -8 -69c0 -110 68 -178 191 -178c124 0 201 64 230 216l93 476h57zM497 812l-22 -30l-182 111l35 48z" />
    <glyph glyph-name="ugrave" unicode="&#xf9;" 
d="M435 418l-81 -418h-54l14 70c-49 -44 -107 -78 -166 -78c-71 0 -106 46 -106 109c0 14 2 32 5 49l53 268h56l-52 -264c-4 -17 -5 -30 -5 -41c0 -47 26 -73 73 -73c53 0 102 34 149 78l58 300h56zM323 505l-22 -30l-182 111l35 48z" />
    <glyph glyph-name="Uhungarumlaut" unicode="&#x170;" horiz-adv-x="695" 
d="M716 733l-95 -486c-33 -171 -133 -257 -295 -257c-147 0 -237 87 -237 227c0 28 4 53 9 80l84 436h57l-86 -445c-5 -24 -8 -43 -8 -69c0 -110 68 -178 191 -178c124 0 201 64 230 216l93 476h57zM533 946l-142 -155l-25 20l122 168zM670 940l-140 -152l-25 19l120 165z
" />
    <glyph glyph-name="uhungarumlaut" unicode="&#x171;" 
d="M435 418l-81 -418h-54l14 70c-49 -44 -107 -78 -166 -78c-71 0 -106 46 -106 109c0 14 2 32 5 49l53 268h56l-52 -264c-4 -17 -5 -30 -5 -41c0 -47 26 -73 73 -73c53 0 102 34 149 78l58 300h56zM358 639l-142 -155l-25 20l122 168zM495 633l-140 -152l-25 19l120 165z
" />
    <glyph glyph-name="Umacron" unicode="&#x16a;" horiz-adv-x="695" 
d="M716 733l-95 -486c-33 -171 -133 -257 -295 -257c-147 0 -237 87 -237 227c0 28 4 53 9 80l84 436h57l-86 -445c-5 -24 -8 -43 -8 -69c0 -110 68 -178 191 -178c124 0 201 64 230 216l93 476h57zM612 868l-9 -48h-279l10 48h278z" />
    <glyph glyph-name="umacron" unicode="&#x16b;" 
d="M435 418l-81 -418h-54l14 70c-49 -44 -107 -78 -166 -78c-71 0 -106 46 -106 109c0 14 2 32 5 49l53 268h56l-52 -264c-4 -17 -5 -30 -5 -41c0 -47 26 -73 73 -73c53 0 102 34 149 78l58 300h56zM437 561l-9 -48h-279l10 48h278z" />
    <glyph glyph-name="Uogonek" unicode="&#x172;" horiz-adv-x="695" 
d="M716 733l-95 -486c-32 -163 -124 -248 -272 -256c-38 -33 -98 -83 -98 -132c0 -24 12 -37 32 -37s39 13 60 34l23 -26c-30 -31 -60 -49 -97 -49c-42 -1 -66 25 -66 64c0 54 40 101 93 147c-129 10 -207 94 -207 225c0 28 4 53 9 80l84 436h57l-86 -445
c-5 -24 -8 -43 -8 -69c0 -110 68 -178 191 -178c124 0 201 64 230 216l93 476h57z" />
    <glyph glyph-name="uogonek" unicode="&#x173;" 
d="M435 418l-81 -418h-6c-36 -31 -109 -87 -109 -142c0 -23 11 -36 31 -36c21 0 39 13 61 34l22 -26c-29 -31 -59 -49 -96 -49c-42 -1 -67 25 -67 64c0 59 50 111 111 161l13 64c-49 -44 -107 -78 -166 -78c-71 0 -106 46 -106 109c0 14 2 32 5 49l53 268h56l-52 -264
c-4 -17 -5 -30 -5 -41c0 -47 26 -73 73 -73c53 0 102 34 149 78l58 300h56z" />
    <glyph glyph-name="Uring" unicode="&#x16e;" horiz-adv-x="695" 
d="M577 907c0 -60 -48 -118 -112 -118c-49 0 -86 37 -86 86c0 60 47 117 112 117c49 0 86 -36 86 -85zM536 903c0 35 -21 56 -49 56c-35 0 -67 -37 -67 -81c0 -35 20 -55 48 -55c35 0 68 35 68 80zM716 733l-95 -486c-33 -171 -133 -257 -295 -257c-147 0 -237 87 -237 227
c0 28 4 53 9 80l84 436h57l-86 -445c-5 -24 -8 -43 -8 -69c0 -110 68 -178 191 -178c124 0 201 64 230 216l93 476h57z" />
    <glyph glyph-name="uring" unicode="&#x16f;" 
d="M402 600c0 -60 -48 -118 -112 -118c-49 0 -86 37 -86 86c0 60 47 117 112 117c49 0 86 -36 86 -85zM361 596c0 35 -21 56 -49 56c-35 0 -67 -37 -67 -81c0 -35 20 -55 48 -55c35 0 68 35 68 80zM435 418l-81 -418h-54l14 70c-49 -44 -107 -78 -166 -78
c-71 0 -106 46 -106 109c0 14 2 32 5 49l53 268h56l-52 -264c-4 -17 -5 -30 -5 -41c0 -47 26 -73 73 -73c53 0 102 34 149 78l58 300h56z" />
    <glyph glyph-name="Wacute" unicode="&#x1e82;" horiz-adv-x="944" 
d="M750 901l-196 -106l-15 31l183 128zM1010 733l-337 -743l-15 -2l-111 628l-349 -628l-16 2l-47 743h56l35 -600l337 604h12l109 -609l264 605h62z" />
    <glyph glyph-name="wacute" unicode="&#x1e83;" horiz-adv-x="610" 
d="M531 581l-196 -106l-15 31l183 128zM630 418l-221 -430h-10l-71 323l-197 -323h-10l-58 430h55l34 -317l190 317h10l67 -317l153 317h58z" />
    <glyph glyph-name="Wcircumflex" unicode="&#x174;" horiz-adv-x="944" 
d="M716 805h-55l-60 97l-96 -97h-61l150 149h31zM1010 733l-337 -743l-15 -2l-111 628l-349 -628l-16 2l-47 743h56l35 -600l337 604h12l109 -609l264 605h62z" />
    <glyph glyph-name="wcircumflex" unicode="&#x175;" horiz-adv-x="610" 
d="M496 485h-55l-60 97l-96 -97h-61l150 149h31zM630 418l-221 -430h-10l-71 323l-197 -323h-10l-58 430h55l34 -317l190 317h10l67 -317l153 317h58z" />
    <glyph glyph-name="Wdieresis" unicode="&#x1e84;" horiz-adv-x="944" 
d="M549 861c0 -22 -18 -40 -41 -40c-22 0 -40 18 -40 40c0 23 18 41 40 41c23 0 41 -18 41 -41zM719 861c0 -22 -18 -40 -40 -40s-40 18 -40 40c0 23 18 41 40 41s40 -18 40 -41zM1010 733l-337 -743l-15 -2l-111 628l-349 -628l-16 2l-47 743h56l35 -600l337 604h12
l109 -609l264 605h62z" />
    <glyph glyph-name="wdieresis" unicode="&#x1e85;" horiz-adv-x="610" 
d="M329 541c0 -22 -18 -40 -41 -40c-22 0 -40 18 -40 40c0 23 18 41 40 41c23 0 41 -18 41 -41zM499 541c0 -22 -18 -40 -40 -40s-40 18 -40 40c0 23 18 41 40 41s40 -18 40 -41zM630 418l-221 -430h-10l-71 323l-197 -323h-10l-58 430h55l34 -317l190 317h10l67 -317
l153 317h58z" />
    <glyph glyph-name="Wgrave" unicode="&#x1e80;" horiz-adv-x="944" 
d="M1010 733l-337 -743l-15 -2l-111 628l-349 -628l-16 2l-47 743h56l35 -600l337 604h12l109 -609l264 605h62zM622 825l-22 -30l-182 111l35 48z" />
    <glyph glyph-name="wgrave" unicode="&#x1e81;" horiz-adv-x="610" 
d="M630 418l-221 -430h-10l-71 323l-197 -323h-10l-58 430h55l34 -317l190 317h10l67 -317l153 317h58zM402 505l-22 -30l-182 111l35 48z" />
    <glyph glyph-name="Yacute" unicode="&#xdd;" horiz-adv-x="590" 
d="M676 733l-328 -406l-64 -327h-56l64 329l-175 404h57l154 -357l283 357h65zM578 888l-196 -106l-15 31l183 128z" />
    <glyph glyph-name="yacute" unicode="&#xfd;" horiz-adv-x="420" 
d="M452 418l-414 -634h-58l166 251l-96 383h55l78 -332l208 332h61zM429 581l-196 -106l-15 31l183 128z" />
    <glyph glyph-name="Ycircumflex" unicode="&#x176;" horiz-adv-x="590" 
d="M676 733l-328 -406l-64 -327h-56l64 329l-175 404h57l154 -357l283 357h65zM544 792h-55l-60 97l-96 -97h-61l150 149h31z" />
    <glyph glyph-name="ycircumflex" unicode="&#x177;" horiz-adv-x="420" 
d="M452 418l-414 -634h-58l166 251l-96 383h55l78 -332l208 332h61zM394 485h-55l-60 97l-96 -97h-61l150 149h31z" />
    <glyph glyph-name="Ydieresis" unicode="&#x178;" horiz-adv-x="590" 
d="M676 733l-328 -406l-64 -327h-56l64 329l-175 404h57l154 -357l283 357h65zM376 848c0 -22 -18 -40 -41 -40c-22 0 -40 18 -40 40c0 23 18 41 40 41c23 0 41 -18 41 -41zM546 848c0 -22 -18 -40 -40 -40s-40 18 -40 40c0 23 18 41 40 41s40 -18 40 -41z" />
    <glyph glyph-name="ydieresis" unicode="&#xff;" horiz-adv-x="420" 
d="M452 418l-414 -634h-58l166 251l-96 383h55l78 -332l208 332h61zM227 541c0 -22 -18 -40 -41 -40c-22 0 -40 18 -40 40c0 23 18 41 40 41c23 0 41 -18 41 -41zM397 541c0 -22 -18 -40 -40 -40s-40 18 -40 40c0 23 18 41 40 41s40 -18 40 -41z" />
    <glyph glyph-name="Ygrave" unicode="&#x1ef2;" horiz-adv-x="590" 
d="M676 733l-328 -406l-64 -327h-56l64 329l-175 404h57l154 -357l283 357h65zM450 812l-22 -30l-182 111l35 48z" />
    <glyph glyph-name="ygrave" unicode="&#x1ef3;" horiz-adv-x="420" 
d="M452 418l-414 -634h-58l166 251l-96 383h55l78 -332l208 332h61zM301 505l-22 -30l-182 111l35 48z" />
    <glyph glyph-name="Zacute" unicode="&#x179;" horiz-adv-x="621" 
d="M592 901l-196 -106l-15 31l183 128zM671 723l-565 -672h430l-10 -51h-516l-2 10l565 673h-409l9 50h495z" />
    <glyph glyph-name="zacute" unicode="&#x17a;" horiz-adv-x="395" 
d="M415 581l-196 -106l-15 31l183 128zM412 408l-343 -361h267l-9 -47h-350l-2 9l344 362h-253l9 47h336z" />
    <glyph glyph-name="Zcaron" unicode="&#x17d;" horiz-adv-x="621" 
d="M590 953l-150 -149h-30l-92 149h56l60 -97l95 97h61zM671 723l-565 -672h430l-10 -51h-516l-2 10l565 673h-409l9 50h495z" />
    <glyph glyph-name="zcaron" unicode="&#x17e;" horiz-adv-x="395" 
d="M414 633l-150 -149h-30l-92 149h56l60 -97l95 97h61zM412 408l-343 -361h267l-9 -47h-350l-2 9l344 362h-253l9 47h336z" />
    <glyph glyph-name="Zdotaccent" unicode="&#x17b;" horiz-adv-x="621" 
d="M671 723l-565 -672h430l-10 -51h-516l-2 10l565 673h-409l9 50h495zM476 861c0 -22 -18 -40 -41 -40c-22 0 -40 18 -40 40c0 23 18 41 40 41c23 0 41 -18 41 -41z" />
    <glyph glyph-name="zdotaccent" unicode="&#x17c;" horiz-adv-x="395" 
d="M412 408l-343 -361h267l-9 -47h-350l-2 9l344 362h-253l9 47h336zM299 541c0 -22 -18 -40 -41 -40c-22 0 -40 18 -40 40c0 23 18 41 40 41c23 0 41 -18 41 -41z" />
    <glyph glyph-name="schwa" unicode="&#x259;" horiz-adv-x="438" 
d="M217 425c115 0 185 -65 185 -176c0 -124 -95 -258 -227 -258c-98 0 -147 74 -147 159c0 25 3 43 9 65h310c1 9 2 20 2 29c0 83 -49 133 -138 133c-33 0 -68 -7 -104 -20c0 0 -9 47 -9 46c36 15 71 22 119 22zM336 171h-253c-2 -8 -2 -16 -2 -27c0 -57 31 -105 98 -105
c69 0 132 57 157 132z" />
    <glyph glyph-name="germandbls" unicode="&#xdf;" horiz-adv-x="447" 
d="M456 408l-198 -199c80 -16 124 -65 124 -130c-1 -93 -70 -170 -181 -170c-35 0 -64 7 -91 15l14 48c26 -9 50 -14 79 -14c72 0 123 49 123 115c0 68 -60 104 -150 101l-4 11l182 185h-211l-92 -478h-56l133 680c24 124 83 169 163 169c29 0 56 -7 75 -16l-20 -48
c-16 7 -35 13 -59 13c-53 0 -87 -32 -105 -124l-29 -148h300z" />
    <glyph glyph-name="zero" unicode="0" horiz-adv-x="526" 
d="M502 363c0 -118 -42 -236 -111 -305c-42 -42 -93 -67 -151 -67c-119 0 -184 101 -184 223c0 118 42 236 110 305c42 42 93 67 152 67c119 0 184 -101 184 -223zM444 360c0 102 -44 178 -130 178c-42 0 -77 -21 -103 -47c-59 -59 -98 -173 -98 -274
c0 -102 45 -178 130 -178c43 0 77 21 103 47c60 59 98 173 98 274z" />
    <glyph glyph-name="one" unicode="1" horiz-adv-x="334" 
d="M285 588l-114 -588h-55l100 514l-107 -35l-10 48l177 61h9z" />
    <glyph glyph-name="two" unicode="2" horiz-adv-x="436" 
d="M422 436c0 -75 -38 -119 -146 -226c-47 -45 -104 -98 -172 -160h262l-9 -50h-359l-3 12c118 108 192 180 251 236c88 84 121 129 121 185c0 61 -48 103 -118 103c-49 0 -93 -18 -135 -46l-15 45c46 31 96 51 151 51c101 -1 172 -67 172 -150z" />
    <glyph glyph-name="three" unicode="3" horiz-adv-x="421" 
d="M462 577l4 -9l-268 -244c101 -11 176 -69 176 -157c0 -99 -82 -176 -204 -176c-63 0 -114 18 -167 42l23 44c51 -23 99 -37 147 -37c92 0 146 53 146 122c0 82 -72 124 -197 124h-15l-5 8l255 232h-254l9 51h350z" />
    <glyph glyph-name="four" unicode="4" horiz-adv-x="476" 
d="M458 222l-10 -48h-96l-34 -175h-52l34 175h-278l2 17l391 396h18l-71 -365h96zM310 222l48 245l-242 -245h194z" />
    <glyph glyph-name="five" unicode="5" horiz-adv-x="460" 
d="M443 577l-10 -50h-236l-36 -185c8 0 16 1 25 1c133 0 216 -66 216 -165c0 -105 -88 -187 -217 -187c-63 0 -114 18 -161 40l24 45c39 -19 87 -37 138 -37c90 0 159 54 159 133c0 84 -71 124 -174 124c-25 0 -45 -2 -62 -3l-7 8l53 276h288z" />
    <glyph glyph-name="six" unicode="6" horiz-adv-x="477" 
d="M436 191c0 -110 -84 -200 -202 -200c-102 0 -178 79 -178 184c0 138 105 312 391 418l16 -46c-146 -50 -258 -133 -318 -234c32 29 79 46 123 46c97 0 168 -73 168 -168zM380 187c0 77 -51 128 -125 128c-86 0 -144 -65 -144 -144c0 -77 54 -133 128 -133
c83 0 141 65 141 149z" />
    <glyph glyph-name="seven" unicode="7" horiz-adv-x="407" 
d="M464 577l-360 -577h-59l333 527h-291l10 50h367z" />
    <glyph glyph-name="eight" unicode="8" horiz-adv-x="466" 
d="M453 444c0 -71 -43 -131 -118 -156c46 -26 75 -72 75 -126c0 -96 -84 -171 -189 -171c-96 0 -173 57 -173 151c0 75 53 140 131 161c-42 25 -65 67 -65 115c0 88 76 168 179 168c90 0 160 -58 160 -142zM399 439c0 58 -42 101 -107 101c-71 0 -124 -55 -124 -121
c0 -61 44 -104 106 -104c72 0 125 58 125 124zM354 164c0 61 -49 109 -117 109c-76 0 -133 -58 -133 -129c0 -65 52 -107 121 -107c77 0 129 56 129 127z" />
    <glyph glyph-name="nine" unicode="9" horiz-adv-x="471" 
d="M459 403c0 -138 -104 -313 -391 -420l-15 47c145 50 254 132 317 232c-29 -24 -73 -40 -116 -40c-97 0 -172 71 -172 166c0 113 87 198 201 198c112 0 176 -84 176 -183zM404 411c0 75 -52 128 -126 128c-81 0 -140 -62 -140 -146c0 -77 52 -127 126 -127
c86 0 140 66 140 145z" />
    <glyph glyph-name="zero.lin" horiz-adv-x="646" 
d="M571 453c0 152 -63 241 -176 241c-50 0 -94 -23 -131 -60c-79 -79 -126 -225 -126 -353c0 -152 63 -241 176 -241c50 0 94 23 131 60c79 79 126 225 126 353zM627 456c0 -148 -51 -298 -141 -388c-48 -48 -108 -79 -177 -79c-150 0 -227 125 -227 289
c0 148 51 298 141 387c48 49 108 79 177 79c150 0 227 -124 227 -288z" />
    <glyph glyph-name="one.lin" horiz-adv-x="385" 
d="M352 743l-144 -743h-55l131 670l-138 -48l-10 49l204 72h12z" />
    <glyph glyph-name="two.lin" horiz-adv-x="552" 
d="M531 560c0 -82 -40 -145 -126 -235c-64 -65 -174 -166 -292 -273h351l-9 -52h-449l-3 12c159 148 283 261 354 333c87 92 117 141 117 209c0 79 -60 137 -152 137c-61 0 -119 -24 -173 -59l-16 48c54 36 123 64 192 64c129 0 206 -85 206 -184z" />
    <glyph glyph-name="three.lin" horiz-adv-x="528" 
d="M572 733l4 -11l-339 -309c142 -9 237 -86 237 -200c0 -125 -112 -223 -260 -223c-82 0 -149 25 -209 58l23 46c59 -32 118 -55 187 -55c108 0 202 68 202 170c0 99 -86 164 -224 164c-21 0 -32 -1 -45 -2l-6 13l325 298h-337l9 51h433z" />
    <glyph glyph-name="four.lin" horiz-adv-x="591" 
d="M577 271l-9 -48h-126l-42 -223h-56l43 223h-364l3 15l494 504h24l-92 -471h125zM397 271l70 352l-344 -352h274z" />
    <glyph glyph-name="five.lin" horiz-adv-x="551" 
d="M551 733l-10 -51h-303l-53 -250c19 1 34 1 44 1c169 0 262 -85 262 -205c0 -135 -110 -238 -267 -238c-73 0 -133 20 -193 51l22 46c50 -25 109 -48 174 -48c114 0 207 73 207 182c0 111 -92 166 -222 166c-33 0 -59 -2 -85 -4l-3 7l72 343h355z" />
    <glyph glyph-name="six.lin" horiz-adv-x="592" 
d="M544 242c0 -142 -109 -252 -251 -252c-138 0 -221 107 -221 231c0 178 135 396 501 533l16 -49c-190 -66 -345 -180 -422 -314c43 45 104 65 164 65c123 0 213 -94 213 -214zM486 236c0 102 -75 173 -170 173c-119 0 -189 -88 -189 -194c0 -100 73 -176 170 -176
c108 0 189 85 189 197z" />
    <glyph glyph-name="seven.lin" horiz-adv-x="515" 
d="M587 733l-457 -733h-60l430 683h-387l10 50h464z" />
    <glyph glyph-name="eight.lin" horiz-adv-x="568" 
d="M276 -11c-123 0 -218 81 -218 191c0 100 71 180 166 204c-52 33 -83 86 -83 147c0 120 103 213 223 213c114 0 201 -75 201 -183c0 -91 -61 -174 -154 -201c61 -33 98 -87 98 -155c0 -121 -103 -216 -233 -216zM452 208c0 86 -75 144 -161 144c-103 0 -174 -79 -174 -169
c0 -86 70 -145 161 -145c99 0 174 76 174 170zM508 559c0 86 -66 136 -148 136c-96 0 -163 -76 -163 -165c0 -82 64 -137 148 -137c97 0 163 78 163 166z" />
    <glyph glyph-name="nine.lin" horiz-adv-x="584" 
d="M570 514c0 -173 -130 -399 -497 -534l-15 50c194 68 344 177 422 316c-42 -43 -106 -65 -162 -65c-117 0 -216 86 -216 215c0 144 106 248 245 248c138 0 223 -105 223 -230zM516 521c0 98 -71 173 -169 173c-107 0 -188 -79 -188 -197c0 -100 72 -167 166 -167
c118 0 191 88 191 191z" />
    <glyph glyph-name="fraction" unicode="&#x2044;" horiz-adv-x="550" 
d="M607 563l-595 -580l-29 29l594 580z" />
    <glyph glyph-name="fraction.lin" horiz-adv-x="684" 
d="M757 714l-741 -732l-36 35l742 731z" />
    <glyph glyph-name="period" unicode="." horiz-adv-x="182" 
d="M102 34c0 -23 -19 -42 -43 -42c-23 0 -42 19 -42 42c0 24 19 43 42 43c24 0 43 -19 43 -43z" />
    <glyph glyph-name="comma" unicode="," horiz-adv-x="182" 
d="M102 28c0 -60 -62 -111 -116 -141l-9 13c42 32 67 60 81 92c-24 3 -41 21 -41 44s19 41 41 41c20 0 44 -18 44 -49z" />
    <glyph glyph-name="colon" unicode=":" horiz-adv-x="182" 
d="M157 324c0 -24 -19 -42 -43 -42c-23 0 -42 18 -42 42c0 23 19 42 42 42c24 0 43 -19 43 -42zM102 34c0 -23 -19 -42 -43 -42c-23 0 -42 19 -42 42c0 24 19 43 42 43c24 0 43 -19 43 -43z" />
    <glyph glyph-name="semicolon" unicode=";" horiz-adv-x="182" 
d="M157 324c0 -24 -19 -42 -43 -42c-23 0 -42 18 -42 42c0 23 19 42 42 42c24 0 43 -19 43 -42zM102 28c0 -60 -62 -111 -116 -141l-9 13c42 32 67 60 81 92c-24 3 -41 21 -41 44s19 41 41 41c20 0 44 -18 44 -49z" />
    <glyph glyph-name="ellipsis" unicode="&#x2026;" horiz-adv-x="603" 
d="M112 34c0 -23 -19 -42 -43 -42c-23 0 -42 19 -42 42c0 24 19 43 42 43c24 0 43 -19 43 -43zM312 34c0 -23 -19 -42 -43 -42c-23 0 -42 19 -42 42c0 24 19 43 42 43c24 0 43 -19 43 -43zM512 34c0 -23 -19 -42 -43 -42c-23 0 -42 19 -42 42c0 24 19 43 42 43
c24 0 43 -19 43 -43z" />
    <glyph glyph-name="periodcentered" unicode="&#xb7;" horiz-adv-x="222" 
d="M185 369c0 -23 -19 -42 -43 -42c-23 0 -42 19 -42 42c0 24 19 43 42 43c24 0 43 -19 43 -43z" />
    <glyph glyph-name="bullet" unicode="&#x2022;" horiz-adv-x="351" 
d="M324 366c0 -65 -51 -119 -116 -119c-64 0 -116 54 -116 119c0 66 52 119 116 119c65 0 116 -53 116 -119z" />
    <glyph glyph-name="ampersand" unicode="&#x26;" horiz-adv-x="595" 
d="M569 230c-40 -44 -86 -92 -135 -133c22 -26 45 -53 69 -77l-38 -36c-23 23 -48 51 -73 81c-61 -43 -126 -74 -191 -74c-101 0 -163 60 -163 145c0 83 63 151 181 185c-14 31 -26 68 -26 102c0 88 74 160 165 160c77 0 125 -55 125 -113c0 -76 -59 -140 -191 -177
c26 -44 67 -102 112 -159c48 40 93 88 130 132zM362 101c-49 62 -96 129 -122 179c-93 -24 -146 -74 -146 -141c0 -56 38 -99 112 -99c51 0 105 25 156 61zM429 465c0 41 -29 74 -76 74c-59 0 -106 -55 -106 -112c0 -33 9 -62 25 -95c114 32 157 75 157 133z" />
    <glyph glyph-name="ampersand.cap" horiz-adv-x="725" 
d="M709 294c-51 -56 -115 -121 -179 -174c31 -36 61 -69 90 -97l-38 -37c-28 28 -61 63 -94 103c-80 -58 -162 -96 -244 -96c-124 0 -201 75 -201 180c0 111 80 192 230 232c-18 40 -34 83 -34 132c0 114 83 203 201 203c100 0 157 -69 157 -144c0 -102 -84 -177 -250 -221
c35 -63 94 -146 152 -219c65 53 127 119 174 173zM458 124c-63 77 -127 167 -165 239c-123 -33 -191 -98 -191 -186c0 -75 48 -133 149 -133c65 0 137 31 207 80zM328 417c147 38 213 97 213 177c0 56 -41 100 -102 100c-87 0 -144 -71 -144 -154c0 -43 14 -85 33 -123z" />
    <glyph glyph-name="exclam" unicode="!" horiz-adv-x="203" 
d="M237 733l-122 -574l-40 4l99 570h63zM114 34c0 -23 -19 -42 -43 -42c-23 0 -42 19 -42 42c0 24 19 43 42 43c24 0 43 -19 43 -43z" />
    <glyph glyph-name="exclamdown" unicode="&#xa1;" horiz-adv-x="203" 
d="M235 700c0 -24 -19 -43 -42 -43c-24 0 -43 19 -43 43c0 23 19 42 43 42c23 0 42 -19 42 -42zM189 570l-99 -570h-63l122 574z" />
    <glyph glyph-name="question" unicode="?" horiz-adv-x="379" 
d="M429 593c0 -95 -65 -141 -129 -180c-57 -36 -113 -67 -124 -124l-16 -82l-52 5l19 94c13 66 74 102 131 137c59 37 114 74 114 143c-1 55 -43 103 -136 103c-43 0 -75 -10 -109 -24l-9 50c44 16 82 25 127 25c116 0 184 -64 184 -147zM146 34c0 -23 -19 -42 -43 -42
c-23 0 -42 19 -42 42c0 24 19 43 42 43c24 0 43 -19 43 -43z" />
    <glyph glyph-name="questiondown" unicode="&#xbf;" horiz-adv-x="379" 
d="M9 141c0 95 65 141 129 180c57 36 112 67 124 124l16 82l52 -5l-19 -94c-13 -66 -75 -102 -131 -137c-60 -37 -114 -74 -114 -143c0 -55 42 -103 136 -103c43 0 74 10 108 24l10 -50c-44 -16 -83 -26 -128 -26c-115 0 -183 65 -183 148zM292 700c0 23 19 42 42 42
c24 0 43 -19 43 -42c0 -24 -19 -43 -43 -43c-23 0 -42 19 -42 43z" />
    <glyph glyph-name="quotedblleft" unicode="&#x201c;" horiz-adv-x="286" 
d="M327 604c0 -23 -19 -41 -41 -41c-20 0 -43 17 -43 49c0 59 61 110 115 140l9 -13c-41 -32 -67 -60 -80 -92c23 -3 40 -20 40 -43zM194 604c0 -23 -19 -41 -41 -41c-20 0 -43 17 -43 49c0 59 61 110 115 140l9 -13c-41 -32 -67 -60 -80 -92c23 -3 40 -20 40 -43z" />
    <glyph glyph-name="quotedblright" unicode="&#x201d;" horiz-adv-x="291" 
d="M351 695c0 -60 -62 -111 -116 -140l-9 13c42 32 67 60 81 91c-24 4 -41 20 -41 44c0 23 19 41 41 41c20 0 44 -18 44 -49zM218 695c0 -60 -62 -111 -116 -140l-9 13c42 32 67 60 81 91c-24 4 -41 20 -41 44c0 23 19 41 41 41c20 0 44 -18 44 -49z" />
    <glyph glyph-name="quoteleft" unicode="&#x2018;" horiz-adv-x="158" 
d="M194 604c0 -23 -19 -41 -41 -41c-20 0 -43 17 -43 49c0 59 61 110 115 140l9 -13c-41 -32 -67 -60 -80 -92c23 -3 40 -20 40 -43z" />
    <glyph glyph-name="quoteright" unicode="&#x2019;" horiz-adv-x="158" 
d="M218 695c0 -60 -62 -111 -116 -140l-9 13c42 32 67 60 81 91c-24 4 -41 20 -41 44c0 23 19 41 41 41c20 0 44 -18 44 -49z" />
    <glyph glyph-name="quotedblbase" unicode="&#x201e;" horiz-adv-x="291" 
d="M221 28c0 -60 -62 -111 -116 -141l-9 13c42 32 67 60 81 92c-24 3 -41 20 -41 44c0 23 19 41 41 41c20 0 44 -18 44 -49zM88 28c0 -60 -62 -111 -116 -141l-9 13c42 32 67 60 81 92c-24 3 -41 20 -41 44c0 23 19 41 41 41c20 0 44 -18 44 -49z" />
    <glyph glyph-name="quotesinglbase" unicode="&#x201a;" horiz-adv-x="158" 
d="M88 28c0 -60 -62 -111 -116 -141l-9 13c42 32 67 60 81 92c-24 3 -41 21 -41 44s19 41 41 41c20 0 44 -18 44 -49z" />
    <glyph glyph-name="guillemotleft" unicode="&#xab;" horiz-adv-x="402" 
d="M382 336l-140 -166l76 -161h-58l-73 165l137 162h58zM237 336l-140 -166l76 -161h-58l-73 165l137 162h58z" />
    <glyph glyph-name="guillemotright" unicode="&#xbb;" horiz-adv-x="402" 
d="M346 171l-137 -162h-58l140 167l-76 160h58zM201 171l-137 -162h-58l140 167l-76 160h58z" />
    <glyph glyph-name="guilsinglleft" unicode="&#x2039;" horiz-adv-x="257" 
d="M237 336l-140 -166l76 -161h-58l-73 165l137 162h58z" />
    <glyph glyph-name="guilsinglright" unicode="&#x203a;" horiz-adv-x="257" 
d="M201 171l-137 -162h-58l140 167l-76 160h58z" />
    <glyph glyph-name="guillemotleft.cap" horiz-adv-x="402" 
d="M421 534l-140 -166l76 -161h-58l-73 165l137 162h58zM276 534l-140 -166l76 -161h-58l-73 165l137 162h58z" />
    <glyph glyph-name="guillemotright.cap" horiz-adv-x="402" 
d="M384 369l-137 -162h-58l140 167l-76 160h58zM239 369l-137 -162h-58l140 167l-76 160h58z" />
    <glyph glyph-name="guilsinglleft.cap" horiz-adv-x="257" 
d="M277 534l-140 -166l76 -161h-58l-73 165l137 162h58z" />
    <glyph glyph-name="guilsinglright.cap" horiz-adv-x="257" 
d="M240 369l-137 -162h-58l140 167l-76 160h58z" />
    <glyph glyph-name="hyphen" unicode="-" horiz-adv-x="333" 
d="M294 267l-10 -49h-232l10 49h232z" />
    <glyph glyph-name="endash" unicode="&#x2013;" horiz-adv-x="486" 
d="M447 267l-9 -49h-386l10 49h385z" />
    <glyph glyph-name="emdash" unicode="&#x2014;" horiz-adv-x="736" 
d="M697 267l-9 -49h-636l10 49h635z" />
    <glyph glyph-name="hyphen.cap" horiz-adv-x="333" 
d="M320 395l-10 -49h-232l10 49h232z" />
    <glyph glyph-name="endash.cap" horiz-adv-x="486" 
d="M473 395l-9 -49h-386l10 49h385z" />
    <glyph glyph-name="emdash.cap" horiz-adv-x="736" 
d="M723 395l-9 -49h-636l10 49h635z" />
    <glyph glyph-name="slash" unicode="/" horiz-adv-x="319" 
d="M414 733l-424 -949h-54l424 949h54z" />
    <glyph glyph-name="backslash" unicode="\" horiz-adv-x="319" 
d="M250 -216h-50l-95 949h49z" />
    <glyph glyph-name="bar" unicode="|" horiz-adv-x="233" 
d="M58 -216h-49l185 949h49z" />
    <glyph glyph-name="slash.cap" horiz-adv-x="327" 
d="M429 839l-424 -949h-54l424 949h54z" />
    <glyph glyph-name="backslash.cap" horiz-adv-x="319" 
d="M262 -110h-50l-95 949h49z" />
    <glyph glyph-name="bar.cap" horiz-adv-x="233" 
d="M77 -110h-49l185 949h49z" />
    <glyph glyph-name="parenleft" unicode="(" horiz-adv-x="348" 
d="M452 701c-208 -95 -344 -307 -344 -519c0 -141 57 -273 170 -365l-32 -36c-128 106 -190 245 -190 399c0 229 140 452 377 564z" />
    <glyph glyph-name="parenright" unicode=")" horiz-adv-x="348" 
d="M313 346c0 -229 -140 -452 -377 -565l-19 43c209 95 344 308 344 520c0 141 -56 272 -170 364c1 0 32 37 32 37c128 -107 190 -245 190 -399z" />
    <glyph glyph-name="parenleft.cap" horiz-adv-x="348" 
d="M472 803c-208 -95 -344 -307 -344 -519c0 -141 57 -273 170 -365l-32 -36c-128 106 -190 245 -190 399c0 229 140 452 377 564z" />
    <glyph glyph-name="parenright.cap" horiz-adv-x="348" 
d="M332 447c0 -229 -140 -452 -377 -565l-19 43c209 95 344 308 344 520c0 141 -56 272 -170 364c1 0 32 37 32 37c128 -107 190 -245 190 -399z" />
    <glyph glyph-name="bracketleft" unicode="[" horiz-adv-x="293" 
d="M372 733l-9 -46h-138l-167 -857h139l-9 -46h-191l185 949h190z" />
    <glyph glyph-name="bracketright" unicode="]" horiz-adv-x="269" 
d="M317 733l-184 -949h-191l9 46h140l166 857h-139l9 46h190z" />
    <glyph glyph-name="bracketleft.cap" horiz-adv-x="293" 
d="M393 839l-9 -46h-138l-167 -857h139l-9 -46h-191l185 949h190z" />
    <glyph glyph-name="bracketright.cap" horiz-adv-x="293" 
d="M337 839l-184 -949h-191l9 46h140l166 857h-139l9 46h190z" />
    <glyph glyph-name="braceleft" unicode="{" horiz-adv-x="295" 
d="M380 740l-9 -49h-10c-69 0 -113 -35 -128 -117l-40 -208c-11 -60 -30 -89 -86 -107c35 -13 49 -34 49 -67c0 -9 -2 -25 -5 -42l-39 -197c-3 -16 -5 -34 -5 -45c0 -57 32 -83 97 -83l-9 -48c-94 0 -140 43 -140 125c0 14 3 38 7 58l40 207c2 11 3 22 3 28
c0 28 -15 43 -56 43h-24l10 47h21c54 0 75 27 84 74l42 218c21 109 79 163 184 163h14z" />
    <glyph glyph-name="braceright" unicode="}" horiz-adv-x="294" 
d="M-66 -222l10 49h9c70 0 114 34 129 117l40 208c11 60 30 89 86 107c-35 13 -49 34 -49 67c0 9 2 25 5 42l39 197c3 15 5 34 5 45c0 57 -32 82 -97 82l9 49c94 0 140 -44 140 -126c0 -14 -3 -38 -7 -57l-40 -207c-2 -11 -3 -22 -3 -28c0 -28 15 -43 56 -43h24l-10 -47h-21
c-54 0 -75 -27 -84 -74l-42 -219c-21 -109 -79 -162 -185 -162h-14z" />
    <glyph glyph-name="braceleft.cap" horiz-adv-x="295" 
d="M401 846l-9 -49h-10c-69 0 -113 -35 -128 -117l-40 -208c-11 -60 -30 -89 -86 -107c35 -13 49 -34 49 -67c0 -9 -2 -25 -5 -42l-39 -197c-3 -16 -5 -34 -5 -45c0 -57 32 -83 97 -83l-9 -48c-94 0 -140 43 -140 125c0 14 3 38 7 58l40 207c2 11 3 22 3 28
c0 28 -15 43 -56 43h-24l10 47h21c54 0 75 27 84 74l42 218c21 109 79 163 184 163h14z" />
    <glyph glyph-name="braceright.cap" horiz-adv-x="294" 
d="M-45 -117l10 49h9c70 0 114 34 129 117l40 208c11 60 30 89 86 107c-35 13 -49 34 -49 67c0 9 2 25 5 42l39 197c3 15 5 34 5 45c0 57 -32 82 -97 82l9 49c94 0 140 -44 140 -126c0 -14 -3 -38 -7 -57l-40 -207c-2 -11 -3 -22 -3 -28c0 -28 15 -43 56 -43h24l-10 -47h-21
c-54 0 -75 -27 -84 -74l-42 -219c-21 -109 -79 -162 -185 -162h-14z" />
    <glyph glyph-name="at" unicode="@" horiz-adv-x="690" 
d="M662 339c0 -95 -61 -196 -150 -196c-36 0 -67 15 -79 47c-28 -29 -59 -44 -95 -44c-54 0 -94 32 -94 77c0 50 40 87 97 87c39 0 66 -11 90 -29c4 19 5 31 5 40c0 35 -27 55 -76 55c-20 0 -36 -2 -57 -6v38c24 5 44 7 67 7c76 0 112 -37 112 -93c0 -11 -2 -24 -4 -36
l-10 -50c-8 -36 14 -56 47 -56c66 0 102 90 102 156c0 126 -94 215 -228 215c-162 0 -277 -135 -277 -286c0 -134 102 -235 261 -235c33 0 62 4 98 12l4 -40c-43 -9 -73 -12 -111 -12c-183 0 -297 130 -297 270c0 178 139 331 322 331c159 0 273 -110 273 -252zM424 248
c-21 16 -50 28 -78 28c-33 0 -57 -18 -57 -49c0 -30 25 -46 57 -46c26 0 50 13 72 36z" />
    <glyph glyph-name="at.cap" horiz-adv-x="873" 
d="M610 2c-43 -8 -86 -12 -122 -12c-216 0 -394 124 -394 339c0 223 174 415 408 415c188 0 346 -121 346 -320c0 -123 -66 -242 -187 -242c-49 0 -88 24 -100 62c-33 -36 -78 -56 -126 -56c-67 0 -119 34 -119 97c0 66 56 106 121 106c43 0 85 -15 119 -41c7 32 9 43 9 56
c0 51 -48 72 -107 72c-22 0 -43 -3 -64 -8l2 46c25 6 50 9 75 9c88 0 148 -36 148 -111c0 -11 -2 -25 -5 -39l-14 -72c-10 -48 20 -76 65 -76c94 0 133 115 133 197c0 174 -135 274 -301 274c-197 0 -351 -172 -351 -369c0 -191 160 -293 342 -293c38 0 78 5 118 12z
M548 307c-27 25 -66 42 -103 42c-41 0 -75 -22 -75 -62c0 -38 34 -59 75 -59c36 0 72 19 98 55z" />
    <glyph glyph-name="copyright" unicode="&#xa9;" horiz-adv-x="842" 
d="M571 217c-37 -22 -82 -38 -134 -38c-95 0 -164 61 -163 165c0 117 100 215 226 215c55 0 96 -17 128 -42l-24 -38c-28 21 -62 36 -105 36c-98 0 -174 -72 -174 -167c0 -80 48 -125 122 -125c41 0 79 14 112 34zM786 415c0 175 -121 293 -289 293
c-214 0 -369 -178 -369 -389c0 -175 123 -294 289 -294c213 0 369 181 369 390zM829 414c0 -222 -170 -427 -414 -427c-196 0 -330 139 -330 332c0 224 170 427 414 427c196 0 330 -138 330 -332z" />
    <glyph glyph-name="published" unicode="&#x2117;" horiz-adv-x="842" 
d="M612 452c0 -88 -75 -148 -171 -148c-12 0 -31 1 -44 2l-24 -123h-48l72 367c29 3 52 5 84 5c87 0 131 -45 131 -103zM563 445c0 38 -28 67 -85 67c-13 0 -27 -1 -42 -3l-31 -161c12 -2 26 -3 37 -3c70 0 121 40 121 100zM786 415c0 175 -121 293 -289 293
c-214 0 -369 -178 -369 -389c0 -175 123 -294 289 -294c213 0 369 181 369 390zM829 414c0 -222 -170 -427 -414 -427c-196 0 -330 139 -330 332c0 224 170 427 414 427c196 0 330 -138 330 -332z" />
    <glyph glyph-name="registered.alt" horiz-adv-x="842" 
d="M829 414c0 -222 -170 -427 -414 -427c-196 0 -330 139 -330 332c0 224 170 427 414 427c196 0 330 -138 330 -332zM786 415c0 175 -121 293 -289 293c-214 0 -369 -178 -369 -389c0 -175 123 -294 289 -294c213 0 369 181 369 390zM603 458c0 -61 -40 -106 -100 -124
l69 -151h-54l-59 140c-8 -1 -21 -2 -31 -2c-12 0 -23 0 -38 1l-28 -139h-47l72 366c30 4 54 6 87 6c86 0 129 -40 129 -97zM554 452c0 36 -28 62 -82 62c-16 0 -30 -2 -46 -5l-28 -147c13 -2 26 -2 36 -2c68 0 120 35 120 92z" />
    <glyph glyph-name="registered" unicode="&#xae;" horiz-adv-x="382" 
d="M429 595c0 -107 -87 -196 -191 -196c-85 0 -151 60 -151 149c0 105 86 195 192 195c86 0 150 -60 150 -148zM403 593c0 74 -51 126 -126 126c-88 0 -163 -77 -163 -170c0 -74 51 -126 125 -126c89 0 164 77 164 170zM188 489l32 166c15 2 28 3 46 3c42 0 61 -20 61 -45
c0 -27 -20 -50 -40 -58l29 -66h-34l-24 59h-28l-12 -59h-30zM245 631l-10 -57c5 -1 12 -1 16 -1c25 0 45 13 45 35c0 15 -11 24 -32 24c-5 0 -13 0 -19 -1z" />
    <glyph glyph-name="trademark" unicode="&#x2122;" horiz-adv-x="486" 
d="M494 515h-35l24 135l-91 -107h-4l-50 107l-28 -135h-36l53 221h5l67 -143l123 143h6zM262 700h-69l-36 -185h-36l36 185h-69l7 33h174z" />
    <glyph glyph-name="servicemark" unicode="&#x2120;" horiz-adv-x="486" 
d="M169 512c-27 0 -53 10 -72 25l19 29c17 -13 36 -22 54 -22c24 0 36 14 36 29c0 20 -16 28 -36 42c-24 16 -39 30 -39 57c0 36 28 65 71 65c26 0 48 -9 61 -21l-18 -29c-12 11 -29 18 -45 18c-21 0 -33 -12 -33 -27c0 -19 15 -26 35 -40c24 -15 42 -31 42 -59
c0 -35 -24 -67 -75 -67zM494 515h-35l24 135l-91 -107h-4l-50 107l-28 -135h-36l53 221h5l67 -143l123 143h6z" />
    <glyph glyph-name="asterisk" unicode="*" horiz-adv-x="369" 
d="M414 579l-125 -12l56 -111l-42 -19l-51 114l-90 -86l-31 33l94 82l-111 58l22 40l108 -64l21 123l45 -9l-26 -122l124 19z" />
    <glyph glyph-name="dagger" unicode="&#x2020;" horiz-adv-x="437" 
d="M463 551l-9 -49h-149l-67 -346h-54l67 346h-150l9 49h150l36 182h54l-36 -182h149z" />
    <glyph glyph-name="daggerdbl" unicode="&#x2021;" horiz-adv-x="437" 
d="M468 578l-9 -49h-149l-33 -169h152l-10 -48h-151l-30 -156h-54l30 156h-148l9 48h148l34 169h-151l9 49h151l30 155h54l-30 -155h148z" />
    <glyph glyph-name="dollar" unicode="$" horiz-adv-x="429" 
d="M345 641l-16 -60c41 -9 74 -30 96 -47l-31 -43c-25 19 -50 34 -77 41l-58 -223c64 -41 110 -79 110 -150c0 -106 -85 -168 -185 -168h-6l-16 -63l-44 5l16 63c-49 9 -91 33 -129 64l32 42c33 -27 69 -50 110 -59l61 236c-62 39 -107 77 -107 144c0 91 73 163 183 163h1
l16 60zM315 154c0 40 -23 69 -68 101l-56 -216c69 2 124 43 124 115zM154 428c0 -38 20 -64 66 -95l53 204c-75 -2 -119 -48 -119 -109z" />
    <glyph glyph-name="dollar.lin" horiz-adv-x="502" 
d="M418 812l-20 -75c45 -11 86 -32 117 -57l-30 -43c-27 23 -62 42 -100 51l-77 -299c69 -45 141 -96 141 -195c0 -113 -92 -204 -228 -204c-5 0 -11 0 -16 1l-20 -80l-46 7l20 79c-56 11 -109 40 -154 78l30 43c41 -36 88 -62 137 -73l82 313c-68 45 -136 94 -136 186
c0 112 92 200 223 200h12l19 74zM394 188c0 64 -44 105 -101 144l-75 -292h3c105 0 173 66 173 148zM173 550c0 -58 36 -94 95 -135l72 279h-4c-102 0 -163 -64 -163 -144z" />
    <glyph glyph-name="sterling" unicode="&#xa3;" horiz-adv-x="435" 
d="M475 531l-32 -40c-25 22 -64 46 -114 46c-77 0 -113 -55 -129 -133l-18 -91h147l-10 -48h-146l-42 -215h259l-9 -50h-382l10 49h65l42 216h-61l1 9l70 42l20 98c20 103 84 172 191 172c60 0 107 -28 138 -55z" />
    <glyph glyph-name="sterling.lin" horiz-adv-x="559" 
d="M610 673l-38 -42c-38 33 -85 61 -150 61c-105 0 -155 -76 -175 -171l-26 -130h199l-10 -50h-199l-56 -290h337l-10 -51h-478l10 51h84l57 290h-79l3 13l86 41l25 128c26 127 99 221 242 221c78 0 138 -35 178 -71z" />
    <glyph glyph-name="Euro" unicode="&#x20ac;" horiz-adv-x="631" 
d="M39 243h71v4c0 29 3 57 10 84h-64l9 49h71c51 122 169 206 305 206c73 0 142 -30 184 -64l-29 -42c-39 32 -99 57 -164 57c-108 0 -195 -66 -238 -157h312l-9 -49h-321c-7 -27 -11 -54 -11 -82v-6h315l-10 -47h-300c21 -97 101 -156 203 -156c63 0 113 20 162 50l19 -44
c-50 -29 -111 -55 -189 -55c-124 0 -228 80 -251 205h-84z" />
    <glyph glyph-name="Euro.lin" horiz-adv-x="776" 
d="M82 473h88c63 164 220 271 390 271c94 0 180 -38 235 -83l-31 -44c-50 42 -128 73 -212 73c-144 0 -266 -90 -320 -217h409l-10 -49h-416c-9 -34 -14 -69 -14 -105v-12h408l-9 -49h-394c25 -128 128 -215 266 -215c83 0 150 27 215 68l24 -46c-61 -39 -142 -75 -245 -75
c-167 0 -295 113 -321 268h-105l10 49h91v8c0 38 5 74 13 109h-82z" />
    <glyph glyph-name="yen" unicode="&#xa5;" horiz-adv-x="488" 
d="M542 577l-218 -266h135l-10 -48h-161l-15 -75h162l-9 -48h-162l-27 -140h-56l28 140h-164l9 48h164l14 75h-164l10 48h142l-118 266h59l111 -257l205 257h65z" />
    <glyph glyph-name="yen.lin" horiz-adv-x="626" 
d="M691 733l-292 -358h183l-9 -49h-212l-21 -108h213l-10 -49h-212l-33 -169h-54l32 169h-214l10 49h214l21 108h-216l10 49h188l-157 358h58l152 -356l281 356h68z" />
    <glyph glyph-name="cent" unicode="&#xa2;" horiz-adv-x="438" 
d="M337 491l-18 -69c40 -7 76 -26 100 -46l-29 -41c-23 18 -51 32 -84 38l-87 -332c6 -1 13 -1 20 -1c36 0 72 10 101 24l12 -44c-38 -17 -74 -28 -124 -28c-7 0 -15 1 -22 1l-19 -75l-48 5l21 80c-68 24 -120 84 -120 177c0 122 92 240 230 246l19 70zM94 182
c0 -63 30 -109 79 -130l84 324c-99 -8 -163 -98 -163 -194z" />
    <glyph glyph-name="cent.lin" horiz-adv-x="438" 
d="M372 655l-18 -69c40 -7 76 -26 100 -46l-29 -41c-23 18 -51 32 -84 38l-87 -332c6 -1 13 -1 20 -1c36 0 72 10 101 24l12 -44c-38 -17 -74 -28 -124 -28c-7 0 -15 0 -22 1l-19 -75l-48 5l21 80c-68 24 -120 84 -120 177c0 122 92 240 230 246l19 70zM129 346
c0 -63 30 -109 79 -130l84 324c-99 -8 -163 -98 -163 -194z" />
    <glyph glyph-name="numbersign" unicode="#" horiz-adv-x="564" 
d="M550 417l-10 -45h-111l-38 -168h112l-10 -44h-112l-35 -160h-50l35 160h-141l-36 -160h-50l36 160h-111l9 44h112l37 168h-112l10 45h112l35 160h51l-36 -160h141l36 160h50l-35 -160h111zM379 372h-142l-37 -168h141z" />
    <glyph glyph-name="numbersign.lin" horiz-adv-x="711" 
d="M708 526l-11 -48h-142l-50 -224h143l-11 -48h-143l-45 -206h-52l46 206h-193l-46 -206h-52l46 206h-143l10 48h143l50 224h-143l10 48h143l46 207h53l-46 -207h192l47 207h52l-46 -207h142zM505 478h-196l-51 -224h197z" />
    <glyph glyph-name="paragraph" unicode="&#xb6;" horiz-adv-x="570" 
d="M566 556l-109 -556h-52l102 520c-29 7 -60 12 -91 15l-104 -535h-53l34 173c-115 8 -209 74 -209 182c0 140 125 231 288 231c67 0 135 -14 194 -30zM364 537c-135 3 -223 -73 -223 -179c0 -82 68 -132 161 -135z" />
    <glyph glyph-name="paragraph.lin" horiz-adv-x="692" 
d="M703 708l-140 -708h-57l133 671c-36 10 -82 17 -128 21l-136 -692h-58l45 225c-149 5 -275 90 -275 228c0 165 148 291 365 291c85 0 168 -14 251 -36zM454 695c-193 3 -306 -106 -306 -238c0 -114 100 -179 223 -183z" />
    <glyph glyph-name="section" unicode="&#xa7;" horiz-adv-x="411" 
d="M421 536l-31 -40c-29 25 -72 44 -114 44c-49 0 -94 -25 -94 -70c0 -38 44 -56 91 -76c51 -22 107 -47 107 -109c0 -53 -35 -89 -88 -104c19 -15 34 -36 34 -65c0 -78 -68 -125 -151 -125c-57 0 -115 23 -153 58l32 39c31 -30 82 -51 125 -51c55 0 94 25 94 72
c0 38 -44 56 -91 76c-51 22 -106 48 -106 110c0 50 36 86 90 101c-20 15 -36 37 -36 68c0 73 71 122 152 122c51 0 105 -19 139 -50zM239 214l15 -7c43 6 73 34 73 72c0 45 -68 66 -109 86l-11 4c-47 -4 -80 -33 -80 -69c0 -45 71 -66 112 -86z" />
    <glyph glyph-name="section.lin" horiz-adv-x="507" 
d="M532 670l-36 -42c-41 39 -101 64 -158 64c-60 0 -115 -31 -115 -88c0 -52 61 -79 125 -108c69 -31 140 -65 140 -136c0 -68 -59 -116 -126 -132c24 -17 51 -48 51 -87c0 -91 -77 -152 -182 -152c-74 0 -153 32 -203 84l38 40c43 -44 110 -73 169 -73c60 0 117 27 117 90
c0 57 -62 84 -127 112c-68 30 -139 62 -139 134c0 70 53 114 125 133c-25 19 -49 45 -49 84c0 94 80 151 181 151c68 0 143 -31 189 -74zM431 351c0 52 -68 81 -157 119l-24 10c-57 -7 -107 -45 -107 -94c0 -53 70 -82 144 -114c8 -4 24 -10 38 -16c58 8 106 44 106 95z" />
    <glyph glyph-name="ordfeminine" unicode="&#xaa;" horiz-adv-x="349" 
d="M374 610l-35 -181h-50l7 34c-23 -22 -54 -39 -97 -39c-51 0 -95 32 -95 89s49 105 128 105c37 0 69 -12 87 -24l5 24c2 11 3 21 3 25c0 37 -23 60 -80 60c-25 0 -48 -6 -73 -15l-5 43c28 9 56 15 87 15c81 0 122 -42 122 -101c0 -6 -1 -22 -4 -35zM313 559
c-15 12 -44 23 -76 23c-49 0 -83 -27 -83 -66c0 -32 23 -54 59 -54s65 17 88 39z" />
    <glyph glyph-name="ordmasculine" unicode="&#xba;" horiz-adv-x="367" 
d="M407 610c0 -96 -70 -188 -171 -188c-77 0 -130 57 -130 134c0 96 70 188 172 188c77 0 129 -57 129 -134zM357 608c0 56 -32 94 -83 94c-65 0 -117 -69 -117 -143c0 -56 32 -94 83 -94c65 0 117 68 117 143z" />
    <glyph glyph-name="degree" unicode="&#xb0;" horiz-adv-x="358" 
d="M330 600c0 -60 -45 -118 -109 -118c-49 0 -84 37 -84 86c0 60 45 117 110 117c49 0 83 -36 83 -85zM289 596c0 34 -18 56 -46 56c-35 0 -65 -37 -65 -81c0 -34 18 -55 46 -55c35 0 65 35 65 80z" />
    <glyph glyph-name="degree.lin" horiz-adv-x="368" 
d="M384 633c0 -78 -58 -152 -140 -152c-63 0 -106 47 -106 110c0 79 57 153 140 153c63 0 106 -47 106 -111zM337 631c0 44 -25 74 -65 74c-49 0 -88 -52 -88 -112c0 -45 25 -73 65 -73c49 0 88 50 88 111z" />
    <glyph glyph-name="percent" unicode="%" horiz-adv-x="641" 
d="M340 468c0 -46 -16 -96 -51 -131c-24 -24 -53 -38 -90 -38c-68 0 -109 52 -109 118c0 47 16 97 51 132c23 23 53 37 90 37c68 0 109 -52 109 -118zM641 565l-579 -582l-29 30l579 581zM295 465c0 45 -23 81 -68 81c-20 0 -39 -8 -54 -24c-26 -25 -39 -66 -39 -102
c0 -45 24 -80 68 -80c21 0 39 8 55 23c25 26 38 66 38 102zM584 160c0 -46 -16 -96 -51 -131c-23 -24 -53 -38 -90 -38c-68 0 -109 52 -109 118c0 47 16 97 51 132c24 23 53 37 90 37c68 0 109 -52 109 -118zM540 157c0 45 -24 81 -68 81c-21 0 -39 -8 -55 -24
c-25 -25 -38 -66 -38 -102c0 -45 23 -80 68 -80c20 0 39 8 54 23c26 26 39 66 39 102z" />
    <glyph glyph-name="perthousand" unicode="&#x2030;" horiz-adv-x="926" 
d="M340 468c0 -46 -16 -96 -51 -131c-24 -24 -53 -38 -90 -38c-68 0 -109 52 -109 118c0 47 16 97 51 132c23 23 53 37 90 37c68 0 109 -52 109 -118zM641 565l-579 -582l-29 30l579 581zM295 465c0 45 -23 81 -68 81c-20 0 -39 -8 -54 -24c-26 -25 -39 -66 -39 -102
c0 -45 24 -80 68 -80c21 0 39 8 55 23c25 26 38 66 38 102zM584 160c0 -46 -16 -96 -51 -131c-23 -24 -53 -38 -90 -38c-68 0 -109 52 -109 118c0 47 16 97 51 132c24 23 53 37 90 37c68 0 109 -52 109 -118zM540 157c0 45 -24 81 -68 81c-21 0 -39 -8 -55 -24
c-25 -25 -38 -66 -38 -102c0 -45 23 -80 68 -80c20 0 39 8 54 23c26 26 39 66 39 102zM869 160c0 -46 -16 -96 -51 -131c-24 -24 -53 -38 -90 -38c-68 0 -109 52 -109 118c0 47 16 97 51 132c23 23 53 37 90 37c68 0 109 -52 109 -118zM824 157c0 45 -23 81 -68 81
c-20 0 -39 -8 -54 -24c-26 -25 -39 -66 -39 -102c0 -45 24 -80 68 -80c21 0 39 8 55 23c25 26 38 66 38 102z" />
    <glyph glyph-name="percent.lin" horiz-adv-x="814" 
d="M385 591c0 62 -33 108 -93 108c-29 0 -55 -13 -75 -33c-33 -33 -51 -87 -51 -134c0 -62 33 -108 93 -108c29 0 55 13 75 33c33 33 51 87 51 134zM434 593c0 -60 -22 -124 -65 -166c-29 -30 -67 -48 -114 -48c-88 0 -138 66 -138 151c0 60 22 124 65 166
c29 30 67 48 114 48c88 0 138 -66 138 -151zM701 202c0 62 -32 108 -92 108c-30 0 -56 -13 -76 -33c-33 -33 -50 -87 -50 -134c0 -62 32 -108 92 -108c30 0 56 13 76 33c33 33 50 87 50 134zM751 204c0 -60 -23 -124 -65 -166c-30 -30 -67 -48 -114 -48
c-89 0 -139 66 -139 151c0 60 23 124 65 166c30 30 67 48 114 48c89 0 139 -66 139 -151zM831 716l-763 -732l-32 33l763 731z" />
    <glyph glyph-name="perthousand.lin" horiz-adv-x="1148" 
d="M385 591c0 62 -33 108 -93 108c-29 0 -55 -13 -75 -33c-33 -33 -51 -87 -51 -134c0 -62 33 -108 93 -108c29 0 55 13 75 33c33 33 51 87 51 134zM434 593c0 -60 -22 -124 -65 -166c-29 -30 -67 -48 -114 -48c-88 0 -138 66 -138 151c0 60 22 124 65 166
c29 30 67 48 114 48c88 0 138 -66 138 -151zM701 202c0 62 -32 108 -92 108c-30 0 -56 -13 -76 -33c-33 -33 -50 -87 -50 -134c0 -62 32 -108 92 -108c30 0 56 13 76 33c33 33 50 87 50 134zM751 204c0 -60 -23 -124 -65 -166c-30 -30 -67 -48 -114 -48
c-89 0 -139 66 -139 151c0 60 23 124 65 166c30 30 67 48 114 48c89 0 139 -66 139 -151zM1069 202c0 62 -32 108 -92 108c-30 0 -56 -13 -76 -33c-33 -33 -50 -87 -50 -134c0 -62 32 -108 92 -108c30 0 56 13 76 33c33 33 50 87 50 134zM1119 204c0 -60 -23 -124 -65 -166
c-30 -30 -67 -48 -114 -48c-89 0 -139 66 -139 151c0 60 23 124 65 166c30 30 67 48 114 48c89 0 139 -66 139 -151zM831 716l-763 -732l-32 33l763 731z" />
    <glyph glyph-name="quotedbl" unicode="&#x22;" horiz-adv-x="348" 
d="M269 641l-149 -167l-27 21l126 182zM402 631l-150 -168l-26 21l127 183z" />
    <glyph glyph-name="quotedbl.cap" horiz-adv-x="348" 
d="M285 719l-149 -167l-27 21l126 182zM418 709l-150 -168l-26 21l127 183z" />
    <glyph glyph-name="quotesingle" unicode="'" horiz-adv-x="215" 
d="M269 641l-149 -167l-27 21l126 182z" />
    <glyph glyph-name="quotesingle.cap" horiz-adv-x="215" 
d="M285 719l-149 -167l-27 21l126 182z" />
    <glyph glyph-name="plus" unicode="+" horiz-adv-x="440" 
d="M409 306l-9 -49h-144l-30 -152h-52l30 152h-144l10 49h144l28 150h52l-28 -150h143z" />
    <glyph glyph-name="plus.lin" horiz-adv-x="459" 
d="M437 396l-9 -49h-144l-30 -152h-52l30 152h-144l10 49h144l28 150h52l-28 -150h143z" />
    <glyph glyph-name="minus" unicode="&#x2212;" horiz-adv-x="440" 
d="M60 257l9 49h340l-10 -49h-339z" />
    <glyph glyph-name="minus.lin" horiz-adv-x="459" 
d="M88 347l9 49h340l-10 -49h-339z" />
    <glyph glyph-name="divide" unicode="&#xf7;" horiz-adv-x="440" 
d="M246 136c0 -21 -17 -39 -39 -39c-23 0 -40 18 -40 39c0 22 17 41 40 41c22 0 39 -19 39 -41zM60 257l9 49h340l-10 -49h-339zM302 425c0 -21 -18 -39 -40 -39s-40 18 -40 39c0 22 18 41 40 41s40 -19 40 -41z" />
    <glyph glyph-name="divide.lin" horiz-adv-x="459" 
d="M274 226c0 -21 -17 -39 -39 -39c-23 0 -40 18 -40 39c0 22 17 41 40 41c22 0 39 -19 39 -41zM88 347l9 49h340l-10 -49h-339zM330 515c0 -21 -18 -39 -40 -39s-40 18 -40 39c0 22 18 41 40 41s40 -19 40 -41z" />
    <glyph glyph-name="equal" unicode="=" horiz-adv-x="397" 
d="M345 234l-9 -49h-283l9 49h283zM373 376l-10 -50h-283l10 50h283z" />
    <glyph glyph-name="equal.lin" horiz-adv-x="399" 
d="M361 325l-9 -49h-283l9 49h283zM389 467l-10 -50h-283l10 50h283z" />
    <glyph glyph-name="multiply" unicode="&#xd7;" horiz-adv-x="446" 
d="M384 434l30 -38l-141 -118l99 -122l-39 -34l-100 123l-142 -119l-29 38l141 118l-99 123l39 33l99 -123z" />
    <glyph glyph-name="multiply.lin" horiz-adv-x="446" 
d="M396 525l30 -38l-141 -118l99 -122l-39 -34l-100 123l-142 -119l-29 38l141 118l-99 123l39 33l99 -123z" />
    <glyph glyph-name="less" unicode="&#x3c;" horiz-adv-x="381" 
d="M388 479l-274 -184l193 -228l-40 -31l-228 268l322 215z" />
    <glyph glyph-name="less.lin" horiz-adv-x="381" 
d="M412 573l-274 -184l193 -228l-40 -31l-228 268l322 215z" />
    <glyph glyph-name="greater" unicode="&#x3e;" horiz-adv-x="381" 
d="M356 259l-322 -216l-27 40l274 185l-193 228l40 30z" />
    <glyph glyph-name="greater.lin" horiz-adv-x="381" 
d="M380 346l-322 -216l-27 40l274 185l-193 228l40 30z" />
    <glyph glyph-name="florin" unicode="&#x192;" horiz-adv-x="371" 
d="M425 573l-21 -50c-14 6 -35 11 -54 11c-59 0 -90 -39 -119 -131l-21 -67h91l-10 -48h-96l-89 -288h-56l89 288h-58l1 12l72 37l19 63c40 129 93 186 184 186c27 0 48 -5 68 -13z" />
    <glyph glyph-name="florin.lin" horiz-adv-x="468" 
d="M516 724l-23 -47c-24 9 -47 16 -79 16c-86 0 -136 -53 -166 -176l-26 -99h136l-10 -50h-140l-95 -368h-57l95 367h-72l2 13l84 37l26 105c37 146 117 222 229 222c37 0 72 -9 96 -20z" />
    <glyph glyph-name="underscore" unicode="_" horiz-adv-x="520" 
d="M489 50l-9 -50h-521l10 50h520z" />
    <glyph glyph-name="arrowleft" unicode="&#x2190;" horiz-adv-x="711" 
d="M665 218l-539 1l189 -185l-35 -35l-241 239l2 9l334 239l25 -40l-255 -180l529 1z" />
    <glyph glyph-name="arrowright" unicode="&#x2192;" horiz-adv-x="711" 
d="M59 267l539 -1l-188 185l35 35l241 -239l-2 -9l-334 -239l-26 40l256 180l-530 -1z" />
    <glyph glyph-name="arrowleft.cap" horiz-adv-x="711" 
d="M689 346l-539 1l189 -185l-35 -35l-241 239l2 9l334 239l25 -40l-255 -180l529 1z" />
    <glyph glyph-name="arrowright.cap" horiz-adv-x="711" 
d="M84 395l539 -1l-188 185l35 35l241 -239l-2 -9l-334 -239l-26 40l256 180l-530 -1z" />
    <glyph glyph-name="asciicircum" unicode="^" horiz-adv-x="440" 
d="M409 485h-55l-60 97l-96 -97h-61l150 149h31z" />
    <glyph glyph-name="asciitilde" unicode="~" horiz-adv-x="440" 
d="M408 384c-40 -44 -70 -61 -104 -61c-26 0 -44 14 -62 26c-15 12 -30 23 -50 23c-22 0 -37 -11 -67 -42l-26 30c37 41 66 57 101 57c25 0 42 -12 60 -26c16 -12 32 -23 51 -23c23 0 38 12 70 45z" />
    <glyph glyph-name="hcoslug" horiz-adv-x="694" 
d="M273 18h-26c0 -9 3 -12 10 -12c5 0 8 2 9 7h7c-2 -8 -7 -14 -18 -14c-13 0 -21 8 -21 20s9 21 20 21c14 0 20 -9 19 -22zM254 35c-4 0 -7 -3 -7 -12h14c0 8 -2 12 -7 12zM195 78c5 0 8 4 8 16c0 11 -3 15 -8 15s-8 -4 -8 -15c0 -12 3 -16 8 -16zM210 4c5 0 8 4 8 16
c0 11 -3 15 -8 15s-8 -4 -8 -15c0 -12 3 -16 8 -16zM210 -1c-12 0 -21 8 -21 21c0 12 9 20 21 20s21 -8 21 -20s-9 -21 -21 -21zM546 4c5 0 8 4 8 16c0 11 -3 15 -8 15s-8 -4 -8 -15c0 -12 3 -16 8 -16zM546 -1c-12 0 -21 8 -21 21c0 12 9 20 21 20s21 -8 21 -20
s-9 -21 -21 -21zM125 74v7h7v41h-7v7h51v-20h-8c-2 11 -4 13 -11 13h-12v-18h4c5 0 5 1 6 8h7v-23h-7c-1 7 -1 8 -6 8h-4v-16h10v-7h-30zM195 73c-12 0 -21 8 -21 21c0 12 9 20 21 20s21 -8 21 -20s-9 -21 -21 -21zM644 -100v800h-594v-800h594zM498 -1c-18 0 -29 11 -29 28
c0 18 13 30 27 30c7 0 12 -3 16 -7l1 6h8v-22h-8c-4 12 -7 16 -15 16s-14 -6 -14 -22c0 -15 6 -22 16 -22c8 0 13 7 14 16h8c-1 -14 -9 -23 -24 -23zM372 80c5 0 7 5 7 13s-2 13 -7 13c-6 0 -8 -6 -8 -13c0 -8 2 -13 8 -13zM276 0v7h6v25h-7v7h7v1c0 13 9 19 19 19
c3 0 7 -1 9 -2l10 2v-52h6v-7h-23v7h5v25h-14v-25h5v-7h-23zM368 0v7h6v25h-6v7h18v-10c3 8 7 11 12 11s8 -3 8 -8c0 -4 -3 -7 -7 -7c-3 0 -6 2 -6 6v1c-2 0 -5 -4 -7 -9v-16h8v-7h-26zM352 73v52h-6v7h18v-27c2 6 7 9 13 9c9 0 15 -8 15 -20c0 -9 -4 -21 -16 -21
c-7 0 -11 3 -14 8l-4 -8h-6zM400 75c7 0 8 -7 5 -10c4 0 7 3 8 8c-4 10 -16 33 -16 33h-5v7h25v-7h-6l9 -20l8 20h-5v7h17v-7h-5l-13 -31c-4 -10 -9 -16 -18 -16c-7 0 -11 4 -11 9c0 4 3 7 7 7zM247 428c0 17 11 29 27 29c17 0 29 -15 29 -38c0 -17 -7 -33 -18 -50
c-23 22 -38 36 -38 59zM302 74v14h7c4 -6 7 -9 12 -9c3 0 5 2 5 4c0 8 -24 3 -24 19c0 6 5 12 14 12c5 0 9 -2 11 -5l2 5h6v-13h-7c-3 4 -6 7 -10 7c-3 0 -5 -2 -5 -4c0 -8 24 -2 24 -18c0 -7 -5 -13 -14 -13c-7 0 -10 3 -13 5l-1 -4h-7zM261 219c-30 0 -52 23 -52 54
c0 15 5 29 16 40c18 -17 46 -47 74 -82c-11 -9 -23 -12 -38 -12zM274 122l12 2v-11h13v-7h-13v-20c0 -3 1 -5 4 -5c2 0 4 2 5 7l5 -2c-2 -9 -6 -13 -14 -13s-12 5 -12 13v20h-7v7h7v9zM428 306c-15 -9 -31 -22 -46 -42c25 -29 42 -41 62 -41c21 0 33 12 43 29l7 -2
c-2 -58 -37 -94 -80 -94c-30 0 -52 11 -85 45c-28 -31 -62 -45 -104 -45c-60 0 -109 40 -109 93c0 42 29 73 82 91c-21 22 -31 40 -31 69c0 43 42 85 109 85c62 0 95 -39 95 -74c0 -13 -3 -24 -9 -34c27 1 47 -10 49 -37c16 24 35 38 60 38c28 0 50 -21 50 -52
s-22 -54 -50 -54c-18 0 -34 10 -43 25zM219 74v7h6v25h-6v7h17v-10c3 7 7 11 14 11c9 0 12 -6 12 -14v-19h6v-7h-22v7h4v18c0 4 -2 7 -6 7s-7 -4 -7 -10v-15h4v-7h-22zM446 33h18v-7h-5c-3 -6 -6 -10 -9 -14c2 -3 4 -5 6 -5s3 1 4 5l5 -1c-2 -7 -5 -12 -13 -12
c-5 0 -8 1 -12 6c-4 -4 -9 -6 -15 -6c-12 0 -18 6 -18 14s6 13 13 15c-4 4 -6 7 -6 12c0 7 7 14 17 14c9 0 14 -6 14 -12s-4 -9 -11 -12c5 -5 8 -9 12 -13c2 2 5 6 6 9h-6v7zM429 6c2 0 5 1 8 3c-5 6 -9 11 -14 16c-2 -2 -4 -5 -4 -9c0 -6 4 -10 10 -10zM294 42v-3h14v5
c-3 0 -6 2 -6 6c0 2 1 3 1 3s-1 1 -3 1c-3 0 -6 -2 -6 -12zM425 43c0 -3 2 -6 6 -10c3 2 5 5 5 9c0 3 -2 6 -6 6c-3 0 -5 -2 -5 -5zM312 342c19 13 33 24 42 34c23 -23 18 -47 -1 -80c-13 15 -25 30 -41 46zM366 18h-26c0 -9 3 -12 10 -12c5 0 8 2 9 7h7
c-2 -8 -7 -14 -18 -14c-13 0 -21 8 -21 20s9 21 20 21c14 0 20 -9 19 -22zM347 35c-4 0 -7 -3 -7 -12h14c0 8 -2 12 -7 12zM124 0v7h8v41h-8v7h29v-7h-8v-16h22v16h-8v7h29v-7h-8v-41h8v-7h-29v7h8v18h-22v-18h8v-7h-29zM576 13c4 0 7 -3 7 -7s-3 -7 -7 -7s-7 3 -7 7
s3 7 7 7z" />
    <glyph glyph-name="acute" unicode="&#xb4;" horiz-adv-x="440" 
d="M381 581l-196 -106l-15 31l183 128z" />
    <glyph glyph-name="hungarumlaut" unicode="&#x2dd;" horiz-adv-x="440" 
d="M312 639l-142 -155l-25 20l122 168zM449 633l-140 -152l-25 19l120 165z" />
    <glyph glyph-name="caron.alt" horiz-adv-x="215" 
d="M131 738l55 -9c-15 -83 -60 -144 -125 -184l-24 23c49 41 80 94 94 170z" />
    <glyph glyph-name="grave" unicode="`" horiz-adv-x="440" 
d="M382 505l-22 -30l-182 111l35 48z" />
    <glyph glyph-name="circumflex" unicode="&#x2c6;" horiz-adv-x="440" 
d="M410 485h-55l-60 97l-96 -97h-61l150 149h31z" />
    <glyph glyph-name="caron" unicode="&#x2c7;" horiz-adv-x="440" 
d="M434 633l-150 -149h-30l-92 149h56l60 -97l95 97h61z" />
    <glyph glyph-name="breve" unicode="&#x2d8;" horiz-adv-x="440" 
d="M424 613c-14 -75 -61 -133 -145 -133c-73 0 -118 42 -118 104c0 11 0 19 2 29l48 4c-2 -8 -2 -17 -2 -26c0 -48 33 -69 74 -69c50 0 82 37 93 95z" />
    <glyph glyph-name="tilde" unicode="&#x2dc;" horiz-adv-x="440" 
d="M439 559c-39 -44 -69 -61 -104 -61c-25 0 -43 13 -59 25s-31 24 -52 24c-22 0 -38 -11 -67 -42l-26 30c37 41 66 57 100 57c25 0 43 -13 60 -26c17 -12 32 -23 52 -23c23 0 38 12 70 45z" />
    <glyph glyph-name="macron" unicode="&#xaf;" horiz-adv-x="440" 
d="M426 561l-9 -48h-279l10 48h278z" />
    <glyph glyph-name="dieresis" unicode="&#xa8;" horiz-adv-x="440" 
d="M239 541c0 -22 -18 -40 -41 -40c-22 0 -40 18 -40 40c0 23 18 41 40 41c23 0 41 -18 41 -41zM409 541c0 -22 -18 -40 -40 -40s-40 18 -40 40c0 23 18 41 40 41s40 -18 40 -41z" />
    <glyph glyph-name="dotaccent" unicode="&#x2d9;" horiz-adv-x="440" 
d="M326 541c0 -22 -18 -40 -41 -40c-22 0 -40 18 -40 40c0 23 18 41 40 41c23 0 41 -18 41 -41z" />
    <glyph glyph-name="ring" unicode="&#x2da;" horiz-adv-x="440" 
d="M387 600c0 -60 -48 -118 -112 -118c-49 0 -86 37 -86 86c0 60 47 117 112 117c49 0 86 -36 86 -85zM346 596c0 35 -21 56 -49 56c-35 0 -67 -37 -67 -81c0 -35 20 -55 48 -55c35 0 68 35 68 80z" />
    <glyph glyph-name="commaaccent" unicode="&#x326;" horiz-adv-x="217" 
d="M166 -122c0 -60 -61 -111 -115 -140l-9 13c41 32 67 60 80 91c-23 4 -40 21 -40 44s19 41 41 41c20 0 43 -18 43 -49z" />
    <glyph glyph-name="cedilla" unicode="&#xb8;" horiz-adv-x="440" 
d="M263 -142c0 -54 -48 -95 -115 -95c-34 0 -70 12 -103 34l24 36c27 -19 55 -29 82 -29c36 0 64 18 64 51c0 23 -23 49 -90 56l-2 6l46 97l37 -9l-29 -65c56 -15 86 -42 86 -82z" />
    <glyph glyph-name="ogonek" unicode="&#x2db;" horiz-adv-x="440" 
d="M269 -170c-29 -31 -59 -49 -96 -49c-42 -1 -67 25 -67 64c0 69 69 128 144 187l17 -29c-34 -31 -112 -89 -112 -145c0 -23 11 -36 31 -36c21 0 39 13 61 34z" />
    <glyph glyph-name="space" unicode=" " horiz-adv-x="202" 
 />
    <glyph glyph-name="uni00A0" unicode="&#xa0;" horiz-adv-x="217" 
 />
    <glyph glyph-name="emspace" unicode="&#x2003;" horiz-adv-x="1000" 
 />
    <glyph glyph-name="enspace" unicode="&#x2002;" horiz-adv-x="500" 
 />
    <glyph glyph-name="threeperemspace" unicode="&#x2004;" horiz-adv-x="333" 
 />
    <glyph glyph-name="fourperemspace" unicode="&#x2005;" horiz-adv-x="250" 
 />
    <glyph glyph-name="thinspace" unicode="&#x2009;" horiz-adv-x="133" 
 />
    <glyph glyph-name="hairspace" unicode="&#x200a;" horiz-adv-x="75" 
 />
    <glyph glyph-name="NUL" horiz-adv-x="0" 
 />
    <glyph glyph-name="figurespace" unicode="&#x2007;" horiz-adv-x="520" 
 />
    </font>
</defs>
</svg>
