<svg width="296" height="139" viewBox="0 0 296 139" fill="none" xmlns="http://www.w3.org/2000/svg">
<path d="M157.816 130.588H5.91699L77.5069 39.2686L157.816 130.588Z" fill="#F8C67B"/>
<path d="M49.8646 130.588H5.91699L77.5069 39.2686L77.0659 40.7217L49.8646 130.588Z" fill="#D6902A"/>
<g opacity="0.57">
<path opacity="0.57" d="M59.3485 121.964H139.864C140.205 121.964 140.489 121.685 140.489 121.338C140.489 120.997 140.21 120.712 139.864 120.712H59.3485C59.008 120.712 58.7233 120.992 58.7233 121.338C58.7233 121.685 59.008 121.964 59.3485 121.964Z" fill="#D6902A"/>
</g>
<g opacity="0.57">
<path opacity="0.57" d="M72.1091 115.52H105.004C105.345 115.52 105.629 115.241 105.629 114.894C105.629 114.553 105.35 114.268 105.004 114.268H72.1091C71.7686 114.268 71.4839 114.548 71.4839 114.894C71.4895 115.241 71.7686 115.52 72.1091 115.52Z" fill="#D6902A"/>
</g>
<g opacity="0.57">
<path opacity="0.57" d="M107.282 108.562H125.128C125.468 108.562 125.753 108.282 125.753 107.936C125.753 107.595 125.474 107.31 125.128 107.31H107.282C106.941 107.31 106.656 107.589 106.656 107.936C106.662 108.282 106.941 108.562 107.282 108.562Z" fill="#D6902A"/>
</g>
<g opacity="0.57">
<path opacity="0.57" d="M70.3452 100.871H97.2172C97.5577 100.871 97.8424 100.592 97.8424 100.245C97.8424 99.9042 97.5633 99.6191 97.2172 99.6191H70.3452C70.0047 99.6191 69.72 99.8986 69.72 100.245C69.7256 100.592 70.0047 100.871 70.3452 100.871Z" fill="#D6902A"/>
</g>
<g opacity="0.57">
<path opacity="0.57" d="M108.219 96.0981H115.275C115.616 96.0981 115.9 95.8187 115.9 95.4722C115.9 95.1312 115.621 94.8462 115.275 94.8462H108.219C107.879 94.8462 107.594 95.1257 107.594 95.4722C107.594 95.8187 107.873 96.0981 108.219 96.0981Z" fill="#D6902A"/>
</g>
<g opacity="0.57">
<path opacity="0.57" d="M81.66 90.3804H98.8806C99.2212 90.3804 99.5058 90.1009 99.5058 89.7544C99.5058 89.4135 99.2267 89.1284 98.8806 89.1284H81.66C81.3195 89.1284 81.0348 89.4079 81.0348 89.7544C81.0348 90.1009 81.3139 90.3804 81.66 90.3804Z" fill="#D6902A"/>
</g>
<g opacity="0.57">
<path opacity="0.57" d="M102.721 86.7476H107.907C108.247 86.7476 108.532 86.4681 108.532 86.1216C108.532 85.7806 108.253 85.4956 107.907 85.4956H102.721C102.381 85.4956 102.096 85.7751 102.096 86.1216C102.096 86.4681 102.375 86.7476 102.721 86.7476Z" fill="#D6902A"/>
</g>
<g opacity="0.57">
<path opacity="0.57" d="M82.6927 95.3662H102.302C102.643 95.3662 102.928 95.0868 102.928 94.7402C102.928 94.3937 102.649 94.1143 102.302 94.1143H82.6927C82.3522 94.1143 82.0675 94.3937 82.0675 94.7402C82.0675 95.0868 82.3522 95.3662 82.6927 95.3662Z" fill="#D6902A"/>
</g>
<g opacity="0.57">
<path opacity="0.57" d="M77.5069 78.8501H97.6358C97.9763 78.8501 98.261 78.5706 98.261 78.2241C98.261 77.8776 97.9819 77.5981 97.6358 77.5981H77.5069C77.1664 77.5981 76.8817 77.8776 76.8817 78.2241C76.8817 78.5706 77.1664 78.8501 77.5069 78.8501Z" fill="#D6902A"/>
</g>
<g opacity="0.57">
<path opacity="0.57" d="M85.2883 71.9927H100.645C100.985 71.9927 101.27 71.7132 101.27 71.3667C101.27 71.0258 100.991 70.7407 100.645 70.7407H85.2883C84.9478 70.7407 84.6631 71.0202 84.6631 71.3667C84.6687 71.7132 84.9478 71.9927 85.2883 71.9927Z" fill="#D6902A"/>
</g>
<g opacity="0.57">
<path opacity="0.57" d="M79.8904 65.0342H87.6718C88.0123 65.0342 88.297 64.7547 88.297 64.4082C88.297 64.0673 88.0179 63.7822 87.6718 63.7822H79.8904C79.5499 63.7822 79.2653 64.0617 79.2653 64.4082C79.2708 64.7547 79.5499 65.0342 79.8904 65.0342Z" fill="#D6902A"/>
</g>
<g opacity="0.57">
<path opacity="0.57" d="M82.7988 57.5503H88.0905C88.4311 57.5503 88.7157 57.2708 88.7157 56.9243C88.7157 56.5834 88.4366 56.2983 88.0905 56.2983H82.7988C82.4583 56.2983 82.1736 56.5778 82.1736 56.9243C82.1736 57.2708 82.4527 57.5503 82.7988 57.5503Z" fill="#D6902A"/>
</g>
<g opacity="0.57">
<path opacity="0.57" d="M69.6195 85.2891H85.0818C85.4223 85.2891 85.7069 85.0096 85.7069 84.6631C85.7069 84.3221 85.4278 84.0371 85.0818 84.0371H69.6195C69.2789 84.0371 68.9943 84.3166 68.9943 84.6631C68.9998 85.0096 69.2789 85.2891 69.6195 85.2891Z" fill="#D6902A"/>
</g>
<g opacity="0.57">
<path opacity="0.57" d="M77.1944 108.355H90.0611C90.4016 108.355 90.6862 108.076 90.6862 107.729C90.6862 107.388 90.4071 107.103 90.0611 107.103H77.1944C76.8539 107.103 76.5692 107.382 76.5692 107.729C76.5748 108.076 76.8539 108.355 77.1944 108.355Z" fill="#D6902A"/>
</g>
<g opacity="0.57">
<path opacity="0.57" d="M119.01 116.045H132.183C132.524 116.045 132.808 115.766 132.808 115.419C132.808 115.073 132.529 114.793 132.183 114.793H119.01C118.669 114.793 118.384 115.073 118.384 115.419C118.384 115.766 118.669 116.045 119.01 116.045Z" fill="#D6902A"/>
</g>
<path d="M288.838 130.588H71.6122L173.993 0L288.838 130.588Z" fill="#F8C67B"/>
<path d="M134.466 130.588H71.6122L173.993 0L173.368 2.07913L134.466 130.588Z" fill="#D6902A"/>
<g opacity="0.57">
<path opacity="0.57" d="M148.025 118.259H263.166C263.657 118.259 264.054 117.857 264.054 117.371C264.054 116.879 263.652 116.482 263.166 116.482H148.025C147.534 116.482 147.137 116.884 147.137 117.371C147.137 117.857 147.539 118.259 148.025 118.259Z" fill="#D6902A"/>
</g>
<g opacity="0.57">
<path opacity="0.57" d="M166.278 109.042H213.318C213.81 109.042 214.206 108.64 214.206 108.154C214.206 107.668 213.804 107.265 213.318 107.265H166.278C165.787 107.265 165.391 107.668 165.391 108.154C165.391 108.64 165.787 109.042 166.278 109.042Z" fill="#D6902A"/>
</g>
<g opacity="0.57">
<path opacity="0.57" d="M216.578 99.0942H242.1C242.591 99.0942 242.987 98.6918 242.987 98.2056C242.987 97.7137 242.585 97.3169 242.1 97.3169H216.578C216.087 97.3169 215.691 97.7193 215.691 98.2056C215.685 98.6918 216.087 99.0942 216.578 99.0942Z" fill="#D6902A"/>
</g>
<g opacity="0.57">
<path opacity="0.57" d="M163.755 88.0947H202.188C202.679 88.0947 203.075 87.6923 203.075 87.206C203.075 86.7198 202.673 86.3174 202.188 86.3174H163.755C163.264 86.3174 162.868 86.7198 162.868 87.206C162.868 87.6923 163.264 88.0947 163.755 88.0947Z" fill="#D6902A"/>
</g>
<g opacity="0.57">
<path opacity="0.57" d="M217.912 81.2651H228.005C228.496 81.2651 228.892 80.8627 228.892 80.3764C228.892 79.8902 228.49 79.4878 228.005 79.4878H217.912C217.421 79.4878 217.025 79.8902 217.025 80.3764C217.025 80.8627 217.421 81.2651 217.912 81.2651Z" fill="#D6902A"/>
</g>
<g opacity="0.57">
<path opacity="0.57" d="M179.932 73.0937H204.56C205.051 73.0937 205.448 72.6913 205.448 72.2051C205.448 71.7132 205.046 71.3164 204.56 71.3164H179.932C179.441 71.3164 179.044 71.7188 179.044 72.2051C179.039 72.6913 179.441 73.0937 179.932 73.0937Z" fill="#D6902A"/>
</g>
<g opacity="0.57">
<path opacity="0.57" d="M210.047 67.896H217.466C217.957 67.896 218.353 67.4936 218.353 67.0073C218.353 66.5155 217.952 66.1187 217.466 66.1187H210.047C209.556 66.1187 209.16 66.5211 209.16 67.0073C209.16 67.4936 209.562 67.896 210.047 67.896Z" fill="#D6902A"/>
</g>
<g opacity="0.57">
<path opacity="0.57" d="M181.411 80.2256H209.456C209.947 80.2256 210.343 79.8232 210.343 79.3369C210.343 78.8507 209.941 78.4482 209.456 78.4482H181.411C180.92 78.4482 180.524 78.8507 180.524 79.3369C180.524 79.8232 180.92 80.2256 181.411 80.2256Z" fill="#D6902A"/>
</g>
<g opacity="0.57">
<path opacity="0.57" d="M173.993 56.6006H202.779C203.271 56.6006 203.667 56.1982 203.667 55.7119C203.667 55.2201 203.265 54.8232 202.779 54.8232H173.993C173.502 54.8232 173.105 55.2257 173.105 55.7119C173.105 56.2037 173.502 56.6006 173.993 56.6006Z" fill="#D6902A"/>
</g>
<g opacity="0.57">
<path opacity="0.57" d="M185.123 46.7973H207.083C207.575 46.7973 207.971 46.3949 207.971 45.9087C207.971 45.4168 207.569 45.02 207.083 45.02H185.123C184.632 45.02 184.236 45.4224 184.236 45.9087C184.23 46.3949 184.632 46.7973 185.123 46.7973Z" fill="#D6902A"/>
</g>
<g opacity="0.57">
<path opacity="0.57" d="M177.403 36.8432H188.534C189.025 36.8432 189.422 36.4408 189.422 35.9546C189.422 35.4627 189.02 35.0659 188.534 35.0659H177.403C176.912 35.0659 176.516 35.4683 176.516 35.9546C176.516 36.4408 176.918 36.8432 177.403 36.8432Z" fill="#D6902A"/>
</g>
<g opacity="0.57">
<path opacity="0.57" d="M181.562 26.1455H189.131C189.623 26.1455 190.019 25.7431 190.019 25.2568C190.019 24.765 189.617 24.3682 189.131 24.3682H181.562C181.071 24.3682 180.674 24.7706 180.674 25.2568C180.669 25.7431 181.071 26.1455 181.562 26.1455Z" fill="#D6902A"/>
</g>
<g opacity="0.57">
<path opacity="0.57" d="M162.717 65.811H184.828C185.319 65.811 185.715 65.4086 185.715 64.9224C185.715 64.4361 185.313 64.0337 184.828 64.0337H162.717C162.226 64.0337 161.829 64.4361 161.829 64.9224C161.829 65.4086 162.226 65.811 162.717 65.811Z" fill="#D6902A"/>
</g>
<g opacity="0.57">
<path opacity="0.57" d="M173.552 98.7925H191.95C192.441 98.7925 192.838 98.39 192.838 97.9038C192.838 97.412 192.436 97.0151 191.95 97.0151H173.552C173.061 97.0151 172.664 97.4175 172.664 97.9038C172.659 98.39 173.061 98.7925 173.552 98.7925Z" fill="#D6902A"/>
</g>
<g opacity="0.57">
<path opacity="0.57" d="M233.347 109.791H252.186C252.678 109.791 253.074 109.389 253.074 108.903C253.074 108.417 252.672 108.014 252.186 108.014H233.347C232.856 108.014 232.459 108.417 232.459 108.903C232.459 109.389 232.856 109.791 233.347 109.791Z" fill="#D6902A"/>
</g>
<path d="M115.951 107.175C115.951 107.175 118.915 106.779 121.962 110.099C125.016 113.418 125.367 115.458 125.367 115.458C125.367 115.458 126.383 112.848 123.598 108.372C120.813 103.9 115.638 106.337 115.638 106.337L115.951 107.175Z" fill="#94A525"/>
<path d="M115.42 107.175C115.42 107.175 112.456 106.779 109.408 110.099C106.355 113.418 106.003 115.458 106.003 115.458C106.003 115.458 104.987 112.848 107.773 108.372C110.558 103.9 115.733 106.337 115.733 106.337L115.42 107.175Z" fill="#94A525"/>
<path d="M116.308 106.595C116.308 106.595 118.379 104.432 122.828 105.125C127.282 105.818 128.828 107.187 128.828 107.187C128.828 107.187 127.997 104.51 123.034 102.749C118.072 100.989 115.543 106.125 115.543 106.125L116.308 106.595Z" fill="#BADB0E"/>
<path d="M116.375 105.583C116.375 105.583 117.391 102.766 121.745 101.598C126.099 100.424 128.064 101.056 128.064 101.056C128.064 101.056 126.221 98.943 120.974 99.3454C115.727 99.7478 115.487 105.471 115.487 105.471L116.375 105.583Z" fill="#DAE954"/>
<path d="M115.091 106.595C115.091 106.595 113.02 104.432 108.571 105.125C104.117 105.818 102.57 107.187 102.57 107.187C102.57 107.187 103.402 104.51 108.364 102.749C113.327 100.989 115.856 106.125 115.856 106.125L115.091 106.595Z" fill="#BADB0E"/>
<path d="M115.029 105.583C115.029 105.583 114.013 102.766 109.659 101.598C105.305 100.424 103.341 101.056 103.341 101.056C103.341 101.056 105.183 98.943 110.43 99.3454C115.677 99.7478 115.917 105.471 115.917 105.471L115.029 105.583Z" fill="#DAE954"/>
<path d="M115.091 106.265C115.091 106.265 114.946 100.894 113.913 98.943C112.88 96.9924 109.459 95.6678 109.459 95.6678C109.459 95.6678 113.026 95.1648 115.002 96.8807C116.978 98.5909 117.536 101.514 116.71 103.934C115.884 106.354 115.588 106.885 115.588 106.885L115.091 106.265Z" fill="#BADB0E"/>
<path d="M116.654 105.393H114.946V130.588H116.654V105.393Z" fill="#B68350"/>
<path d="M115.56 106.488C115.32 107.103 114.756 107.461 114.309 107.288C113.863 107.109 113.69 106.466 113.935 105.851C114.175 105.236 114.739 104.879 115.186 105.052C115.632 105.231 115.8 105.874 115.56 106.488Z" fill="#8C663C"/>
<path d="M116.738 107.461C116.788 108.12 116.442 108.685 115.956 108.724C115.476 108.763 115.046 108.254 114.996 107.595C114.946 106.935 115.292 106.371 115.777 106.332C116.257 106.293 116.687 106.801 116.738 107.461Z" fill="#775731"/>
<path d="M117.821 105.913C118.061 106.528 117.888 107.17 117.441 107.349C116.989 107.522 116.431 107.165 116.196 106.55C115.956 105.935 116.129 105.292 116.576 105.114C117.022 104.935 117.581 105.298 117.821 105.913Z" fill="#8C663C"/>
<path d="M116.721 105.862C116.715 106.522 116.319 107.058 115.839 107.053C115.359 107.047 114.968 106.51 114.979 105.845C114.985 105.186 115.381 104.649 115.861 104.655C116.341 104.66 116.726 105.203 116.721 105.862Z" fill="#B68350"/>
<path d="M156.906 117.242C156.778 116.974 156.655 116.208 156.119 116.051C155.583 115.895 154.506 115.8 154.255 115.543C154.003 115.291 153.674 114.911 153.222 115.04C152.792 115.163 152.441 114.559 152.122 115.001C151.592 115.727 152.145 117.164 151.207 118.209C150.275 119.254 149.047 119.042 148.003 118.539C146.959 118.03 146.752 116.845 145.441 116.085C144.129 115.325 142.672 115.66 141.472 114.867C140.272 114.073 139.825 112.81 138.262 113.916C136.694 115.023 136.426 115.643 135.097 116.163C133.769 116.683 134.131 116.387 133.261 117.035C132.959 117.259 132.423 117.7 132.033 118.36C131.865 118.416 131.458 119.533 131.318 120.551C131.151 121.752 131.212 122.211 131.056 122.926C130.899 123.641 130.654 124.066 130.832 124.055C131.011 124.044 131.106 123.736 131.212 123.284C131.296 122.937 131.346 122.026 131.575 121.434C131.619 122.758 131.698 124.144 131.525 124.944C131.285 126.039 130.877 127.179 130.749 127.353C130.62 127.526 131 127.794 131.19 128.778C131.379 129.761 131.631 131.12 131.681 131.69C131.731 132.26 131.871 132.243 132.457 132.293C133.043 132.344 133.071 132.087 132.965 131.975C132.853 131.863 132.602 132.036 132.395 131.561C132.189 131.086 131.938 129.376 131.999 128.979C132.06 128.582 132.094 126.95 132.206 126.525C132.317 126.101 132.775 124.592 132.948 124.48C133.121 124.368 133.646 124.877 133.646 125.43C133.646 125.983 133.785 125.922 133.662 126.967C133.534 128.012 133.456 127.789 133.679 128.202C133.902 128.616 135.008 130.354 135.136 130.941C135.265 131.528 135.404 132.254 135.516 132.321C135.627 132.383 136.308 132.511 136.403 132.511C136.498 132.511 136.437 132.193 136.258 132.098C136.085 132.003 136.102 131.857 135.845 131.114C135.594 130.371 135.024 129.326 134.896 128.213C134.768 127.107 134.768 125.251 134.801 125C134.835 124.748 135.164 124.558 135.242 123.558C135.32 122.563 135.387 122.099 135.812 121.797C135.812 121.797 137.045 123.284 139.323 123.463C141.6 123.636 141.617 123.798 142.281 123.887C142.945 123.982 143.671 123.541 143.671 123.541C143.671 123.541 143.118 125.57 142.8 126.85C142.482 128.135 142.231 128.051 142.264 128.733C142.298 129.415 142.119 131.298 142.058 131.645C141.996 131.991 142.041 132.154 142.214 132.372C142.214 132.372 143.386 132.545 143.526 132.433C143.671 132.321 143.448 132.193 143.13 131.992C142.811 131.785 142.811 130.835 142.828 130.359C142.845 129.884 143.113 129.158 143.353 128.554C143.587 127.951 143.766 126.687 144.017 126.067C144.268 125.447 144.793 124.117 144.793 124.117C144.793 124.117 146.25 126.078 146.406 127.045C146.563 128.012 146.451 128.599 146.122 129.516C145.787 130.432 145.759 131.209 145.586 131.477C145.413 131.746 145.162 131.997 145.173 132.109C145.189 132.221 145.664 132.617 146.043 132.679C146.423 132.74 146.752 132.645 146.752 132.455C146.752 132.265 146.518 131.98 146.518 131.634C146.518 131.287 146.613 130.684 146.708 130.382C146.803 130.08 147.026 128.767 147.294 128.23C147.562 127.694 148.036 127.123 147.673 126.632C147.311 126.14 146.122 124.491 145.697 122.876C145.697 122.876 146.853 122.339 147.154 121.624C147.154 121.624 149.493 121.78 150.157 121.685C151.665 121.478 152.608 120.607 153.055 119.819C153.496 119.025 154.098 117.667 154.098 117.667C154.098 117.667 155.142 117.477 155.393 117.365C155.645 117.253 155.963 117.51 156.203 117.521C156.443 117.538 156.482 117.577 156.672 117.656C156.862 117.734 157.007 117.678 156.99 117.566C156.962 117.471 157.035 117.51 156.906 117.242Z" fill="#8C663C"/>
<path d="M255.932 117.242C255.804 116.974 255.681 116.208 255.145 116.051C254.609 115.895 253.532 115.8 253.28 115.543C253.029 115.291 252.7 114.911 252.248 115.04C251.818 115.163 251.466 114.559 251.148 115.001C250.618 115.727 251.17 117.164 250.233 118.209C249.3 119.254 248.072 119.042 247.029 118.539C245.985 118.03 245.778 116.845 244.466 116.085C243.155 115.325 241.698 115.66 240.498 114.867C239.297 114.073 238.851 112.81 237.288 113.916C235.725 115.023 235.451 115.643 234.123 116.163C232.794 116.683 233.157 116.387 232.286 117.035C231.985 117.259 231.449 117.7 231.058 118.36C230.891 118.416 230.483 119.533 230.344 120.551C230.176 121.752 230.238 122.211 230.081 122.926C229.925 123.641 229.679 124.066 229.858 124.055C230.037 124.044 230.132 123.736 230.238 123.284C230.321 122.937 230.372 122.026 230.601 121.434C230.645 122.758 230.723 124.144 230.55 124.944C230.316 126.039 229.903 127.179 229.774 127.353C229.646 127.526 230.026 127.794 230.215 128.778C230.405 129.761 230.656 131.12 230.707 131.69C230.757 132.26 230.896 132.243 231.482 132.293C232.069 132.344 232.102 132.087 231.99 131.975C231.879 131.863 231.628 132.036 231.421 131.561C231.215 131.086 230.963 129.376 231.025 128.979C231.086 128.582 231.12 126.95 231.231 126.525C231.343 126.101 231.801 124.592 231.974 124.48C232.147 124.368 232.671 124.877 232.671 125.43C232.671 125.983 232.817 125.922 232.688 126.967C232.56 128.012 232.482 127.789 232.705 128.202C232.928 128.616 234.033 130.354 234.162 130.941C234.29 131.528 234.43 132.254 234.541 132.321C234.653 132.383 235.334 132.511 235.429 132.511C235.524 132.511 235.463 132.193 235.284 132.098C235.111 132.003 235.128 131.857 234.871 131.114C234.62 130.371 234.05 129.326 233.922 128.213C233.793 127.107 233.793 125.251 233.827 125C233.86 124.748 234.19 124.558 234.268 123.558C234.346 122.563 234.413 122.099 234.837 121.797C234.837 121.797 236.071 123.284 238.348 123.463C240.626 123.636 240.643 123.798 241.307 123.887C241.971 123.977 242.697 123.541 242.697 123.541C242.697 123.541 242.144 125.57 241.826 126.85C241.508 128.135 241.257 128.051 241.29 128.733C241.324 129.415 241.145 131.298 241.084 131.645C241.022 131.991 241.067 132.154 241.24 132.372C241.24 132.372 242.412 132.545 242.552 132.433C242.697 132.321 242.474 132.193 242.155 131.992C241.837 131.785 241.837 130.835 241.854 130.359C241.871 129.884 242.139 129.158 242.373 128.554C242.608 127.951 242.786 126.687 243.037 126.067C243.289 125.447 243.813 124.117 243.813 124.117C243.813 124.117 245.27 126.078 245.427 127.045C245.583 128.012 245.471 128.599 245.142 129.516C244.812 130.432 244.779 131.209 244.606 131.477C244.433 131.746 244.182 131.997 244.193 132.109C244.21 132.221 244.684 132.617 245.064 132.679C245.443 132.74 245.778 132.645 245.778 132.455C245.778 132.265 245.538 131.98 245.538 131.634C245.538 131.287 245.633 130.684 245.728 130.382C245.823 130.08 246.046 128.767 246.314 128.23C246.582 127.694 247.056 127.123 246.694 126.632C246.331 126.14 245.142 124.491 244.718 122.876C244.718 122.876 245.873 122.339 246.174 121.624C246.174 121.624 248.513 121.78 249.178 121.685C250.685 121.478 251.628 120.607 252.075 119.819C252.516 119.025 253.119 117.667 253.119 117.667C253.119 117.667 254.162 117.477 254.414 117.365C254.665 117.253 254.983 117.51 255.223 117.521C255.463 117.538 255.502 117.577 255.692 117.656C255.882 117.734 256.027 117.678 256.01 117.566C255.982 117.471 256.055 117.51 255.932 117.242Z" fill="#8C663C"/>
<path d="M289 130H6V133H289V130Z" fill="#9F703A"/>
</svg>
