<svg width="208" height="84" viewBox="0 0 208 84" fill="none" xmlns="http://www.w3.org/2000/svg">
<path d="M138.435 30.6651C138.022 30.2524 137.179 31.8173 137.179 31.8173L138.108 33.6918C138.796 33.4854 139.415 33.2447 139.948 33.0039C139.604 32.4192 138.761 31.009 138.435 30.6651Z" fill="black"/>
<path d="M143.13 33.2791C143.13 33.2791 140.894 33.3479 139.381 34.2765C139.157 34.4141 138.899 34.5345 138.641 34.6549L141.032 38.0427C141.032 38.0427 147.911 36.323 149.837 35.4631C151.419 34.758 150.714 31.8345 150.06 29.9772L146.965 29.2033C146.879 29.9256 146.552 30.5963 145.916 31.1122C144.695 32.1097 142.906 32.0409 141.496 31.0606L140.412 32.7803C141.307 32.3332 141.857 31.9549 141.857 31.9549L143.13 33.2791Z" fill="black"/>
<path d="M145.933 31.1122C146.569 30.5791 146.896 29.9256 146.982 29.2033C147.085 28.2058 146.707 27.1052 145.864 26.0734C144.42 24.302 141.875 23.8893 140.344 25.1447C138.813 26.4001 139.106 28.4294 140.55 30.1835C140.843 30.5275 141.169 30.8198 141.513 31.0606C142.924 32.0408 144.712 32.1096 145.933 31.1122Z" fill="black"/>
<path d="M182.288 42.0154C179.313 43.0472 176.097 44.1994 174.927 44.7325C173.896 45.1969 172.365 45.6956 170.525 46.2115L175.375 54.793C176.75 54.0019 178.315 53.5376 180.001 53.4688L182.288 42.0154ZM169.613 23.4423L170.697 14.1901L170.112 14.3449L165.314 22.4792L167.378 23.9926C168.117 23.8034 168.874 23.6314 169.613 23.4423ZM164.712 22.0493L169.098 14.6201L160.224 16.9589V16.9761L159.949 18.6442L164.712 22.0493ZM164.489 22.806L159.794 19.4525L158.676 26.1251C160.086 25.7811 161.582 25.42 163.13 25.0416L164.489 22.806ZM157.421 18.541L156.234 18.885L154.875 27.0537C155.254 26.9677 155.632 26.8645 156.045 26.7785L157.421 18.541ZM206.76 53.3656C205.659 53.7095 201.239 42.9784 196.82 29.2722L195.616 29.6505C195.805 30.1836 195.977 30.7339 196.183 31.3186C198.316 37.6129 193.621 38.3867 193.621 38.3867L188.238 39.9861C188.238 39.9861 186.725 40.4848 184.713 41.1899L182.254 53.6407C186.948 54.5006 190.525 58.628 190.525 63.5808C190.525 69.1527 185.985 73.6928 180.413 73.6928C174.841 73.6928 170.301 69.1527 170.301 63.5808C170.301 60.6228 171.574 57.9745 173.603 56.1343L168.358 46.8478C166.518 47.3637 164.506 47.914 162.477 48.5331C157.369 50.0809 146.105 52.6949 146.105 52.6949C146.105 52.6949 90.6951 61.1216 87.9607 61.4999C85.2263 61.8782 74.3232 63.9763 69.8175 64.6814C65.3118 65.3865 64.0048 60.0553 64.0048 60.0553L62.5259 53.5891C61.0469 47.123 65.1915 45.472 65.1915 45.472C65.1915 45.472 68.0462 44.4058 71.4341 43.5459C74.8219 42.6861 74.9079 44.4058 74.9079 44.4058C74.9079 44.4058 75.7334 46.779 77.0576 50.8032C78.3818 54.8274 75.0283 56.0312 75.0283 56.0312L80.6002 54.7242C86.1722 53.4172 92.8447 50.958 92.8447 50.958L136.268 35.4288C135.391 35.6352 134.548 35.7555 133.929 35.8071C132.536 35.9103 128.22 35.2052 126.741 35.188C125.262 35.1708 124.643 35.704 124.643 35.704L124.763 34.9817C124.883 34.2594 124.264 33.4167 124.264 33.4167C124.264 33.4167 124.608 33.2619 127.171 33.1244C129.733 32.9868 132.295 34.2422 135.597 34.1218C136.474 34.0874 137.317 33.9154 138.091 33.6919C138.779 33.4855 139.398 33.2447 139.931 33.004C140.103 32.9352 140.258 32.8492 140.412 32.7804C141.307 32.3333 141.857 31.9549 141.857 31.9549L143.112 33.2791C143.112 33.2791 140.877 33.3651 139.363 34.2766C139.14 34.4142 138.882 34.5345 138.624 34.6549L141.014 38.0428C141.014 38.0428 147.893 36.3231 149.819 35.4632C151.402 34.7581 150.696 31.8346 150.043 29.9772C149.716 29.0486 149.407 28.3607 149.407 28.3607C149.407 28.3607 150.456 28.1027 152.193 27.69L153.551 19.6417L146.363 21.7053C146.363 21.7053 141.651 18.3519 139.69 16.9245C137.73 15.4971 139.415 14.4309 139.415 14.4309L143.783 11.6793C143.783 11.6793 149.561 8.65259 153.654 6.6921C157.747 4.73161 168.599 2.15201 168.599 2.15201C168.599 2.15201 176.183 0.0883344 180.637 0.00234785C185.091 -0.0836387 182.855 2.2208 182.855 2.2208C182.855 2.2208 178.59 9.34048 177.249 11.4729C176.475 12.7112 175.581 13.1067 174.979 13.2271L174.068 22.3416C179.863 20.9143 184.919 19.6417 186.794 19.1086C192.245 17.5608 192.847 21.7053 192.847 21.7053C192.847 21.7053 193.466 23.4595 194.618 26.7957L195.891 26.4002C191.867 13.5194 189.494 3.18385 190.543 2.8399C191.643 2.47876 196.183 13.5022 200.655 27.4664C205.126 41.4307 207.86 53.0044 206.76 53.3656Z" fill="black"/>
<path d="M68.3386 63.3056C56.5413 61.5686 44.5031 61.4482 32.6714 62.9616C23.5396 64.131 14.1671 66.4527 7.09902 72.3341C5.43088 73.7271 3.83152 75.4125 3.3156 77.5449C2.79968 79.6602 3.69395 82.257 5.74043 82.9965C7.90729 83.7875 10.4525 82.0506 11.0028 79.7978C11.5531 77.5449 10.4697 75.1373 8.78435 73.5552C7.09901 71.973 4.89776 71.0615 2.7137 70.3049C-7.57029 66.7794 -18.5938 66.0399 -29.4625 65.7304C-55.9807 64.9737 -82.5161 66.5902 -109 68.1896" stroke="black" stroke-width="0.82" stroke-miterlimit="10"/>
</svg>
