<svg width="66" height="61" viewBox="0 0 66 61" fill="none" xmlns="http://www.w3.org/2000/svg">
<path d="M66 26.3834C66 29.5983 65.8384 42.2883 58.2759 50.5908C51.6863 57.8252 37.9899 61 32.931 61C22.0663 61 3 40.025 3 34.0087C3 31.0188 5.01481 24.6562 11.0862 17.0635C17.2312 9.37892 16.3966 -2.54444 32.931 0.481491C50.3842 3.67554 66 20.3672 66 26.3834Z" fill="#F1F1F1"/>
<path d="M63 26.3834C63 29.5983 62.8384 42.2883 55.2759 50.5908C48.6863 57.8252 34.9899 61 29.931 61C19.0663 61 0 40.025 0 34.0087C0 31.0188 2.01481 24.6562 8.08621 17.0635C14.2312 9.37892 13.3966 -2.54444 29.931 0.481491C47.3842 3.67554 63 20.3672 63 26.3834Z" fill="#F9F9F9"/>
<path d="M27.88 25.78V24.34H16.5V25.78H21.4V39H23V25.78H27.88ZM48.0842 24.144V21.408H33.9242V24.144H39.5162V39H42.5162V24.144H48.0842Z" fill="black"/>
</svg>
