<svg width="261" height="306" viewBox="0 0 261 306" fill="none" xmlns="http://www.w3.org/2000/svg">
<g clip-path="url(#clip0)">
<path d="M8.00113 274.792C8.33819 274.274 8.6765 273.758 9.01356 273.24C7.9692 278.784 9.37321 284.574 10.7685 290.197C13.4225 286.504 15.8636 282.679 18.0768 278.745C17.9796 279.754 17.8827 280.762 17.7837 281.771C21.4919 276.823 23.3979 270.756 23.1774 264.614C23.1165 262.909 22.8171 261.047 21.4508 259.781C18.822 257.349 13.5817 257.564 11.9079 260.299C9.28401 264.579 8.05651 269.814 8.00113 274.792Z" fill="#DB513A"/>
<path d="M15.1401 261.472C13.7672 264.024 12.9683 266.845 12.8018 269.733C13.1171 269.422 13.4328 269.11 13.7481 268.8C12.4557 273.13 11.8125 277.65 11.8437 282.206C13.0062 278.854 14.3458 275.561 15.8555 272.339C15.8196 272.713 16.0429 273.112 16.407 273.326C16.8166 271.604 17.0967 269.853 17.2474 268.084C17.4206 268.957 17.4724 269.843 17.4003 270.712C18.3133 267.918 18.8767 265.016 19.0761 262.072C19.2698 259.216 16.2215 259.463 15.1401 261.472Z" fill="#EAC52D"/>
<path d="M30.267 273.06C30.6041 272.541 30.9424 272.025 31.2794 271.507C30.2351 277.051 31.6391 282.841 33.0361 288.465C35.6901 284.772 38.1311 280.947 40.3444 277.012C40.2471 278.022 40.1502 279.03 40.0513 280.039C43.7578 275.09 45.6655 269.024 45.4449 262.882C45.384 261.177 45.0846 259.315 43.7183 258.049C41.0895 255.616 35.8493 255.832 34.1755 258.566C31.5499 262.847 30.3228 268.079 30.267 273.06Z" fill="#DB513A"/>
<path d="M37.4061 259.74C36.0331 262.291 35.2342 265.112 35.0677 268C35.383 267.69 35.6988 267.378 36.0141 267.067C34.7217 271.398 34.0784 275.918 34.108 280.473C35.2704 277.121 36.61 273.827 38.1193 270.607C38.0835 270.981 38.3068 271.381 38.6692 271.594C39.0788 269.872 39.3589 268.121 39.5096 266.352C39.6828 267.225 39.7346 268.111 39.6625 268.98C40.5755 266.186 41.1389 263.284 41.3383 260.34C41.5358 257.484 38.4874 257.73 37.4061 259.74Z" fill="#EAC52D"/>
<path d="M48.2871 287.171C48.6242 286.653 48.9625 286.137 49.2996 285.619C48.2552 291.162 49.6592 296.953 51.0562 302.576C53.7102 298.883 56.1513 295.058 58.3645 291.124C58.2672 292.133 58.17 293.143 58.0714 294.15C61.7779 289.202 63.6856 283.135 63.465 276.994C63.4042 275.288 63.1048 273.426 61.7384 272.16C59.1097 269.728 53.8694 269.943 52.1956 272.678C49.5717 276.959 48.3425 282.192 48.2871 287.171Z" fill="#DB513A"/>
<path d="M55.4261 273.851C54.0531 276.402 53.2543 279.224 53.0878 282.111C53.4031 281.801 53.7188 281.489 54.0341 281.178C52.7417 285.509 52.0984 290.029 52.1297 294.584C53.2922 291.232 54.6317 287.939 56.1411 284.719C56.1052 285.093 56.3285 285.492 56.6909 285.706C57.1005 283.984 57.3806 282.232 57.5313 280.463C57.7045 281.337 57.7563 282.223 57.6859 283.092C58.5989 280.298 59.1623 277.396 59.3616 274.452C59.5558 271.595 56.5074 271.841 55.4261 273.851Z" fill="#EAC52D"/>
<path d="M13.0148 253.142C13.0148 253.142 6.66917 262.115 7.31782 261.794C7.96646 261.473 26.9441 267.053 26.9441 267.053L25.8078 256.884L13.0148 253.142Z" fill="#777776"/>
<path d="M35.6361 250.083C35.6361 250.083 29.2905 259.055 29.9391 258.734C30.5878 258.413 49.5654 263.993 49.5654 263.993L48.4291 253.824L35.6361 250.083Z" fill="#777776"/>
<path d="M66.9665 267.599C66.9665 267.599 67.9755 278.542 67.5744 277.94C67.1734 277.337 47.9482 272.681 47.9482 272.681L54.0165 264.443L66.9665 267.599Z" fill="#777776"/>
<path d="M107.452 8.04956L78.7025 57.3722L107.689 65.1393L107.452 8.04956Z" fill="#DB513A"/>
<path d="M107.688 65.1389L78.7024 57.3723L67.9819 97.3817L96.9673 105.148L107.688 65.1389Z" fill="#AF3E2F"/>
<path d="M67.9819 97.3818C67.9819 97.3818 69.2816 106.421 69.9381 106.597C70.5945 106.773 80.3019 109.374 80.3019 109.374L82.4746 101.265L67.9819 97.3818Z" fill="#DB513A"/>
<path d="M96.969 105.149C96.969 105.149 91.3239 112.327 90.6674 112.151C90.0109 111.975 80.3036 109.374 80.3036 109.374L82.4763 101.266L96.969 105.149Z" fill="#DB513A"/>
<path d="M92.4486 33.7902L107.576 37.8436L107.549 31.7313L95.5261 28.5096L92.4486 33.7902Z" fill="#E5DFBD"/>
<path d="M90.942 112.226L69.9377 106.598L31.3074 250.768L52.3116 256.396L90.942 112.226Z" fill="#B2B2B1"/>
<path d="M29.1747 258.728L9.54848 253.469L44.1795 150.843L57.1509 154.319L29.1747 258.728Z" fill="#999996"/>
<path d="M44.1793 150.843L52.6166 146.834L57.1507 154.319L44.1793 150.843Z" fill="#B2B2B1"/>
<path d="M50.1789 264.356L69.8051 269.615L91.1265 163.423L78.155 159.947L50.1789 264.356Z" fill="#999996"/>
<path d="M91.1265 163.423L85.826 155.733L78.1551 159.947L91.1265 163.423Z" fill="#B2B2B1"/>
<path opacity="0.37" d="M74.3912 88.9438C74.1791 89.6556 73.9651 90.3943 74.1211 91.1384C74.2771 91.8825 74.9145 92.6293 75.7508 92.7207C76.6499 92.8176 77.3663 92.1633 77.8433 91.5095C79.3701 89.4106 79.9073 86.8393 80.5608 84.3671C81.8212 79.5964 83.6198 74.97 85.924 70.576C87.0415 68.445 88.591 65.6013 85.9342 63.5933C83.0056 61.3798 82.2873 63.4074 81.3686 65.59C78.2609 72.9758 76.6812 81.2774 74.3912 88.9438Z" fill="white"/>
<path d="M57.1509 154.319L29.1747 258.728L24.8009 257.556L54.9648 153.733L57.1509 154.319Z" fill="#777776"/>
<path d="M91.1265 163.423L69.8051 269.614L66.4777 268.723L89.1304 162.888L91.1265 163.423Z" fill="#777776"/>
<path d="M88.7225 120.509L67.7183 114.881L67.0269 117.461L88.0311 123.089L88.7225 120.509Z" fill="#E5DFBD"/>
<path d="M86.8211 127.605L65.8169 121.977L65.1256 124.557L86.1298 130.185L86.8211 127.605Z" fill="#E5DFBD"/>
<path opacity="0.37" d="M71.9697 112.044C71.3769 112.604 71.1833 113.413 71.0091 114.183C67.8299 128.241 64.1285 142.174 59.9113 155.954C59.2391 158.149 58.552 160.353 58.2913 162.639C58.2245 163.222 58.2258 163.903 58.7211 164.321C59.2821 164.793 60.2139 164.648 60.7256 164.191C61.2369 163.736 61.4349 163.071 61.6143 162.434C65.7046 147.962 69.7953 133.489 73.8872 119.017C74.1887 117.959 75.5961 108.621 71.9697 112.044Z" fill="white"/>
<path opacity="0.37" d="M56.4704 171.114C52.0207 180.283 51.3818 190.712 48.6052 200.474C47.1219 205.69 45.0192 210.745 44.0561 216.086C43.9579 216.632 43.8859 217.241 44.237 217.723C44.7225 218.39 45.8365 218.479 46.5612 218.1C47.2859 217.721 47.7014 217.017 48.0355 216.323C49.6396 212.99 50.0746 209.26 50.7362 205.631C52.809 194.25 57.236 183.426 59.4054 172.064C59.9565 169.181 57.759 168.458 56.4704 171.114Z" fill="white"/>
</g>
<path d="M159.36 123.655L139.568 135.083L198.271 236.759L218.063 225.332L159.36 123.655Z" fill="#B2B2B1"/>
<path d="M139.568 135.083L141.073 137.689C141.073 137.689 146.83 132.729 152.031 133.817C157.231 134.905 158.729 133.425 161.669 138.067C164.61 142.708 213.358 228.049 213.554 227.935C213.751 227.822 218.061 225.333 218.061 225.333L159.358 123.657L139.568 135.083Z" fill="#A8A8A8"/>
<path d="M223.296 270.437C223.077 269.559 222.861 268.681 222.641 267.801C227.288 274.741 234.382 279.594 241.299 284.274C239.959 277.767 238.299 271.328 236.32 264.985C237.248 266.158 238.178 267.333 239.105 268.507C237.446 259.645 233.047 251.317 226.661 244.95C224.889 243.183 222.743 241.475 220.242 241.432C215.432 241.354 210.946 246.62 212.199 251.157C214.161 258.267 218.33 265.051 223.296 270.437Z" fill="#DB513A"/>
<path d="M216.286 249.311C217.624 253.361 219.749 257.15 222.51 260.404C222.479 259.768 222.449 259.132 222.419 258.496C225.621 264.374 229.598 269.834 234.215 274.682C231.882 269.975 229.767 265.163 227.876 260.261C228.221 260.697 228.823 260.909 229.364 260.789C227.996 258.552 226.483 256.406 224.836 254.367C225.871 255.136 226.81 256.033 227.624 257.034C225.628 253.165 223.21 249.516 220.423 246.171C217.719 242.928 215.232 246.12 216.286 249.311Z" fill="#EAC52D"/>
<path d="M216.702 222.974L196.91 234.401L205.142 248.661L224.935 237.234L216.702 222.974Z" fill="#7A8444"/>
<path d="M205.142 248.661L207.77 250.14C207.77 250.14 207.052 257.444 207.624 257.114C208.193 256.785 232.366 242.829 232.366 242.829L224.89 240.046L224.934 237.232L205.141 248.659L205.142 248.661Z" fill="#7A8444"/>
<path d="M205.143 248.661L224.933 237.235L224.89 240.049L207.768 250.141L205.143 248.661Z" fill="#626836"/>
<path d="M139.568 135.083C139.142 134.164 130.403 96.3569 130.403 96.3569L159.358 123.657L139.568 135.083Z" fill="#7A8444"/>
<path d="M143.919 142.619C144.242 143.179 143.985 169.736 144.82 170.75C145.653 171.763 155.929 189.997 155.929 189.997L158.483 167.844L143.919 142.619Z" fill="#7A8444"/>
<path d="M163.676 131.135C163.999 131.695 187.127 144.75 187.588 145.981C188.048 147.209 198.701 165.225 198.701 165.225L178.24 156.361L163.676 131.135Z" fill="#7A8444"/>
<path d="M216.7 222.976C217.324 224.057 230.687 233.913 230.687 233.913L224.933 237.235L216.7 222.976Z" fill="#626836"/>
<path d="M196.91 234.401C197.534 235.483 199.388 251.983 199.388 251.983L205.142 248.661L196.91 234.401Z" fill="#626836"/>
<path opacity="0.37" d="M183.643 202.977C184.544 204.566 186.186 206.538 186.965 205.744C187.312 205.388 187.242 204.593 187.089 203.857C186.422 200.644 184.563 197.393 182.773 194.31C173.53 178.409 164.373 162.444 155.039 146.597C154.012 144.854 150.948 139.072 149.583 141.297C148.576 142.936 152.949 148.938 154.109 150.984C158.742 159.138 163.374 167.296 168.007 175.45C173.219 184.626 178.43 193.801 183.643 202.977Z" fill="white"/>
<path opacity="0.37" d="M139.251 122.491C139.665 124.141 140.098 125.835 141.088 127.217C141.372 127.614 141.725 127.996 142.193 128.125C142.662 128.254 143.257 128.027 143.367 127.554C143.416 127.354 143.373 127.146 143.332 126.944C142.067 120.948 140.221 115.078 137.825 109.437C135.647 109.24 139.011 121.53 139.251 122.491Z" fill="white"/>
<defs>
<clipPath id="clip0">
<rect width="62.4893" height="299.087" fill="white" transform="translate(77.4097) rotate(15)"/>
</clipPath>
</defs>
</svg>
