<svg width="176" height="193" viewBox="0 0 176 193" fill="none" xmlns="http://www.w3.org/2000/svg">
<path d="M164.816 67.4514C164.816 61.0561 159.619 55.8782 153.2 55.8782H129.579C123.16 55.8782 117.962 61.0561 117.962 67.4514C117.962 73.8467 123.16 79.0246 129.579 79.0246H153.2C159.619 79.04 164.816 73.8467 164.816 67.4514Z" fill="#5D5D5D"/>
<path d="M165.064 40.6835C165.064 43.6423 162.635 46.0771 159.65 46.0771H124.227C121.257 46.0771 118.813 43.6577 118.813 40.6835V5.39364C118.813 2.43485 121.242 0 124.227 0H159.65C162.62 0 165.064 2.41943 165.064 5.39364V40.6835Z" fill="#303030"/>
<path d="M154.112 93.1866C154.112 99.8902 148.652 105.315 141.939 105.315C135.21 105.315 129.765 99.8902 129.765 93.1866V23.1463C129.765 16.4428 135.21 11.0183 141.939 11.0183C148.667 11.0183 154.112 16.4428 154.112 23.1463V93.1866Z" fill="#5D5D5D"/>
<path d="M176 72.8141V132.375C176 136.536 174.252 139.726 171.653 141.421C170.261 142.361 168.637 142.854 166.874 142.854H107.088C102.061 142.854 97.9617 138.755 97.9617 133.747V74.1856C97.9617 70.3176 100.406 67.0044 103.855 65.6945C104.861 65.3093 105.943 65.0935 107.088 65.0935H166.874C169.472 65.0935 171.824 66.1876 173.479 67.7287C175.041 69.1927 176 71.0573 176 72.8141Z" fill="#303030"/>
<path d="M171.684 141.468L86.3138 193L82.4467 188.346L7.99707 98.7037L103.855 65.6946L124.536 88.7948L171.653 141.421L171.684 141.468Z" fill="#303030"/>
<path d="M145.806 23.0386C145.806 25.1653 144.073 26.8912 141.938 26.8912C139.804 26.8912 138.071 25.1653 138.071 23.0386C138.071 20.912 139.804 19.186 141.938 19.186C144.073 19.186 145.806 20.912 145.806 23.0386Z" fill="#303030"/>
<path d="M176 72.8142V132.375C176 136.536 174.252 139.726 171.653 141.421L171.684 141.468L86.3139 193L82.4468 188.346L83.5914 106.424L97.9616 100.245L124.536 88.7948L173.479 67.7288C175.041 69.1927 176 71.0574 176 72.8142Z" fill="#242424"/>
<path d="M94.6514 181.966C94.6514 188.038 89.6706 193 83.576 193H11.0754C4.98084 193 0 188.038 0 181.966V109.722C0 103.65 4.98084 98.6882 11.0754 98.6882H83.5915C89.6861 98.6882 94.6669 103.65 94.6669 109.722V181.966H94.6514Z" fill="#D4D4D4"/>
<path d="M11.0755 185.279C9.28113 185.279 7.74976 183.769 7.74976 181.966V109.722C7.74976 107.935 9.26566 106.409 11.0755 106.409H83.5916C85.3859 106.409 86.9173 107.919 86.9173 109.722V181.966C86.9173 183.754 85.4014 185.279 83.5916 185.279H11.0755Z" fill="#595959"/>
<path d="M73.3359 145.844C73.3359 161.07 60.9456 173.413 45.6628 173.413C30.38 173.413 17.9897 161.07 17.9897 145.844C17.9897 130.619 30.38 118.275 45.6628 118.275C60.9456 118.275 73.3359 130.619 73.3359 145.844Z" fill="#303030"/>
<path d="M45.6629 165.693C34.6803 165.693 25.7395 156.786 25.7395 145.844C25.7395 134.903 34.6803 125.996 45.6629 125.996C56.6455 125.996 65.5862 134.903 65.5862 145.844C65.5862 156.786 56.6455 165.693 45.6629 165.693Z" fill="#171717"/>
<path d="M43.0332 139.187C43.0332 141.745 40.945 143.825 38.3772 143.825C35.8094 143.825 33.7212 141.745 33.7212 139.187C33.7212 136.629 35.8094 134.548 38.3772 134.548C40.945 134.564 43.0332 136.629 43.0332 139.187Z" fill="#5D5D5D"/>
<path d="M54.5726 154.613C54.5726 155.892 53.5362 156.94 52.2369 156.94C50.9375 156.94 49.9011 155.907 49.9011 154.613C49.9011 153.318 50.9375 152.286 52.2369 152.286C53.5362 152.286 54.5726 153.334 54.5726 154.613Z" fill="#5D5D5D"/>
</svg>
