<svg width="279" height="224" viewBox="0 0 279 224" fill="none" xmlns="http://www.w3.org/2000/svg">
<g clip-path="url(#clip0)">
<path d="M69.5644 199.174L68.9481 209.403C68.8475 211.122 69.7908 212.729 71.3378 213.495C75.8278 215.691 85.3488 219.205 92.2411 213.796C92.2411 213.796 93.0083 207.257 83.2861 203.014L69.5644 199.174Z" fill="#2E2A29"/>
<path d="M83.2988 203.027L79.9658 202.098C81.6134 203.504 83.3491 204.822 85.0973 206.077C87.0342 207.47 88.8453 209.152 87.8391 211.712C86.9839 213.896 84.8206 215.453 82.8586 216.657C86.0783 216.758 89.3861 216.055 92.2537 213.808C92.2412 213.808 93.021 207.257 83.2988 203.027Z" fill="#262322"/>
<path d="M67.1874 140.02C67.1874 140.02 73.6521 188.995 78.3559 195.735C79.4376 195.986 82.6448 196.902 85.1099 199.939C86.9084 202.161 87.4618 204.458 87.6505 205.612C85.8142 205.713 83.7012 205.7 81.387 205.336C77.5887 204.734 72.4698 203.228 67.1874 199.563L68.0049 197.216C68.9734 194.429 68.8476 191.367 67.6527 188.668C63.7287 179.832 54.7863 158.671 51.6168 142.38L67.1874 140.02Z" fill="#7F7671"/>
<path opacity="0.61" d="M70.6838 163.604C68.6211 151.141 67.137 139.895 67.137 139.895L51.5664 142.242C53.8051 153.714 58.8989 167.595 63.0871 177.887C63.477 176.921 67.8036 166.817 70.6838 163.604Z" fill="#7F7671"/>
<path d="M88.9208 140.61L65.1247 118.031L42.7876 149.107C42.7876 149.107 47.6927 152.986 55.5031 154.266C55.9056 155.872 56.6099 157.818 57.8174 159.362C58.9493 160.818 61.2509 160.366 61.7289 158.583C62.0433 157.454 62.3074 156.086 62.3955 154.605C63.8293 154.517 65.3134 154.316 66.8478 153.99C67.4012 155.295 68.181 156.688 69.2374 157.805C70.5077 159.148 72.7465 158.47 73.0609 156.663C73.2873 155.333 73.4508 153.676 73.2999 151.931C74.3815 151.467 75.4883 150.927 76.5951 150.312C77.2869 151.542 78.205 152.848 79.3872 153.839C80.7959 155.031 82.9466 154.128 83.0598 152.283C83.1604 150.639 83.0975 148.53 82.5064 146.409C84.6194 144.752 86.7575 142.844 88.9208 140.61Z" fill="#E9A3A3"/>
<path d="M65.4265 138.564C71.0359 139.317 76.5447 140.686 82.1793 141.313C83.8773 141.501 85.8267 141.777 87.7385 141.777C88.1284 141.388 88.5182 141.012 88.9081 140.598L65.1247 118.031L50.3213 138.64C55.3144 137.962 60.3956 137.887 65.4265 138.564Z" fill="#D19292"/>
<path d="M88.9208 140.799L85.4369 137.498C70.0172 159.274 45.542 147.162 44.5987 146.785L42.7876 149.308C42.7876 149.308 47.6927 153.186 55.5031 154.467C55.9056 156.073 56.6099 158.019 57.8174 159.562C58.9493 161.018 61.2509 160.567 61.7289 158.784C62.0433 157.655 62.3074 156.287 62.3955 154.806C63.8293 154.718 65.3134 154.517 66.8478 154.191C67.4012 155.496 68.181 156.889 69.2374 158.006C70.5077 159.349 72.7465 158.671 73.0609 156.864C73.2873 155.534 73.4508 153.877 73.2999 152.132C74.3815 151.668 75.4883 151.128 76.5951 150.513C77.2869 151.743 78.205 153.048 79.3872 154.04C80.7959 155.232 82.9466 154.329 83.0598 152.484C83.1604 150.839 83.0975 148.731 82.5064 146.61C84.6194 144.953 86.7575 143.045 88.9208 140.799Z" fill="#D19292"/>
<path d="M191.513 199.174L190.897 209.403C190.796 211.122 191.739 212.729 193.286 213.495C197.776 215.691 207.297 219.205 214.19 213.796C214.19 213.796 214.957 207.257 205.235 203.014L191.513 199.174Z" fill="#2E2A29"/>
<path d="M205.247 203.027L191.513 199.174L191.488 199.626L200.984 202.287C210.706 206.516 209.939 213.068 209.939 213.068C206.794 215.528 203.109 216.143 199.613 215.867C204.191 217.059 209.75 217.298 214.202 213.796C214.19 213.808 214.969 207.257 205.247 203.027Z" fill="#262322"/>
<path d="M170.056 206.504L169.44 216.733C169.339 218.452 170.283 220.059 171.83 220.824C176.32 223.021 185.841 226.535 192.733 221.126C192.733 221.126 193.5 214.587 183.778 210.344L170.056 206.504Z" fill="#2E2A29"/>
<path d="M183.79 210.357L170.056 206.504L170.031 206.956L179.527 209.616C189.249 213.846 188.482 220.398 188.482 220.398C185.337 222.858 181.652 223.473 178.156 223.197C182.734 224.389 188.293 224.627 192.745 221.126C192.745 221.138 193.513 214.587 183.79 210.357Z" fill="#262322"/>
<path d="M200.292 136.506C200.292 136.506 202.933 159.374 194.116 171.398C194.116 171.398 194.833 184.778 199.11 194.505C201.172 194.718 207.197 199.262 206.756 203.655C206.756 203.655 193.538 205.562 185.011 200.868C185.011 200.868 189.123 193.388 187.652 183.133C187.652 183.133 180.596 135.339 170.61 130.933C170.61 130.933 185.011 124.482 200.292 136.506Z" fill="#7F7671"/>
<path opacity="0.61" d="M196.317 167.934C202.468 155.458 200.292 136.694 200.292 136.694C185.011 124.67 170.61 131.122 170.61 131.122C178.571 134.623 184.671 165.738 186.822 178.188C189.979 174.774 193.123 171.335 196.317 167.934Z" fill="#7F7671"/>
<path d="M61.993 44.9079C91.084 52.9406 112.717 47.393 142.701 41.7827C180.319 34.7415 193.827 36.4986 215.284 33.273C225.232 31.7794 246.589 43.2511 256.323 45.6861L238.879 91.3471C238.879 91.3471 237.13 175.101 156.41 139.907C156.41 139.907 112.528 171.963 60.8107 124.269C60.8107 124.281 36.5241 37.8793 61.993 44.9079Z" fill="#E5E4E3"/>
<path d="M209.423 134.849C200.858 138.226 191.211 137.284 182.206 135.376C173.2 133.456 170.911 130.456 161.705 130.155C147.681 129.691 140.978 138.979 112.138 137.585C91.9644 136.606 74.5198 121.357 65.9044 129.176C114.679 169.641 156.209 140.51 156.209 140.51C172.232 147.501 191.827 152.986 208.807 145.894C219.988 141.225 227.71 131.486 232.326 120.566C235.395 113.324 237.294 105.555 238.199 97.7356C237.067 100.698 235.181 104.802 232.037 110.688C226.729 120.641 219.937 130.695 209.423 134.849Z" fill="#B3A69F"/>
<path d="M240.375 85.1719C239.809 86.653 239.671 87.6068 239.671 88.4729C240.023 87.0169 240.413 85.561 240.79 84.0925C240.652 84.444 240.514 84.8079 240.375 85.1719Z" fill="#B3A69F"/>
<path d="M31.9837 205.261L31.3674 215.49C31.2668 217.21 32.2101 218.816 33.7571 219.582C38.2472 221.778 47.7681 225.293 54.6604 219.883C54.6604 219.883 55.4276 213.344 45.7054 209.102L31.9837 205.261Z" fill="#2E2A29"/>
<path d="M45.5293 209.102L42.3096 208.198C43.8314 209.164 45.2526 210.307 46.4978 211.75C47.2776 212.654 48.007 213.62 48.7239 214.574C49.0384 215.001 49.3654 215.427 49.6798 215.854C49.9817 216.256 50.6734 216.858 50.8495 217.323C51.1136 218.026 50.6483 219.03 50.2584 219.632C49.3025 221.126 47.6423 222.054 45.9695 222.732C48.9 222.682 51.8808 221.916 54.4843 219.871C54.4717 219.883 55.2515 213.344 45.5293 209.102Z" fill="#262322"/>
<path d="M28.4118 57.8607C24.5632 58.7644 21.1171 60.6471 18.3626 63.1824C15.6082 65.7052 13.5582 68.868 12.552 72.2318C11.5207 75.6582 11.4578 79.411 11.8351 83.3019C12.0363 85.2473 12.3256 87.2304 12.6903 89.2385L13.86 95.3886C15.4447 103.723 16.7402 112.245 16.9917 120.905C17.0672 123.064 17.0169 125.248 16.9414 127.407C16.8785 128.498 16.8408 129.578 16.7402 130.657C16.627 131.737 16.5264 132.829 16.388 133.908C15.8346 138.226 14.8662 142.506 13.3695 146.572L10.5271 145.819C11.9231 137.673 11.898 129.452 11.0176 121.294C10.6277 117.202 9.9485 113.136 9.2316 109.057C8.50213 104.978 7.65945 100.899 6.8042 96.7943C6.37658 94.761 5.9238 92.6775 5.53391 90.5438C5.13144 88.4102 4.77928 86.2263 4.59062 83.9671C4.38938 81.7204 4.35165 79.3984 4.56546 77.0514C4.79185 74.7043 5.25721 72.3196 6.15019 70.0479C7.88584 65.4165 11.1056 61.5507 15.0045 58.8899C18.9035 56.2416 23.5822 54.7355 28.1729 54.9363L28.4118 57.8607Z" fill="#D3CFCB"/>
<path d="M6.51494 148.392C2.03746 155.358 1.05644 158.885 0.0754167 169.829C-0.628906 177.762 3.15683 185.129 6.69102 189.045C4.57805 184.326 5.76031 178.766 7.91101 174.059C10.0491 169.352 13.0928 165.06 14.8788 160.215C16.3 156.324 17.1804 150.714 14.8159 146.974C12.552 143.397 8.67822 145.028 6.51494 148.392Z" fill="#2E2A29"/>
<path d="M86.8078 86.8914C94.6182 53.0033 53.9938 28.6165 27.9465 51.7106C27.6069 52.0118 27.2673 52.313 26.9277 52.6394C26.9277 52.6394 -0.691809 78.1558 31.0405 124.771C31.0405 124.771 29.2797 144.413 27.217 150.287L24.9908 152.86C22.2867 155.985 21.9597 160.504 24.1607 164.006C32.1976 176.783 31.1537 182.456 30.4493 206.391C30.4493 206.391 40.0457 215.189 50.0446 211.863L46.3218 205.801C44.2717 203.906 41.8946 201.195 41.8443 198.408L41.316 163.478C41.316 163.478 47.7807 156.437 49.2522 147.94C49.2522 147.94 78.9847 120.855 86.8078 86.8914Z" fill="#E5E4E3"/>
<path d="M35.1533 136.795C36.1846 134.523 37.304 129.753 36.8637 129.038C36.6248 128.636 35.7066 128.097 35.3545 127.77C33.1032 125.662 30.789 123.616 28.6131 121.445C29.3426 122.599 30.0972 123.754 30.8896 124.934C30.8896 124.934 29.0282 142.894 27.217 150.224C27.6447 149.747 31.9209 143.936 35.1533 136.795Z" fill="#B3A69F"/>
<path d="M176.005 81.6702C176.005 81.6702 175.615 116.073 163.076 128.586C163.076 128.586 173.263 176.281 164.648 204.044C164.648 204.044 171.314 205.613 168.962 211.863C168.962 211.863 181.502 212.641 184.243 210.294C184.243 210.294 183.074 204.433 177.188 202.086L177.967 180.197C177.967 180.197 196.77 148.141 206.568 123.892C206.568 123.892 206.568 91.8366 176.005 81.6702Z" fill="#E5E4E3"/>
<path d="M87.6756 86.7659C83.5377 91.7236 82.5441 99.0785 85.223 104.952C86.6694 108.128 89.4238 111.002 92.8951 111.366C95.3351 111.617 97.6996 110.613 99.9509 109.634C103.95 107.889 107.937 106.132 111.937 104.388C114.226 103.384 116.603 102.317 118.188 100.384C121.118 96.8193 120.288 91.1839 117.282 87.6821C110.126 79.3356 94.9075 78.093 87.6756 86.7659Z" fill="#1A1A1A"/>
<path d="M45.3911 91.2593C47.1393 93.4808 49.9189 94.5853 52.3463 96.0538C54.7737 97.5223 57.1256 99.8442 56.9873 102.668C56.7986 106.722 51.9438 108.718 49.7554 112.144C48.5983 113.952 48.2336 116.136 47.2903 118.068C46.3596 120.001 44.4604 121.796 42.3474 121.47C40.3854 121.169 39.1025 119.173 38.7378 117.228C38.373 115.282 38.6623 113.274 38.4485 111.303C38.0335 107.413 35.7444 103.999 33.6566 100.685C31.5562 97.3717 29.5187 93.7318 29.7074 89.8159C29.8709 86.1509 33.883 81.0552 37.9706 81.3313C42.4858 81.6325 43.1901 88.4604 45.3911 91.2593Z" fill="#1A1A1A"/>
<path d="M176.207 121.156C174.446 123.842 174.358 127.294 174.899 130.469C175.439 133.632 176.521 136.694 176.923 139.87C177.238 142.455 177.326 145.53 179.502 146.974C182.068 148.681 185.526 146.723 187.564 144.401C190.457 141.1 192.331 136.92 192.884 132.578C193.286 129.402 192.947 126.013 191.274 123.277C188.243 118.345 179.98 115.395 176.207 121.156Z" fill="#1A1A1A"/>
<path d="M62.9991 59.8058C58.2575 63.6088 50.7363 65.7802 50.1955 71.8298C49.6295 78.2183 57.5783 81.7829 60.3453 87.5689C61.6533 90.3051 62.0684 93.9198 64.7976 95.2377C67.4011 96.4928 70.5454 94.698 72.1679 92.3133C73.7777 89.9286 74.4443 87.0292 75.853 84.519C80.5694 76.1223 91.7883 74.4154 101.422 74.2271C111.057 74.0388 121.961 73.9133 128.514 66.8596C133.595 61.3998 134.438 52.978 132.287 45.8364C132.086 45.1838 131.859 44.5437 131.62 43.9036C109.296 48.1709 90.9582 51.3087 68.7091 46.5644C68.8601 51.5598 66.9232 56.6555 62.9991 59.8058Z" fill="#1A1A1A"/>
<path d="M139.808 66.4454C141.028 69.4452 143.166 72.0935 144.185 75.1559C146.298 81.5068 143.279 88.1966 141.28 94.5725C139.28 100.949 138.752 108.856 144.273 113.186C148.059 116.16 153.932 116.386 158.36 114.265C162.787 112.144 165.793 107.99 166.937 103.559C167.818 100.158 167.717 96.5682 168.987 93.2798C170.258 89.9914 173.578 86.9038 177.376 87.3556C181.112 87.7949 183.413 91.3469 184.331 94.6729C185.25 97.999 185.438 101.614 187.501 104.475C190.13 108.115 195.362 109.684 200.116 109.195C204.87 108.705 209.209 106.496 213.083 103.936C220.088 99.3043 226.503 91.874 224.44 84.2304C222.755 77.9799 215.9 73.7251 214.19 67.4872C211.385 57.2078 223.572 47.7066 222.315 37.1888C222.164 35.9211 221.811 34.7162 221.296 33.5489C219.019 33.1473 216.969 33.0218 215.259 33.2728C211.372 33.8627 207.738 34.2769 204.178 34.6158C206.43 44.2927 192.909 54.0826 183.954 54.3838C181.715 54.4591 179.363 54.1453 177.577 52.8024C174.32 50.3423 174.219 45.234 176.269 41.7072C177.188 40.1257 178.936 38.0548 180.885 36.4357C172.584 37.1637 162.925 38.2556 150.348 40.4019C149.53 40.9918 148.725 41.6193 147.946 42.272C140.802 48.3844 136.387 58.0738 139.808 66.4454Z" fill="#1A1A1A"/>
<path d="M21.356 81.4064C22.1861 79.1849 22.4251 76.8002 23.0288 74.5159C24.45 69.1063 27.9968 64.2741 32.7384 61.287C36.2852 59.0529 40.3602 57.848 44.2968 56.392C48.2209 54.9235 52.1702 53.066 54.8994 49.8905C56.4841 48.0455 57.5532 45.6608 57.7796 43.2636C47.8436 41.406 37.0146 43.6903 27.9465 51.723C27.6069 52.0242 27.2673 52.3255 26.9277 52.6518C26.9277 52.6518 14.1996 64.4122 15.9604 86.5649C16.2119 86.5398 16.4635 86.5022 16.6899 86.4269C18.9664 85.7366 20.5259 83.6154 21.356 81.4064Z" fill="#1A1A1A"/>
<path d="M221.447 34.4526C220.214 37.6783 213.85 55.2122 222.818 73.0599C227.672 82.7117 234.992 88.5355 238.979 91.1461C240.853 86.2763 243.23 80.2643 245.394 73.6247C248.639 63.6842 250.437 50.6812 247.494 39.2472L221.447 34.4526Z" fill="#C4BBB7"/>
<path d="M266.31 0.665086C266.222 2.5352 265.869 4.31746 265.316 6.11228C264.75 7.89454 263.932 9.63914 262.851 11.2833C262.335 12.1243 261.681 12.8773 261.052 13.6555C260.348 14.3709 259.656 15.1365 258.839 15.7515C257.267 17.1071 255.43 18.0986 253.531 18.9772C251.607 19.8809 249.305 19.0525 248.4 17.1196C247.494 15.1993 248.324 12.9024 250.261 11.9988C250.613 11.8356 250.978 11.7226 251.343 11.6724L251.443 11.6599C252.839 11.4591 254.286 11.2331 255.631 10.6432C256.336 10.4048 256.952 10.0282 257.631 9.68935C258.248 9.27516 258.914 8.88608 259.493 8.37148C260.7 7.39249 261.794 6.21269 262.738 4.86971C263.668 3.53929 264.486 2.00806 265.052 0.476819L265.077 0.414063C265.203 0.0877339 265.567 -0.0879819 265.894 0.0375294C266.171 0.137938 266.322 0.401512 266.31 0.665086Z" fill="#A18B66"/>
<path d="M258.524 11.9359C256.386 13.4546 253.984 14.6721 251.481 15.4377C250.487 15.7389 249.406 16.0527 248.324 16.2159C248.387 16.4669 248.475 16.7053 248.576 16.9438C249.481 18.8767 251.77 19.7051 253.707 18.8014C255.606 17.9103 257.455 16.9313 259.015 15.5757C259.832 14.9607 260.524 14.1951 261.228 13.4797C261.87 12.7015 262.524 11.9485 263.027 11.1075C264.109 9.46335 264.926 7.71874 265.492 5.93648C265.882 4.68137 266.159 3.43881 266.335 2.17114C264.649 6.03689 261.958 9.501 258.524 11.9359Z" fill="#8F7B5A"/>
<path d="M234.351 70.2108C234.351 70.2108 238.237 75.1685 242.539 76.0722C254.877 78.6577 259.279 75.181 259.279 75.181C259.279 75.181 263.907 73.587 263.731 68.6042L234.351 70.2108Z" fill="#B3A69F"/>
<path d="M235.131 67.274C235.131 67.274 239.017 72.2317 243.318 73.1354C255.657 75.721 260.059 72.2443 260.059 72.2443C260.059 72.2443 264.687 70.6503 264.511 65.6675L235.131 67.274Z" fill="#C9C2B8"/>
<path d="M255.267 22.3157C255.267 22.3157 254.198 29.0682 257.757 32.0931C257.757 32.0931 263.631 35.8208 270.573 32.6202C277.516 29.4197 280.056 16.7054 278.585 15.7389C265.769 8.98644 260.436 26.056 255.267 22.3157Z" fill="#121212"/>
<path d="M264.75 31.5784C261.882 31.5784 259.707 30.499 259.153 30.1852C257.933 29.0305 257.543 26.9345 257.48 25.1648C259.707 24.8886 261.631 23.1691 263.668 21.3618C266.234 19.0775 269.139 16.4919 272.736 16.4919C274.007 16.4919 275.302 16.7932 276.686 17.4082C276.686 20.1192 274.296 28.3402 269.617 30.4865C268.045 31.2144 266.41 31.5784 264.75 31.5784Z" fill="black"/>
<path d="M240.853 7.65613C240.853 7.65613 219.485 4.71916 217.611 32.181C217.611 32.181 211.561 73.6123 240.665 72.4702C241.13 72.4576 241.595 72.3697 242.048 72.2568C245.079 71.4912 257.707 68.5291 263.555 71.1021C263.555 71.1021 269.429 62.3037 261.153 54.3087C261.153 54.3087 259.015 46.8407 261.417 39.1093C263.819 31.3778 260.348 26.5832 257.946 24.186C257.946 24.1734 255.279 8.71042 240.853 7.65613Z" fill="#E5E4E3"/>
<path d="M243.746 58.8019C243.583 61.0988 243.734 66.3703 248.035 69.4955C249.079 70.2611 250.362 70.6376 251.657 70.6125L257.745 70.5121C260.285 70.4745 262.549 68.8805 263.404 66.4958C264.197 64.2617 264.851 61.287 264.385 58.1116C264.285 57.4213 263.819 56.8314 263.178 56.5553C260.537 55.4006 253.003 52.9029 244.865 57.1201C244.224 57.459 243.796 58.0865 243.746 58.8019Z" fill="#D19292"/>
<path d="M256.801 40.8412C256.323 46.4265 258.386 51.949 262.436 55.6892C262.046 55.2248 261.631 54.773 261.153 54.3086C261.153 54.3086 259.593 47.0289 262.008 39.2974C264.41 31.5659 260.939 26.7714 258.537 24.3741C258.537 24.3741 256.336 14.8102 248.802 10.1663C252.387 14.4336 258.248 24.1357 256.801 40.8412Z" fill="#141414"/>
<path d="M237.91 25.4158C233.219 19.0398 227.207 16.7179 222.579 15.9397C220.818 18.4625 218.969 21.776 217.837 26.0559C213.473 23.508 208.027 14.2955 198.015 19.567C196.544 20.5334 199.084 33.2477 206.027 36.4482C210.228 38.3811 214.039 37.7787 216.391 37.0005C215.925 45.8741 216.567 64.6506 229.421 70.6752C230.075 70.9764 230.792 71.127 231.521 71.0893C241.432 70.5371 238.891 63.383 243.381 55.1118C246.727 48.9366 246.815 37.5025 237.91 25.4158Z" fill="#1A1A1A"/>
<path d="M211.863 35.394C210.203 35.394 208.568 35.03 207.021 34.3146C202.342 32.1558 199.952 23.9348 199.952 21.2363C201.336 20.6213 202.631 20.3201 203.902 20.3201C207.499 20.3201 210.404 22.9056 212.97 25.1899C215.007 26.9973 216.931 28.7168 219.158 28.9929C219.095 30.7626 218.705 32.8586 217.472 34.0134C216.931 34.302 214.743 35.394 211.863 35.394Z" fill="black"/>
<path d="M235.294 72.0184C237.457 72.6459 239.835 71.8929 242.124 71.3532C244.438 70.7633 246.765 70.0981 249.154 69.596C251.544 69.0814 253.996 68.7425 256.512 68.73C258.99 68.7425 261.643 69.2697 263.668 70.8135C263.807 70.9139 263.832 71.1021 263.731 71.2402C263.656 71.3281 263.543 71.3783 263.442 71.3532H263.429C261.04 70.939 258.826 70.7633 256.499 70.7633C254.185 70.7382 251.846 71.0519 249.506 71.441C247.167 71.8552 244.815 72.3573 242.413 72.7714C241.218 72.9848 239.986 73.1229 238.753 73.1982C237.508 73.1982 236.2 73.1982 235.018 72.5455C234.879 72.4702 234.829 72.2945 234.904 72.1439C234.967 72.0184 235.118 71.9682 235.244 72.0058L235.294 72.0184Z" fill="#8C827C"/>
<path d="M263.958 57.4214C263.907 58.0615 260.625 57.7101 254.952 57.9611C249.418 58.1995 244.224 58.3878 244.224 57.7226C244.224 57.0448 248.865 54.7856 254.412 54.7856C259.958 54.7856 264.008 56.7562 263.958 57.4214Z" fill="#D1A3A3"/>
<path d="M262.7 33.1851C260.537 33.3231 258.813 35.0928 258.813 37.2893C258.813 39.0464 259.92 40.54 261.467 41.1299C261.983 38.4565 262.914 35.9714 262.7 33.1851Z" fill="black"/>
<path d="M262.725 34.5154C261.291 34.6409 260.159 35.8207 260.159 37.2892C260.159 38.4062 260.813 39.3601 261.757 39.812C262.398 38.1678 262.687 36.2851 262.725 34.5154Z" fill="#242424"/>
<path d="M262.587 35.4944C261.694 35.4944 260.977 36.3102 260.977 37.3269C260.977 38.105 261.467 38.7702 262.084 39.0338C262.725 38.4439 263.09 36.2475 262.675 35.4944C262.637 35.5069 262.612 35.4944 262.587 35.4944Z" fill="black"/>
<path d="M261.958 36.461C261.807 36.7246 261.493 36.8376 261.254 36.6995C261.015 36.5614 260.952 36.2351 261.103 35.9715C261.254 35.708 261.568 35.595 261.807 35.7331C262.046 35.8711 262.109 36.1975 261.958 36.461Z" fill="#EBEBEB"/>
<path d="M247.431 59.2287C247.871 59.3166 248.274 59.4923 248.676 59.668C249.066 59.8688 249.456 60.0822 249.821 60.3207C250.198 60.5592 250.563 60.8227 250.915 61.0863C251.267 61.3624 251.619 61.6511 251.946 62.0025C252.072 62.1281 252.06 62.3289 251.934 62.4544C251.871 62.5171 251.795 62.5422 251.707 62.5422C251.229 62.5422 250.777 62.4795 250.336 62.4167C249.896 62.3414 249.456 62.2536 249.016 62.1406C248.576 62.0402 248.161 61.9021 247.746 61.7515C247.343 61.5884 246.941 61.4126 246.576 61.1491C246.098 60.7976 245.985 60.1324 246.324 59.6555C246.601 59.304 247.029 59.1409 247.431 59.2287Z" fill="#735151"/>
<path d="M262.889 60.9482C262.524 61.2117 262.121 61.3874 261.719 61.5506C261.304 61.7012 260.889 61.8393 260.449 61.9397C260.021 62.0527 259.581 62.1405 259.128 62.2158C258.675 62.2911 258.222 62.3413 257.757 62.3413C257.581 62.3413 257.443 62.2033 257.43 62.0275C257.43 61.9397 257.468 61.8644 257.518 61.8016C257.845 61.4628 258.197 61.1615 258.549 60.8854C258.902 60.6093 259.266 60.3457 259.644 60.1198C260.008 59.8688 260.398 59.6554 260.788 59.4671C261.191 59.2789 261.593 59.1157 262.033 59.0278C262.612 58.9149 263.178 59.2914 263.304 59.8688C263.392 60.2955 263.216 60.7097 262.889 60.9482Z" fill="#735151"/>
<path d="M235.533 40.2763C235.433 39.9877 235.345 39.6864 235.294 39.3727C235.168 38.72 235.206 38.0548 235.282 37.4021C235.357 36.7369 235.269 36.0215 234.93 35.281C234.351 34.0259 233.169 33.0846 231.798 32.8837C229.043 32.4821 226.704 34.7915 227.069 37.5277C227.295 39.2472 228.641 40.678 230.339 41.0169C230.829 41.1173 231.307 41.1173 231.76 41.0545C232.402 40.9667 233.056 40.8788 233.697 40.929C234.137 40.9541 234.565 41.0043 234.942 41.0545C235.37 41.1047 235.684 40.678 235.533 40.2763Z" fill="black"/>
<path d="M228.138 36.8752C228.138 35.2185 229.483 33.8755 231.144 33.8755C232.804 33.8755 234.15 35.2185 234.15 36.8752C234.15 38.532 232.804 39.8749 231.144 39.8749C229.483 39.8749 228.138 38.532 228.138 36.8752Z" fill="#242424"/>
<path d="M231.144 39.1217C232.387 39.1217 233.395 38.1159 233.395 36.8751C233.395 35.6343 232.387 34.6284 231.144 34.6284C229.9 34.6284 228.892 35.6343 228.892 36.8751C228.892 38.1159 229.9 39.1217 231.144 39.1217Z" fill="black"/>
<path d="M230.628 35.3312C230.628 35.6952 230.326 35.9964 229.961 35.9964C229.597 35.9964 229.295 35.6952 229.295 35.3312C229.295 34.9672 229.597 34.666 229.961 34.666C230.339 34.6786 230.628 34.9672 230.628 35.3312Z" fill="#EBEBEB"/>
<path d="M214.944 2.72349C214.995 4.36769 215.208 6.06209 215.573 7.64353C215.938 9.22497 216.504 10.7311 217.271 11.8984C218.038 13.0782 219.007 13.8438 219.975 14.145C220.918 14.4964 222.113 14.2705 223.27 14.0572L223.56 14.007C225.434 13.6681 227.232 14.9483 227.559 16.8812C227.886 18.8015 226.629 20.6339 224.755 20.9728C224.44 21.0356 224.101 21.0356 223.799 21.0105L222.151 20.8348C221.61 20.7846 221.069 20.7093 220.503 20.4959C219.95 20.3202 219.397 20.157 218.868 19.9311C218.34 19.6424 217.825 19.3412 217.321 19.0274C215.347 17.6342 214.127 15.5758 213.536 13.6304C212.919 11.6724 212.781 9.75212 212.831 7.91966C212.894 6.07464 213.121 4.30493 213.548 2.53522C213.636 2.14614 214.026 1.90766 214.404 2.00807C214.718 2.08338 214.932 2.37206 214.944 2.68584V2.72349Z" fill="#C4A97C"/>
<path d="M227.559 16.8811C227.232 14.9607 225.434 13.668 223.56 14.0069L223.27 14.0571C222.164 14.2579 221.019 14.4712 220.088 14.1826C220.491 14.4587 220.906 14.7348 221.346 15.0109C222.893 15.9523 225.107 17.1572 225.308 19.1905C225.371 19.818 225.22 20.3954 224.943 20.9351C226.717 20.4958 227.874 18.7261 227.559 16.8811Z" fill="#B59C73"/>
<g opacity="0.83">
<g opacity="0.83">
<path opacity="0.83" d="M241.759 48.3344C239.847 46.1505 237.156 45.1589 234.263 44.5439C231.634 43.9791 228.603 44.0042 226.251 42.586C223.572 40.9794 222.289 38.0424 222.076 34.9925C221.912 32.658 221.51 30.3361 220.73 28.1271C219.925 25.8051 219.573 23.5082 219.485 21.4247C218.868 22.8179 218.302 24.3617 217.85 26.0436C213.485 23.4957 208.039 14.2832 198.028 19.5546C196.556 20.5211 199.097 33.2354 206.04 36.4359C210.24 38.3688 214.051 37.7663 216.403 36.9881C215.938 45.8618 216.579 64.6383 229.433 70.6628C230.087 70.9641 230.817 71.1147 231.534 71.077C241.583 70.5248 238.816 63.1698 243.583 54.7355C243.583 54.7229 243.583 54.7103 243.595 54.6852C243.256 52.426 242.677 50.2672 241.759 48.3344Z" fill="black"/>
</g>
</g>
</g>
<defs>
<clipPath id="clip0">
<rect width="279" height="224" fill="white"/>
</clipPath>
</defs>
</svg>
