<svg width="136" height="49" viewBox="0 0 136 49" fill="none" xmlns="http://www.w3.org/2000/svg">
<path d="M39.8716 17.8313C40.1116 17.5913 40.6016 18.5013 40.6016 18.5013L40.0616 19.5913C39.6616 19.4713 39.3016 19.3313 38.9916 19.1913C39.1916 18.8513 39.6816 18.0313 39.8716 17.8313Z" fill="black"/>
<path d="M37.1416 19.3513C37.1416 19.3513 38.4416 19.3913 39.3216 19.9313C39.4516 20.0113 39.6016 20.0813 39.7516 20.1513L38.3616 22.1213C38.3616 22.1213 34.3616 21.1213 33.2416 20.6213C32.3216 20.2113 32.7316 18.5113 33.1116 17.4313L34.9116 16.9813C34.9616 17.4013 35.1516 17.7913 35.5216 18.0913C36.2316 18.6713 37.2716 18.6313 38.0916 18.0613L38.7216 19.0613C38.2016 18.8013 37.8816 18.5813 37.8816 18.5813L37.1416 19.3513Z" fill="black"/>
<path d="M35.5116 18.0913C35.1416 17.7813 34.9516 17.4013 34.9016 16.9813C34.8416 16.4013 35.0616 15.7613 35.5516 15.1613C36.3916 14.1313 37.8716 13.8913 38.7616 14.6213C39.6516 15.3513 39.4816 16.5313 38.6416 17.5513C38.4716 17.7513 38.2816 17.9213 38.0816 18.0613C37.2616 18.6313 36.2216 18.6713 35.5116 18.0913Z" fill="black"/>
<path d="M14.3716 24.4314C16.1016 25.0314 17.9716 25.7014 18.6516 26.0114C19.2516 26.2814 20.1416 26.5714 21.2116 26.8714L18.3916 31.8614C17.5916 31.4014 16.6816 31.1314 15.7016 31.0914L14.3716 24.4314ZM21.7416 13.6314L21.1116 8.25137L21.4516 8.34137L24.2416 13.0714L23.0416 13.9514C22.6116 13.8414 22.1716 13.7414 21.7416 13.6314ZM24.5916 12.8214L22.0416 8.50137L27.2016 9.86137V9.87137L27.3616 10.8414L24.5916 12.8214ZM24.7216 13.2614L27.4516 11.3114L28.1016 15.1914C27.2816 14.9914 26.4116 14.7814 25.5116 14.5614L24.7216 13.2614ZM28.8316 10.7814L29.5216 10.9814L30.3116 15.7314C30.0916 15.6814 29.8716 15.6214 29.6316 15.5714L28.8316 10.7814ZM0.141593 31.0314C0.781593 31.2314 3.35159 24.9914 5.92159 17.0214L6.62159 17.2414C6.51159 17.5514 6.41159 17.8714 6.29159 18.2114C5.05159 21.8714 7.78159 22.3214 7.78159 22.3214L10.9116 23.2514C10.9116 23.2514 11.7916 23.5414 12.9616 23.9514L14.3916 31.1914C11.6616 31.6914 9.58159 34.0914 9.58159 36.9714C9.58159 40.2114 12.2216 42.8514 15.4616 42.8514C18.7016 42.8514 21.3416 40.2114 21.3416 36.9714C21.3416 35.2514 20.6016 33.7114 19.4216 32.6414L22.4716 27.2414C23.5416 27.5414 24.7116 27.8614 25.8916 28.2214C28.8616 29.1214 35.4116 30.6414 35.4116 30.6414C35.4116 30.6414 67.6316 35.5414 69.2216 35.7614C70.8116 35.9814 77.1516 37.2014 79.7716 37.6114C82.3916 38.0214 83.1516 34.9214 83.1516 34.9214L84.0116 31.1614C84.8716 27.4014 82.4616 26.4414 82.4616 26.4414C82.4616 26.4414 80.8016 25.8214 78.8316 25.3214C76.8616 24.8214 76.8116 25.8214 76.8116 25.8214C76.8116 25.8214 76.3316 27.2014 75.5616 29.5414C74.7916 31.8814 76.7416 32.5814 76.7416 32.5814L73.5016 31.8214C70.2616 31.0614 66.3816 29.6314 66.3816 29.6314L41.1316 20.6014C41.6416 20.7214 42.1316 20.7914 42.4916 20.8214C43.3016 20.8814 45.8116 20.4714 46.6716 20.4614C47.5316 20.4514 47.8916 20.7614 47.8916 20.7614L47.8216 20.3414C47.7516 19.9214 48.1116 19.4314 48.1116 19.4314C48.1116 19.4314 47.9116 19.3414 46.4216 19.2614C44.9316 19.1814 43.4416 19.9114 41.5216 19.8414C41.0116 19.8214 40.5216 19.7214 40.0716 19.5914C39.6716 19.4714 39.3116 19.3314 39.0016 19.1914C38.9016 19.1514 38.8116 19.1014 38.7216 19.0614C38.2016 18.8014 37.8816 18.5814 37.8816 18.5814L37.1516 19.3514C37.1516 19.3514 38.4516 19.4014 39.3316 19.9314C39.4616 20.0114 39.6116 20.0814 39.7616 20.1514L38.3716 22.1214C38.3716 22.1214 34.3716 21.1214 33.2516 20.6214C32.3316 20.2114 32.7416 18.5114 33.1216 17.4314C33.3116 16.8914 33.4916 16.4914 33.4916 16.4914C33.4916 16.4914 32.8816 16.3414 31.8716 16.1014L31.0816 11.4214L35.2616 12.6214C35.2616 12.6214 38.0016 10.6714 39.1416 9.84137C40.2816 9.01137 39.3016 8.39137 39.3016 8.39137L36.7616 6.79137C36.7616 6.79137 33.4016 5.03137 31.0216 3.89137C28.6416 2.75137 22.3316 1.25137 22.3316 1.25137C22.3316 1.25137 17.9216 0.0513652 15.3316 0.00136524C12.7416 -0.0486348 14.0416 1.29137 14.0416 1.29137C14.0416 1.29137 16.5216 5.43137 17.3016 6.67137C17.7516 7.39137 18.2716 7.62137 18.6216 7.69137L19.1516 12.9914C15.7816 12.1614 12.8416 11.4214 11.7516 11.1114C8.58159 10.2114 8.23159 12.6214 8.23159 12.6214C8.23159 12.6214 7.87159 13.6414 7.20159 15.5814L6.46159 15.3514C8.80159 7.86137 10.1816 1.85137 9.57159 1.65137C8.93159 1.44137 6.29159 7.85137 3.69159 15.9714C1.09159 24.0914 -0.498407 30.8214 0.141593 31.0314Z" fill="black"/>
<path d="M80.6316 36.8113C87.4916 35.8013 94.4916 35.7313 101.372 36.6113C106.682 37.2913 112.132 38.6413 116.242 42.0613C117.212 42.8713 118.142 43.8513 118.442 45.0913C118.742 46.3213 118.222 47.8313 117.032 48.2613C115.772 48.7213 114.292 47.7113 113.972 46.4013C113.652 45.0913 114.282 43.6913 115.262 42.7713C116.242 41.8513 117.522 41.3213 118.792 40.8813C124.772 38.8313 131.182 38.4013 137.502 38.2213C152.922 37.7813 168.352 38.7213 183.752 39.6513" stroke="black" stroke-width="0.82" stroke-miterlimit="10"/>
</svg>
