<svg width="237" height="84" viewBox="0 0 237 84" fill="none" xmlns="http://www.w3.org/2000/svg">
<path d="M167.435 30.6651C167.022 30.2524 166.179 31.8173 166.179 31.8173L167.108 33.6918C167.796 33.4854 168.415 33.2447 168.948 33.0039C168.604 32.4192 167.761 31.009 167.435 30.6651Z" fill="black"/>
<path d="M172.13 33.2791C172.13 33.2791 169.894 33.3479 168.381 34.2765C168.157 34.4141 167.899 34.5345 167.641 34.6549L170.032 38.0427C170.032 38.0427 176.911 36.323 178.837 35.4631C180.419 34.758 179.714 31.8345 179.06 29.9772L175.965 29.2033C175.879 29.9256 175.552 30.5963 174.916 31.1122C173.695 32.1097 171.906 32.0409 170.496 31.0606L169.412 32.7803C170.307 32.3332 170.857 31.9549 170.857 31.9549L172.13 33.2791Z" fill="black"/>
<path d="M174.933 31.1122C175.569 30.5791 175.896 29.9256 175.982 29.2033C176.085 28.2058 175.707 27.1052 174.864 26.0734C173.42 24.302 170.875 23.8893 169.344 25.1447C167.813 26.4001 168.106 28.4294 169.55 30.1835C169.843 30.5275 170.169 30.8198 170.513 31.0606C171.924 32.0408 173.712 32.1096 174.933 31.1122Z" fill="black"/>
<path d="M211.288 42.0154C208.313 43.0472 205.097 44.1994 203.927 44.7325C202.896 45.1969 201.365 45.6956 199.525 46.2115L204.375 54.793C205.75 54.0019 207.315 53.5376 209.001 53.4688L211.288 42.0154ZM198.613 23.4423L199.697 14.1901L199.112 14.3449L194.314 22.4792L196.378 23.9926C197.117 23.8034 197.874 23.6314 198.613 23.4423ZM193.712 22.0493L198.098 14.6201L189.224 16.9589V16.9761L188.949 18.6442L193.712 22.0493ZM193.489 22.806L188.794 19.4525L187.676 26.1251C189.086 25.7811 190.582 25.42 192.13 25.0416L193.489 22.806ZM186.421 18.541L185.234 18.885L183.875 27.0537C184.254 26.9677 184.632 26.8645 185.045 26.7785L186.421 18.541ZM235.76 53.3656C234.659 53.7095 230.239 42.9784 225.82 29.2722L224.616 29.6505C224.805 30.1836 224.977 30.7339 225.183 31.3186C227.316 37.6129 222.621 38.3867 222.621 38.3867L217.238 39.9861C217.238 39.9861 215.725 40.4848 213.713 41.1899L211.254 53.6407C215.948 54.5006 219.525 58.628 219.525 63.5808C219.525 69.1527 214.985 73.6928 209.413 73.6928C203.841 73.6928 199.301 69.1527 199.301 63.5808C199.301 60.6228 200.574 57.9745 202.603 56.1343L197.358 46.8478C195.518 47.3637 193.506 47.914 191.477 48.5331C186.369 50.0809 175.105 52.6949 175.105 52.6949C175.105 52.6949 119.695 61.1216 116.961 61.4999C114.226 61.8782 103.323 63.9763 98.8175 64.6814C94.3118 65.3865 93.0048 60.0553 93.0048 60.0553L91.5259 53.5891C90.0469 47.123 94.1915 45.472 94.1915 45.472C94.1915 45.472 97.0462 44.4058 100.434 43.5459C103.822 42.6861 103.908 44.4058 103.908 44.4058C103.908 44.4058 104.733 46.779 106.058 50.8032C107.382 54.8274 104.028 56.0312 104.028 56.0312L109.6 54.7242C115.172 53.4172 121.845 50.958 121.845 50.958L165.268 35.4288C164.391 35.6352 163.548 35.7555 162.929 35.8071C161.536 35.9103 157.22 35.2052 155.741 35.188C154.262 35.1708 153.643 35.704 153.643 35.704L153.763 34.9817C153.883 34.2594 153.264 33.4167 153.264 33.4167C153.264 33.4167 153.608 33.2619 156.171 33.1244C158.733 32.9868 161.295 34.2422 164.597 34.1218C165.474 34.0874 166.317 33.9154 167.091 33.6919C167.779 33.4855 168.398 33.2447 168.931 33.004C169.103 32.9352 169.258 32.8492 169.412 32.7804C170.307 32.3333 170.857 31.9549 170.857 31.9549L172.112 33.2791C172.112 33.2791 169.877 33.3651 168.363 34.2766C168.14 34.4142 167.882 34.5345 167.624 34.6549L170.014 38.0428C170.014 38.0428 176.893 36.3231 178.819 35.4632C180.402 34.7581 179.696 31.8346 179.043 29.9772C178.716 29.0486 178.407 28.3607 178.407 28.3607C178.407 28.3607 179.456 28.1027 181.193 27.69L182.551 19.6417L175.363 21.7053C175.363 21.7053 170.651 18.3519 168.69 16.9245C166.73 15.4971 168.415 14.4309 168.415 14.4309L172.783 11.6793C172.783 11.6793 178.561 8.65259 182.654 6.6921C186.747 4.73161 197.599 2.15201 197.599 2.15201C197.599 2.15201 205.183 0.0883344 209.637 0.00234785C214.091 -0.0836387 211.855 2.2208 211.855 2.2208C211.855 2.2208 207.59 9.34048 206.249 11.4729C205.475 12.7112 204.581 13.1067 203.979 13.2271L203.068 22.3416C208.863 20.9143 213.919 19.6417 215.794 19.1086C221.245 17.5608 221.847 21.7053 221.847 21.7053C221.847 21.7053 222.466 23.4595 223.618 26.7957L224.891 26.4002C220.867 13.5194 218.494 3.18385 219.543 2.8399C220.643 2.47876 225.183 13.5022 229.655 27.4664C234.126 41.4307 236.86 53.0044 235.76 53.3656Z" fill="black"/>
<path d="M97.3386 63.3056C85.5413 61.5686 73.5031 61.4482 61.6714 62.9616C52.5396 64.131 43.1671 66.4527 36.099 72.3341C34.4309 73.7271 32.8315 75.4125 32.3156 77.5449C31.7997 79.6602 32.694 82.257 34.7404 82.9965C36.9073 83.7875 39.4525 82.0506 40.0028 79.7978C40.5531 77.5449 39.4697 75.1373 37.7843 73.5552C36.099 71.973 33.8978 71.0615 31.7137 70.3049C21.4297 66.7794 10.4062 66.0399 -0.462455 65.7304C-26.9807 64.9737 -53.5161 66.5902 -80 68.1896" stroke="black" stroke-width="0.82" stroke-miterlimit="10"/>
</svg>
