<svg width="232" height="186" viewBox="0 0 232 186" fill="none" xmlns="http://www.w3.org/2000/svg">
<path d="M231.961 0.204834V85.8411L231.921 85.8821H98.1221V0.204834H231.961Z" fill="#2E4593"/>
<path d="M231.96 76.9289V85.8417L231.92 85.8827H218.001L176.928 59.5553L172.825 56.9266L167.957 53.8462L166.348 52.7783L161.4 49.6157L159.549 48.4657L158.021 47.48L154.923 45.4673L153.917 44.8513L152.389 43.8656L137.826 34.5011L131.269 30.3116L98.1211 9.11826V0.205463L98.2418 0.0411377L98.4831 0.205463H112.04L153.917 26.9847L158.021 29.6134L159.107 30.3116L165.704 34.5011L166.348 34.9528L168.842 36.5547L172.825 39.1012L173.509 39.5529L176.928 41.7297L180.307 43.8656L189.278 49.6157L195.875 53.8462L231.96 76.9289Z" fill="#FCF5FF"/>
<path d="M231.96 85.5951L232 85.9237L223.029 85.8826L176.928 56.3515L172.986 53.846L172.825 53.7228L168.842 51.1763L166.469 49.6156L162.084 46.8227L158.021 44.2351L157.458 43.8654L154.923 42.2635L153.917 41.6064L142.855 34.5009L136.298 30.3114L98.1211 5.87334V0L98.2418 0.0409873L98.4831 0.205313L145.59 30.3114L152.107 34.5009L153.917 35.6509L158.021 38.3206L159.549 39.3063L162.084 40.9082L166.71 43.8654L172.825 47.7672L173.509 48.2191L175.721 49.6156L176.928 50.396L182.278 53.846L231.96 85.5951Z" fill="#F42525"/>
<path d="M231.961 1.88882V10.8015L201.428 30.3109L194.871 34.5004L180.308 43.8649L176.929 46.0007L173.51 48.2186L172.826 48.6294L171.257 49.6151L168.843 51.1759L166.349 52.7776L164.7 53.8455L158.022 58.1171L153.918 60.7457L114.656 85.8821H98.1221V78.6123L136.822 53.8455L143.379 49.6151L152.39 43.8649L153.918 42.9202L154.924 42.2631L158.022 40.2505L159.55 39.3058L166.349 34.9522L166.993 34.5004L172.826 30.8039L173.55 30.3109L176.929 28.1752L220.657 0.204834H230.915L231.961 1.88882Z" fill="#FCF5FF"/>
<path d="M231.599 2.34056L187.871 30.3109L181.314 34.5004L176.929 37.3344L173.51 39.5523L172.826 39.963L166.711 43.8649L162.085 46.8222L159.55 48.4651L158.022 49.4508L157.7 49.6151L153.918 52.0795L151.143 53.8455L101.139 85.8821H98.1221V81.857L141.89 53.8455L148.447 49.6151L153.918 46.1239L154.924 45.4667L157.459 43.8649L158.022 43.4953L162.085 40.9077L168.843 36.554L172.021 34.5004L172.826 34.0076L176.929 31.3789L178.578 30.3109L225.645 0.204834H230.312H231.961V2.05315L231.599 2.34056Z" fill="#F42525"/>
<path d="M232 30.3104H98V53.8039H232V30.3104Z" fill="white"/>
<path d="M232 34.5004H98V49.615H232V34.5004Z" fill="#F42525"/>
<path d="M172.823 0.204834H158.02V85.8821H172.823V0.204834Z" fill="#CD002A"/>
<path d="M172.783 53.8463H176.886V85.8828H153.876V53.8463H157.979V30.3117H153.876V0.205566H176.886V30.3117H172.783V53.8463Z" fill="white"/>
<path d="M172.862 0.204834H157.897V85.8821H172.862V0.204834Z" fill="#F42525"/>
<path d="M133.973 102H0V186H133.973V102Z" fill="#2E4593"/>
<path d="M133.972 102H69.542V186H133.972V102Z" fill="#F42525"/>
<path d="M89.7969 102.12H44.5352V185.677H89.7969V102.12Z" fill="white"/>
</svg>
