<svg width="292" height="116" viewBox="0 0 292 116" fill="none" xmlns="http://www.w3.org/2000/svg">
<g filter="url(#filter0_d)">
<path d="M118.94 37.8272C118.94 38.5307 118.321 39.6413 117.459 39.8265L118.38 41.5221C118.38 41.5221 119.176 40.1745 121.115 40.752H121.947V37.8198H118.94V37.8272Z" fill="#005CA9"/>
<path d="M129.001 37.5309C129.074 39.0266 126.981 40.4705 124.888 41.0036C121.815 41.7885 118.896 40.315 118.896 37.2643C118.896 34.3025 120.952 32.7698 123.945 33.6509C126.016 34.2507 128.927 36.0574 129.001 37.5309Z" fill="#1488CA"/>
<path d="M29.0695 37.8272C29.0695 38.5307 29.6886 39.6413 30.5509 39.8265L29.6296 41.5221C29.6296 41.5221 28.8337 40.1745 26.8953 40.752H26.0625V37.8198H29.0695V37.8272Z" fill="#005CA9"/>
<path d="M19.0019 37.5314C18.9282 39.0271 21.0213 40.471 23.1144 41.0041C26.1877 41.789 29.1063 40.3155 29.1063 37.2648C29.1063 34.303 27.05 32.7702 24.0578 33.6514C21.9868 34.2512 19.0756 36.0579 19.0019 37.5314Z" fill="#1488CA"/>
<path d="M110.531 94.2571C110.531 95.6936 111.688 96.8561 113.118 96.8561H121.21C122.64 96.8561 123.797 95.6936 123.797 94.2571V69.3334C123.797 67.8969 122.64 66.7344 121.21 66.7344H113.118C111.688 66.7344 110.531 67.8969 110.531 69.3334V94.2571Z" fill="#404040"/>
<path d="M24.2051 94.2576C24.2051 95.6941 25.3622 96.8566 26.792 96.8566H34.8843C36.3141 96.8566 37.4712 95.6941 37.4712 94.2576V69.3339C37.4712 67.8974 36.3141 66.7349 34.8843 66.7349H26.7994C25.3696 66.7349 24.2124 67.8974 24.2124 69.3339V94.2576H24.2051Z" fill="#404040"/>
<path d="M122.861 49.9779C122.308 46.2757 119.456 42.1143 117.886 38.96C116.317 35.8056 110.546 21.0039 109.131 18.4123C107.716 15.8207 104.709 13.1847 101.024 12.6294C97.3386 12.074 81.0654 12 74.0049 12C66.9443 12 50.6638 12.074 46.9787 12.6294C43.2937 13.1847 40.2867 15.8207 38.8716 18.4123C37.4566 21.0039 31.6858 35.813 30.1159 38.96C28.5461 42.1069 25.6939 46.2757 25.1411 49.9779C24.5884 53.6802 24.7726 75.6125 25.6939 79.2259C26.6151 82.8393 30.0275 85.0607 32.6955 85.0607C35.3634 85.0607 73.9975 85.0607 73.9975 85.0607C73.9975 85.0607 112.632 85.0607 115.3 85.0607C117.967 85.0607 121.38 82.8393 122.301 79.2259C123.222 75.6125 123.414 53.6802 122.861 49.9779Z" fill="#1284C7"/>
<path d="M24.8759 64.9131C24.9717 71.2144 25.2444 77.449 25.7013 79.2261C26.6226 82.8395 30.0349 85.0609 32.7029 85.0609C35.3709 85.0609 74.0049 85.0609 74.0049 85.0609C74.0049 85.0609 112.639 85.0609 115.307 85.0609C117.975 85.0609 121.387 82.8395 122.309 79.2261C122.765 77.449 123.038 71.2144 123.134 64.9131H24.8759Z" fill="url(#paint0_linear)"/>
<path d="M112.882 34.9541C112.882 34.9541 118.041 42.7955 118.719 44.7651C119.397 46.7347 119.486 48.5266 117.555 49.4226C115.624 50.3185 101.061 53.9542 97.7441 53.9542C94.4275 53.9542 74.005 53.9542 74.005 53.9542C74.005 53.9542 53.5824 53.9542 50.2659 53.9542C46.9494 53.9542 32.3934 50.3111 30.4625 49.4226C28.5315 48.534 28.6199 46.7421 29.298 44.7651C29.9687 42.7955 35.1277 34.9541 35.1277 34.9541" stroke="#005CA9" stroke-width="0.5" stroke-miterlimit="10"/>
<path d="M118.122 78.493C118.646 79.7888 118.004 80.8624 116.678 80.8624H31.3247C29.9981 80.8624 29.3569 79.7888 29.8802 78.493L31.7375 73.9318C32.2092 72.7692 33.5726 71.8511 34.7961 71.8511H113.214C114.437 71.8511 115.801 72.7766 116.272 73.9318L118.122 78.493Z" fill="#404040"/>
<path d="M93.6242 57.664C93.0715 55.9979 90.6762 54.7021 88.2809 54.7021C85.8856 54.7021 73.9977 54.7021 73.9977 54.7021C73.9977 54.7021 62.1171 54.7021 59.7144 54.7021C57.3118 54.7021 54.9239 55.9979 54.3711 57.664C53.8183 59.33 56.3021 66.1866 57.2307 67.4306C58.152 68.6745 59.1617 68.9855 62.1097 68.9855C65.0577 68.9855 73.9903 68.9855 73.9903 68.9855C73.9903 68.9855 82.9228 68.9855 85.8709 68.9855C88.8189 68.9855 89.836 68.6745 90.7499 67.4306C91.6932 66.1866 94.177 59.33 93.6242 57.664Z" fill="#404040"/>
<path d="M114.017 36.065C113.56 34.4582 109.138 23.1366 107.841 20.4562C106.544 17.7757 104.804 16.8428 103.507 16.8428C102.321 16.8428 45.6742 16.8428 44.4876 16.8428C43.1979 16.8428 41.4511 17.7683 40.1614 20.4562C38.8716 23.144 34.4495 34.4656 33.9852 36.065C33.5283 37.6718 34.2653 38.4122 35.4593 38.4122C36.5721 38.4122 111.423 38.4122 112.536 38.4122C113.737 38.4122 114.474 37.6718 114.017 36.065Z" fill="#404040"/>
<path d="M98.6727 54.7017C98.6727 54.7017 102.726 59.7961 104.753 59.7961C106.78 59.7961 114.614 59.7961 116.457 59.7961C118.299 59.7961 118.756 58.6854 119.125 57.6636C119.493 56.6417 119.678 51.2808 119.125 49.4297C119.125 49.4223 110.922 52.8506 98.6727 54.7017Z" fill="white"/>
<path d="M49.3372 54.7017C49.3372 54.7017 45.2837 59.7961 43.2569 59.7961C41.2301 59.7961 33.4031 59.7961 31.5605 59.7961C29.718 59.7961 29.2611 58.6854 28.8926 57.6636C28.5241 56.6417 28.3398 51.2808 28.8926 49.4297C28.8852 49.4223 37.0807 52.8506 49.3372 54.7017Z" fill="white"/>
<path d="M228.579 66L224.779 60.55L228.579 55.15H224.654L222.579 58.475L220.554 55.15H216.529L220.354 60.625L216.529 66H220.454L222.529 62.7L224.554 66H228.579ZM241.833 66V50.925H240.658L234.433 53.325L235.608 56.425L238.133 55.375V66H241.833ZM257.986 58.625C257.986 54.575 255.936 51 251.711 51C247.461 51 245.336 54.575 245.336 58.625C245.336 62.65 247.386 66.25 251.611 66.25C255.861 66.25 257.986 62.65 257.986 58.625ZM254.186 58.625C254.186 61.45 253.411 63.225 251.661 63.225C249.936 63.225 249.136 61.45 249.136 58.625C249.136 55.8 249.936 54.025 251.661 54.025C253.411 54.025 254.186 55.8 254.186 58.625ZM272.781 58.625C272.781 54.575 270.731 51 266.506 51C262.256 51 260.131 54.575 260.131 58.625C260.131 62.65 262.181 66.25 266.406 66.25C270.656 66.25 272.781 62.65 272.781 58.625ZM268.981 58.625C268.981 61.45 268.206 63.225 266.456 63.225C264.731 63.225 263.931 61.45 263.931 58.625C263.931 55.8 264.731 54.025 266.456 54.025C268.206 54.025 268.981 55.8 268.981 58.625ZM287.576 58.625C287.576 54.575 285.526 51 281.301 51C277.051 51 274.926 54.575 274.926 58.625C274.926 62.65 276.976 66.25 281.201 66.25C285.451 66.25 287.576 62.65 287.576 58.625ZM283.776 58.625C283.776 61.45 283.001 63.225 281.251 63.225C279.526 63.225 278.726 61.45 278.726 58.625C278.726 55.8 279.526 54.025 281.251 54.025C283.001 54.025 283.776 55.8 283.776 58.625Z" fill="black"/>
<path fill-rule="evenodd" clip-rule="evenodd" d="M192.543 73.9136L196 94.9998H190.327L187.022 74.8209L192.543 73.9136Z" fill="#38383A"/>
<path fill-rule="evenodd" clip-rule="evenodd" d="M192.543 73.9136L196 94.9998H193.214L189.909 74.8209L192.543 73.9136Z" fill="black"/>
<path fill-rule="evenodd" clip-rule="evenodd" d="M185.553 72.2651L191.986 70.3737C192.606 70.1948 193.265 70.5526 193.455 71.1788L194.101 73.4152C194.278 74.0414 193.923 74.706 193.303 74.8977L186.87 76.789C186.249 76.9679 185.591 76.6101 185.401 75.9839L184.755 73.7475C184.565 73.1085 184.92 72.444 185.553 72.2651Z" fill="#CA3320"/>
<path fill-rule="evenodd" clip-rule="evenodd" d="M175.447 37.3898L162.024 26.0288C159.213 23.6518 158.542 23.1789 155.211 22.6038L141.256 20.5847L142.054 15L156.693 17.1214C161.34 17.9137 161.353 18.2588 164.341 20.623L179.044 33.0703L175.447 37.3898Z" fill="#38383A"/>
<path fill-rule="evenodd" clip-rule="evenodd" d="M176.802 34.4377L162.683 22.8466C159.871 20.4696 158.972 20.2268 155.642 19.6518L141.687 17.6326L142.054 15L156.693 17.1214C161.34 17.9137 161.353 18.2588 164.341 20.623L179.044 33.0703L176.802 34.4377Z" fill="black"/>
<path fill-rule="evenodd" clip-rule="evenodd" d="M172.269 55.7029L174.447 53.5176L180.791 56.9808L180.462 70.7061L178.778 70.8978L177.41 60.6486L172.889 58.6294L172.269 55.7029Z" fill="#38383A"/>
<path fill-rule="evenodd" clip-rule="evenodd" d="M170.015 37.5559L182.058 33.6964C184.54 32.9041 187.199 34.2971 187.984 36.8019L191.378 47.5623C193.163 53.2492 193.379 52.0607 191.593 57.722L194.025 66.2843C194.734 68.8019 193.429 71.4728 190.947 72.2651L181.868 75.1789C179.398 75.9712 176.726 74.5782 175.941 72.0734L166.963 43.5367C166.152 41.0447 167.533 38.3482 170.015 37.5559ZM174.903 54.4632C173.447 54.9233 172.636 56.5079 173.105 57.9776L177.208 71.0127C177.663 72.4824 179.234 73.3003 180.69 72.8274L184.16 71.7156C185.616 71.2556 186.427 69.6709 185.958 68.2012L181.855 55.1661C181.399 53.6964 179.829 52.8786 178.373 53.3514L174.903 54.4632Z" fill="#CA3320"/>
<path fill-rule="evenodd" clip-rule="evenodd" d="M166.975 32.866L178.917 29.0449L185.021 36.981L173.079 40.8021L166.975 32.866Z" fill="#CA3320"/>
<path fill-rule="evenodd" clip-rule="evenodd" d="M182.412 33.594C184.78 33.0445 187.224 34.4247 187.972 36.8017L191.365 47.5621C193.151 53.249 193.366 52.0605 191.581 57.7218L194.012 66.2841C194.67 68.6228 193.594 71.0892 191.467 72.0605C189.567 72.0861 188.782 70.6292 187.642 67.0509C182.64 51.2426 178.943 44.4055 174.396 36.4183L171.003 31.5749L178.917 29.0317L182.412 33.594Z" fill="#DE3D28"/>
<path fill-rule="evenodd" clip-rule="evenodd" d="M146.524 30.9106C147.056 31.8691 147.347 32.9809 147.347 34.1694C147.347 37.8882 144.359 40.9042 140.674 40.9042C136.989 40.9042 134 37.8882 134 34.1566C134 32.9681 134.304 31.8563 134.836 30.8978L140.674 20.623L146.524 30.9106Z" fill="#FCC000"/>
<path fill-rule="evenodd" clip-rule="evenodd" d="M146.524 30.9106C147.056 31.8691 147.347 32.9809 147.347 34.1694C147.347 37.8882 144.359 40.9042 140.674 40.9042V20.623L146.524 30.9106Z" fill="#F5AF01"/>
<path fill-rule="evenodd" clip-rule="evenodd" d="M136.685 29.9009C134.19 33.4792 135.102 39.345 140.762 39.8562C137.254 37.6453 136.115 34.3354 136.685 29.9009Z" fill="#FFD231"/>
</g>
<defs>
<filter id="filter0_d" x="0" y="0" width="291.576" height="116" filterUnits="userSpaceOnUse" color-interpolation-filters="sRGB">
<feFlood flood-opacity="0" result="BackgroundImageFix"/>
<feColorMatrix in="SourceAlpha" type="matrix" values="0 0 0 0 0 0 0 0 0 0 0 0 0 0 0 0 0 0 127 0"/>
<feOffset dy="4"/>
<feGaussianBlur stdDeviation="2"/>
<feColorMatrix type="matrix" values="0 0 0 0 0 0 0 0 0 0 0 0 0 0 0 0 0 0 0.25 0"/>
<feBlend mode="normal" in2="BackgroundImageFix" result="effect1_dropShadow"/>
<feBlend mode="normal" in="SourceGraphic" in2="effect1_dropShadow" result="shape"/>
</filter>
<linearGradient id="paint0_linear" x1="74.0028" y1="63.5197" x2="74.0028" y2="74.2778" gradientUnits="userSpaceOnUse">
<stop stop-color="#59D7FB"/>
<stop offset="1" stop-color="#1488CA"/>
</linearGradient>
</defs>
</svg>
