<svg width="100" height="100" viewBox="0 0 100 100" fill="none" xmlns="http://www.w3.org/2000/svg">
<path d="M53.25 3.60844L88.5513 23.9896C90.5624 25.1508 91.8013 27.2966 91.8013 29.6188V70.3812C91.8013 72.7034 90.5624 74.8493 88.5513 76.0104L53.25 96.3916C51.2389 97.5527 48.7611 97.5527 46.75 96.3916L11.4487 76.0104C9.43762 74.8493 8.19873 72.7034 8.19873 70.3812V29.6188C8.19873 27.2966 9.43762 25.1508 11.4487 23.9896L46.75 3.60844C48.7611 2.44732 51.2389 2.44733 53.25 3.60844Z" fill="url(#paint0_linear)" fill-opacity="0.5" stroke="#444444" stroke-width="3"/>
<path d="M29.2658 55L28.7698 43.128L28.4498 43.096L23.3778 50.872L18.1778 43.096L17.8738 43.128L17.3778 55H19.3458L19.4738 47.96L23.2018 53.576H23.4418L27.1378 47.976L27.2978 55H29.2658ZM38.8148 55V53.176H33.6628V49.928H38.3188V48.168H33.6628V45.096H38.8148V43.272H31.6628V55H38.8148ZM51.3548 49.032C51.3548 45.864 49.0668 43.192 44.4268 43.192C43.2588 43.192 42.2988 43.256 41.1628 43.384V54.904C42.3468 55.016 43.2588 55.096 44.5388 55.096C49.1788 55.096 51.3548 52.328 51.3548 49.032ZM49.2108 49.032C49.2108 51.512 47.8508 53.32 44.8428 53.32C44.0748 53.32 43.6588 53.304 43.1628 53.224V45.048C43.5788 44.984 44.0908 44.952 44.6668 44.952C47.6428 44.952 49.2108 46.6 49.2108 49.032ZM55.6022 55V43.272H53.6022V55H55.6022ZM67.4889 50.504V43.272H65.4889V50.36C65.4889 52.36 64.4809 53.368 62.8009 53.368C61.1049 53.368 60.1129 52.376 60.1129 50.36V43.272H58.1129V50.504C58.1129 53.544 59.8409 55.192 62.7689 55.192C65.6489 55.192 67.4889 53.496 67.4889 50.504ZM81.6252 55L81.1292 43.128L80.8092 43.096L75.7372 50.872L70.5372 43.096L70.2332 43.128L69.7372 55H71.7052L71.8332 47.96L75.5612 53.576H75.8012L79.4972 47.976L79.6572 55H81.6252Z" fill="#444444"/>
<rect x="66" y="70" width="26" height="26" rx="13" fill="#F6FDFF" stroke="#444444" stroke-width="2"/>
<defs>
<linearGradient id="paint0_linear" x1="50" y1="0" x2="50" y2="100" gradientUnits="userSpaceOnUse">
<stop stop-color="#01CBF8" stop-opacity="0.33"/>
<stop offset="1" stop-color="#E2FAFF" stop-opacity="0.33"/>
</linearGradient>
</defs>
</svg>
