<svg width="100" height="100" viewBox="0 0 100 100" fill="none" xmlns="http://www.w3.org/2000/svg">
<path d="M53.25 3.60844L88.5513 23.9896C90.5624 25.1508 91.8013 27.2966 91.8013 29.6188V70.3812C91.8013 72.7034 90.5624 74.8493 88.5513 76.0104L53.25 96.3916C51.2389 97.5527 48.7611 97.5527 46.75 96.3916L11.4487 76.0104C9.43762 74.8493 8.19873 72.7034 8.19873 70.3812V29.6188C8.19873 27.2966 9.43762 25.1508 11.4487 23.9896L46.75 3.60844C48.7611 2.44732 51.2389 2.44733 53.25 3.60844Z" fill="url(#paint0_linear)" fill-opacity="0.5" stroke="#444444" stroke-width="3"/>
<path d="M35.8037 57V54.72H29.3637V50.66H35.1837V48.46H29.3637V44.62H35.8037V42.34H26.8637V57H35.8037ZM50.9387 57L44.1987 42.14H43.8387L37.0787 57H39.6587L41.0787 53.64H46.8787L48.2987 57H50.9387ZM46.0587 51.66H41.8987L43.9787 46.76L46.0587 51.66ZM60.8091 52.86C60.8091 50.94 59.9691 49.76 57.0691 48.5C55.2491 47.7 54.5291 47.12 54.5291 46.14C54.5291 45.16 55.2491 44.32 56.7891 44.32C57.7891 44.32 58.9491 44.82 59.7291 45.36L60.5291 43.16C59.6691 42.58 58.2691 42.1 56.8491 42.1C53.7891 42.1 52.0291 44.08 52.0291 46.2C52.0291 47.96 52.9491 49.28 55.5091 50.36C57.8291 51.34 58.2691 51.98 58.2691 53C58.2691 54.02 57.5891 54.92 56.0491 54.92C54.7891 54.92 53.3891 54.4 52.2291 53.56L51.3691 55.8C52.6491 56.64 54.3091 57.24 55.9691 57.24C58.9891 57.24 60.8091 55.22 60.8091 52.86ZM74.4384 42.34H71.6384L68.0784 48.54L64.4784 42.34H61.6184L66.7784 50.82V57H69.2784V50.84L74.4384 42.34Z" fill="#444444"/>
<path d="M78 96C70.8203 96 65 90.1797 65 83C65 75.8203 70.8203 70 78 70C85.1797 70 91 75.8203 91 83C91 90.1797 85.1797 96 78 96Z" fill="#F6FEF2" stroke="#444444" stroke-width="2"/>
<defs>
<linearGradient id="paint0_linear" x1="50" y1="0" x2="50" y2="100" gradientUnits="userSpaceOnUse">
<stop stop-color="#53D702" stop-opacity="0.33"/>
<stop offset="1" stop-color="#ECFFE0" stop-opacity="0.39"/>
</linearGradient>
</defs>
</svg>
