<svg width="100" height="100" viewBox="0 0 100 100" fill="none" xmlns="http://www.w3.org/2000/svg">
<path d="M46.75 3.60844C48.7611 2.44732 51.2389 2.44733 53.25 3.60844L88.5513 23.9896C90.5624 25.1508 91.8013 27.2966 91.8013 29.6188V70.3812C91.8013 72.7034 90.5624 74.8493 88.5513 76.0104L53.25 96.3916C51.2389 97.5527 48.7611 97.5527 46.75 96.3916L11.4487 76.0104C9.43762 74.8493 8.19873 72.7034 8.19873 70.3812V29.6188C8.19873 27.2966 9.43762 25.1508 11.4487 23.9896L46.75 3.60844Z" fill="url(#paint0_linear)" fill-opacity="0.5" stroke="#444444" stroke-width="3"/>
<path d="M35.4513 57V42.34H32.9513V48.46H26.2113V42.34H23.7113V57H26.2113V50.7H32.9513V57H35.4513ZM50.8527 57L44.1127 42.14H43.7527L36.9927 57H39.5727L40.9927 53.64H46.7927L48.2127 57H50.8527ZM45.9727 51.66H41.8127L43.8927 46.76L45.9727 51.66ZM63.2432 57L59.4032 51.1C61.2232 50.3 62.2632 48.76 62.2632 46.86C62.2632 44.26 60.4232 42.24 56.2632 42.24C54.7832 42.24 53.5632 42.34 52.4032 42.48V57H54.9032V51.7C55.3832 51.72 55.8832 51.74 56.3632 51.74C56.6432 51.74 56.8832 51.74 57.1432 51.72L60.3432 57H63.2432ZM59.6232 46.98C59.6232 48.66 58.5232 49.68 56.3432 49.68C55.8632 49.68 55.3632 49.66 54.9032 49.6V44.6C55.4032 44.5 55.9832 44.48 56.5832 44.48C58.5032 44.48 59.6232 45.5 59.6232 46.98ZM77.7795 49.54C77.7795 45.58 74.9195 42.24 69.1195 42.24C67.6595 42.24 66.4595 42.32 65.0395 42.48V56.88C66.5195 57.02 67.6595 57.12 69.2595 57.12C75.0595 57.12 77.7795 53.66 77.7795 49.54ZM75.0995 49.54C75.0995 52.64 73.3995 54.9 69.6395 54.9C68.6795 54.9 68.1595 54.88 67.5395 54.78V44.56C68.0595 44.48 68.6995 44.44 69.4195 44.44C73.1395 44.44 75.0995 46.5 75.0995 49.54Z" fill="#444444"/>
<rect x="67" y="73" width="26" height="26" rx="13" fill="#FEEAE9" stroke="#444444" stroke-width="2"/>
<defs>
<linearGradient id="paint0_linear" x1="50" y1="0" x2="50" y2="100" gradientUnits="userSpaceOnUse">
<stop stop-color="#E42313" stop-opacity="0.58"/>
<stop offset="1" stop-color="#FFC6C1" stop-opacity="0.47"/>
</linearGradient>
</defs>
</svg>
