<svg width="266" height="278" viewBox="0 0 266 278" fill="none" xmlns="http://www.w3.org/2000/svg">
<path d="M247 125.288C247 136.778 246.42 182.129 219.291 211.8C195.652 237.654 146.519 249 128.372 249C89.3964 249 21 174.04 21 152.539C21 141.854 28.2277 119.115 50.0077 91.9812C72.0515 64.5181 69.0575 21.9068 128.372 32.7207C190.981 44.1356 247 103.788 247 125.288Z" fill="#F1F1F1"/>
<path d="M238 126.288C238 137.778 237.42 183.129 210.291 212.8C186.652 238.654 137.519 250 119.372 250C80.3964 250 12 175.04 12 153.539C12 142.854 19.2277 120.115 41.0077 92.9812C63.0515 65.5181 60.0575 22.9068 119.372 33.7207C181.981 45.1356 238 104.788 238 126.288Z" fill="#F9F9F9"/>
<g clip-path="url(#clip0)">
<path opacity="0.8" d="M92.1868 50.394L51.797 58.983L33.8197 89.183L47.8423 110.731L66.7334 77.2138L106.627 69.8123L92.1868 50.394Z" fill="#7C0E2F"/>
<path opacity="0.8" d="M59.5331 0.443359L19.1433 9.04026L1.17386 39.2402L15.1886 60.78L34.0797 27.2711L73.9732 19.8616L59.5331 0.443359Z" fill="#7C0E2F"/>
<path d="M20.1437 7.82104L66.7334 77.2137" stroke="#342B1E" stroke-width="2" stroke-miterlimit="10"/>
<path d="M33.8197 89.1829L74.6349 83.9741L90.9579 106.424L47.8423 110.731L33.8197 89.1829Z" fill="#A10E2F"/>
<path d="M92.1868 50.394L74.6349 83.9742L90.9579 106.424L106.627 69.8123L92.1868 50.394Z" fill="#D70929"/>
<path d="M1.17382 39.2402L41.9812 34.0234L57.6424 56.2123L15.1886 60.7799L1.17382 39.2402Z" fill="#A10E2F"/>
<path d="M59.5331 0.443359L41.9812 34.0235L57.6424 56.2124L73.9732 19.8616L59.5331 0.443359Z" fill="#D70929"/>
<path d="M41.9812 34.0234L90.9579 106.424" stroke="#342B1E" stroke-width="2" stroke-miterlimit="10"/>
<path d="M0.661714 37.4275L47.8423 110.731" stroke="#342B1E" stroke-width="2" stroke-miterlimit="10"/>
<path d="M59.5331 0.443359L107.588 71.3005" stroke="#342B1E" stroke-width="2" stroke-miterlimit="10"/>
<path d="M90.3513 105.807C90.6585 106.298 90.9264 106.804 91.273 107.271C91.6039 107.746 91.9269 108.229 92.2814 108.688C92.9668 109.622 93.6758 110.533 94.3926 111.435C95.8264 113.24 97.2681 115.037 98.6388 116.881L99.6551 118.267L100.624 119.684C100.947 120.159 101.231 120.649 101.538 121.132C101.853 121.615 102.097 122.13 102.381 122.621C102.672 123.111 102.877 123.642 103.121 124.156C103.381 124.663 103.531 125.209 103.736 125.732C103.846 125.993 103.925 126.262 103.98 126.539L104.177 127.354C104.295 127.901 104.295 128.455 104.358 129.009V128.977C104.185 130.79 103.626 132.555 102.767 134.17C101.892 135.785 100.734 137.242 99.4581 138.579C98.1819 139.925 96.7481 141.113 95.275 142.237C93.8018 143.361 92.2499 144.39 90.6664 145.372C84.3562 149.306 77.5655 152.409 71.342 156.581C69.7901 157.634 68.2775 158.742 66.8674 160C65.4651 161.259 64.1417 162.644 63.1096 164.259C62.1013 165.882 61.3686 167.75 61.2899 169.706C61.1638 171.653 61.6522 173.592 62.4479 175.318C63.2436 177.06 64.3307 178.627 65.5124 180.084C66.6941 181.548 68.0176 182.886 69.4041 184.145C70.7748 185.419 72.2322 186.591 73.7054 187.739C74.4459 188.309 75.21 188.847 75.9584 189.401L78.2588 190.992L78.306 190.929L76.0845 189.235C75.3597 188.649 74.6271 188.079 73.9181 187.477C72.5001 186.282 71.082 185.079 69.7664 183.773C68.443 182.474 67.1589 181.136 66.0323 179.68C64.8979 178.231 63.8817 176.68 63.149 175.009C62.4243 173.347 61.9674 171.55 62.1013 169.761C62.1801 167.964 62.8654 166.246 63.8187 164.718C65.8118 161.671 68.7423 159.296 71.7674 157.198C74.8162 155.092 78.0303 153.224 81.2366 151.34C84.4508 149.464 87.6728 147.596 90.824 145.601C93.9515 143.59 97.0554 141.477 99.7338 138.849C101.073 137.535 102.294 136.086 103.255 134.447C104.201 132.801 104.854 130.964 105.044 129.048V129.025V129.017C104.98 128.423 104.988 127.814 104.862 127.236L104.665 126.365C104.61 126.072 104.531 125.787 104.421 125.51C104.216 124.956 104.051 124.386 103.775 123.863C103.515 123.341 103.295 122.795 102.987 122.296C102.696 121.789 102.436 121.267 102.105 120.784C101.79 120.293 101.491 119.795 101.16 119.32L100.159 117.895L99.1194 116.509C97.6935 114.681 96.1967 112.931 94.7078 111.174C93.9672 110.287 93.211 109.424 92.4941 108.522C92.1238 108.079 91.7772 107.627 91.4306 107.168C91.0682 106.725 90.7688 106.226 90.4301 105.759L90.3513 105.807Z" fill="#A10E2F"/>
<path d="M48.5199 109.132C48.5199 109.132 48.7089 109.432 49.0556 110.002C49.2368 110.279 49.4416 110.636 49.6622 111.063C49.7725 111.277 49.8906 111.506 50.0246 111.744C50.1348 111.997 50.253 112.266 50.3712 112.551C50.836 113.691 51.3323 115.116 51.4741 116.818C51.608 118.504 51.4426 120.452 50.7336 122.423C50.0482 124.402 48.8823 126.381 47.4564 128.328C46.0068 130.26 44.3289 132.207 42.4618 134.099C40.6105 136.007 38.578 137.867 36.5061 139.735C34.4185 141.596 32.2757 143.464 30.2038 145.411C28.1241 147.351 26.1231 149.401 24.4136 151.657C22.712 153.905 21.3019 156.399 20.6401 159.066C19.9232 161.734 20.199 164.513 21.0182 166.872C21.8218 169.262 23.1768 171.241 24.5239 172.912C25.8868 174.59 27.2969 175.975 28.6125 177.107C29.2585 177.685 29.8887 178.2 30.4796 178.667C31.0625 179.142 31.614 179.561 32.1182 179.917C33.1187 180.662 33.938 181.2 34.4894 181.572C35.0409 181.944 35.3402 182.142 35.3402 182.142L35.3875 182.079C35.3875 182.079 35.1039 181.865 34.5761 181.461C34.0482 181.057 33.2683 180.472 32.3151 179.672C31.8346 179.284 31.2989 178.849 30.7474 178.35C30.1802 177.867 29.5736 177.329 28.9591 176.727C27.7144 175.54 26.3516 174.155 25.0675 172.484C23.7991 170.814 22.5466 168.874 21.7903 166.61C21.0183 164.362 20.8213 161.782 21.4515 159.256C22.0424 156.723 23.3659 154.301 24.9887 152.069C25.7922 150.937 26.6903 149.86 27.6199 148.807C28.5416 147.746 29.5185 146.717 30.519 145.712C32.5121 143.693 34.6154 141.786 36.6873 139.909C38.775 138.049 40.8311 136.221 42.7769 134.392C44.7149 132.555 46.5268 130.695 48.0157 128.724C48.7641 127.742 49.4337 126.737 50.0009 125.724C50.5445 124.687 51.0329 123.666 51.3638 122.621C52.0728 120.555 52.2225 118.504 52.0019 116.747C51.7813 114.982 51.2377 113.525 50.6863 112.401C50.5445 112.116 50.4106 111.855 50.2845 111.601C50.1427 111.364 50.0088 111.134 49.8827 110.929C49.6385 110.509 49.418 110.161 49.2131 109.899C48.8192 109.361 48.6144 109.076 48.6144 109.076L48.5199 109.132Z" fill="#A10E2F"/>
<path d="M106.871 71.5222C106.871 71.5222 107.123 71.728 107.596 72.108C107.714 72.203 107.848 72.3059 107.99 72.4246C108.124 72.5513 108.266 72.6938 108.423 72.8442C108.581 72.9946 108.746 73.1529 108.919 73.335C109.077 73.5249 109.25 73.7308 109.431 73.9445C110.125 74.8153 110.842 75.9789 111.369 77.4513C111.913 78.9158 112.299 80.6495 112.937 82.5177C113.252 83.4518 113.662 84.4096 114.182 85.3437C114.442 85.8108 114.733 86.2778 115.08 86.7132C115.403 87.1723 115.742 87.584 116.088 88.0273C117.428 89.8005 119.058 91.5499 120.744 93.2994C122.446 95.0409 124.273 96.7667 126.164 98.4845C128.047 100.21 129.993 101.92 131.915 103.654C133.829 105.395 135.744 107.137 137.485 108.973C139.233 110.802 140.778 112.765 141.896 114.879C143.023 116.976 143.74 119.193 144.023 121.362C144.315 123.531 144.26 125.621 144.086 127.537C143.858 129.452 143.527 131.194 143.165 132.73C142.968 133.49 142.81 134.218 142.621 134.867C142.432 135.524 142.251 136.126 142.093 136.664C141.778 137.756 141.463 138.587 141.282 139.173C141.093 139.751 140.99 140.06 140.99 140.06L141.061 140.092C141.061 140.092 141.187 139.791 141.416 139.229C141.636 138.659 142.006 137.843 142.392 136.775C142.786 135.706 143.235 134.4 143.661 132.864C144.11 131.336 144.48 129.571 144.772 127.624C145.008 125.668 145.126 123.515 144.819 121.259C144.527 119.003 143.818 116.66 142.613 114.491C141.416 112.314 139.801 110.311 137.989 108.498C136.177 106.67 134.199 104.984 132.206 103.329C130.213 101.675 128.228 100.012 126.337 98.3024C124.462 96.5846 122.666 94.8272 121.059 93.0065C119.436 91.1937 117.979 89.3968 116.632 87.6156C115.954 86.7211 115.3 85.8899 114.804 84.9954C114.292 84.1088 113.882 83.1984 113.559 82.296C112.906 80.4911 112.496 78.7337 111.858 77.2534C111.251 75.7652 110.471 74.5699 109.691 73.7228C109.495 73.517 109.305 73.3191 109.132 73.1291C108.943 72.955 108.754 72.8046 108.589 72.6621C108.423 72.5196 108.266 72.385 108.116 72.2663C107.966 72.1634 107.824 72.0605 107.698 71.9734C107.194 71.633 106.926 71.4509 106.926 71.4509L106.871 71.5222Z" fill="#A10E2F"/>
</g>
<g clip-path="url(#clip1)">
<path opacity="0.9" d="M242.474 4.44214C242.474 4.44214 209.38 38.6807 154.535 37.8268C154.535 37.8268 174.983 59.3565 168.805 149.813C168.805 149.813 233.02 93.0614 265.764 82.6091C265.771 82.6091 242.071 24.0735 242.474 4.44214Z" fill="#00ADE9" stroke="url(#paint0_radial)" stroke-width="0.4621" stroke-miterlimit="10"/>
<path d="M158.223 42.1573C158.223 42.1573 197.45 51.3745 240.021 12.4167L215.978 72.5534C215.985 72.5534 195.332 69.6869 158.223 42.1573Z" fill="#009E8F"/>
<path d="M168.911 149.844C168.911 149.844 168.881 149.981 168.827 150.24C168.751 150.507 168.629 150.903 168.416 151.384C168.02 152.36 167.258 153.694 166.412 155.424C166.207 155.859 165.993 156.316 165.803 156.797C165.613 157.269 165.43 157.811 165.361 158.291C165.262 158.878 165.201 159.457 165.148 160.06C165.102 160.677 165.079 161.31 165.079 161.973C165.064 164.619 165.506 167.584 166.131 170.824C166.763 174.065 167.609 177.587 168.058 181.452C168.287 183.381 168.37 185.401 168.226 187.467C168.149 188.504 168.028 189.541 167.769 190.585C167.532 191.599 167.266 192.651 166.9 193.65C166.176 195.67 165.193 197.66 163.845 199.429C162.504 201.205 160.798 202.723 158.87 203.866C156.943 205.01 154.825 205.818 152.661 206.359C150.498 206.923 148.281 207.228 146.064 207.442C141.622 207.83 137.173 207.8 132.815 207.853C128.458 207.891 124.184 207.952 120.131 208.585C116.085 209.195 112.223 210.072 108.802 211.475C105.382 212.862 102.365 214.639 99.9649 216.727C97.5574 218.816 95.7138 221.142 94.4263 223.429C93.1312 225.708 92.2474 227.858 91.6837 229.68C91.3865 230.588 91.158 231.419 90.9599 232.135C90.7923 232.859 90.6247 233.477 90.5257 233.988C90.3124 235.002 90.2057 235.543 90.2057 235.543H90C90 235.543 90.0229 234.986 90.0762 233.942C90.1676 232.898 90.2895 231.358 90.6933 229.429C91.1123 227.508 91.7446 225.167 92.9712 222.659C94.2054 220.173 95.9957 217.497 98.5402 215.134C101.077 212.771 104.338 210.789 108.025 209.439C111.712 208.097 115.75 207.221 119.948 206.885C124.153 206.519 128.488 206.664 132.838 206.832C137.196 206.999 141.622 207.198 146.01 206.809C150.368 206.42 154.81 205.459 158.345 203.043C160.104 201.861 161.598 200.352 162.748 198.651C163.906 196.944 164.714 195.061 165.285 193.132C165.574 192.164 165.811 191.211 166.001 190.227C166.207 189.282 166.275 188.298 166.351 187.345C166.481 185.424 166.367 183.518 166.191 181.658C165.803 177.945 165.026 174.431 164.508 171.122C163.952 167.821 163.67 164.71 163.822 161.943C163.86 161.249 163.929 160.586 164.013 159.945C164.104 159.297 164.218 158.672 164.34 158.108C164.485 157.445 164.736 156.934 164.973 156.431C165.216 155.935 165.475 155.485 165.719 155.058C166.725 153.374 167.563 152.116 168.058 151.208C168.317 150.759 168.469 150.4 168.568 150.164C168.652 149.912 168.69 149.775 168.69 149.775L168.911 149.844Z" fill="#009E8F"/>
<path d="M168.827 149.92C168.827 149.92 168.667 149.966 168.363 150.065C168.05 150.149 167.616 150.316 167.068 150.553C165.971 151.041 164.409 151.925 162.824 153.518C161.217 155.074 159.556 157.269 158.108 160.037C156.653 162.796 155.381 166.136 154.634 169.879C154.299 171.739 154.033 173.767 154.185 175.704C154.231 176.23 154.284 176.763 154.337 177.297C154.406 177.815 154.482 178.334 154.558 178.852C154.627 179.378 154.749 179.912 154.84 180.446C154.932 180.987 155.038 181.528 155.16 182.069C156.067 186.43 157.537 190.959 159.061 195.632C160.607 200.298 162.405 205.086 163.624 210.133C164.904 215.157 165.925 220.349 166.39 225.632C166.626 228.27 166.71 230.931 166.603 233.584C166.504 236.229 166.252 238.875 165.772 241.459C164.828 246.636 163.083 251.614 160.615 256.021C158.139 260.427 154.924 264.208 151.404 267.205C147.907 270.239 144.091 272.442 140.441 274.081C136.777 275.72 133.234 276.75 130.035 277.314C126.843 277.886 124.008 278.076 121.685 277.977C119.361 277.886 117.556 277.565 116.352 277.253C115.75 277.093 115.293 276.956 114.996 276.841C114.691 276.734 114.539 276.681 114.539 276.681L114.607 276.483C114.607 276.483 114.767 276.521 115.072 276.597C115.377 276.681 115.834 276.773 116.436 276.872C117.64 277.07 119.422 277.253 121.692 277.161C123.955 277.055 126.705 276.773 129.768 276.018C132.823 275.263 136.213 274.135 139.687 272.45C143.161 270.765 146.688 268.478 149.987 265.566C153.263 262.638 156.303 259.078 158.68 254.907C161.102 250.768 162.862 246.056 163.868 241.085C164.363 238.6 164.721 236.054 164.904 233.484C165.079 230.915 165.11 228.316 165.026 225.716C164.95 223.116 164.691 220.516 164.34 217.94C164.005 215.355 163.525 212.809 162.946 210.3C161.834 205.269 160.028 200.511 158.276 195.914C156.486 191.332 154.741 186.872 153.56 182.451C153.24 181.353 153.012 180.247 152.798 179.142C152.707 178.585 152.608 178.029 152.516 177.472C152.44 176.931 152.395 176.405 152.334 175.871C152.136 173.577 152.417 171.488 152.829 169.49C153.667 165.518 155.137 162.087 156.79 159.267C158.459 156.446 160.363 154.258 162.184 152.764C164.013 151.262 165.742 150.499 166.923 150.11C167.532 149.943 168.005 149.828 168.317 149.783C168.629 149.729 168.789 149.699 168.789 149.699L168.827 149.92Z" fill="#009E8F"/>
<path d="M215.985 72.5532C215.985 72.5532 225.546 79.2241 260.202 82.3422C260.202 82.3422 228.129 94.2125 177.726 139.224C177.726 139.224 206.439 102.866 215.985 72.5532Z" fill="#A5D7D3"/>
<path d="M265.771 82.6092C265.771 82.6092 205.601 82.6092 154.543 37.8269" stroke="#28364D" stroke-width="2.3099" stroke-miterlimit="10"/>
<path d="M242.474 4.44214C242.474 4.44214 210.15 105.435 168.805 149.813" stroke="#28364D" stroke-width="2.3099" stroke-miterlimit="10"/>
</g>
<defs>
<radialGradient id="paint0_radial" cx="0" cy="0" r="1" gradientUnits="userSpaceOnUse" gradientTransform="translate(210.078 77.1189) rotate(180) scale(63.3698 66.0566)">
<stop offset="0.4031" stop-color="white" stop-opacity="0.1"/>
<stop offset="0.4428" stop-color="#F1F1F1" stop-opacity="0.1067"/>
<stop offset="0.7165" stop-color="#979698" stop-opacity="0.1525"/>
<stop offset="0.9082" stop-color="#5E5C60" stop-opacity="0.1846"/>
<stop offset="1" stop-color="#48464A" stop-opacity="0.2"/>
</radialGradient>
<clipPath id="clip0">
<rect width="145" height="191" fill="white" transform="matrix(-1 0 0 1 145 0)"/>
</clipPath>
<clipPath id="clip1">
<rect width="176" height="274" fill="white" transform="translate(90 4)"/>
</clipPath>
</defs>
</svg>
