<svg width="405" height="416" viewBox="0 0 405 416" fill="none" xmlns="http://www.w3.org/2000/svg">
<path d="M378.532 191.25C366.636 242.889 269.818 278.958 240.057 281.564C221.955 288.162 211.296 277.023 196.092 383.171C196.092 383.171 145.918 324.31 158.009 256.411C99.5314 226.302 52.1391 160.705 64.0347 109.066C78.5915 45.8747 170.777 19.8614 254.071 40.1308C337.366 60.4003 393.089 128.059 378.532 191.25Z" fill="#F1F1F1"/>
<path d="M363.539 174.806C357.574 227.514 263.087 268.241 231.125 274.078C212.359 282.619 198.412 276.838 196.19 384.177C196.19 384.177 128.893 332.623 132.882 263.705C65.3405 240.098 20.2033 187.294 26.1688 134.586C33.4688 70.0859 114.91 26.8018 208.072 37.9082C301.234 49.0145 370.839 110.306 363.539 174.806Z" fill="#F9F9F9"/>
</svg>
