<svg width="111" height="111" viewBox="0 0 111 111" fill="none" xmlns="http://www.w3.org/2000/svg">
<path d="M30.8256 29.0743L59.0909 19.7537C61.2963 19.0265 63.7222 19.5311 65.4547 21.0774L87.6592 40.8957C89.3917 42.442 90.1676 44.7951 89.6947 47.0687L83.6339 76.2074C83.161 78.481 81.5111 80.3296 79.3056 81.0568L51.0403 90.3773C48.8349 91.1046 46.409 90.6 44.6765 89.0536L22.4721 69.2354C20.7396 67.6891 19.9636 65.3359 20.4365 63.0624L26.4974 33.9236C26.9703 31.6501 28.6202 29.8015 30.8256 29.0743Z" fill="url(#paint0_linear)" stroke="black" stroke-width="3"/>
<rect x="74.0064" y="51.8651" width="21" height="21" rx="10.5" transform="rotate(-48.25 74.0064 51.8651)" fill="white" stroke="black" stroke-width="2"/>
<g clip-path="url(#clip0)">
<path d="M65.4893 64.2416C62.2048 67.9782 58.8948 71.7434 55.6102 75.48C54.7184 76.4792 53.6394 76.9524 52.3451 76.8744C51.5639 76.844 50.8513 76.567 50.2608 76.04C49.0825 75.0396 47.9297 74.0106 46.7514 73.0103C43.7709 70.3501 40.7623 67.6648 37.7027 65.0366C36.0745 63.6347 35.8689 61.0917 37.4005 59.4323C38.346 58.4296 39.2352 57.3767 40.178 56.3204C40.7641 55.6637 40.837 54.9594 40.4223 54.1789C39.8925 53.2444 39.3345 52.2847 38.8047 51.3502C38.3644 50.5982 38.4347 49.8403 39.0463 49.1551C41.7166 46.05 44.4687 42.9666 47.1926 39.8581C47.8042 39.1729 48.4957 39.0207 49.3462 39.3695C50.3348 39.7902 51.2952 40.1857 52.2837 40.6064C53.1342 40.9552 53.8258 40.803 54.4628 40.0892C55.3802 39.0614 56.2694 38.0085 57.1867 36.9807C58.5373 35.4676 60.4844 35.1538 62.2295 36.1983C62.3956 36.2953 62.5361 36.4208 62.6486 36.5211C66.8074 40.1817 70.9662 43.8423 75.125 47.5028C76.4746 48.7075 76.8094 50.5963 75.9465 52.1857C75.8016 52.5179 75.5467 52.8034 75.3174 53.0604C72.0329 56.797 68.7483 60.5336 65.4893 64.2416ZM62.6802 61.7857C66.1457 57.9029 65.7995 51.9516 61.9474 48.5135C58.1515 45.1255 52.2301 45.534 48.7109 49.4202C45.2454 53.303 45.5661 59.2829 49.4182 62.721C53.2677 66.1055 59.1892 65.697 62.6802 61.7857ZM61.0538 40.1758C60.5196 39.6989 59.6365 39.7827 59.2059 40.3217C58.7218 40.8642 58.8176 41.7191 59.3237 42.1708C59.8579 42.6476 60.6874 42.5673 61.1715 42.0248C61.6557 41.4824 61.6135 40.624 61.0538 40.1758Z" fill="black"/>
<path d="M59.8717 59.3291C57.7822 61.6702 54.1655 61.9302 51.9135 59.8689C49.6078 57.811 49.4338 54.2704 51.4952 51.9042C53.5847 49.5631 57.2014 49.3031 59.4535 51.3644C61.7591 53.4223 61.9612 56.988 59.8717 59.3291Z" fill="black"/>
</g>
<defs>
<linearGradient id="paint0_linear" x1="25.9694" y1="29.0961" x2="84.1619" y2="81.0349" gradientUnits="userSpaceOnUse">
<stop stop-color="#B71918"/>
<stop offset="1" stop-color="#FD9E98" stop-opacity="0.74"/>
</linearGradient>
<clipPath id="clip0">
<rect width="38" height="30" fill="white" transform="translate(30.4771 58.5864) rotate(-48.25)"/>
</clipPath>
</defs>
</svg>
