<svg width="78" height="78" viewBox="0 0 78 78" fill="none" xmlns="http://www.w3.org/2000/svg">
<path d="M35.75 3.60844C37.7611 2.44733 40.2389 2.44733 42.25 3.60844L68.025 18.4896C70.0361 19.6508 71.275 21.7966 71.275 24.1188V53.8812C71.275 56.2034 70.0361 58.3493 68.025 59.5104L42.25 74.3916C40.2389 75.5527 37.7611 75.5527 35.75 74.3916L9.97501 59.5104C7.9639 58.3492 6.72501 56.2034 6.72501 53.8812V24.1188C6.72501 21.7966 7.9639 19.6508 9.97501 18.4896L35.75 3.60844Z" fill="url(#paint0_linear)" stroke="black" stroke-width="3"/>
<rect x="54" y="51" width="21" height="21" rx="10.5" fill="white" stroke="black" stroke-width="2"/>
<g clip-path="url(#clip0)">
<path d="M39.0949 52.8869C34.1201 52.9246 29.107 52.9623 24.1322 53C22.7928 53 21.7213 52.51 20.9177 51.4925C20.4202 50.8894 20.1523 50.1734 20.1523 49.3819C20.1141 47.8367 20.1141 46.2915 20.0758 44.7462C20.0758 40.7513 20.0758 36.7186 19.9993 32.6859C19.961 30.5377 21.7213 28.691 23.9791 28.7286C25.3568 28.7663 26.7344 28.7286 28.1503 28.7286C29.0305 28.7286 29.6045 28.3141 29.9106 27.4849C30.2551 26.4673 30.5995 25.4121 30.9439 24.3945C31.2118 23.5653 31.824 23.1131 32.7425 23.1131C36.8371 23.0377 40.9701 23.0377 45.103 23C46.0214 23 46.5954 23.4146 46.9016 24.2814C47.246 25.299 47.5904 26.2789 47.9348 27.2965C48.241 28.1633 48.815 28.5779 49.7717 28.5779C51.1493 28.5779 52.527 28.5402 53.9046 28.5402C55.9328 28.5402 57.4635 29.7839 57.8462 31.7814C57.8845 31.9698 57.8845 32.1583 57.8845 32.309C57.9227 37.8492 57.961 43.3894 57.9993 48.9296C57.9993 50.7387 56.813 52.2462 55.0526 52.6608C54.7082 52.7739 54.3256 52.7739 53.9811 52.7739C49.0063 52.8116 44.0315 52.8492 39.0949 52.8869ZM39.0567 49.1558C44.2611 49.1558 48.4706 44.9347 48.4706 39.7714C48.4706 34.6834 44.2228 30.5377 38.9801 30.5C33.7757 30.5 29.528 34.7211 29.528 39.8844C29.5662 45.01 33.814 49.1558 39.0567 49.1558ZM54.0959 33.5528C54.0959 32.8367 53.4454 32.2337 52.7566 32.2714C52.0295 32.2714 51.4555 32.9121 51.4555 33.5905C51.4555 34.3065 52.0677 34.8719 52.7948 34.8719C53.5219 34.8719 54.1342 34.2688 54.0959 33.5528Z" fill="black"/>
<path d="M39.0195 45.4245C35.8815 45.4245 33.2793 42.8994 33.3176 39.8467C33.3176 36.7562 35.8432 34.2688 38.9812 34.2311C42.1192 34.2311 44.7214 36.7562 44.6831 39.809C44.6831 42.8994 42.1574 45.4245 39.0195 45.4245Z" fill="black"/>
</g>
<defs>
<linearGradient id="paint0_linear" x1="39" y1="0" x2="39" y2="78" gradientUnits="userSpaceOnUse">
<stop stop-color="#B71918"/>
<stop offset="1" stop-color="#FD9E98" stop-opacity="0.74"/>
</linearGradient>
<clipPath id="clip0">
<rect width="38" height="30" fill="white" transform="translate(20 23)"/>
</clipPath>
</defs>
</svg>
