<svg width="359" height="152" viewBox="0 0 359 152" fill="none" xmlns="http://www.w3.org/2000/svg">
<g clip-path="url(#clip0)">
<path d="M273.993 55.6265L314.649 115.643" stroke="#EDEDED" stroke-width="0.5" stroke-miterlimit="10"/>
<path d="M216.933 46.8864L226.585 83.044" stroke="#EDEDED" stroke-width="0.5" stroke-miterlimit="10"/>
<path d="M240.262 88.2254L243.676 86.5227L247.593 83.7423L247.847 82.871L248.674 81.8267L248.998 80.8955L249.494 80.809L249.609 82.2724L250.047 82.3455L250.34 82.9974L250.206 83.2435L250.397 83.5095L250.512 83.8022L250.416 84.055L250.537 84.5472L250.168 84.6203L249.482 84.9196L248.451 84.9263L245.012 87.5403L241.47 88.6112L240.262 88.2254Z" fill="#FF5100"/>
<path d="M246.274 84.2426L238.956 88.6625L239.989 90.5345L247.307 86.1146L246.274 84.2426Z" fill="#381E10"/>
<path d="M232.466 84.8265L227.373 80.503L231.284 79.5319L235.715 81.0352L232.466 84.8265Z" fill="#1597CE"/>
<path d="M236.077 71.0181L232.154 66.6347L239.441 65.4973L237.909 68.1845L236.077 71.0181Z" fill="#B73918"/>
<path d="M237.909 68.1845L238.519 66.2489L236.357 66.0028C236.357 66.0028 239.301 65.3177 239.441 65.4973C239.581 65.6769 237.909 68.1845 237.909 68.1845Z" fill="#31150D"/>
<path d="M231.366 82.5184L234.157 78.92L239.301 79.2259L238.367 76.8048L239.155 76.4722L237.508 71.4171C237.508 71.4171 237.566 69.6345 237.432 69.4216C237.349 69.282 236.154 68.5636 236.154 68.5636L233.623 66.0693L233.305 65.3775L232.453 65.4773L231.582 65.2379L225.147 75.4013L225.472 76.552L224.041 79.5386L229.083 79.206L229.993 81.6936L231.366 82.5184Z" fill="#FF5100"/>
<path d="M231.283 66.648L223.348 64.0739L226.552 72.3816L231.283 66.648Z" fill="#FF5100"/>
<path d="M225.097 68.6235C225.097 68.6235 223.049 64.3666 223.348 64.0739C223.647 63.7812 227.208 65.3244 227.208 65.3244L224.054 64.9386L225.097 68.6235Z" fill="#31150D"/>
<path d="M257.22 92.8948L255.014 99.1805L253.628 99.0142L250.893 95.4756L248.267 89.7886L246.093 91.2719L248.325 95.3093L249.952 97.5376L252.731 100.344L253.43 101.276L255.745 101.269L259.554 94.9834L260.291 91.5512L257.22 92.8948Z" fill="#FF5100"/>
<path d="M251.236 95.4756L250.918 96.6263L249.265 97.4511L244.095 91.518L239.447 89.2964L242.703 87.128L245.405 87.8131L249.843 91.9836L251.236 95.4756Z" fill="#050606"/>
<path d="M224.613 65.5771L229.401 67.6723L227.214 70.9715L224.613 65.5771Z" fill="#F5CEB1"/>
<path d="M225.338 67.0869L228.504 69.0225L227.214 70.9714L225.338 67.0869Z" fill="#BB9984"/>
<path d="M254.021 81.3477C253.462 81.1149 252.826 81.3943 252.603 81.973L251.001 86.0503C250.874 86.3696 250.905 86.7088 251.045 86.9882L246.62 97.89C246.461 98.2758 246.639 98.7148 247.008 98.8744C247.148 98.9343 247.294 98.9476 247.434 98.9143C247.663 98.8678 247.866 98.7081 247.961 98.4687L252.406 87.5137C252.673 87.4006 252.902 87.1878 253.023 86.8951L254.625 82.8177C254.841 82.239 254.574 81.5805 254.021 81.3477Z" fill="#201E23"/>
<path d="M228.568 68.9295L228.123 69.6013L227.659 69.3485L227.996 69.3086L227.348 69.0625L227.653 69.0093L227.017 68.7898L227.29 68.7166L226.737 68.4971L226.992 68.424L226.476 68.1912L226.794 68.1379L226.241 67.8785L226.705 67.9051L228.568 68.9295Z" fill="#F5CEB1"/>
<path d="M241.387 72.5612L235.944 72.621L232.733 74.1442L236.701 75.5078L240.923 73.938L241.387 72.5612Z" fill="#FF5100"/>
<path d="M242.01 72.8804L229.236 74.2772L231.43 77.8291L231.347 82.0927L233.535 81.6471L234.825 79.0198L240.701 74.1908L242.01 72.8804Z" fill="#F5CEB1"/>
<path d="M242.691 72.5479C242.653 72.4215 240.027 72.5745 240.027 72.5745L239.499 73.1864L240.612 74.2972C240.612 74.2906 242.729 72.6743 242.691 72.5479Z" fill="#020203"/>
<path d="M240.224 72.7474L239.982 73.08L240.752 72.7939L240.224 72.7474Z" fill="#FFFEFE"/>
<path d="M236.199 72.5146C236.803 72.5013 237.172 72.6942 237.044 71.8628C236.917 71.0114 236.981 70.5724 236.383 70.3197C235.785 70.0669 235.092 70.905 235.124 71.5834C235.162 72.4215 235.601 72.5346 236.199 72.5146Z" fill="black"/>
<path d="M236.306 72.4743C236.954 72.4544 237.107 72.461 236.98 71.6761C236.846 70.8447 236.719 70.6119 236.172 70.4456C235.753 70.3192 235.327 71.0176 235.301 71.6362C235.269 72.4278 235.765 72.4876 236.306 72.4743Z" fill="url(#paint0_radial)"/>
<path d="M236.313 72.488C236.567 72.4813 237.006 72.5279 237.05 72.1687C237.082 71.9226 237.012 71.6499 236.968 71.4104C236.923 71.2042 236.879 70.9847 236.758 70.8118C236.663 70.6655 236.529 70.5723 236.376 70.5058C236.205 70.4327 236.027 70.3861 235.855 70.4726C235.639 70.5856 235.493 70.8318 235.397 71.0579C235.283 71.3306 235.226 71.6565 235.289 71.9492C235.391 72.4614 235.899 72.5013 236.313 72.488C236.357 72.488 236.326 72.4614 236.3 72.4614C235.95 72.468 235.512 72.4547 235.378 72.0423C235.232 71.5834 235.416 70.9581 235.734 70.6256C235.81 70.5457 235.912 70.4726 236.02 70.4526C236.122 70.4327 236.23 70.4859 236.326 70.5191C236.472 70.579 236.599 70.6721 236.688 70.8051C236.79 70.9648 236.841 71.1577 236.879 71.3439C236.93 71.5701 236.974 71.8029 236.98 72.0357C236.987 72.1687 236.968 72.3217 236.841 72.3882C236.682 72.468 236.465 72.4481 236.294 72.4547C236.256 72.4614 236.287 72.488 236.313 72.488Z" fill="black"/>
<path d="M230.113 71.8362C230.018 73.0934 230.927 73.1333 231.773 72.9337C232.619 72.7342 233.572 72.814 233.63 72.0424C233.687 71.2708 232.994 70.3596 232.084 70.2066C231.175 70.0536 230.171 71.0646 230.113 71.8362Z" fill="black"/>
<path d="M230.335 71.9412C230.24 73.0985 231.022 73.1318 231.753 72.9455C232.484 72.7593 233.304 72.8258 233.362 72.1141C233.419 71.4024 232.866 70.5709 232.084 70.4313C231.302 70.2982 230.392 71.2294 230.335 71.9412Z" fill="url(#paint1_radial)"/>
<path d="M230.304 71.9493C230.285 72.2486 230.298 72.5878 230.514 72.814C230.667 72.9736 230.883 73.0335 231.093 73.0401C231.36 73.0534 231.614 72.9869 231.868 72.9271C232.199 72.8539 232.542 72.8273 232.86 72.7209C233.095 72.6411 233.312 72.4947 233.375 72.222C233.445 71.916 233.356 71.5635 233.216 71.2908C232.93 70.7254 232.307 70.2798 231.678 70.4261C231.042 70.5857 230.374 71.2442 230.304 71.9493C230.304 71.9626 230.368 71.9626 230.374 71.9426C230.431 71.3374 230.946 70.7853 231.455 70.5525C232.084 70.2665 232.752 70.639 233.095 71.211C233.375 71.6766 233.502 72.4349 232.905 72.681C232.631 72.794 232.326 72.8206 232.04 72.8739C231.786 72.9204 231.538 73.0002 231.277 73.0202C231.029 73.0335 230.756 73.0002 230.571 72.8073C230.361 72.5812 230.349 72.242 230.368 71.9493C230.374 71.9227 230.304 71.9293 230.304 71.9493Z" fill="black"/>
<path d="M232.535 72.3256C232.797 72.135 232.858 71.7505 232.669 71.4669C232.481 71.1832 232.116 71.1078 231.853 71.2985C231.591 71.4891 231.531 71.8736 231.719 72.1573C231.907 72.4409 232.272 72.5163 232.535 72.3256Z" fill="#00ACD8"/>
<path opacity="0.5" d="M232.772 71.7164C232.823 72.0557 232.613 72.3683 232.295 72.4148C231.977 72.4614 231.678 72.2286 231.621 71.8894C231.57 71.5502 231.78 71.2375 232.098 71.191C232.416 71.1444 232.721 71.3839 232.772 71.7164Z" fill="url(#paint2_linear)"/>
<path d="M232.353 72.1116C232.512 71.9964 232.548 71.7635 232.434 71.5915C232.319 71.4195 232.098 71.3735 231.94 71.4887C231.781 71.604 231.745 71.8368 231.859 72.0088C231.973 72.1808 232.194 72.2268 232.353 72.1116Z" fill="black"/>
<path d="M232.376 71.645C232.443 71.5969 232.457 71.4991 232.409 71.4267C232.361 71.3542 232.268 71.3346 232.202 71.3828C232.136 71.431 232.121 71.5287 232.169 71.6012C232.217 71.6736 232.31 71.6932 232.376 71.645Z" fill="white"/>
<path d="M236.375 72.08C236.611 71.9959 236.731 71.7107 236.644 71.4429C236.557 71.1751 236.295 71.0262 236.059 71.1102C235.823 71.1943 235.702 71.4795 235.79 71.7473C235.877 72.015 236.139 72.164 236.375 72.08Z" fill="#00ACD8"/>
<path opacity="0.5" d="M236.663 71.5635C236.695 71.8429 236.517 72.089 236.262 72.1089C236.014 72.1289 235.785 71.916 235.754 71.6367C235.722 71.3573 235.9 71.1112 236.154 71.0913C236.409 71.0713 236.638 71.2842 236.663 71.5635Z" fill="url(#paint3_linear)"/>
<path d="M236.288 71.8638C236.431 71.8129 236.504 71.6391 236.451 71.4757C236.398 71.3122 236.239 71.221 236.096 71.2719C235.953 71.3227 235.88 71.4965 235.933 71.66C235.986 71.8234 236.145 71.9147 236.288 71.8638Z" fill="black"/>
<path d="M236.418 71.4676C236.478 71.4463 236.508 71.3727 236.485 71.3031C236.463 71.2336 236.396 71.1945 236.336 71.2158C236.276 71.2371 236.246 71.3107 236.269 71.3803C236.291 71.4498 236.358 71.4889 236.418 71.4676Z" fill="white"/>
<path d="M238.837 74.0243C238.882 74.0243 238.919 73.9885 238.919 73.9444C238.919 73.9004 238.882 73.8646 238.837 73.8646C238.791 73.8646 238.754 73.9004 238.754 73.9444C238.754 73.9885 238.791 74.0243 238.837 74.0243Z" fill="#694D42"/>
<path d="M239.003 74.5225C239.041 74.5225 239.072 74.4929 239.072 74.4564C239.072 74.4199 239.041 74.3903 239.003 74.3903C238.964 74.3903 238.933 74.4199 238.933 74.4564C238.933 74.4929 238.964 74.5225 239.003 74.5225Z" fill="#694D42"/>
<path d="M238.436 74.3628C238.475 74.3628 238.506 74.3303 238.506 74.2901C238.506 74.25 238.475 74.2174 238.436 74.2174C238.398 74.2174 238.366 74.25 238.366 74.2901C238.366 74.3303 238.398 74.3628 238.436 74.3628Z" fill="#694D42"/>
<path d="M238.392 74.2773C237.661 74.3438 236.929 74.4369 236.217 74.6431C235.416 74.8759 234.666 75.2484 233.935 75.6475C233.922 75.6541 233.954 75.6674 233.96 75.6608C234.672 75.2684 235.41 74.9025 236.186 74.6697C236.91 74.4502 237.661 74.3638 238.411 74.2906C238.43 74.2906 238.405 74.2773 238.392 74.2773Z" fill="#7B7B7B"/>
<path d="M238.945 74.4502C238.233 74.6963 237.514 74.9424 236.828 75.2684C236.166 75.581 235.55 75.9801 234.965 76.4257C234.958 76.4324 234.99 76.4457 234.996 76.439C235.594 75.9801 236.23 75.5743 236.904 75.2617C237.572 74.9491 238.271 74.7096 238.971 74.4635C238.983 74.4569 238.951 74.4436 238.945 74.4502Z" fill="#7B7B7B"/>
<path d="M238.831 73.938C237.826 73.7318 236.802 73.8116 235.836 74.1775C235.823 74.1841 235.855 74.1974 235.861 74.1908C236.815 73.825 237.833 73.7451 238.831 73.9513C238.856 73.958 238.844 73.9447 238.831 73.938Z" fill="#7B7B7B"/>
<path d="M235.219 77.1507L233.897 78.2682L231.729 76.5521L235.219 77.1507Z" fill="white"/>
<path d="M235.22 77.1507L233.878 78.2682L231.71 76.5521L234.139 77.2438L234.533 77.031L235.22 77.1507Z" fill="black"/>
<path d="M237.826 70.6788C237.623 69.9538 237.286 68.3574 237.197 68.078C237.108 67.7987 236.478 67.0204 236.167 66.7677C235.855 66.5083 235.874 66.4152 235.359 66.1358C235.149 66.0227 234.641 65.5837 234.374 65.4307C233.833 64.8986 232.841 64.5926 232.536 64.5394C232.021 64.4463 231.036 64.566 230.54 64.7257C230.044 64.892 229.732 65.3576 229.573 65.4307C229.414 65.5039 228.88 65.8498 228.88 65.8498C228.88 65.8498 229.306 66.6014 228.969 67.067C228.632 67.5326 228.498 67.9583 228.32 68.2643C228.142 68.5702 227.824 68.9893 227.538 69.3884C227.246 69.7875 226.686 70.446 226.375 70.4925C226.063 70.5391 225.682 70.2132 225.682 70.2132L225.707 72.1355C225.707 72.1355 225.504 73.193 225.306 73.7518C225.103 74.3171 224.664 76.0199 224.811 76.5853C224.925 77.0044 225.764 78.042 226.502 78.0021C226.972 77.9755 227.755 77.3569 228.072 76.0199C228.384 74.683 228.39 71.8561 228.486 71.0978C228.575 70.3928 228.931 69.129 229.115 68.9627C230.082 68.078 232.008 68.8895 233.884 68.6368C235.766 68.3774 236.059 68.6102 236.396 68.9893C236.733 69.3684 237.896 72.5745 237.896 72.5745C237.896 72.5745 238.023 71.4038 237.826 70.6788Z" fill="#55301D"/>
<path d="M225.816 76.1397L225.078 80.1639C225.078 80.1639 225.784 79.5918 225.822 79.2992C225.987 78.042 226.439 76.2129 226.439 76.2129L225.816 76.1397Z" fill="#2A170D"/>
<path d="M226.022 78.5988L225.325 78.4841L225.297 78.6747L225.994 78.7894L226.022 78.5988Z" fill="#55301D"/>
<path d="M226.107 78.1523L225.409 78.0383L225.38 78.2289L226.078 78.3429L226.107 78.1523Z" fill="#55301D"/>
<path d="M237.674 76.6452L238.246 80.4499C238.246 80.4499 237.541 79.8778 237.502 79.5852C237.337 78.328 237.197 77.1108 237.197 77.1108L237.674 76.6452Z" fill="#2A170D"/>
<path d="M237.326 79.0709L238.023 78.9562L237.995 78.7656L237.298 78.8804L237.326 79.0709Z" fill="#55301D"/>
<path d="M237.241 78.6252L237.938 78.5105L237.91 78.3199L237.213 78.4347L237.241 78.6252Z" fill="#55301D"/>
<path d="M233.032 70.1201C233.032 70.1201 233.719 70.6922 233.91 71.4438C234.1 72.1887 233.477 72.8738 233.477 72.8738L233.929 72.6743L234.361 71.5236L233.903 70.5392L233.032 70.1201Z" fill="#2A170D"/>
<path d="M236.561 70.0801C236.561 70.0801 237.056 70.4327 237.241 71.1776C237.432 71.9226 236.809 72.6077 236.809 72.6077L237.26 72.4082C237.26 72.4082 237.559 71.8295 237.527 71.3506C237.489 70.732 237.133 70.3595 237.133 70.3595L236.561 70.0801Z" fill="#2A170D"/>
<path d="M234.374 71.63C234.374 71.2309 234.246 70.8784 234.03 70.5923L234.736 70.6123C234.952 70.3063 235.423 69.8939 236.116 69.9937C235.461 70.18 234.685 70.7586 234.685 71.5635C234.685 72.1754 234.997 72.6543 235.455 72.8938C234.863 72.7341 234.609 72.4348 234.539 71.9759H234.329C234.361 71.8628 234.374 71.7497 234.374 71.63Z" fill="#2A170D"/>
<path d="M225.198 72.5933L225.446 71.6488L228.969 70.9171C229.02 70.8107 229.071 70.7175 229.109 70.651C229.217 70.4714 229.681 70.2852 230.056 70.1655C230.419 69.8861 230.946 69.7132 231.652 69.7531C230.597 69.8662 230.031 70.5579 229.954 71.2563C229.865 72.1011 230.018 72.9857 231.175 73.3515C230.927 73.305 230.717 73.2385 230.533 73.1587L229.98 73.0323C229.98 73.0323 229.128 73.019 228.848 72.3671L225.198 72.5933Z" fill="#2A170D"/>
<path d="M231.181 73.3527C231.467 73.4458 231.817 73.5057 232.243 73.5256C233.108 73.5655 234.125 72.907 234.335 71.9758C234.36 71.8628 234.373 71.7497 234.373 71.63C234.373 71.2309 234.246 70.8783 234.03 70.5923C233.648 70.0868 232.974 69.7742 232.167 69.7343C231.982 69.721 231.817 69.7276 231.658 69.7476C230.602 69.8607 230.037 70.5524 229.96 71.2508C229.871 72.1022 230.03 72.9802 231.181 73.3527ZM232.345 70.0402C233.426 70.1201 234.151 70.6588 234.151 71.59C234.151 72.5213 233.349 73.2928 232.275 73.1931C230.927 73.0733 230.405 72.4348 230.412 71.5036C230.418 70.5857 231.27 69.9538 232.345 70.0402Z" fill="#B29250"/>
<path d="M235.461 72.8937C235.715 73.0267 236.014 73.0932 236.338 73.0666C237.082 73.0001 237.661 72.2485 237.578 71.3506C237.521 70.6588 237.101 69.9072 236.167 69.9804C236.04 69.987 235.912 70.0136 235.798 70.0469C235.143 70.2331 234.692 70.7586 234.692 71.5634C234.685 72.1753 234.997 72.6476 235.461 72.8937ZM234.997 71.4304C234.997 70.6455 235.626 70.14 236.408 70.1932C237.152 70.2464 237.464 70.6056 237.464 71.3905C237.464 72.1753 236.853 72.7075 236.326 72.7474C235.518 72.8072 234.997 72.2152 234.997 71.4304Z" fill="#B29250"/>
<g opacity="0.39">
<path opacity="0.39" d="M234.151 71.5834C234.151 72.508 233.35 73.2862 232.275 73.1864C230.927 73.0667 230.406 72.4281 230.412 71.4969C230.419 71.0313 230.635 70.6389 230.991 70.3795C231.334 70.1201 231.811 69.987 232.345 70.0269C233.426 70.1201 234.145 70.6588 234.151 71.5834Z" fill="#009FE3"/>
</g>
<g opacity="0.37">
<path opacity="0.37" d="M234.996 71.4969C234.964 70.6522 235.619 70.1334 236.408 70.1932C237.158 70.2464 237.463 70.6056 237.463 71.3905C237.463 72.1754 236.872 72.7141 236.306 72.7474C235.524 72.8006 235.028 72.2286 234.996 71.4969Z" fill="#009FE3"/>
</g>
<path d="M237.362 70.752C237.362 70.752 237.279 70.5857 237.145 70.4793C237.012 70.3728 236.808 70.2398 236.325 70.2265C235.842 70.2132 235.467 70.4992 235.467 70.4992C235.467 70.4992 235.13 70.732 235.041 71.1777C235.003 71.3706 235.003 71.4969 235.003 71.4969C235.003 71.4969 234.971 71.2974 235.047 71.0446C235.123 70.7919 235.295 70.4992 235.626 70.3462C235.956 70.1932 236.134 70.1866 236.134 70.1866C236.134 70.1866 236.452 70.14 236.745 70.2265C237.037 70.313 237.126 70.3928 237.222 70.4926C237.298 70.579 237.362 70.752 237.362 70.752Z" fill="white"/>
<path d="M233.897 70.7386C233.897 70.7386 233.496 70.3595 233.064 70.2265C232.638 70.0934 232.059 69.9338 231.353 70.2265C230.272 70.6788 230.425 71.7696 230.425 71.7696C230.425 71.7696 230.342 71.4836 230.406 71.171C230.469 70.8517 230.673 70.3728 231.372 70.12C232.104 69.8606 232.631 70.0203 232.631 70.0203C232.631 70.0203 233.076 70.12 233.413 70.2996C233.75 70.4792 233.897 70.7386 233.897 70.7386Z" fill="white"/>
<path d="M225.656 82.0994C226.96 79.5918 229.802 79.4388 229.802 79.4388L231.086 79.5187L232.702 80.2769L234.183 79.5918L236.911 81.6937C236.911 81.6937 239.715 86.5759 240.077 87.5138C240.135 87.6668 238.799 87.0415 239.149 88.3186C239.715 90.4005 236.542 86.4828 236.612 86.7422C236.612 86.7422 237.865 91.8572 237.191 91.8838C235.041 91.9836 232.295 91.8638 229.656 92.6088C228.238 93.0079 229.179 88.3518 228.2 85.8642C227.647 84.4541 224.734 84.0483 224.734 84.0483C224.919 83.463 224.34 84.0151 225.656 82.0994Z" fill="#381E10"/>
<path d="M229.98 78.8668C229.98 78.8668 229.426 78.7404 229.185 79.0131C228.848 79.4055 228.619 79.911 228.613 80.5562C228.606 81.0817 228.746 81.7203 229.318 81.9131C230.635 82.3521 232.714 81.7801 232.714 81.7801C232.714 81.7801 232.256 80.7691 232.04 80.5296C231.824 80.2902 231.423 79.8179 231.181 79.625C230.902 79.3989 229.98 78.8668 229.98 78.8668Z" fill="#E9E0A2"/>
<path d="M234.145 79.3191C234.145 79.3191 234.488 79.2194 234.666 79.4123C234.914 79.685 235.226 80.1506 235.232 80.5497C235.238 80.9488 235.525 81.2414 235.156 81.6804C234.787 82.1194 232.612 81.9731 232.612 81.9731C232.612 81.9731 232.86 80.982 232.987 80.7825C233.115 80.5829 233.483 80.0308 233.483 80.0308L234.145 79.3191Z" fill="#E9E0A2"/>
<path d="M308.514 41.9909L214.046 22.369L214.294 21.0653L308.724 40.8868L308.514 41.9909Z" fill="#CB941E"/>
<path d="M145.742 1.06357C145.742 1.06357 137.902 -0.83876 130.202 0.478237C122.502 1.79523 93.1514 13.6948 93.1514 13.6948L124.461 22.4481L134.259 19.6678L125.72 24.6498L260.965 60.9736L306.606 47.2782L145.742 1.06357Z" fill="#EFEAB3"/>
<path d="M232.803 81.9863H232.65V89.7486H232.803V81.9863Z" fill="#E9E0A2"/>
<path d="M123.602 12.8773L122.884 12.6711C122.986 12.6312 135.035 8.14809 140.764 6.36549C146.512 4.58289 153.799 4.29688 153.875 4.29688L155.357 4.74253C155.287 4.74253 146.722 5.16822 141.025 6.93752C135.302 8.72012 123.704 12.844 123.602 12.8773Z" fill="#CDC99B"/>
<path d="M158.11 26.5861L183.093 82.738" stroke="#EDEDED" stroke-width="0.5" stroke-miterlimit="10"/>
<path d="M138.145 70.3862L136.511 16.9946L136.714 16.9081C136.746 16.8948 140.211 15.3783 145.724 13.2432C153.787 10.1103 166.86 8.11487 167.025 8.10156L168.812 8.48735C168.647 8.50065 153.933 10.7688 145.947 13.8684C141.203 15.7109 137.98 17.0877 137.166 17.4403L138.787 70.3729L138.145 70.3862Z" fill="#CDC99B"/>
<path d="M24.3721 57.6685L241.851 55.0744" stroke="#EDEDED" stroke-width="0.5" stroke-miterlimit="10"/>
<path d="M173.714 19.8947L145.966 81.0219" stroke="#EDEDED" stroke-width="0.5" stroke-miterlimit="10"/>
<path d="M141.146 23.9122L166.128 80.0575" stroke="#EDEDED" stroke-width="0.5" stroke-miterlimit="10"/>
<path d="M111.083 14.1477L136.066 70.293" stroke="#EDEDED" stroke-width="0.5" stroke-miterlimit="10"/>
<path d="M133.872 25.3222L96.1406 117.951" stroke="#EDEDED" stroke-width="0.5" stroke-miterlimit="10"/>
<path d="M95.8419 73.06L78.8711 95.8414" stroke="#EDEDED" stroke-width="0.5" stroke-miterlimit="10"/>
<path d="M78.3242 68.7299L96.2615 104.282" stroke="#EDEDED" stroke-width="0.5" stroke-miterlimit="10"/>
<path d="M114.732 17.1941L78.5654 82.6515" stroke="#EDEDED" stroke-width="0.5" stroke-miterlimit="10"/>
<path d="M95.829 118.53L95.333 72.6011L196.579 43.6271L199.154 44.2324L96.6111 73.6121L97.1007 118.516L95.829 118.53Z" fill="#CB941E"/>
<path d="M97.584 51.2298L99.6823 103.73" stroke="#CB941E" stroke-width="2" stroke-miterlimit="10"/>
<path d="M354.562 42.7358L246.957 76.2527" stroke="#EDEDED" stroke-width="0.5" stroke-miterlimit="10"/>
<path d="M175.768 135.863L213.505 109.444" stroke="#EDEDED" stroke-width="0.5" stroke-miterlimit="10"/>
<path d="M246.194 72.8273L287.359 108" stroke="#EDEDED" stroke-width="0.5" stroke-miterlimit="10"/>
<path d="M220.703 111.965L263.267 136.023" stroke="#EDEDED" stroke-width="0.5" stroke-miterlimit="10"/>
<path d="M244.827 118.729L220.01 146.852" stroke="#EDEDED" stroke-width="0.5" stroke-miterlimit="10"/>
<path d="M323.538 56.5311L253.43 99.7126" stroke="#EDEDED" stroke-width="0.5" stroke-miterlimit="10"/>
<path d="M349.31 65.1182L251.186 74.2773" stroke="#EDEDED" stroke-width="0.5" stroke-miterlimit="10"/>
<path d="M325.186 67.7322L287.957 109.849" stroke="#EDEDED" stroke-width="0.5" stroke-miterlimit="10"/>
<path d="M204.679 101.522L176.047 134.846" stroke="#EDEDED" stroke-width="0.5" stroke-miterlimit="10"/>
<path d="M286.494 112.084L264.92 141.504" stroke="#EDEDED" stroke-width="0.5" stroke-miterlimit="10"/>
<path d="M195.441 99.4133H194.602V102.998H195.441V99.4133Z" fill="black"/>
<path d="M202.555 100.69H199.262V104.276H202.555V100.69Z" fill="black"/>
<path d="M312.983 53.5179L287.988 109.444" stroke="#EDEDED" stroke-width="0.5" stroke-miterlimit="10"/>
<path d="M232.6 44.1261L231.652 43.7935C231.792 43.7336 236.084 41.8978 244.134 38.8514C252.216 35.7984 263.858 34.069 263.572 34.5679L264.309 34.9537C264.468 34.6211 252.33 36.4569 244.318 39.49C236.281 42.5231 232.74 44.0596 232.6 44.1261Z" fill="#CDC99B"/>
<path d="M285.248 56.9568L257.513 100.85" stroke="#EDEDED" stroke-width="0.5" stroke-miterlimit="10"/>
<path d="M233.909 91.2985L243.046 89.9283L244.833 97.6706L234.068 94.6508L233.909 91.2985Z" fill="#050606"/>
<path d="M145.647 94.0788L175.768 135.863" stroke="#EDEDED" stroke-width="0.5" stroke-miterlimit="10"/>
<path d="M201.971 44.1127L181.338 80.6161" stroke="#EDEDED" stroke-width="0.5" stroke-miterlimit="10"/>
<path d="M246.486 134.167L250.053 141.331" stroke="#878787" stroke-width="0.157" stroke-miterlimit="10"/>
<path d="M247.873 133.562L250.054 141.444" stroke="#878787" stroke-width="0.157" stroke-miterlimit="10"/>
<path d="M249.913 132.571L250.129 141.424" stroke="#878787" stroke-width="0.157" stroke-miterlimit="10"/>
<path d="M248.674 132.65L250.06 141.497" stroke="#878787" stroke-width="0.157" stroke-miterlimit="10"/>
<path d="M251.007 133.422L250.098 141.457" stroke="#878787" stroke-width="0.157" stroke-miterlimit="10"/>
<path d="M252.031 133.921L250.098 141.424" stroke="#878787" stroke-width="0.157" stroke-miterlimit="10"/>
<path d="M252.87 134.766L250.021 141.457" stroke="#878787" stroke-width="0.157" stroke-miterlimit="10"/>
<path d="M253.818 135.577L249.983 141.497" stroke="#878787" stroke-width="0.157" stroke-miterlimit="10"/>
<path d="M243.199 136.149L250.098 141.457" stroke="#878787" stroke-width="0.157" stroke-miterlimit="10"/>
<path d="M242.614 137.573L250.022 141.424" stroke="#878787" stroke-width="0.157" stroke-miterlimit="10"/>
<path d="M242.321 138.956L250.098 141.424" stroke="#878787" stroke-width="0.157" stroke-miterlimit="10"/>
<path d="M242.283 140.267L250.098 141.384" stroke="#878787" stroke-width="0.157" stroke-miterlimit="10"/>
<path d="M242.283 141.497L250.098 141.424" stroke="#878787" stroke-width="0.157" stroke-miterlimit="10"/>
<path d="M242.43 142.768L250.098 141.344" stroke="#878787" stroke-width="0.157" stroke-miterlimit="10"/>
<path d="M244.185 135.418L250.13 141.304" stroke="#878787" stroke-width="0.157" stroke-miterlimit="10"/>
<path d="M245.145 134.553L250.206 141.304" stroke="#878787" stroke-width="0.157" stroke-miterlimit="10"/>
<path d="M242.614 143.885L250.13 141.384" stroke="#878787" stroke-width="0.157" stroke-miterlimit="10"/>
<path d="M243.084 145.076L250.129 141.304" stroke="#878787" stroke-width="0.157" stroke-miterlimit="10"/>
<path d="M243.453 146.113L250.168 141.304" stroke="#878787" stroke-width="0.157" stroke-miterlimit="10"/>
<path d="M244.216 147.271L250.129 141.304" stroke="#878787" stroke-width="0.157" stroke-miterlimit="10"/>
<path d="M244.839 148.268L250.129 141.264" stroke="#878787" stroke-width="0.157" stroke-miterlimit="10"/>
<path d="M245.933 148.92L250.129 141.264" stroke="#878787" stroke-width="0.157" stroke-miterlimit="10"/>
<path d="M246.702 149.419L250.129 141.191" stroke="#878787" stroke-width="0.157" stroke-miterlimit="10"/>
<path d="M247.611 150.038L250.129 141.191" stroke="#878787" stroke-width="0.157" stroke-miterlimit="10"/>
<path d="M254.695 136.575L250.13 141.111" stroke="#878787" stroke-width="0.157" stroke-miterlimit="10"/>
<path d="M255.21 137.919L250.13 141.111" stroke="#878787" stroke-width="0.157" stroke-miterlimit="10"/>
<path d="M255.986 139.096L250.06 141.111" stroke="#878787" stroke-width="0.157" stroke-miterlimit="10"/>
<path d="M255.789 140.613L250.13 141.078" stroke="#878787" stroke-width="0.157" stroke-miterlimit="10"/>
<path d="M255.903 141.843L250.098 141.078" stroke="#878787" stroke-width="0.157" stroke-miterlimit="10"/>
<path d="M255.935 143.266L250.021 141.111" stroke="#878787" stroke-width="0.157" stroke-miterlimit="10"/>
<path d="M255.719 144.497L249.983 141.111" stroke="#878787" stroke-width="0.157" stroke-miterlimit="10"/>
<path d="M255.496 145.847L249.983 141.191" stroke="#878787" stroke-width="0.157" stroke-miterlimit="10"/>
<path d="M254.733 146.692L249.951 141.231" stroke="#878787" stroke-width="0.157" stroke-miterlimit="10"/>
<path d="M253.817 148.501L249.951 141.231" stroke="#878787" stroke-width="0.157" stroke-miterlimit="10"/>
<path d="M252.8 149.539L249.951 141.231" stroke="#878787" stroke-width="0.157" stroke-miterlimit="10"/>
<path d="M251.445 150.231L249.913 141.231" stroke="#878787" stroke-width="0.157" stroke-miterlimit="10"/>
<path d="M250.352 150.577L249.913 141.231" stroke="#878787" stroke-width="0.157" stroke-miterlimit="10"/>
<path d="M248.743 150.809L249.875 141.191" stroke="#878787" stroke-width="0.157" stroke-miterlimit="10"/>
<path d="M248.28 81.0086C247.682 81.0885 247.256 81.6538 247.326 82.2724L247.809 86.6491C247.847 86.9883 248.032 87.2743 248.28 87.4473L249.443 99.2271C249.481 99.6395 249.837 99.9388 250.238 99.8922C250.391 99.8723 250.524 99.8124 250.626 99.7126C250.804 99.553 250.906 99.3135 250.88 99.0541L249.71 87.2145C249.895 86.9817 249.996 86.6824 249.958 86.3631L249.475 81.9864C249.411 81.3678 248.871 80.9288 248.28 81.0086Z" fill="#201E23"/>
<path d="M248.712 90.753L245.386 96.48L244.051 96.0343L242.029 92.0035L239.765 87.6202L237.953 88.4184L239.536 91.3184L240.719 93.8327L242.925 97.1518L243.44 98.2094L245.71 98.675L250.613 93.2806L251.974 90.0613L248.712 90.753Z" fill="#FF5100"/>
<path d="M205.277 108.785C204.425 106.936 202.308 105.672 201.424 105.639C200.801 105.612 199.573 105.812 198.906 105.859C197.793 105.938 197.017 105.898 196.203 105.479C195.364 105.054 194.436 104.482 193.527 103.664C192.776 102.992 192.007 102.293 191.295 102.014C190.029 101.522 188.929 102.619 188.885 102.672L187.988 101.728C188.058 101.655 189.686 99.533 191.727 100.331C192.649 100.69 193.762 101.342 194.595 102.087C195.351 102.766 196.509 103.876 197.113 104.029C197.914 104.229 198.251 104.069 199.319 103.989C200.019 103.936 200.902 103.963 201.595 103.989C203.141 104.056 205.169 106.264 206.11 108.313L205.277 108.785Z" fill="black"/>
<path d="M242.983 93.0012L242.283 93.9523L240.458 94.0854L237.114 89.0768L237.057 87.9194L238.818 86.7155L240.706 87.7864L242.983 93.0012Z" fill="#050606"/>
<path d="M229.077 90.0347C229.077 90.0347 240.732 88.4982 243.879 88.8241C247.027 89.1567 257.321 91.6776 257.321 91.6776L270.025 94.8637L268.715 95.5754L267.558 96.0676L248.184 91.671C248.184 91.671 244.827 90.8994 243.771 90.9593C240.725 91.1189 229.07 92.7685 229.07 92.7685V90.0347H229.077Z" fill="#B26416"/>
<path d="M264.818 140.273L249.907 141.151" stroke="black" stroke-width="2" stroke-miterlimit="10"/>
<path d="M250.213 143.672H242.277L242.583 139.568C242.583 139.568 244.522 138.903 245.202 138.837C245.914 138.77 248.051 139.056 248.051 139.056L250.671 140.227L250.213 143.672Z" fill="black"/>
<path d="M249.971 132.584L250.2 141.551" stroke="black" stroke-width="0.1617" stroke-miterlimit="10"/>
<path d="M248.674 132.664L250.124 141.63" stroke="black" stroke-width="0.1617" stroke-miterlimit="10"/>
<path d="M251.122 133.442L250.162 141.59" stroke="black" stroke-width="0.1617" stroke-miterlimit="10"/>
<path d="M252.19 133.948L250.162 141.55" stroke="black" stroke-width="0.1617" stroke-miterlimit="10"/>
<path d="M253.068 134.806L250.086 141.59" stroke="black" stroke-width="0.1617" stroke-miterlimit="10"/>
<path d="M254.06 135.624L250.048 141.63" stroke="black" stroke-width="0.1617" stroke-miterlimit="10"/>
<path d="M242.945 136.209L250.162 141.59" stroke="black" stroke-width="0.1617" stroke-miterlimit="10"/>
<path d="M242.335 137.653L250.086 141.55" stroke="black" stroke-width="0.1617" stroke-miterlimit="10"/>
<path d="M242.029 139.056L250.162 141.551" stroke="black" stroke-width="0.1617" stroke-miterlimit="10"/>
<path d="M241.991 140.386L250.162 141.517" stroke="black" stroke-width="0.1617" stroke-miterlimit="10"/>
<path d="M241.991 141.63L250.162 141.551" stroke="black" stroke-width="0.1617" stroke-miterlimit="10"/>
<path d="M242.144 142.921L250.162 141.477" stroke="black" stroke-width="0.1617" stroke-miterlimit="10"/>
<path d="M243.975 135.471L250.199 141.437" stroke="black" stroke-width="0.1617" stroke-miterlimit="10"/>
<path d="M244.624 134.926L250.277 141.437" stroke="black" stroke-width="0.1617" stroke-miterlimit="10"/>
<path d="M242.335 144.051L250.2 141.517" stroke="black" stroke-width="0.1617" stroke-miterlimit="10"/>
<path d="M242.83 145.262L250.2 141.437" stroke="black" stroke-width="0.1617" stroke-miterlimit="10"/>
<path d="M243.212 146.313L250.238 141.437" stroke="black" stroke-width="0.1617" stroke-miterlimit="10"/>
<path d="M244.014 147.484L250.201 141.437" stroke="black" stroke-width="0.1617" stroke-miterlimit="10"/>
<path d="M244.662 148.495L250.2 141.398" stroke="black" stroke-width="0.1617" stroke-miterlimit="10"/>
<path d="M245.812 149.16L250.2 141.398" stroke="black" stroke-width="0.1617" stroke-miterlimit="10"/>
<path d="M246.614 149.665L250.2 141.318" stroke="black" stroke-width="0.1617" stroke-miterlimit="10"/>
<path d="M247.567 150.291L250.2 141.318" stroke="black" stroke-width="0.1617" stroke-miterlimit="10"/>
<path d="M254.975 136.642L250.2 141.245" stroke="black" stroke-width="0.1617" stroke-miterlimit="10"/>
<path d="M255.51 138.005L250.2 141.245" stroke="black" stroke-width="0.1617" stroke-miterlimit="10"/>
<path d="M255.7 139.489L250.124 141.245" stroke="black" stroke-width="0.1617" stroke-miterlimit="10"/>
<path d="M256.12 140.732L250.2 141.205" stroke="black" stroke-width="0.1617" stroke-miterlimit="10"/>
<path d="M256.234 141.983L250.162 141.205" stroke="black" stroke-width="0.1617" stroke-miterlimit="10"/>
<path d="M256.279 143.426L250.086 141.245" stroke="black" stroke-width="0.1617" stroke-miterlimit="10"/>
<path d="M256.044 144.677L250.048 141.245" stroke="black" stroke-width="0.1617" stroke-miterlimit="10"/>
<path d="M255.815 146.04L250.048 141.318" stroke="black" stroke-width="0.1617" stroke-miterlimit="10"/>
<path d="M255.013 146.898L250.009 141.358" stroke="black" stroke-width="0.1617" stroke-miterlimit="10"/>
<path d="M254.059 148.727L250.009 141.358" stroke="black" stroke-width="0.1617" stroke-miterlimit="10"/>
<path d="M252.991 149.785L250.009 141.358" stroke="black" stroke-width="0.1617" stroke-miterlimit="10"/>
<path d="M251.579 150.483L249.971 141.358" stroke="black" stroke-width="0.1617" stroke-miterlimit="10"/>
<path d="M250.428 150.836L249.971 141.358" stroke="black" stroke-width="0.1617" stroke-miterlimit="10"/>
<path d="M248.75 151.069L249.933 141.318" stroke="black" stroke-width="0.1617" stroke-miterlimit="10"/>
<path d="M249.202 152C244.178 152.007 240.599 147.397 240.599 141.717C240.599 136.036 244.547 131.394 249.202 131.394C253.856 131.394 257.856 135.345 257.817 141.677C257.779 147.683 253.85 152 249.202 152ZM249.411 133.622C246.175 133.622 242.869 137.114 242.869 141.75C242.869 146.386 245.298 150.071 248.966 150.025C251.999 149.985 255.853 146.333 255.853 141.697C255.853 137.061 253.08 133.622 249.411 133.622Z" fill="black"/>
<path d="M219.107 128.773L204.196 129.651" stroke="black" stroke-width="2" stroke-miterlimit="10"/>
<path d="M206.085 132.511H198.874L199.154 128.407C199.154 128.407 200.915 127.742 201.532 127.675C202.18 127.609 204.12 127.895 204.12 127.895L206.498 129.066L206.085 132.511Z" fill="black"/>
<path d="M201.983 84.7002L201.176 35.5988L201.309 35.4991C201.36 35.4592 206.555 31.5946 216.894 29.1934C227.087 26.8255 235.276 26.2867 235.327 26.2867L236.116 26.5062C236.058 26.5062 227.169 27.484 217.027 29.8453C207.744 32.007 202.676 35.3394 201.812 35.9447L202.613 84.6935L201.983 84.7002Z" fill="#CDC99B"/>
<path d="M217.6 84.1149L216.373 39.8558L216.5 39.7494C216.666 39.6164 220.71 36.3837 231.951 33.6566C243.161 30.9362 250.207 30.7167 250.27 30.71L251.135 30.9827C250.13 30.9894 243.231 31.5947 232.098 34.3018C222.089 36.7363 217.785 39.6164 217.015 40.1751L218.236 84.0883L217.6 84.1149Z" fill="#CDC99B"/>
<path d="M156.603 32.9781L155.789 32.7586C155.942 32.6987 173.001 25.6215 181.833 22.5751C190.697 19.5221 205.207 18.3514 205.322 18.3448L206.212 18.5909C206.097 18.5975 190.812 20.1806 182.031 23.207C173.218 26.2401 156.756 32.9116 156.603 32.9781Z" fill="#CDC99B"/>
<path d="M189.337 82.6781L192.084 77.5165L196.357 78.3214L197.756 80.9554L198.735 79.1994L204.826 81.1017L204.267 84.2545L191.664 83.4497L189.337 82.6781Z" fill="#662F12"/>
<path d="M220.715 80.5895C220.715 80.5895 221.135 79.7847 221.065 78.6141C220.995 77.4434 220.645 75.7606 219.876 74.7362C219.107 73.7119 218.897 73.7851 217.778 73.4924C216.659 73.1997 206.371 69.9804 206.371 69.9804L206.091 81.7669L220.715 80.5895Z" fill="#201E23"/>
<path d="M210.708 75.3216C210.708 78.5675 208.635 81.7669 205.786 81.7669C202.938 81.7669 200.623 79.1329 200.623 75.8869C200.623 72.641 202.931 70.007 205.786 70.007C208.641 70.007 210.708 72.069 210.708 75.3216Z" fill="#141519"/>
<path d="M192.503 83.2301L223.233 80.0042L223.723 91.7241L216.303 90.1809L192.503 83.2301Z" fill="#D1840E"/>
<path d="M228.625 81.3211L229.255 93.4069L223.653 91.6509V90.0346L223.233 80.0042L228.625 81.3211Z" fill="#662F12"/>
<path d="M20.582 69.1689L39.0598 74.5167L78.5396 72.2419L78.3997 68.5836L58.7329 63.1626L51.9421 61.4066L43.3327 61.1871L28.492 65.4308L20.582 69.1689Z" fill="#9B926B"/>
<path d="M20.8618 115.45L7.68066 120.352L21.3514 113.687L20.8618 115.45Z" fill="#DED4B0"/>
<path d="M87.4294 116.767C87.4294 116.767 76.8616 117.499 67.8961 120.425C65.0157 121.37 61.2515 122.667 57.5826 123.951C50.849 126.312 44.446 128.627 44.446 128.627C44.446 128.627 44.3761 127.695 42.8246 126.897C40.9679 125.946 38.2846 126.066 38.2846 126.066C38.2846 126.066 37.7314 124.922 35.8366 124.602C33.9609 124.283 31.7735 124.822 31.7735 124.822C31.7735 124.822 31.0932 123.565 29.8024 123.272C27.7995 122.827 25.6122 123.498 25.6122 123.498C25.6122 123.498 24.8428 122.254 23.4249 122.008C22.204 121.796 20.5 121.815 19.6606 121.962C18.8213 122.108 18.8213 122.108 18.8213 122.108C18.8213 122.108 18.5415 121.124 17.0028 121.011C14.8409 120.858 13.5946 121.337 13.5946 121.337C13.5946 121.337 12.7871 120.352 11.401 120.226C9.30266 120.033 7.62402 120.279 7.62402 120.279L19.8069 115.31L22.8844 114.053L46.2709 108.419L59.7127 109.81L87.4294 116.767Z" fill="#88866D"/>
<path d="M21.0723 93.2606L21.2821 114.718L38.6408 110.395L38.7806 86.3032L21.0723 93.2606Z" fill="#9B926B"/>
<path d="M21.1416 103.584L33.1083 96.8458L33.1782 111.346L21.2815 114.718L21.1416 103.584Z" fill="#88866D"/>
<path d="M38.8505 80.7359L20.9322 90.1079L20.8623 95.2362L38.7106 87.4007L38.8505 80.7359Z" fill="#88866D"/>
<path d="M78.5399 69.8274L59.7823 72.5346C59.7823 72.5346 44.7318 73.9247 43.263 73.9247C41.7942 73.9247 38.8502 73.8515 38.8502 73.8515L38.7803 109.73L50.0475 108.779L61.8806 109.949L79.7289 114.639L78.5399 69.8274Z" fill="#D2C8A9"/>
<path d="M0.0703125 68.4373L20.7926 76.6386L38.8507 78.3214L38.7808 73.5589L21.2123 68.4373H0.0703125Z" fill="#BCB598"/>
<path d="M20.5824 76.3458L0 87.0348L0.41966 109.151L21.3518 113.687L20.5824 76.3458Z" fill="#DED4B0"/>
<path d="M94.3604 83.6691C94.3604 83.6691 133.421 92.8948 140.701 94.9434C147.981 96.9921 159.738 100.364 159.738 100.364L174.159 95.2028L218.262 105.785C218.262 105.785 208.463 109.297 206.359 110.475C204.254 111.652 204.26 111.645 204.26 111.645L264.602 126.877C264.602 126.877 288.122 119.261 294.564 117.359C301.005 115.457 315.756 117.013 315.756 117.013L148.541 71.9625C148.541 71.9625 140.421 70.0602 131.042 71.3772C121.664 72.6809 94.3604 83.6691 94.3604 83.6691Z" fill="#EFEAB3"/>
<path d="M228.556 92.8416L200.203 97.5109L200.152 98.8811C200.152 98.8811 200.311 99.1539 200.68 99.2137C201.049 99.2669 214.383 100.584 220.735 100.364C227.087 100.145 234.119 99.4332 234.119 99.4332L234.081 92.09L228.556 92.8416Z" fill="#662F12"/>
<path d="M202.899 101.096L220.226 147.377L216.513 105.706" stroke="#5D3912" stroke-width="2" stroke-miterlimit="10" stroke-linejoin="round"/>
<path d="M223.31 116.428L221.969 116.142C222.115 116.082 235.856 111.04 244.332 108.073C252.833 105.1 266.319 103.85 266.434 103.843L267.763 104.209C267.654 104.216 252.954 105.745 244.522 108.692C236.059 111.645 223.457 116.368 223.31 116.428Z" fill="#CDC99B"/>
<path d="M20.6584 115.59L19.9463 68.5969L21.218 68.577L21.9047 113.854C25.2365 112.896 38.2079 109.244 44.5791 108.353C50.7468 107.495 57.5694 108.486 59.8331 108.878L59.14 63.0562L152.8 31.8873L155.166 32.4394L60.4244 64.0141L61.1302 110.468L60.3608 110.315C60.2782 110.302 51.904 108.666 44.7444 109.663C37.5211 110.668 21.6122 115.31 21.4533 115.357L20.6584 115.59Z" fill="#CB941E"/>
<path d="M107.662 8.53387L272.728 55.8393" stroke="#CDC99B" stroke-miterlimit="10"/>
<path d="M173.746 37.5344L172.614 37.2617C172.767 37.2019 191.302 29.6591 200.134 26.6127C208.998 23.5596 220.328 22.7216 220.443 22.7149L221.676 23.094C221.562 23.1007 209.118 24.2181 200.331 27.2446C191.518 30.2777 173.899 37.4679 173.746 37.5344Z" fill="#CDC99B"/>
<path d="M108.692 78.1751L105.913 9.30547L107.172 8.64697L109.957 77.7893L108.692 78.1751Z" fill="#CB941E"/>
<path d="M181.929 81.1149L179.023 13.15L180.282 13.6156L183.201 81.0551L181.929 81.1149Z" fill="#CB941E"/>
<path d="M171.291 28.1425L172.486 78.2482" stroke="#CB941E" stroke-width="2" stroke-miterlimit="10"/>
<path d="M187.429 31.7934L186.158 31.8338L187.656 82.6455L188.927 82.605L187.429 31.7934Z" fill="#CB941E"/>
<path d="M218.789 106.185L278.012 121.343" stroke="#CDC99B" stroke-miterlimit="10"/>
<path d="M116.761 89.0103L115.362 88.7177C115.515 88.6578 129.834 83.4763 138.666 80.4365C147.53 77.3835 162.04 76.2128 162.154 76.2062L163.045 76.4523C162.93 76.4589 147.644 78.042 138.863 81.0684C130.05 84.1082 116.914 88.9505 116.761 89.0103Z" fill="#CDC99B"/>
<path d="M221.346 130.462C221.346 130.462 221.339 130.462 221.346 130.462C221.04 130.462 220.78 130.236 220.722 129.924L212.882 88.6245C212.876 88.5912 212.87 88.558 212.87 88.5181L210.523 22.6417L211.782 23.0541L214.141 88.4117L221.377 126.525L227.717 93.4668L229.186 93.6863L221.969 129.93C221.905 130.25 221.644 130.462 221.346 130.462Z" fill="#CB941E"/>
<path d="M275.17 105.958L273.154 57.3026L274.388 56.9501L276.442 105.898L275.17 105.958Z" fill="#563429"/>
<path d="M256.742 124.895L255.433 124.609C255.579 124.549 269.428 119.587 277.993 116.667C286.589 113.741 298.696 112.703 299.675 112.67L300.794 112.962C300.686 112.969 286.71 114.366 278.19 117.273C269.637 120.186 256.895 124.835 256.742 124.895Z" fill="#CDC99B"/>
<path d="M354.485 53.059L258.688 101.242" stroke="#CB941E" stroke-width="2" stroke-miterlimit="10"/>
<path d="M239.734 120.572L238.424 120.279C238.576 120.219 252.451 115.191 261.041 112.231C269.657 109.264 281.795 108.213 282.774 108.18L283.9 108.473C283.792 108.479 269.778 109.896 261.238 112.843C252.654 115.796 239.88 120.512 239.734 120.572Z" fill="#CDC99B"/>
<path d="M216.303 106.071L95.9053 118.669" stroke="#CB941E" stroke-width="2" stroke-miterlimit="10" stroke-linejoin="round"/>
<path d="M244.045 97.451L265.448 141.517L257.639 101.169" stroke="#CB941E" stroke-width="2" stroke-miterlimit="10" stroke-linejoin="round"/>
<path d="M234.119 99.4266L247.339 101.974L246.938 98.0564L234.018 95.0898L234.119 99.4266Z" fill="#050606"/>
<path d="M287.041 108.599L284.154 44.1527L285.439 44.3789L288.459 108.985L287.041 108.599Z" fill="#CB941E"/>
<path d="M20.3027 69.0957C20.3027 69.0957 34.0243 62.4309 44.2424 61.4066C54.4605 60.3823 59.7826 63.5284 59.7826 63.5284L95.9751 73.0999" stroke="#CB941E" stroke-width="2" stroke-miterlimit="10"/>
<path d="M38.6406 110.029L38.7805 73.5589C38.7805 73.5589 44.5922 70.4127 50.3339 68.8696C56.0756 67.3264 68.6908 65.9762 68.6908 65.9762" stroke="#CB941E" stroke-width="2" stroke-miterlimit="10"/>
<path d="M78.4004 68.291L79.3796 114.353" stroke="#CB941E" stroke-width="2" stroke-miterlimit="10"/>
<path d="M96.0445 119.308L56.9971 109.47L148.051 97.0653L151.414 97.8701L63.966 109.856L96.6804 118.097L96.0445 119.308Z" fill="#CB941E"/>
<path d="M203.795 149.226C203.865 149.758 209.359 150.224 214.611 149.512C219.863 148.801 243.93 145.136 253.373 144.331C263.451 143.479 276.015 143.759 285.19 138.351C294.359 132.937 298.963 124.237 298.963 124.237C298.963 124.237 298.893 123.738 298.054 124.596C297.214 125.447 290.811 133.07 283.461 137.021C276.346 140.845 263.928 141.131 263.928 141.131C263.928 141.131 246.251 142.608 237.012 144.032C227.773 145.455 218.744 147.164 212.653 147.876C206.561 148.581 203.719 148.661 203.795 149.226Z" fill="#5D3912"/>
<path d="M243.702 150.956C238.596 150.962 234.959 146.353 234.959 140.672C234.959 134.992 238.971 130.349 243.702 130.349C248.433 130.349 252.496 134.3 252.458 140.633C252.426 146.646 248.433 150.956 243.702 150.956ZM243.918 132.584C240.631 132.584 237.267 136.076 237.267 140.712C237.267 145.349 239.734 149.033 243.46 148.987C246.538 148.947 250.461 145.295 250.461 140.659C250.461 136.023 247.65 132.584 243.918 132.584Z" fill="black"/>
<path d="M354.765 42.696L349.729 53.4781L349.31 65.4308L353.926 52.9592L354.765 42.696Z" stroke="#706F6F" stroke-width="0.4709" stroke-miterlimit="10" stroke-linejoin="round"/>
<path d="M108.514 78.8601L173.898 95.4223" stroke="#CDC99B" stroke-miterlimit="10"/>
<path d="M328.817 65.3443L328.416 55.6464L329.643 56.0389L330.171 65.7966L328.817 65.3443Z" fill="#CB941E"/>
<path d="M246.353 89.2697L245.215 48.077H245.425C245.495 48.0437 252.705 44.9907 261.486 42.8822C270.267 40.7736 280.905 40.2814 280.975 40.2748L282.05 40.5741C281.98 40.5741 270.35 41.4321 261.626 43.5274C253.703 45.4297 246.976 47.9706 245.768 48.5093L247.345 89.4227L246.353 89.2697Z" fill="#CDC99B"/>
<path d="M359 52.6532L350.727 54.5489L329.604 59.3912L287.32 47.8242L317.701 40.9399L359 52.6532Z" fill="#DED4B0"/>
<path d="M243.168 132.012L242.958 140.5" stroke="black" stroke-width="0.1511" stroke-miterlimit="10"/>
<path d="M244.369 132.085L243.027 140.572" stroke="black" stroke-width="0.1511" stroke-miterlimit="10"/>
<path d="M242.112 132.824L242.99 140.533" stroke="black" stroke-width="0.1511" stroke-miterlimit="10"/>
<path d="M241.12 133.303L242.99 140.5" stroke="black" stroke-width="0.1511" stroke-miterlimit="10"/>
<path d="M240.211 133.808L243.06 140.533" stroke="black" stroke-width="0.1511" stroke-miterlimit="10"/>
<path d="M239.397 134.892L243.098 140.573" stroke="black" stroke-width="0.1511" stroke-miterlimit="10"/>
<path d="M249.659 135.444L242.989 140.533" stroke="black" stroke-width="0.1511" stroke-miterlimit="10"/>
<path d="M250.219 136.808L243.06 140.5" stroke="black" stroke-width="0.1511" stroke-miterlimit="10"/>
<path d="M250.505 138.138L242.989 140.5" stroke="black" stroke-width="0.1511" stroke-miterlimit="10"/>
<path d="M250.537 139.389L242.989 140.46" stroke="black" stroke-width="0.1511" stroke-miterlimit="10"/>
<path d="M250.537 140.572L242.989 140.5" stroke="black" stroke-width="0.1511" stroke-miterlimit="10"/>
<path d="M250.397 141.79L242.989 140.426" stroke="black" stroke-width="0.1511" stroke-miterlimit="10"/>
<path d="M248.706 134.739L242.958 140.386" stroke="black" stroke-width="0.1511" stroke-miterlimit="10"/>
<path d="M247.847 133.835L242.888 140.386" stroke="black" stroke-width="0.1511" stroke-miterlimit="10"/>
<path d="M250.219 142.861L242.958 140.46" stroke="black" stroke-width="0.1511" stroke-miterlimit="10"/>
<path d="M249.762 144.005L242.958 140.386" stroke="black" stroke-width="0.1511" stroke-miterlimit="10"/>
<path d="M249.412 144.996L242.92 140.386" stroke="black" stroke-width="0.1511" stroke-miterlimit="10"/>
<path d="M248.668 146.107L242.958 140.386" stroke="black" stroke-width="0.1511" stroke-miterlimit="10"/>
<path d="M248.07 147.065L242.958 140.347" stroke="black" stroke-width="0.1511" stroke-miterlimit="10"/>
<path d="M247.015 147.69L242.958 140.347" stroke="black" stroke-width="0.1511" stroke-miterlimit="10"/>
<path d="M246.271 148.169L242.958 140.273" stroke="black" stroke-width="0.1511" stroke-miterlimit="10"/>
<path d="M245.393 148.761L242.958 140.273" stroke="black" stroke-width="0.1511" stroke-miterlimit="10"/>
<path d="M238.545 135.85L242.958 140.2" stroke="black" stroke-width="0.1511" stroke-miterlimit="10"/>
<path d="M237.693 136.968L242.958 140.2" stroke="black" stroke-width="0.1511" stroke-miterlimit="10"/>
<path d="M237.426 138.338L243.028 140.2" stroke="black" stroke-width="0.1511" stroke-miterlimit="10"/>
<path d="M237.273 139.715L242.958 140.167" stroke="black" stroke-width="0.1511" stroke-miterlimit="10"/>
<path d="M237.089 140.892L242.99 140.167" stroke="black" stroke-width="0.1511" stroke-miterlimit="10"/>
<path d="M237.35 142.269L243.06 140.2" stroke="black" stroke-width="0.1511" stroke-miterlimit="10"/>
<path d="M237.56 143.446L243.098 140.2" stroke="black" stroke-width="0.1511" stroke-miterlimit="10"/>
<path d="M237.77 144.743L243.098 140.273" stroke="black" stroke-width="0.1511" stroke-miterlimit="10"/>
<path d="M238.322 145.921L243.136 140.313" stroke="black" stroke-width="0.1511" stroke-miterlimit="10"/>
<path d="M239.397 147.284L243.136 140.313" stroke="black" stroke-width="0.1511" stroke-miterlimit="10"/>
<path d="M240.383 148.282L243.136 140.313" stroke="black" stroke-width="0.1511" stroke-miterlimit="10"/>
<path d="M241.687 148.947L243.168 140.313" stroke="black" stroke-width="0.1511" stroke-miterlimit="10"/>
<path d="M242.748 149.28L243.168 140.313" stroke="black" stroke-width="0.1511" stroke-miterlimit="10"/>
<path d="M244.3 149.499L243.206 140.273" stroke="black" stroke-width="0.1511" stroke-miterlimit="10"/>
<path d="M314.185 116.235L312.507 54.6687L313.868 55.0478L315.762 116.947L314.185 116.235Z" fill="#CB941E"/>
<path d="M132.225 92.7817L130.877 92.4824C131.03 92.4225 145.298 87.2477 154.13 84.2079C162.994 81.1549 175.469 80.0773 176.474 80.0441L177.631 80.3434C177.516 80.35 163.114 81.8067 154.327 84.8332C145.514 87.8729 132.378 92.7218 132.225 92.7817Z" fill="#CDC99B"/>
<path d="M145.812 1.72272L148.121 71.8029" stroke="#CB941E" stroke-width="2" stroke-miterlimit="10"/>
<path d="M149.603 97.3978L148.255 97.0985C148.407 97.0387 162.676 91.8638 171.508 88.8241C180.372 85.771 192.847 84.6935 193.852 84.6602L195.009 84.9595C194.894 84.9662 180.492 86.4229 171.705 89.4493C162.892 92.489 149.755 97.3313 149.603 97.3978Z" fill="#CDC99B"/>
<path d="M257.957 91.9037L255.516 35.9979L256.775 36.4103L259.267 92.1764L257.957 91.9037Z" fill="#CB941E"/>
<path d="M23.3105 67.1202L23.3169 55.0478L24.5886 55.0411L24.7794 67.1934L23.3105 67.1202Z" fill="#CB941E"/>
<path d="M149.597 71.6366L314.186 115.736L315.814 117L145.394 71.8029C147.021 71.0912 149.597 71.6366 149.597 71.6366Z" fill="#91836C"/>
<path d="M206.549 121.416L206.759 129.837" stroke="black" stroke-width="0.15" stroke-miterlimit="10"/>
<path d="M205.359 121.489L206.688 129.91" stroke="black" stroke-width="0.15" stroke-miterlimit="10"/>
<path d="M207.598 122.221L206.727 129.87" stroke="black" stroke-width="0.15" stroke-miterlimit="10"/>
<path d="M208.577 122.694L206.727 129.837" stroke="black" stroke-width="0.15" stroke-miterlimit="10"/>
<path d="M209.384 123.498L206.656 129.87" stroke="black" stroke-width="0.15" stroke-miterlimit="10"/>
<path d="M210.293 124.27L206.618 129.91" stroke="black" stroke-width="0.15" stroke-miterlimit="10"/>
<path d="M200.107 124.815L206.727 129.87" stroke="black" stroke-width="0.15" stroke-miterlimit="10"/>
<path d="M199.548 126.172L206.657 129.837" stroke="black" stroke-width="0.15" stroke-miterlimit="10"/>
<path d="M199.269 127.489L206.727 129.837" stroke="black" stroke-width="0.15" stroke-miterlimit="10"/>
<path d="M199.236 128.733L206.727 129.797" stroke="black" stroke-width="0.15" stroke-miterlimit="10"/>
<path d="M199.236 129.91L206.727 129.837" stroke="black" stroke-width="0.15" stroke-miterlimit="10"/>
<path d="M199.376 131.114L206.726 129.764" stroke="black" stroke-width="0.15" stroke-miterlimit="10"/>
<path d="M201.055 124.124L206.758 129.724" stroke="black" stroke-width="0.15" stroke-miterlimit="10"/>
<path d="M201.652 123.611L206.828 129.724" stroke="black" stroke-width="0.15" stroke-miterlimit="10"/>
<path d="M199.548 132.178L206.758 129.797" stroke="black" stroke-width="0.15" stroke-miterlimit="10"/>
<path d="M200.006 133.316L206.759 129.724" stroke="black" stroke-width="0.15" stroke-miterlimit="10"/>
<path d="M200.355 134.3L206.797 129.724" stroke="black" stroke-width="0.15" stroke-miterlimit="10"/>
<path d="M201.087 135.398L206.759 129.724" stroke="black" stroke-width="0.15" stroke-miterlimit="10"/>
<path d="M201.685 136.349L206.759 129.691" stroke="black" stroke-width="0.15" stroke-miterlimit="10"/>
<path d="M202.733 136.974L206.758 129.691" stroke="black" stroke-width="0.15" stroke-miterlimit="10"/>
<path d="M203.471 137.453L206.758 129.618" stroke="black" stroke-width="0.15" stroke-miterlimit="10"/>
<path d="M204.342 138.038L206.758 129.618" stroke="black" stroke-width="0.15" stroke-miterlimit="10"/>
<path d="M211.133 125.221L206.759 129.545" stroke="black" stroke-width="0.15" stroke-miterlimit="10"/>
<path d="M211.623 126.505L206.759 129.545" stroke="black" stroke-width="0.15" stroke-miterlimit="10"/>
<path d="M211.801 127.895L206.688 129.545" stroke="black" stroke-width="0.15" stroke-miterlimit="10"/>
<path d="M212.183 129.066L206.759 129.505" stroke="black" stroke-width="0.15" stroke-miterlimit="10"/>
<path d="M212.29 130.236L206.727 129.505" stroke="black" stroke-width="0.15" stroke-miterlimit="10"/>
<path d="M212.322 131.593L206.656 129.545" stroke="black" stroke-width="0.15" stroke-miterlimit="10"/>
<path d="M212.112 132.764L206.618 129.545" stroke="black" stroke-width="0.15" stroke-miterlimit="10"/>
<path d="M211.902 134.048L206.618 129.618" stroke="black" stroke-width="0.15" stroke-miterlimit="10"/>
<path d="M211.171 134.852L206.587 129.651" stroke="black" stroke-width="0.15" stroke-miterlimit="10"/>
<path d="M210.294 136.569L206.587 129.651" stroke="black" stroke-width="0.15" stroke-miterlimit="10"/>
<path d="M209.315 137.56L206.587 129.651" stroke="black" stroke-width="0.15" stroke-miterlimit="10"/>
<path d="M208.018 138.218L206.549 129.651" stroke="black" stroke-width="0.15" stroke-miterlimit="10"/>
<path d="M206.968 138.551L206.549 129.651" stroke="black" stroke-width="0.15" stroke-miterlimit="10"/>
<path d="M205.43 138.77L206.517 129.618" stroke="black" stroke-width="0.15" stroke-miterlimit="10"/>
<path d="M205.157 140.839C200.134 140.845 196.827 136.056 196.827 130.23C196.827 124.403 201.062 119.64 205.716 119.64C210.371 119.64 214.396 123.372 214.326 130.183C214.262 136.342 209.811 140.839 205.157 140.839ZM205.685 122.161C202.448 122.161 199.383 126.518 199.282 130.289C199.148 135.045 202.079 138.344 205.303 138.344C207.891 138.344 211.884 134.932 211.884 130.176C211.884 125.421 209.353 122.161 205.685 122.161Z" fill="black"/>
<path d="M317.701 40.9399L303.051 41.5984L287.32 47.8242L317.701 40.9399Z" fill="#BCB598"/>
<path d="M93.1005 13.9748L124.759 3.21268C124.759 3.21268 130.221 1.56311 134.418 1.34361C137.667 1.17067 143.784 2.16174 147.332 2.49432C150.028 2.74707 150.689 2.44111 150.689 2.44111C150.689 2.44111 145.437 0.738322 141.031 0.352536C136.618 -0.0332512 132.58 -0.744961 123.125 2.38789C117.466 4.26362 101.252 9.71784 94.6201 12.4915C92.5218 13.3695 93.1005 13.9748 93.1005 13.9748Z" fill="#CB941E"/>
<path d="M94.1688 83.7025L125.828 72.9403C125.828 72.9403 131.29 71.2908 135.486 71.0713C138.735 70.8983 144.852 71.8894 148.4 72.222C151.096 72.4747 151.758 72.1688 151.758 72.1688C151.758 72.1688 146.505 70.466 142.099 70.0802C137.686 69.6944 133.649 68.9827 124.194 72.1156C118.535 73.9913 102.32 79.4455 95.6885 82.2192C93.5902 83.0972 94.1688 83.7025 94.1688 83.7025Z" fill="#CB941E"/>
<path d="M310.301 30.7233L247.091 73.4791" stroke="#EDEDED" stroke-width="0.5" stroke-miterlimit="10"/>
<path d="M152.858 21.3912L152.14 21.185C152.241 21.1451 164.291 16.662 170.02 14.8794C175.768 13.0968 183.055 12.8108 183.131 12.8108L184.612 13.2564C184.543 13.2564 175.978 13.6821 170.28 15.4514C164.558 17.234 152.96 21.3513 152.858 21.3912Z" fill="#CDC99B"/>
<path d="M150.118 2.27484L298.169 43.574L296.121 44.2857L143.715 2.00213C145.343 1.28376 150.118 2.27484 150.118 2.27484Z" fill="#91836C"/>
<path d="M221.364 90.8594L219.946 90.5069L307.744 42.4033L308.336 43.5806L221.364 90.8594Z" fill="#CB941E"/>
<path d="M309.493 41.8778C309.493 43.3012 308.533 44.1992 307.382 44.1593C306.288 44.126 305.525 43.3012 305.525 41.8778C305.525 40.4544 306.46 39.3768 307.554 39.4367C308.845 39.5099 309.493 40.4544 309.493 41.8778Z" fill="#706F6F"/>
<path d="M305.856 51.9548L251.421 74.8825" stroke="#EDEDED" stroke-width="0.5" stroke-miterlimit="10"/>
<path d="M310.351 30.5037L305.837 41.2126L305.907 52.0346L309.302 42.2037L310.351 30.5037Z" stroke="#706F6F" stroke-width="0.4269" stroke-miterlimit="10" stroke-linejoin="round"/>
<path d="M174.096 94.5045L175.495 136.682L189.986 97.7238" stroke="#5D3912" stroke-width="2" stroke-miterlimit="10" stroke-linejoin="round"/>
<path d="M159.916 138.291C159.986 138.843 165.48 139.316 170.732 138.584C175.984 137.852 200.051 134.081 209.493 133.256C219.572 132.378 232.136 132.671 241.311 127.103C250.487 121.536 255.084 112.583 255.084 112.583C255.084 112.583 255.014 112.071 254.174 112.949C253.335 113.827 246.932 121.663 239.582 125.727C232.467 129.658 220.048 129.957 220.048 129.957C220.048 129.957 202.372 131.474 193.133 132.943C183.894 134.407 174.865 136.163 168.774 136.894C162.682 137.633 159.846 137.713 159.916 138.291Z" fill="#5D3912"/>
<path d="M199.364 139.575C194.341 139.582 191.034 134.793 191.034 128.966C191.034 123.139 195.269 118.377 199.923 118.377C204.578 118.377 208.603 122.108 208.533 128.919C208.469 135.079 204.018 139.575 199.364 139.575ZM199.892 120.904C196.655 120.904 193.59 125.261 193.489 129.032C193.355 133.788 196.286 137.087 199.51 137.087C202.098 137.087 206.091 133.675 206.091 128.919C206.085 124.164 203.56 120.904 199.892 120.904Z" fill="black"/>
<path d="M199.084 120.206L198.874 128.627" stroke="black" stroke-width="0.15" stroke-miterlimit="10"/>
<path d="M200.273 120.279L198.944 128.699" stroke="black" stroke-width="0.15" stroke-miterlimit="10"/>
<path d="M198.035 121.011L198.913 128.667" stroke="black" stroke-width="0.15" stroke-miterlimit="10"/>
<path d="M197.056 121.49L198.912 128.627" stroke="black" stroke-width="0.15" stroke-miterlimit="10"/>
<path d="M196.248 122.294L198.982 128.667" stroke="black" stroke-width="0.15" stroke-miterlimit="10"/>
<path d="M195.339 123.066L199.014 128.7" stroke="black" stroke-width="0.15" stroke-miterlimit="10"/>
<path d="M205.525 123.612L198.912 128.667" stroke="black" stroke-width="0.15" stroke-miterlimit="10"/>
<path d="M206.085 124.968L198.982 128.627" stroke="black" stroke-width="0.15" stroke-miterlimit="10"/>
<path d="M206.364 126.285L198.912 128.627" stroke="black" stroke-width="0.15" stroke-miterlimit="10"/>
<path d="M206.396 127.529L198.912 128.593" stroke="black" stroke-width="0.15" stroke-miterlimit="10"/>
<path d="M206.396 128.699L198.912 128.627" stroke="black" stroke-width="0.15" stroke-miterlimit="10"/>
<path d="M206.256 129.91L198.912 128.553" stroke="black" stroke-width="0.15" stroke-miterlimit="10"/>
<path d="M204.578 122.92L198.874 128.52" stroke="black" stroke-width="0.15" stroke-miterlimit="10"/>
<path d="M203.987 122.407L198.805 128.52" stroke="black" stroke-width="0.15" stroke-miterlimit="10"/>
<path d="M206.085 130.975L198.874 128.593" stroke="black" stroke-width="0.15" stroke-miterlimit="10"/>
<path d="M205.627 132.105L198.874 128.52" stroke="black" stroke-width="0.15" stroke-miterlimit="10"/>
<path d="M205.277 133.096L198.836 128.52" stroke="black" stroke-width="0.15" stroke-miterlimit="10"/>
<path d="M204.546 134.194L198.874 128.52" stroke="black" stroke-width="0.15" stroke-miterlimit="10"/>
<path d="M203.948 135.145L198.874 128.48" stroke="black" stroke-width="0.15" stroke-miterlimit="10"/>
<path d="M202.899 135.77L198.874 128.48" stroke="black" stroke-width="0.15" stroke-miterlimit="10"/>
<path d="M202.161 136.243L198.874 128.407" stroke="black" stroke-width="0.15" stroke-miterlimit="10"/>
<path d="M201.29 136.828L198.874 128.407" stroke="black" stroke-width="0.15" stroke-miterlimit="10"/>
<path d="M194.5 124.017L198.875 128.334" stroke="black" stroke-width="0.15" stroke-miterlimit="10"/>
<path d="M194.01 125.294L198.874 128.334" stroke="black" stroke-width="0.15" stroke-miterlimit="10"/>
<path d="M193.832 126.691L198.944 128.334" stroke="black" stroke-width="0.15" stroke-miterlimit="10"/>
<path d="M193.45 127.862L198.874 128.301" stroke="black" stroke-width="0.15" stroke-miterlimit="10"/>
<path d="M193.343 129.032L198.913 128.301" stroke="black" stroke-width="0.15" stroke-miterlimit="10"/>
<path d="M193.311 130.389L198.982 128.334" stroke="black" stroke-width="0.15" stroke-miterlimit="10"/>
<path d="M193.521 131.56L199.014 128.334" stroke="black" stroke-width="0.15" stroke-miterlimit="10"/>
<path d="M193.73 132.837L199.014 128.407" stroke="black" stroke-width="0.15" stroke-miterlimit="10"/>
<path d="M194.461 133.642L199.052 128.447" stroke="black" stroke-width="0.15" stroke-miterlimit="10"/>
<path d="M195.339 135.365L199.052 128.447" stroke="black" stroke-width="0.15" stroke-miterlimit="10"/>
<path d="M196.318 136.356L199.052 128.447" stroke="black" stroke-width="0.15" stroke-miterlimit="10"/>
<path d="M197.615 137.014L199.084 128.447" stroke="black" stroke-width="0.15" stroke-miterlimit="10"/>
<path d="M198.664 137.34L199.084 128.447" stroke="black" stroke-width="0.15" stroke-miterlimit="10"/>
<path d="M200.203 137.56L199.122 128.407" stroke="black" stroke-width="0.15" stroke-miterlimit="10"/>
<path d="M2.26996 93.1997L2.48615 93.1465V91.7031H2.20638L2.15551 91.9691H2.01562V91.4902H3.18559V91.9691H3.0457L2.99483 91.7031H2.71506V93.1465L2.93125 93.1997V93.3593H2.26996V93.1997Z" fill="#282632"/>
<path d="M3.29395 93.2005L3.47834 93.1473V91.7039L3.29395 91.6507V91.5044L3.90436 91.4911V91.6507L3.70089 91.7039V92.2893H4.4194V91.7039L4.21593 91.6507V91.5044L4.82634 91.4911V91.6507L4.64194 91.7039V93.1473L4.82634 93.2005V93.3602H4.22228V93.2005L4.42576 93.1473V92.5021H3.70089V93.1473L3.90436 93.2005V93.3602H3.29395V93.2005Z" fill="#282632"/>
<path d="M5.9322 92.276V92.4888H5.43624V93.1473H5.9322L5.97671 92.8812H6.1166V93.3602H5.0293V93.2005L5.21369 93.1473V91.7039L5.0293 91.6507V91.5044L5.43624 91.4911H6.09116V91.9434H5.95128L5.90041 91.7039H5.43624V92.276H5.9322Z" fill="#282632"/>
<path d="M7.00666 91.7039L6.82227 91.6507V91.5044L7.22285 91.4911H7.47083C7.73789 91.4911 7.935 91.6374 7.935 91.9567C7.935 92.1961 7.83326 92.3358 7.65523 92.389C7.88413 92.4555 7.98587 92.6085 7.98587 92.828C7.98587 93.2005 7.79511 93.3602 7.43904 93.3602H6.82862V93.2005L7.01302 93.1473V91.7039H7.00666ZM7.38181 92.2893C7.57257 92.2893 7.70609 92.1961 7.70609 91.9833C7.70609 91.7971 7.598 91.7039 7.45811 91.7039H7.22285V92.2893H7.38181ZM7.45176 93.1473C7.65523 93.1473 7.76332 93.0409 7.76332 92.8413C7.76332 92.5753 7.62343 92.4955 7.38817 92.4955H7.22921V93.154H7.45176V93.1473Z" fill="#282632"/>
<path d="M8.36165 91.7039L8.17726 91.6507V91.5044L8.5842 91.4911H8.81946C9.12467 91.4911 9.30271 91.6707 9.30271 91.97C9.30271 92.2294 9.20733 92.409 9.02294 92.4888C9.05473 92.5287 9.09288 92.5952 9.15011 92.7283L9.32178 93.154L9.47439 93.1939V93.3535H9.15011L8.96571 92.8613C8.86397 92.5952 8.81946 92.542 8.67322 92.542H8.57784V93.1407L8.76224 93.1939V93.3535H8.1709V93.1939L8.35529 93.1407V91.7039H8.36165ZM8.74952 92.3425C8.95935 92.3425 9.08016 92.2161 9.08016 92.0099C9.08016 91.8303 8.96571 91.7039 8.81311 91.7039H8.5842V92.3491H8.74952V92.3425Z" fill="#282632"/>
<path d="M9.59473 93.2005L9.77912 93.1473V91.7039L9.59473 91.6507V91.5044L10.1861 91.4911V91.6507L10.0017 91.7039V93.1473L10.1861 93.2005V93.3602H9.59473V93.2005Z" fill="#282632"/>
<path d="M10.6439 93.094C10.6439 93.094 10.7393 93.1605 10.8792 93.1605C11.0381 93.1605 11.2098 93.0674 11.2098 92.8745C11.2098 92.4621 10.4341 92.6351 10.4341 91.9965C10.4341 91.6241 10.6757 91.4644 10.9428 91.4644C11.1462 91.4644 11.3942 91.5708 11.3942 91.5708L11.3815 92.0231H11.2416L11.1717 91.7371C11.1717 91.7371 11.0636 91.6906 10.9428 91.6906C10.752 91.6906 10.6566 91.817 10.6566 91.95C10.6566 92.3557 11.4324 92.2027 11.4324 92.8014C11.4324 93.2005 11.1717 93.3867 10.8728 93.3867C10.6439 93.3867 10.4277 93.2803 10.4277 93.2803V92.8147H10.5994L10.6439 93.094Z" fill="#282632"/>
<path d="M11.8461 93.2005L12.0623 93.1473V91.7039H11.7826L11.7317 91.97H11.5918V91.4911H12.7618V91.97H12.6219L12.571 91.7039H12.2912V93.1473L12.5074 93.2005V93.3602H11.8525V93.2005H11.8461Z" fill="#282632"/>
<path d="M14.205 92.3959C14.205 92.9879 13.9125 93.387 13.4928 93.387C13.0732 93.387 12.8379 93.0544 12.8379 92.4358C12.8379 91.8505 13.1049 91.4581 13.5373 91.4581C13.957 91.4647 14.205 91.8239 14.205 92.3959ZM13.0859 92.4225C13.0859 92.9015 13.2258 93.1609 13.5055 93.1609C13.7853 93.1609 13.957 92.9214 13.957 92.4092C13.957 91.9303 13.8044 91.6842 13.5246 91.6842C13.2448 91.6909 13.0859 91.917 13.0859 92.4225Z" fill="#282632"/>
<path d="M15.3052 92.8413H15.4578V93.3602H14.415V93.2005L14.5994 93.1473V91.7039L14.415 91.6507V91.5044L15.0064 91.4911V91.6507L14.822 91.7039V93.1473H15.2607L15.3052 92.8413Z" fill="#282632"/>
<path d="M249.749 82.3854L248.77 83.1769L249.259 83.5228L250.429 83.4829L250.575 83.2035L250.245 82.4652L249.749 82.3854Z" fill="#B73918"/>
<path d="M249.259 83.5228L249.068 83.8687L249.583 84.2944L250.658 84.3875L250.772 84.1015L250.639 83.7756L250.429 83.4829L249.259 83.5228Z" fill="#B73918"/>
<path d="M250.658 84.3875L249.704 84.2013L249.501 84.8864L249.965 85.1525L250.798 84.9396L250.658 84.3875Z" fill="#B73918"/>
</g>
<defs>
<radialGradient id="paint0_radial" cx="0" cy="0" r="1" gradientUnits="userSpaceOnUse" gradientTransform="translate(236.181 71.6188) rotate(13.7457) scale(0.82161 1.1262)">
<stop offset="0.5325" stop-color="white"/>
<stop offset="0.9997" stop-color="#BFBFBF"/>
</radialGradient>
<radialGradient id="paint1_radial" cx="0" cy="0" r="1" gradientUnits="userSpaceOnUse" gradientTransform="translate(232.708 71.6455) rotate(179.705) scale(1.87082 1.62776)">
<stop offset="0.5325" stop-color="white"/>
<stop offset="0.9956" stop-color="#BFBFBF"/>
</radialGradient>
<linearGradient id="paint2_linear" x1="232.457" y1="71.4742" x2="231.718" y2="72.2683" gradientUnits="userSpaceOnUse">
<stop stop-color="white"/>
<stop offset="1"/>
</linearGradient>
<linearGradient id="paint3_linear" x1="236.465" y1="71.2999" x2="235.789" y2="72.069" gradientUnits="userSpaceOnUse">
<stop stop-color="white"/>
<stop offset="1"/>
</linearGradient>
<clipPath id="clip0">
<rect width="359" height="152" fill="white"/>
</clipPath>
</defs>
</svg>
