<svg width="235" height="236" viewBox="0 0 235 236" fill="none" xmlns="http://www.w3.org/2000/svg">
<g filter="url(#filter0_d)">
<path d="M88.4143 82.8005L148.219 142.605L150.817 140.007L91.0121 80.2028L88.4143 82.8005Z" fill="#32B7E0"/>
<path d="M135.178 52.5761L129.431 58.323L172.153 101.045L177.9 95.2976C184.985 88.2124 184.985 76.7447 177.9 69.6595L160.816 52.5761C153.731 45.4908 142.263 45.5171 135.178 52.5761Z" fill="#82B3D1"/>
<path d="M129.441 58.3398L63.9775 123.804L106.711 166.537L172.175 101.073L129.441 58.3398Z" fill="#AADCF7"/>
<path d="M63.9582 123.796L54.7998 150.537L79.9394 175.703L106.68 166.544L63.9582 123.796Z" fill="#82B3D1"/>
<path d="M48.0817 182.419L33.2026 197.298L48.0817 182.419Z" fill="#AADCF7"/>
<path d="M33.2026 198.479C32.914 198.479 32.5991 198.375 32.3629 198.138C31.9168 197.692 31.9168 196.931 32.3629 196.485L47.242 181.606C47.6881 181.16 48.4491 181.16 48.8952 181.606C49.3413 182.052 49.3413 182.813 48.8952 183.259L34.0161 198.138C33.8062 198.348 33.4913 198.479 33.2026 198.479Z" fill="#AADCF7"/>
<path d="M54.6366 150.351L47.4741 157.513L72.8024 182.841L79.9648 175.679L54.6366 150.351Z" fill="#32B7E0"/>
<path d="M32.6777 162.109L68.3927 197.798L72.8013 182.84L47.6618 157.674L47.6355 157.701L32.6777 162.109Z" fill="#82B3D1"/>
<path d="M32.6882 162.119L27.7896 167.018L63.4904 202.719L68.389 197.82L32.6882 162.119Z" fill="#259BC9"/>
<path d="M29.7652 193.862C27.8758 195.751 27.8758 198.822 29.7652 200.711C31.6546 202.6 34.7249 202.6 36.6143 200.711C38.5037 198.822 38.5037 195.751 36.6143 193.862C34.7249 191.972 31.6546 191.972 29.7652 193.862Z" fill="#BE1E2D"/>
<path d="M123.054 57.0892C122.346 57.7977 121.979 58.7424 121.979 59.6608C121.979 60.6055 122.346 61.524 123.054 62.2325L168.269 107.447C169.686 108.864 171.995 108.864 173.412 107.447C174.121 106.739 174.488 105.794 174.488 104.875C174.488 103.957 174.121 103.012 173.412 102.304L128.198 57.0892C126.755 55.6721 124.471 55.6721 123.054 57.0892Z" fill="#BE1E2D"/>
<path d="M99.2007 102.409C98.912 102.409 98.5971 102.304 98.3609 102.068C97.9148 101.621 97.9148 100.86 98.3609 100.414L124.366 74.4088C124.813 73.9627 125.574 73.9627 126.02 74.4088C126.466 74.8549 126.466 75.6159 126.02 76.062L100.014 102.068C99.8042 102.278 99.4893 102.409 99.2007 102.409Z" fill="#82B3D1"/>
<path d="M161.026 89.9179C178.844 70.5253 169.45 61.2095 169.45 61.2095L177.9 69.6593C184.985 76.7446 184.985 88.2122 177.9 95.2975L172.153 101.044L173.412 102.304C174.121 103.013 174.488 103.957 174.488 104.876C174.488 105.794 174.121 106.739 173.412 107.447C171.995 108.864 169.686 108.864 168.269 107.447L167.009 106.188L106.679 166.544L79.9392 175.702L80.1228 175.886L72.9589 183.05L72.7752 182.866L68.3403 197.824L63.4331 202.731L55.8755 195.173L60.7827 190.266L65.375 175.492L72.6177 168.249L95.553 155.496C95.553 155.496 137.277 113.772 158.454 92.5946C159.399 91.6499 160.239 90.7839 161.026 89.9179Z" fill="#BDD9E5"/>
<path d="M62.2123 104.763L64.3276 106.878L111.013 60.1922L108.898 58.0769L62.2123 104.763Z" fill="#259BC9"/>
<path d="M52.5331 95.0888L54.6484 97.2041L101.334 50.5184L99.2188 48.4031L52.5331 95.0888Z" fill="#259BC9"/>
<path d="M42.8544 85.4154L44.9697 87.5308L91.6554 40.8451L89.5401 38.7297L42.8544 85.4154Z" fill="#259BC9"/>
<path d="M33.1571 75.724L35.2725 77.8394L81.9582 31.1537L79.8428 29.0383L33.1571 75.724Z" fill="#259BC9"/>
<path d="M23.4774 66.0507L25.5928 68.166L72.2785 21.4803L70.1631 19.365L23.4774 66.0507Z" fill="#259BC9"/>
<path d="M13.817 56.3588L15.9326 58.4741L62.6183 11.7818L60.5027 9.66648L13.817 56.3588Z" fill="#259BC9"/>
<path d="M4.13858 46.6859L6.25391 48.8013L52.9396 2.11556L50.8243 0.000233864L4.13858 46.6859Z" fill="#259BC9"/>
<path d="M108.886 62.3189L111.001 60.2036L50.8254 0.0280363L48.7101 2.14337L108.886 62.3189Z" fill="#259BC9"/>
<path d="M99.9442 71.2525L102.06 69.1372L41.884 8.96163L39.7687 11.077L99.9442 71.2525Z" fill="#259BC9"/>
<path d="M91.0019 80.1856L93.1172 78.0703L32.9416 17.8947L30.8263 20.0101L91.0019 80.1856Z" fill="#259BC9"/>
<path d="M82.0595 89.1554L84.1748 87.04L23.9992 26.8645L21.8839 28.9798L82.0595 89.1554Z" fill="#259BC9"/>
<path d="M73.1181 98.0885L75.2334 95.9731L15.0578 35.7976L12.9425 37.9129L73.1181 98.0885Z" fill="#259BC9"/>
<path d="M64.1757 107.022L66.291 104.907L6.11544 44.7312L4.00012 46.8465L64.1757 107.022Z" fill="#259BC9"/>
<path d="M182.184 224.755L184.3 226.871L230.986 180.185L228.87 178.07L182.184 224.755Z" fill="#259BC9"/>
<path d="M172.524 215.063L174.64 217.179L221.325 170.493L219.21 168.378L172.524 215.063Z" fill="#259BC9"/>
<path d="M162.845 205.39L164.96 207.505L211.646 160.82L209.531 158.704L162.845 205.39Z" fill="#259BC9"/>
<path d="M153.166 195.717L155.282 197.832L201.967 151.146L199.852 149.031L153.166 195.717Z" fill="#259BC9"/>
<path d="M143.487 186.044L145.603 188.159L192.288 141.473L190.173 139.358L143.487 186.044Z" fill="#259BC9"/>
<path d="M133.808 176.371L135.923 178.486L182.609 131.801L180.494 129.685L133.808 176.371Z" fill="#259BC9"/>
<path d="M124.111 166.679L126.226 168.794L172.912 122.109L170.796 119.993L124.111 166.679Z" fill="#259BC9"/>
<path d="M228.879 182.292L230.994 180.176L170.819 120.001L168.703 122.116L228.879 182.292Z" fill="#259BC9"/>
<path d="M219.937 191.262L222.052 189.147L161.877 128.971L159.761 131.087L219.937 191.262Z" fill="#259BC9"/>
<path d="M210.995 200.194L213.11 198.079L152.935 137.904L150.819 140.019L210.995 200.194Z" fill="#259BC9"/>
<path d="M202.053 209.128L204.168 207.013L143.992 146.837L141.877 148.952L202.053 209.128Z" fill="#259BC9"/>
<path d="M193.094 218.061L195.209 215.946L135.034 155.762L132.918 157.877L193.094 218.061Z" fill="#259BC9"/>
<path d="M184.15 227.012L186.266 224.897L126.09 164.721L123.975 166.837L184.15 227.012Z" fill="#259BC9"/>
<path d="M197.056 35.781C197.056 37.1456 195.954 38.274 194.563 38.274C193.199 38.274 192.07 37.1719 192.07 35.781C192.07 34.4165 193.172 33.2881 194.563 33.2881C195.954 33.2881 197.056 34.4165 197.056 35.781Z" fill="#32B7E0"/>
<path d="M22.0235 97.1873C22.0235 98.5519 20.9214 99.6802 19.5306 99.6802C18.166 99.6802 17.0376 98.5781 17.0376 97.1873C17.0376 95.8227 18.1398 94.6943 19.5306 94.6943C20.9214 94.7206 22.0235 95.8227 22.0235 97.1873Z" fill="#32B7E0"/>
<path d="M13.0753 149.041C13.0753 150.405 11.9731 151.534 10.5823 151.534C9.21775 151.534 8.08936 150.432 8.08936 149.041C8.08936 147.676 9.19151 146.548 10.5823 146.548C11.9731 146.548 13.0753 147.676 13.0753 149.041Z" fill="#AADCF7"/>
<path d="M195.377 120.017C195.377 121.381 194.274 122.51 192.884 122.51C191.519 122.51 190.391 121.408 190.391 120.017C190.391 118.652 191.493 117.524 192.884 117.524C194.248 117.524 195.377 118.626 195.377 120.017Z" fill="#AADCF7"/>
<path d="M115.418 27.6993C115.287 27.6993 115.182 27.6468 115.077 27.5681C114.893 27.3844 114.893 27.0958 115.077 26.9121L118.777 23.212C118.961 23.0283 119.249 23.0283 119.433 23.212C119.617 23.3957 119.617 23.6843 119.433 23.868L115.733 27.5681C115.654 27.6468 115.549 27.6993 115.418 27.6993Z" fill="#AADCF7"/>
<path d="M119.118 27.6993C118.987 27.6993 118.882 27.6468 118.777 27.5681L115.077 23.868C114.893 23.6843 114.893 23.3957 115.077 23.212C115.26 23.0283 115.549 23.0283 115.733 23.212L119.433 26.9121C119.617 27.0958 119.617 27.3844 119.433 27.5681C119.354 27.6468 119.223 27.6993 119.118 27.6993Z" fill="#AADCF7"/>
<path d="M106.811 209.816C106.68 209.816 106.575 209.764 106.47 209.685C106.286 209.502 106.286 209.213 106.47 209.029L110.17 205.329C110.354 205.145 110.642 205.145 110.826 205.329C111.01 205.513 111.01 205.802 110.826 205.985L107.126 209.685C107.047 209.764 106.942 209.816 106.811 209.816Z" fill="#AADCF7"/>
<path d="M110.511 209.816C110.38 209.816 110.275 209.764 110.17 209.685L106.47 205.985C106.286 205.802 106.286 205.513 106.47 205.329C106.653 205.145 106.942 205.145 107.126 205.329L110.826 209.029C111.01 209.213 111.01 209.502 110.826 209.685C110.747 209.764 110.616 209.816 110.511 209.816Z" fill="#AADCF7"/>
</g>
<defs>
<filter id="filter0_d" x="0" y="0" width="234.994" height="235.012" filterUnits="userSpaceOnUse" color-interpolation-filters="sRGB">
<feFlood flood-opacity="0" result="BackgroundImageFix"/>
<feColorMatrix in="SourceAlpha" type="matrix" values="0 0 0 0 0 0 0 0 0 0 0 0 0 0 0 0 0 0 127 0"/>
<feOffset dy="4"/>
<feGaussianBlur stdDeviation="2"/>
<feColorMatrix type="matrix" values="0 0 0 0 0 0 0 0 0 0 0 0 0 0 0 0 0 0 0.25 0"/>
<feBlend mode="normal" in2="BackgroundImageFix" result="effect1_dropShadow"/>
<feBlend mode="normal" in="SourceGraphic" in2="effect1_dropShadow" result="shape"/>
</filter>
</defs>
</svg>
